/* XPM */
static char * hide_active_xpm[] = {
"28 28 59 1",
" 	c #353C4A",
".	c #323846",
"+	c #2B313C",
"@	c #262B35",
"#	c #232932",
"$	c #323945",
"%	c #353B49",
"&	c #2B313B",
"*	c #232832",
"=	c #242932",
"-	c #494743",
";	c #696151",
">	c #242931",
",	c #2A303B",
"'	c #353C49",
")	c #282D38",
"!	c #232831",
"~	c #675F4F",
"{	c #D1B57F",
"]	c #EBCB8B",
"^	c #D2B67F",
"/	c #282E37",
"(	c #2B303B",
"_	c #8E8062",
":	c #908162",
"<	c #6E6553",
"[	c #6F6653",
"}	c #323946",
"|	c #282C33",
"1	c #D7BB82",
"2	c #D8BC83",
"3	c #282D34",
"4	c #2A313C",
"5	c #595349",
"6	c #5A564A",
"7	c #262B36",
"8	c #7A6F59",
"9	c #7C7159",
"0	c #7D725A",
"a	c #81745B",
"b	c #635B4D",
"c	c #645D4E",
"d	c #2D3035",
"e	c #E3C487",
"f	c #E3C588",
"g	c #2F3236",
"h	c #877A5E",
"i	c #887B5E",
"j	c #262A32",
"k	c #B49D72",
"l	c #B49F72",
"m	c #272B33",
"n	c #282D37",
"o	c #8F8061",
"p	c #E6C789",
"q	c #37383A",
"r	c #726855",
"s	c #938363",
"t	c #37393A",
"                            ",
"                            ",
"                            ",
"                            ",
"                            ",
"                            ",
"          .+@##@+$          ",
"        %&*=-;;-=>,'        ",
"       %)!~{]]]]^~!/'       ",
"       (!_]]]]]]]]:!,       ",
"      .*<]]]]]]]]]][>}      ",
"      +|1]]]]]]]]]]234      ",
"      @5]]]]]]]]]]]]67      ",
"      #8]]]]]]]]]]]]9=      ",
"      =0]]]]]]]]]]]]a=      ",
"      @b]]]]]]]]]]]]c7      ",
"      +de]]]]]]]]]]fg+      ",
"      $>h]]]]]]]]]]i>}      ",
"       ,jk]]]]]]]]lm+       ",
"       'nmop]]]]po|)        ",
"        ',>qrssrt>+         ",
"          }47##7+}          ",
"                            ",
"                            ",
"                            ",
"                            ",
"                            ",
"                            "};
