/* XPM */
static char * stick_active_xpm[] = {
"28 32 10 1",
" 	c #424956",
".	c #353C4A",
"+	c #383F4D",
"@	c #7F848D",
"#	c #B1B5BB",
"$	c #B0B5BB",
"%	c #7E838D",
"&	c #BEC2C8",
"*	c #B1B5BC",
"=	c #AFB4BA",
"                            ",
"............................",
"............................",
"............................",
"............................",
"............................",
"............................",
"............................",
"............................",
"............................",
"............................",
"............................",
"............................",
"...........+@#$%+...........",
"...........%&&&&%...........",
"...........#&&&&*...........",
"...........$&&&&=...........",
"...........%&&&&%...........",
"...........+%$$%+...........",
"............................",
"............................",
"............................",
"............................",
"............................",
"............................",
"............................",
"............................",
"............................",
"............................",
"............................",
"............................",
"............................"};
