/* XPM */
static char * iconbar_xpm[] = {
"10 19 86 1",
" 	c None",
".	c #4D6478",
"+	c #4E667A",
"@	c #4E657A",
"#	c #4E6579",
"$	c #4F677D",
"%	c #4F687C",
"&	c #50677D",
"*	c #50677C",
"=	c #4F687D",
"-	c #50687C",
";	c #516A80",
">	c #516980",
",	c #516A7F",
"'	c #506A7F",
")	c #536D82",
"!	c #526C83",
"~	c #536C82",
"{	c #536C83",
"]	c #526C82",
"^	c #546E86",
"/	c #546F86",
"(	c #546E85",
"_	c #557189",
":	c #567189",
"<	c #557088",
"[	c #557188",
"}	c #567188",
"|	c #567089",
"1	c #57728C",
"2	c #57738C",
"3	c #57738B",
"4	c #59768E",
"5	c #59758E",
"6	c #59758F",
"7	c #58758E",
"8	c #58758F",
"9	c #5A7892",
"0	c #5A7891",
"a	c #5B7792",
"b	c #5A7791",
"c	c #5A7792",
"d	c #5B7A94",
"e	c #5B7994",
"f	c #5C7994",
"g	c #5C7995",
"h	c #5B7995",
"i	c #5C7A94",
"j	c #5D7C98",
"k	c #5E7B97",
"l	c #5D7C97",
"m	c #5E7C98",
"n	c #5F7F9A",
"o	c #5E7E9A",
"p	c #5F7E9A",
"q	c #5F7E9B",
"r	c #5E7E9B",
"s	c #61819D",
"t	c #60809D",
"u	c #61819E",
"v	c #61809D",
"w	c #60819D",
"x	c #61809E",
"y	c #6283A0",
"z	c #6283A1",
"A	c #6282A0",
"B	c #6182A0",
"C	c #6182A1",
"D	c #6282A1",
"E	c #6384A4",
"F	c #6384A3",
"G	c #6385A3",
"H	c #6385A4",
"I	c #6484A3",
"J	c #6587A6",
"K	c #6487A6",
"L	c #6487A7",
"M	c #6789A9",
"N	c #6689A9",
"O	c #668AA9",
"P	c #678AA9",
"Q	c #678AAA",
"R	c #688CAC",
"S	c #688BAC",
"T	c #688CAD",
"U	c #678BAC",
"..........",
"+@+@#@###@",
"$%$%&*=-==",
";>;;;;;,;'",
")!~{!!]!!{",
"^/(/((((^(",
"_:<[:}::}|",
"1222332323",
"4556676686",
"90a00bcccb",
"deffffeghi",
"jkljmlllll",
"nopqprpoop",
"stsuvtwwvx",
"yyzABCyDAz",
"EFGGGGHFGI",
"JJJJKJJJJL",
"MMMNONPQNM",
"RRRSSTUSSR"};
