/* XPM */
static char * max_off_xpm[] = {
"22 22 25 1",
" 	c None",
".	c #99A6AD",
"+	c #7E8E96",
"@	c #63767F",
"#	c #647780",
"$	c #677A83",
"%	c #6A7C85",
"&	c #6E8089",
"*	c #FAFBFB",
"=	c #71838C",
"-	c #74868E",
";	c #768790",
">	c #778991",
",	c #7C8D95",
"'	c #7B8B94",
")	c #7F9098",
"!	c #83939B",
"~	c #86959D",
"{	c #8998A0",
"]	c #8C9BA3",
"^	c #92A0A7",
"/	c #909EA6",
"(	c #95A3AA",
"_	c #5C6F79",
":	c #26373F",
"......................",
"++++++++++++++++++++++",
"@@@@@@@@@@@@@@@@@@@@@@",
"######################",
"$$$$$$$$$$$$$$$$$$$$$$",
"%%%%%%%%%%%%%%%%%%%%%%",
"&&&&&&***********&&&&&",
"======***********=====",
"-;----*---------*-----",
">>>>>>*>>>>>>>>>*>>>>>",
",'''''*',','',,'*,,,,'",
"))))++*)++)))))+*)++++",
"!!!!!!*!!!!!!!!!*!!!!!",
"~~~~~~*~~~~~~~~~*~~~~~",
"{{{{{{*{{{{{{{{{*{{{{{",
"]]]]]]*]]]]]]]]]*]]]]]",
"^/^^^^***********^^^^/",
"((((((((((((((((((((((",
"......................",
"@@@@@@@@@@@@@@@@@@@@@@",
"______________________",
"::::::::::::::::::::::"};
