/* XPM */
static char * max_xpm[] = {
"22 22 82 1",
" 	c #8BADCB",
".	c #6B90B2",
"+	c #536D84",
"@	c #557087",
"#	c #567087",
"$	c #556F87",
"%	c #566F87",
"&	c #59748B",
"*	c #59748C",
"=	c #59738B",
"-	c #59738C",
";	c #5D7890",
">	c #5C7890",
",	c #5C7891",
"'	c #5C7790",
")	c #5D7790",
"!	c #607C95",
"~	c #617C95",
"{	c #FFFFFF",
"]	c #607C94",
"^	c #648099",
"/	c #638099",
"(	c #648199",
"_	c #68849D",
":	c #68859D",
"<	c #67859E",
"[	c #68849E",
"}	c #67849E",
"|	c #67859D",
"1	c #67849D",
"2	c #6B88A3",
"3	c #6A89A2",
"4	c #6B88A2",
"5	c #6A88A2",
"6	c #6B89A2",
"7	c #6A88A3",
"8	c #6B89A3",
"9	c #6E8DA7",
"0	c #6E8CA7",
"a	c #6F8DA7",
"b	c #6F8CA7",
"c	c #6F8CA6",
"d	c #7291AC",
"e	c #7291AB",
"f	c #7290AB",
"g	c #7290AC",
"h	c #7695B0",
"i	c #7595B0",
"j	c #7694B0",
"k	c #7594B0",
"l	c #7595AF",
"m	c #7695AF",
"n	c #7999B4",
"o	c #7A99B5",
"p	c #7999B5",
"q	c #7A99B4",
"r	c #7998B4",
"s	c #7A98B4",
"t	c #7D9DB9",
"u	c #7D9CB9",
"v	c #7C9CB9",
"w	c #7D9DB8",
"x	c #7C9DB9",
"y	c #7D9CB8",
"z	c #80A1BD",
"A	c #81A0BD",
"B	c #80A0BE",
"C	c #81A1BD",
"D	c #80A1BE",
"E	c #80A0BD",
"F	c #81A1BE",
"G	c #83A5C2",
"H	c #84A4C2",
"I	c #84A5C2",
"J	c #84A5C1",
"K	c #84A4C1",
"L	c #88A9C7",
"M	c #88A9C6",
"N	c #87A9C7",
"O	c #87A9C6",
"P	c #4D6478",
"Q	c #000000",
"                      ",
"......................",
"++++++++++++++++++++++",
"@@#$$@%@%@$@$#@#@@@@@@",
"&*&=&&&&&*&*-***&*****",
";;;>,;;;;;')>;;>,;>>>;",
"!!~!!!{{{{{{{{{{{!!!!]",
"^^/^(^{{{{{{{{{{{^(^/^",
"_:__<[{[}}}|}}}}{}1}}1",
"234524{646742422{82457",
"900000{0a0b00bc0{bb990",
"deeefg{egfddedeg{efgff",
"hihhhj{kilhikhjl{jjkkm",
"nopqon{rnnrpqsnr{npqnp",
"tuvwvx{ttywxuwvu{utttu",
"zzABzC{CDEEEDFED{zDzDz",
"GHIIIJ{{{{{{{{{{{IIIIK",
"LMMNLMOMOONNOLLLONNOMM",
"                      ",
"++++++++++++++++++++++",
"PPPPPPPPPPPPPPPPPPPPPP",
"QQQQQQQQQQQQQQQQQQQQQQ"};
