/* XPM */
static char * menu_off_xpm[] = {
"3 22 20 1",
" 	c None",
".	c #99A6AD",
"+	c #7E8E96",
"@	c #7C8D95",
"#	c #7B8B94",
"$	c #778991",
"%	c #768790",
"&	c #73848D",
"*	c #71838C",
"=	c #70828A",
"-	c #6D7F88",
";	c #6B7E87",
">	c #6A7C85",
",	c #687B84",
"'	c #677A83",
")	c #667882",
"!	c #647780",
"~	c #63767F",
"{	c #5C6F79",
"]	c #26373F",
"...",
"+++",
"@@@",
"###",
"$$$",
"$$$",
"%%%",
"&&&",
"&&&",
"***",
"===",
"---",
";;;",
";;;",
">>>",
",,,",
"'''",
")))",
"!!!",
"~~~",
"{{{",
"]]]"};
