/* XPM */
static char * close_pressed_xpm[] = {
"28 28 78 1",
" 	c #353C4A",
".	c #323846",
"+	c #2B313C",
"@	c #262B35",
"#	c #232932",
"$	c #323945",
"%	c #353B49",
"&	c #2B313B",
"*	c #232832",
"=	c #282A32",
"-	c #4E3841",
";	c #654049",
">	c #623F48",
",	c #49353E",
"'	c #252931",
")	c #242931",
"!	c #2A303B",
"~	c #353C49",
"{	c #282D38",
"]	c #242932",
"^	c #6B424B",
"/	c #B55E66",
"(	c #BF616A",
"_	c #AE5A63",
":	c #5A3C45",
"<	c #232831",
"[	c #282E37",
"}	c #2B303B",
"|	c #8D4F58",
"1	c #75464F",
"2	c #72454E",
"3	c #AB5962",
"4	c #9F535D",
"5	c #AB5862",
"6	c #573C44",
"7	c #323946",
"8	c #2F2D35",
"9	c #B95F68",
"0	c #8D4B56",
"a	c #291F2D",
"b	c #944E58",
"c	c #954E59",
"d	c #2A313C",
"e	c #5D3D46",
"f	c #814651",
"g	c #281F2D",
"h	c #904D57",
"i	c #7C444F",
"j	c #44343D",
"k	c #262B36",
"l	c #5C3C46",
"m	c #764750",
"n	c #271F2D",
"o	c #934E58",
"p	c #5F3E47",
"q	c #7B444F",
"r	c #46353E",
"s	c #322D36",
"t	c #BC6069",
"u	c #9B525B",
"v	c #AF5B64",
"w	c #784750",
"x	c #9E525C",
"y	c #874854",
"z	c #874853",
"A	c #5F3E46",
"B	c #262932",
"C	c #96535B",
"D	c #804A53",
"E	c #282D37",
"F	c #BA5F69",
"G	c #B45D66",
"H	c #644048",
"I	c #2E2C35",
"J	c #71444E",
"K	c #6E444C",
"L	c #533A43",
"M	c #292A34",
"                            ",
"                            ",
"                            ",
"                            ",
"                            ",
"                            ",
"          .+@##@+$          ",
"        %&*=-;>,')!~        ",
"       %{]^/((((_:<[~       ",
"       }'|((((((((1<!       ",
"      .*2(34((((45(6)7      ",
"      +89(0ab((ca0(3]d      ",
"      @e(((fghcai(((jk      ",
"      #1((((iaai((((l]      ",
"      ]m((((bnno((((e]      ",
"      @p(((caqfgh(((rk      ",
"      +st(uaq((iau(v'+      ",
"      $)w(xy((((zx(A)7      ",
"       !BC((((((((D<+       ",
"       ~EB1F((((GH<{        ",
"        ~!)I:JKLM)+         ",
"          7dk##k+7          ",
"                            ",
"                            ",
"                            ",
"                            ",
"                            ",
"                            "};
