/* XPM */
static char * icobb_xpm[] = {
"1 18 19 1",
" 	c None",
".	c #69677A",
"+	c #676579",
"@	c #656278",
"#	c #626076",
"$	c #605E74",
"%	c #5D5C72",
"&	c #5A5B71",
"*	c #585970",
"=	c #57586F",
"-	c #595A70",
";	c #5C5C71",
">	c #5E5D73",
",	c #616075",
"'	c #636276",
")	c #666478",
"!	c #69667A",
"~	c #6C687B",
"{	c #6E6A7D",
".",
"+",
"@",
"#",
"$",
"%",
"&",
"*",
"=",
"-",
";",
">",
",",
"'",
")",
"!",
"~",
"{"};
