/* XPM */
static char * iconfp_xpm[] = {
"17 18 62 1",
" 	c None",
".	c #69677A",
"+	c #6A677B",
"@	c #6A677A",
"#	c #676579",
"$	c #686579",
"%	c #656278",
"&	c #656277",
"*	c #626076",
"=	c #605E74",
"-	c #605F74",
";	c #5D5C72",
">	c #5D5D72",
",	c #5D5D73",
"'	c #5A5B71",
")	c #5B5A70",
"!	c #5B5B71",
"~	c #5B5A71",
"{	c #585970",
"]	c #58596F",
"^	c #58586F",
"/	c #C2B1B3",
"(	c #C2B2B3",
"_	c #C1B2B3",
":	c #C2B1B4",
"<	c #C1B1B3",
"[	c #D6C4C5",
"}	c #57586F",
"|	c #57586E",
"1	c #56586E",
"2	c #C2B2B4",
"3	c #646276",
"4	c #D6C3C5",
"5	c #56576F",
"6	c #595A70",
"7	c #595970",
"8	c #D5C4C5",
"9	c #D5C4C6",
"0	c #D6C3C6",
"a	c #D6C4C6",
"b	c #D5C3C6",
"c	c #5C5C71",
"d	c #5B5C72",
"e	c #5B5C71",
"f	c #5C5C72",
"g	c #5E5D73",
"h	c #5E5E73",
"i	c #616075",
"j	c #616074",
"k	c #615F75",
"l	c #636276",
"m	c #646277",
"n	c #666478",
"o	c #69667A",
"p	c #686679",
"q	c #68667A",
"r	c #696679",
"s	c #6C687B",
"t	c #6B687B",
"u	c #6E6A7D",
"v	c #6D6A7D",
"w	c #6D697D",
".+.+@@@.@.+.+.++@",
"####$#$#$#$#$####",
"%&&&&&&&&&&&&&&&&",
"*****************",
"=----------=-=---",
";>,>;>;;;;;;>;>,,",
"')!)!~!!!'!'~')!!",
"{]^]{//(_(:_(<[]{",
"}|1|}23333333345}",
"67676898408a8b877",
"ccdcecececccccc!f",
"gghgggggggggggggg",
"ijkjijijijijjijii",
"l3l3l3l3ll3l3l3ml",
"nnnnnnnnnnnnnnnnn",
"opqrqrpr$r$r$opqo",
"stststtttttttsttt",
"uvuvuvuvuuvuvuvwu"};
