/* XPM */
static char * select_xpm[] = {
"13 13 3 1",
" 	c None",
".	c #4A4959",
"+	c #EFD9DA",
"             ",
"             ",
"             ",
".......      ",
".+++++.      ",
".+...+.      ",
".+.+.+.      ",
".+...+.      ",
".+++++.      ",
".......      ",
"             ",
"             ",
"             "};
