/* XPM */
static char * icon_off_xpm[] = {
"22 22 30 1",
" 	c None",
".	c #656565",
"+	c #484848",
"@	c #3C3C3C",
"#	c #333333",
"$	c #303030",
"%	c #464646",
"&	c #424242",
"*	c #353535",
"=	c #323232",
"-	c #363636",
";	c #3D3D3D",
">	c #414141",
",	c #3A3A3A",
"'	c #3E3E3E",
")	c #404040",
"!	c #383838",
"~	c #4A4A4A",
"{	c #4F4F4F",
"]	c #505050",
"^	c #515151",
"/	c #545454",
"(	c #575757",
"_	c #F3F3F3",
":	c #535353",
"<	c #5E5E5E",
"[	c #616161",
"}	c #646464",
"|	c #2B2B2B",
"1	c #090909",
"......................",
"++++++++++++++++++++++",
"++++++@#$$$$$$$$$$$$$$",
"%%%%&*================",
"&&&&-#################",
"&&&;------------------",
">>>,,,,,,,,,,,,,,,,,,,",
"''';;;;;;;;;;;;;;;;;;;",
"'''))))>))))))>))))))>",
";;;&&&&&&&&&&&&&&&&&&&",
"@@@+%%%+%+%+%++%+%+%++",
"!!!++++~++++++~++++++~",
"!!!{{{{{{{{{{{{{{{{{{{",
"!!!]^^^^^^^^^^^^^^^^^^",
"---{//////////////////",
"***&((((___________(((",
"####:<<<___________<<<",
"====-/[[[[[[[[[[[[[[[[",
"======%(}}}}}}.}}}}}}.",
"$$$$$$$$$$$$$$$$$$$$$$",
"||||||||||||||||||||||",
"1111111111111111111111"};
