/* XPM */
static char * menu_off_xpm[] = {
"3 22 17 1",
" 	c None",
".	c #656565",
"+	c #484848",
"@	c #464646",
"#	c #424242",
"$	c #414141",
"%	c #3E3E3E",
"&	c #3D3D3D",
"*	c #3C3C3C",
"=	c #383838",
"-	c #363636",
";	c #353535",
">	c #333333",
",	c #323232",
"'	c #303030",
")	c #2B2B2B",
"!	c #090909",
"...",
"+++",
"+++",
"@@@",
"###",
"###",
"$$$",
"%%%",
"%%%",
"&&&",
"***",
"===",
"===",
"===",
"---",
";;;",
">>>",
",,,",
",,,",
"'''",
")))",
"!!!"};
