/* XPM */
static char * stuck_xpm[] = {
"22 22 58 1",
" 	c None",
".	c #5C6F79",
"+	c #374C57",
"@	c #354A55",
"#	c #293C45",
"$	c #223139",
"%	c #1E2C33",
"&	c #334853",
"*	c #304550",
"=	c #23333B",
"-	c #1F2D35",
";	c #202E36",
">	c #314651",
",	c #24353D",
"'	c #22323A",
")	c #2A3D46",
"!	c #2B3E47",
"~	c #2E434D",
"{	c #283B44",
"]	c #283A43",
"^	c #2C404A",
"/	c #2D424C",
"(	c #EFF1F2",
"_	c #2B3F48",
":	c #2D414B",
"<	c #2F444F",
"[	c #F6F7F8",
"}	c #F8F9F9",
"|	c #F3F5F6",
"1	c #324752",
"2	c #364B56",
"3	c #344954",
"4	c #EDEFF1",
"5	c #F1F3F4",
"6	c #FCFDFD",
"7	c #3B515B",
"8	c #273941",
"9	c #384D58",
"0	c #E8ECED",
"a	c #3E535D",
"b	c #394E59",
"c	c #3D525C",
"d	c #26373F",
"e	c #415660",
"f	c #3F545E",
"g	c #425762",
"h	c #485D67",
"i	c #475C66",
"j	c #465B65",
"k	c #24343C",
"l	c #4B5F69",
"m	c #435863",
"n	c #51656F",
"o	c #212F37",
"p	c #556973",
"q	c #586B75",
"r	c #19252B",
"s	c #000000",
"......................",
"++++++++++++++++++++++",
"@@@@@@#$%%%%%%$#@@@@@@",
"&&&&*=-;;;;;;;-;=*&&&&",
">>>>,''$'''''''$',>>>>",
"***),,,,,,,,,,,,,,!***",
"~~~{]]]]]]{]]{{]]]{~~~",
"^^^)))))))/(_)))!!)^^^",
"___://:~:<[}|>////:___",
")))>>>>>1|[1[[2>>>>)))",
"###2333@4}+3256723@###",
"88899990}ab9ba|6cbb888",
"dddaaaa|6|[}[|54eaaddd",
"dddfggghijgeggggggfddd",
"kkkcii66666666666iakkk",
"===*ll66666666666l*===",
"$$$$mnnnnnnnnnnnnm$$$$",
"oooo,ippppppppppi,oooo",
"------3lqq.qq.l3------",
"%%%%%%%%%%%%%%%%%%%%%%",
"rrrrrrrrrrrrrrrrrrrrrr",
"ssssssssssssssssssssss"};
