/* XPM */
static char * stuck_off_xpm[] = {
"22 22 38 1",
" 	c None",
".	c #656565",
"+	c #484848",
"@	c #3C3C3C",
"#	c #333333",
"$	c #303030",
"%	c #464646",
"&	c #424242",
"*	c #353535",
"=	c #323232",
"-	c #363636",
";	c #3D3D3D",
">	c #414141",
",	c #3A3A3A",
"'	c #3E3E3E",
")	c #404040",
"!	c #E7E7E7",
"~	c #EFEFEF",
"{	c #EBEBEB",
"]	c #454545",
"^	c #E3E3E3",
"/	c #F3F3F3",
"(	c #4B4B4B",
"_	c #383838",
":	c #E0E0E0",
"<	c #4F4F4F",
"[	c #4A4A4A",
"}	c #515151",
"|	c #505050",
"1	c #555555",
"2	c #545454",
"3	c #575757",
"4	c #535353",
"5	c #5E5E5E",
"6	c #616161",
"7	c #646464",
"8	c #2B2B2B",
"9	c #090909",
"......................",
"++++++++++++++++++++++",
"++++++@#$$$$$$#@++++++",
"%%%%&*==========*&%%%%",
"&&&&-############-&&&&",
"&&&;--------------;&&&",
">>>,,,,,,,,,,,,,,,,>>>",
"''';;;;;;;)!';;;;;;'''",
"'''))))>)>~~{&)))))'''",
";;;&&&&&]{~]~~+&&&&;;;",
"@@@+%%%+^~+%+!/(+%+@@@",
"___++++:~<[+[<{/<[[___",
"___<<<<{/{~~~{!^}<<___",
"___|}}}122}}}}}}}}|___",
"---<22///////////2<---",
"***&33///////////3&***",
"####45555555555554####",
"====-266666666662-====",
"======%377.77.3%======",
"$$$$$$$$$$$$$$$$$$$$$$",
"8888888888888888888888",
"9999999999999999999999"};
