/* XPM */
static char * close_xpm[] = {
"22 22 43 1",
" 	c None",
".	c #8B8E9E",
"+	c #878A9A",
"@	c #838596",
"#	c #7E8292",
"$	c #7A7E8D",
"%	c #767A8A",
"&	c #F7F8FC",
"*	c #646775",
"=	c #727585",
"-	c #6E7281",
";	c #4C4F5A",
">	c #4D505A",
",	c #6A6D7E",
"'	c #5A5C6B",
")	c #4A4C58",
"!	c #666A79",
"~	c #565A66",
"{	c #474A54",
"]	c #626575",
"^	c #535563",
"/	c #444652",
"(	c #2D2F3B",
"_	c #2F303C",
":	c #20212A",
"<	c #31333E",
"[	c #22232B",
"}	c #292B34",
"|	c #323540",
"1	c #23252C",
"2	c #2A2D36",
"3	c #343641",
"4	c #24252D",
"5	c #2C2D37",
"6	c #363843",
"7	c #2D2F39",
"8	c #25272F",
"9	c #383A45",
"0	c #2F313A",
"a	c #393C47",
"b	c #3B3E49",
"c	c #3C3F4B",
"d	c #3F414D",
"......................",
"++++++++++++++++++++++",
"@@@@@@@@@@@@@@@@@@@@@@",
"######################",
"$$$$$$$$$$$$$$$$$$$$$$",
"%%%%%%%&%%%%%%%&*%%%%%",
"======&&&=====&&&=====",
"------;&&&---&&&>-----",
",,,,,,')&&&,&&&)',,,,,",
"!!!!!!!~{&&&&&{~!!!!!!",
"]]]]]]]]^/&&&/^]]]]]]]",
"(((((((((&&&&&((((((((",
"________&&&:&&&_______",
"<<<<<<<&&&[}[&&&<<<<<<",
"||||||&&&12|21&&&|||||",
"3333334&4533354&433333",
"6666667876666678766666",
"9999999099999990999999",
"aaaaaaaaaaaaaaaaaaaaaa",
"bbbbbbbbbbbbbbbbbbbbbb",
"cccccccccccccccccccccc",
"dddddddddddddddddddddd"};
