/* XPM */
static char * max_unfocus_xpm[] = {
"22 22 27 1",
" 	c #FCFCFD",
".	c #F8F8FA",
"+	c #F4F5F7",
"@	c #F0F1F4",
"#	c #ECEDF1",
"$	c #E8E9EF",
"%	c #000000",
"&	c #E4E5EC",
"*	c #E0E2E9",
"=	c #9D9FA4",
"-	c #DCDDE6",
";	c #BBBCC4",
">	c #D8DAE2",
",	c #D4D6E0",
"'	c #ABADBA",
")	c #ADAEBC",
"!	c #AEB1BE",
"~	c #B1B2C0",
"{	c #B2B5C1",
"]	c #B4B6C3",
"^	c #7E8089",
"/	c #B6B8C5",
"(	c #9B9DA8",
"_	c #B8BAC6",
":	c #BABBC7",
"<	c #BBBEC9",
"[	c #BDBFCB",
"                      ",
"......................",
"++++++++++++++++++++++",
"@@@@@@@@@@@@@@@@@@@@@@",
"######################",
"$$$$$$%%%%%%%%%%%$$$$$",
"&&&&&&%%%%%%%%%%%&&&&&",
"******%%=======%%*****",
"------%%;;;;;;;%%-----",
">>>>>>%%>>>>>>>%%>>>>>",
",,,,,,%%,,,,,,,%%,,,,,",
"''''''%%'''''''%%'''''",
"))))))%%)))))))%%)))))",
"!!!!!!%%!!!!!!!%%!!!!!",
"~~~~~~%%%%%%%%%%%~~~~~",
"{{{{{{%%%%%%%%%%%{{{{{",
"]]]]]]^^^^^^^^^^^]]]]]",
"//////(((((((((((/////",
"______________________",
"::::::::::::::::::::::",
"<<<<<<<<<<<<<<<<<<<<<<",
"[[[[[[[[[[[[[[[[[[[[[["};
