/* XPM */
static char * stuck_xpm[] = {
"22 22 32 1",
" 	c None",
".	c #8B8E9E",
"+	c #878A9A",
"@	c #838596",
"#	c #7E8292",
"$	c #7A7E8D",
"%	c #767A8A",
"&	c #F7F8FC",
"*	c #727585",
"=	c #6E7281",
"-	c #4D505A",
";	c #6A6D7E",
">	c #5A5C6B",
",	c #4A4C58",
"'	c #666A79",
")	c #474A54",
"!	c #626575",
"~	c #2D2F3B",
"{	c #2F303C",
"]	c #31333E",
"^	c #22232B",
"/	c #323540",
"(	c #2A2D36",
"_	c #343641",
":	c #363843",
"<	c #25272F",
"[	c #383A45",
"}	c #2F313A",
"|	c #393C47",
"1	c #3B3E49",
"2	c #3C3F4B",
"3	c #3F414D",
"......................",
"++++++++++++++++++++++",
"@@@@@@@@@@@@@@@@@@@@@@",
"######################",
"$$$$$$$$$$$$$$$$$$$$$$",
"%%%%%%&&&&&&&&%%%%%%%%",
"******&&&&&&&&********",
"======&&----&&========",
";;;;;;&&>>>>&&,&&;;;;;",
"''''''&&''''&&)&&'''''",
"!!!!!!&&!!!!&&!&&!!!!!",
"~~~~~~&&&&&&&&~&&~~~~~",
"{{{{{{&&&&&&&&{&&{{{{{",
"]]]]]]^^^^^]]]]&&]]]]]",
"//////(((&&&&&&&&/////",
"_________&&&&&&&&_____",
":::::::::<<<<<<<<:::::",
"[[[[[[[[[}}}}}}}}[[[[[",
"||||||||||||||||||||||",
"1111111111111111111111",
"2222222222222222222222",
"3333333333333333333333"};
