/* XPM */
static char * bar2_xpm[] = {
"16 16 21 1",
" 	c None",
".	c #3D6B7A",
"+	c #7C9FAA",
"@	c #7599A5",
"#	c #69909D",
"$	c #618997",
"%	c #56808E",
"&	c #316070",
"*	c #173A45",
"=	c #0F262E",
"-	c #0F272F",
";	c #0A1A20",
">	c #071215",
",	c #050C0F",
"'	c #09181D",
")	c #0A1A1F",
"!	c #14323C",
"~	c #13313A",
"{	c #356473",
"]	c #03090B",
"^	c #040A0C",
"................",
"++++++++++++++++",
"@@@@@@@@@@@@@@@@",
"################",
"$$$$$$$$$$$$$$$$",
"%%%%%%%%%%%%%%%%",
"&&&&&&&&&&&&&&&&",
"****************",
"=--==--==--==--=",
";;;;;;;;;;;;;;;;",
">>>>>>>>>>>>>>>>",
",,,,,,,,,,,,,,,,",
"')''')''')''')''",
"!~!!!~!!!~!!!~!!",
"{{{{{{{{{{{{{{{{",
"]]^]]]^]]]^]]]^]"};
