/* XPM */
static char * stuck_xpm[] = {
"23 22 167 2",
"  	c None",
". 	c #3887A6",
"+ 	c #3685A4",
"@ 	c #3984AB",
"# 	c #3783A7",
"$ 	c #3581A3",
"% 	c #3480A0",
"& 	c #3782A1",
"* 	c #3883A0",
"= 	c #38849E",
"- 	c #37839B",
"; 	c #4283A3",
"> 	c #3F80A0",
", 	c #3B7D9F",
"' 	c #3A7EA1",
") 	c #3982A3",
"! 	c #3983A6",
"~ 	c #3581A5",
"{ 	c #3782A2",
"] 	c #2D6983",
"^ 	c #2D6A86",
"/ 	c #2E6C85",
"( 	c #2D6B84",
"_ 	c #2A6B81",
": 	c #296A80",
"< 	c #2E6681",
"[ 	c #2E6782",
"} 	c #2F6883",
"| 	c #2E6A84",
"1 	c #2C6A83",
"2 	c #2B6982",
"3 	c #204B5C",
"4 	c #214555",
"5 	c #20465B",
"6 	c #184356",
"7 	c #1B4251",
"8 	c #213E4C",
"9 	c #182E39",
"0 	c #0A1B23",
"a 	c #000B11",
"b 	c #000207",
"c 	c #000205",
"d 	c #00080E",
"e 	c #001119",
"f 	c #071D28",
"g 	c #122C39",
"h 	c #1E3B4B",
"i 	c #1B3D46",
"j 	c #1A3842",
"k 	c #11292D",
"l 	c #051314",
"m 	c #000301",
"n 	c #20627E",
"o 	c #349CC9",
"p 	c #38ACDD",
"q 	c #339CC9",
"r 	c #20627F",
"s 	c #000307",
"t 	c #001018",
"u 	c #102631",
"v 	c #173742",
"w 	c #14353E",
"x 	c #021B1F",
"y 	c #000504",
"z 	c #062535",
"A 	c #082B3F",
"B 	c #062436",
"C 	c #000309",
"D 	c #00181D",
"E 	c #18333C",
"F 	c #1C2D37",
"G 	c #131A24",
"H 	c #04030B",
"I 	c #072435",
"J 	c #062435",
"K 	c #000404",
"L 	c #0D1917",
"M 	c #011219",
"N 	c #191523",
"O 	c #1B1A28",
"P 	c #0D111D",
"Q 	c #000511",
"R 	c #041929",
"S 	c #07273A",
"T 	c #072A3E",
"U 	c #072739",
"V 	c #041926",
"W 	c #00060B",
"X 	c #0D181C",
"Y 	c #152324",
"Z 	c #071015",
"` 	c #092624",
" .	c #1E373C",
"..	c #223A46",
"+.	c #132839",
"@.	c #01162B",
"#.	c #000A22",
"$.	c #010200",
"%.	c #000200",
"&.	c #000600",
"*.	c #081211",
"=.	c #15262D",
"-.	c #1D3541",
";.	c #133042",
">.	c #080D10",
",.	c #000B0D",
"'.	c #001B1F",
").	c #133C42",
"!.	c #2C6169",
"~.	c #44808A",
"{.	c #52959E",
"].	c #41ADED",
"^.	c #43A7E3",
"/.	c #4299CE",
"(.	c #387FA9",
"_.	c #2B607F",
":.	c #1B3E52",
"<.	c #0A1D2B",
"[.	c #090E11",
"}.	c #011617",
"|.	c #00151A",
"1.	c #01151E",
"2.	c #001321",
"3.	c #000E1E",
"4.	c #000D1F",
"5.	c #001722",
"6.	c #001520",
"7.	c #00141C",
"8.	c #001319",
"9.	c #001216",
"0.	c #000F12",
"a.	c #070F12",
"b.	c #071214",
"c.	c #0E0C19",
"d.	c #080B14",
"e.	c #060F16",
"f.	c #031016",
"g.	c #011317",
"h.	c #071A1E",
"i.	c #0F0F0F",
"j.	c #0A0E0D",
"k.	c #050E0B",
"l.	c #05110D",
"m.	c #091410",
"n.	c #0E1412",
"o.	c #101211",
"p.	c #0F0D0E",
"q.	c #021013",
"r.	c #030C15",
"s.	c #050C14",
"t.	c #0C1115",
"u.	c #0A0E11",
"v.	c #080A09",
"w.	c #0B090E",
"x.	c #0F1014",
"y.	c #0A1415",
"z.	c #011110",
"A.	c #000D0D",
"B.	c #000D0E",
"C.	c #060D13",
"D.	c #090E14",
"E.	c #031112",
"F.	c #081116",
"G.	c #010009",
"H.	c #102F31",
"I.	c #081118",
"J.	c #041215",
". + @ # $ % & * = - ; > , ' ) ! # ~ { { { { { ",
"] ] ] ] ^ / ( _ : : < < [ } | ] 1 2 ] ] ] ] ] ",
"3 3 3 3 3 3 3 3 3 3 3 3 3 3 3 3 3 3 3 3 3 3 3 ",
"4 4 4 4 4 4 4 4 4 4 4 4 4 4 4 4 4 4 4 4 4 4 4 ",
"5 5 5 5 5 5 5 5 5 5 5 5 5 5 5 5 5 5 5 5 5 5 5 ",
"6 6 6 6 6 6 6 6 6 6 6 6 6 6 6 6 6 6 6 6 6 6 6 ",
"7 7 7 7 4 8 9 0 a b c b d e f g h 7 7 7 7 7 7 ",
"i i i i j k l m n o p p q r s t u i i i i i i ",
"v v v v w x y z A A A A A A B C D v v v v v v ",
"E E E E F G H I A A A A A A J K L E E E E E E ",
"M M M M N O P Q R S T T U V W X Y M M M M M M ",
"Z Z Z Z `  ...+.@.#.$.%.&.*.=.-.;.Z Z Z Z Z Z ",
">.>.>.>.,.'.).!.~.{.].^./.(._.:.<.>.>.>.>.>.>.",
"[.[.[.[.}.|.1.2.3.4.5.6.7.8.9.0.a.[.[.[.[.[.[.",
"b.b.b.b.c.d.e.f.g.h.i.j.k.l.m.n.o.p.b.b.b.b.b.",
"q.q.q.q.r.s.t.u.v.i.w.x.y.z.A.B.C.D.q.q.q.q.q.",
"E.E.E.E.E.E.E.E.E.E.E.E.E.E.E.E.E.E.E.E.E.E.E.",
"F.F.F.F.F.F.F.F.F.F.F.F.F.F.F.F.F.F.F.F.F.F.F.",
"G.G.G.G.G.G.G.G.G.G.G.G.G.G.G.G.G.G.G.G.G.G.G.",
"H.H.H.H.H.H.H.H.H.H.H.H.H.H.H.H.H.H.H.H.H.H.H.",
"I.I.I.I.I.I.I.I.I.I.I.I.I.I.I.I.I.I.I.I.I.I.I.",
"J.J.J.J.J.J.J.J.J.J.J.J.J.J.J.J.J.J.J.J.J.J.J."};
