/* XPM */
static char * wtitle_xpm[] = {
"3 20 20 1",
" 	c #3782A2",
".	c #2D6983",
"+	c #204B5C",
"@	c #214555",
"#	c #20465B",
"$	c #184356",
"%	c #1B4251",
"&	c #1B3D46",
"*	c #173742",
"=	c #18333C",
"-	c #011219",
";	c #071015",
">	c #080D10",
",	c #090E11",
"'	c #071214",
")	c #021013",
"!	c #031112",
"~	c #081116",
"{	c #010009",
"]	c #102F31",
"   ",
"...",
"+++",
"@@@",
"###",
"$$$",
"%%%",
"&&&",
"***",
"===",
"---",
";;;",
">>>",
",,,",
"'''",
")))",
"!!!",
"~~~",
"{{{",
"]]]"};
