/* XPM */
static char * icon_xpm[] = {
"24 24 122 2",
"  	c #EAF5C9",
". 	c #E9F2C7",
"+ 	c #E0E7B8",
"@ 	c #C2CD95",
"# 	c #BFCB92",
"$ 	c #AFBC84",
"% 	c #AAB883",
"& 	c #A8B680",
"* 	c #A7B580",
"= 	c #FFFFFF",
"- 	c #DCDCDC",
"; 	c #B7C3A2",
"> 	c #AFBB94",
", 	c #A5B48B",
"' 	c #A3B288",
") 	c #9AAA7C",
"! 	c #98A77B",
"~ 	c #99A878",
"{ 	c #95A274",
"] 	c #90A072",
"^ 	c #8F9E6A",
"/ 	c #889965",
"( 	c #8B986B",
"_ 	c #B9C5A4",
": 	c #C7C7B4",
"< 	c #C6C6B9",
"[ 	c #C1C6AE",
"} 	c #B1BF98",
"| 	c #AFBB96",
"1 	c #A1AD85",
"2 	c #819261",
"3 	c #75825E",
"4 	c #B3BF98",
"5 	c #C7C7BB",
"6 	c #C7C7BE",
"7 	c #C3C6B1",
"8 	c #BCC6A7",
"9 	c #B5C19D",
"0 	c #AAB68F",
"a 	c #A1B086",
"b 	c #9CAB81",
"c 	c #839366",
"d 	c #768753",
"e 	c #ADBD85",
"f 	c #A7B68F",
"g 	c #C5C6B2",
"h 	c #BFC6AA",
"i 	c #B6C3A2",
"j 	c #A8B792",
"k 	c #A3B289",
"l 	c #99A877",
"m 	c #879466",
"n 	c #BCC5A9",
"o 	c #B2BF9A",
"p 	c #A1B288",
"q 	c #95A577",
"r 	c #95A373",
"s 	c #91A170",
"t 	c #879468",
"u 	c #B0C088",
"v 	c #9CAD80",
"w 	c #B2BF9B",
"x 	c #B2BF9E",
"y 	c #90A16B",
"z 	c #909F6B",
"A 	c #B4C48B",
"B 	c #96A274",
"C 	c #8D9D67",
"D 	c #8E9D69",
"E 	c #8D9D68",
"F 	c #879366",
"G 	c #B3C48B",
"H 	c #B5C68D",
"I 	c #A7B68E",
"J 	c #99A577",
"K 	c #91A16B",
"L 	c #8D9A64",
"M 	c #8B9A64",
"N 	c #80905C",
"O 	c #BAC88E",
"P 	c #8C9D6B",
"Q 	c #9EAD85",
"R 	c #96A16C",
"S 	c #8E9B61",
"T 	c #89955C",
"U 	c #7D8D55",
"V 	c #BBC88F",
"W 	c #879660",
"X 	c #91A171",
"Y 	c #92A16B",
"Z 	c #8B975B",
"` 	c #819157",
" .	c #77864E",
"..	c #BBC98F",
"+.	c #83965D",
"@.	c #8E9E6A",
"#.	c #96A577",
"$.	c #96A16D",
"%.	c #919D68",
"&.	c #8B975D",
"*.	c #859458",
"=.	c #809052",
"-.	c #75854C",
";.	c #7B8E55",
">.	c #879661",
",.	c #92A373",
"'.	c #909F6D",
").	c #909D6B",
"!.	c #8C9B61",
"~.	c #869359",
"{.	c #809054",
"].	c #7C8D4F",
"^.	c #708148",
"/.	c #829164",
"(.	c #7B8B59",
"_.	c #79884F",
":.	c #75844E",
"<.	c #72824A",
"[.	c #C6C6C6",
"}.	c #A7B680",
"|.	c #A3B27F",
"1.	c #96A867",
"              . . . . . . . . . . . . . . . . . ",
"+ + + + + + + + + + + + + + + + + + + + + + + + ",
"@ @ @ @ @ @ @ # # # # # # # # # # # # # # # # # ",
"$ $ $ $ $ $ $ $ $ $ $ $ $ $ $ $ $ $ $ $ $ $ $ $ ",
"% % % % % % % % % % % % % % % % % % % % % % % % ",
"& & & & * = = = = = = = = = = = = = = * * * * * ",
"& & & & = - ; > , ' ) ! ~ { ] ^ / ( - = * * * * ",
"% % % % = _ : < [ _ } | > , 1 ) ] 2 3 = % % % % ",
"% % % % = 4 5 6 7 8 9 } | 0 a b { c d = % % % % ",
"e e e e = f 7 g h i | j k 1 ) l { m d = e e e e ",
"e e e e = k 8 n i o j p ) q r ] s t d = e e e e ",
"u u u u = v w x } > k b { y ^ y z m d = u u u u ",
"A A A A = ! 0 > > j ' ) B ^ C D E F d = G G G G ",
"H H H H = r 1 , I I ' b J K L L M N d = H H H H ",
"O O O O = P ! Q = = = = = R S S T U d = O O O O ",
"V V V V = W X l = = = = = Y S Z `  .d = ........",
"@ @ @ @ = +.@.] #.! ~ J $.%.&.*.=.-.d = ........",
"@ @ @ @ = ;.>.P s ,.] '.).!.~.{.].^.d = @ @ @ @ ",
"@ @ @ @ = /.d (.` >.>.>.T T _.:.<.d d = @ @ @ @ ",
"@ @ @ @ = [.d d d d d d d d d d d d [.= @ @ @ @ ",
"..........= = = = = = = = = = = = = = ..........",
"..............O O O O O O O O O O O O O O O O O ",
"}.}.}.}.}.}.}.|.|.|.|.|.|.|.|.|.|.|.|.|.|.|.|.|.",
"1.1.1.1.1.1.1.1.1.1.1.1.1.1.1.1.1.1.1.1.1.1.1.1."};
