/* XPM */
static char * stick_xpm[] = {
"24 24 149 2",
"  	c None",
". 	c #EAF5C9",
"+ 	c #E9F2C7",
"@ 	c #E0E7B8",
"# 	c #C2CD95",
"$ 	c #BFCB92",
"% 	c #AFBC84",
"& 	c #AAB883",
"* 	c #A8B680",
"= 	c #A7B580",
"- 	c #FFFFFF",
"; 	c #DCDCDC",
"> 	c #B7C3A2",
", 	c #AFBB94",
"' 	c #A5B48B",
") 	c #A3B288",
"! 	c #9AAA7C",
"~ 	c #98A77B",
"{ 	c #99A878",
"] 	c #95A274",
"^ 	c #90A072",
"/ 	c #8F9E6A",
"( 	c #889965",
"_ 	c #8B986B",
": 	c #B9C5A4",
"< 	c #C7C7B4",
"[ 	c #C6C6B9",
"} 	c #C1C6AE",
"| 	c #BDC4A8",
"1 	c #BABFA4",
"2 	c #B8BBA0",
"3 	c #B4B99A",
"4 	c #ACB492",
"5 	c #A5AE89",
"6 	c #819261",
"7 	c #75825E",
"8 	c #B3BF98",
"9 	c #C7C7BB",
"0 	c #C7C7BC",
"a 	c #C2C3AE",
"b 	c #BDC0A7",
"c 	c #B9BDA1",
"d 	c #B4B99B",
"e 	c #B0B594",
"f 	c #ABB28E",
"g 	c #A6AD88",
"h 	c #9FAA81",
"i 	c #839366",
"j 	c #768753",
"k 	c #ADBD85",
"l 	c #A7B68F",
"m 	c #C3C6B1",
"n 	c #C2C4AE",
"o 	c #B9BCA1",
"p 	c #AFB595",
"q 	c #A1AA82",
"r 	c #9DA67B",
"s 	c #97A274",
"t 	c #879466",
"u 	c #A3B289",
"v 	c #BEC4AA",
"w 	c #BEC0A8",
"x 	c #B5B89B",
"y 	c #AFB594",
"z 	c #AAB18F",
"A 	c #A7AE87",
"B 	c #A2AA82",
"C 	c #98A375",
"D 	c #939F6E",
"E 	c #8A9768",
"F 	c #B0C088",
"G 	c #9CAD80",
"H 	c #BBBFA4",
"I 	c #B4B89A",
"J 	c #ABB18E",
"K 	c #A6AE88",
"L 	c #949F6E",
"M 	c #8E9C69",
"N 	c #899762",
"O 	c #B4C48B",
"P 	c #B5B89A",
"Q 	c #949F6F",
"R 	c #8F9B68",
"S 	c #8A9862",
"T 	c #85935C",
"U 	c #B3C48B",
"V 	c #B5C68D",
"W 	c #95A373",
"X 	c #B3B799",
"Y 	c #B0B595",
"Z 	c #A6AD87",
"` 	c #A2AA81",
" .	c #94A06F",
"..	c #8F9C69",
"+.	c #8A9762",
"@.	c #85945B",
"#.	c #809055",
"$.	c #BAC88E",
"%.	c #8C9D6B",
"&.	c #AAB18E",
"*.	c #ABB18F",
"=.	c #A6AE87",
"-.	c #9CA67C",
";.	c #8F9C68",
">.	c #8B9862",
",.	c #86945B",
"'.	c #819156",
").	c #7C8D50",
"!.	c #BBC88F",
"~.	c #879660",
"{.	c #9CA87E",
"].	c #A1AA81",
"^.	c #939F6F",
"/.	c #85955C",
"(.	c #819055",
"_.	c #7C8D4F",
":.	c #78894E",
"<.	c #BBC98F",
"[.	c #83965D",
"}.	c #8E9E6A",
"|.	c #9DA77D",
"1.	c #9DA77B",
"2.	c #98A374",
"3.	c #86955C",
"4.	c #809156",
"5.	c #75854C",
"6.	c #7B8E55",
"7.	c #879661",
"8.	c #8E9E6D",
"9.	c #96A173",
"0.	c #8F9B69",
"a.	c #85945C",
"b.	c #819056",
"c.	c #7B8D4F",
"d.	c #708148",
"e.	c #829164",
"f.	c #7B8B59",
"g.	c #819157",
"h.	c #8A9864",
"i.	c #899761",
"j.	c #819155",
"k.	c #7E8E51",
"l.	c #798A4F",
"m.	c #75844E",
"n.	c #72824A",
"o.	c #C6C6C6",
"p.	c #A7B680",
"q.	c #A3B27F",
"r.	c #96A867",
". . . . . . . + + + + + + + + + + + + + + + + + ",
"@ @ @ @ @ @ @ @ @ @ @ @ @ @ @ @ @ @ @ @ @ @ @ @ ",
"# # # # # # # $ $ $ $ $ $ $ $ $ $ $ $ $ $ $ $ $ ",
"% % % % % % % % % % % % % % % % % % % % % % % % ",
"& & & & & & & & & & & & & & & & & & & & & & & & ",
"* * * * = - - - - - - - - - - - - - - = = = = = ",
"* * * * - ; > , ' ) ! ~ { ] ^ / ( _ ; - = = = = ",
"& & & & - : < [ } | 1 2 3 4 5 ! ^ 6 7 - & & & & ",
"& & & & - 8 9 0 a b c d e f g h ] i j - & & & & ",
"k k k k - l m n b o d p f g q r s t j - k k k k ",
"k k k k - u v w o x y z A B r C D E j - k k k k ",
"F F F F - G H o I p J K q r C L M N j - F F F F ",
"O O O O - ~ 2 P e f K q r C Q R S T j - U U U U ",
"V V V V - W X Y J Z ` r C  ...+.@.#.j - V V V V ",
"$.$.$.$.- %.&.*.=.q -.C Q ;.>.,.'.).j - $.$.$.$.",
"!.!.!.!.- ~.{.K ].r C ^.R S /.(._.:.j - <.<.<.<.",
"# # # # - [.}.|.1.2.^.R S 3.4._._.5.j - <.<.<.<.",
"# # # # - 6.7.8.9. .0.S a.b._.).c.d.j - # # # # ",
"# # # # - e.j f.g.h.i.a.j.k.l.m.n.j j - # # # # ",
"# # # # - o.j j j j j j j j j j j j o.- # # # # ",
"<.<.<.<.<.- - - - - - - - - - - - - - <.<.<.<.<.",
"<.<.<.<.<.<.<.$.$.$.$.$.$.$.$.$.$.$.$.$.$.$.$.$.",
"p.p.p.p.p.p.p.q.q.q.q.q.q.q.q.q.q.q.q.q.q.q.q.q.",
"r.r.r.r.r.r.r.r.r.r.r.r.r.r.r.r.r.r.r.r.r.r.r.r."};
