/* XPM */
static char * wfocus_xpm[] = {
"1 24 15 1",
" 	c #EAF5C9",
".	c #E0E7B8",
"+	c #C2CD95",
"@	c #AFBC84",
"#	c #AAB883",
"$	c #A8B680",
"%	c #ADBD85",
"&	c #B0C088",
"*	c #B4C48B",
"=	c #B5C68D",
"-	c #BAC88E",
";	c #BBC88F",
">	c #BBC98F",
",	c #A7B680",
"'	c #96A867",
" ",
".",
"+",
"@",
"#",
"$",
"$",
"#",
"#",
"%",
"%",
"&",
"*",
"=",
"-",
";",
"+",
"+",
"+",
"+",
">",
">",
",",
"'"};
