/* XPM */
static char * icon_xpm[] = {
"22 22 14 1",
" 	c None",
".	c #D4D4D4",
"+	c #CECECE",
"@	c #CDCDCD",
"#	c #CCCCCC",
"$	c #CBCBCB",
"%	c #CACACA",
"&	c #C9C9C9",
"*	c #666666",
"=	c #C8C8C8",
"-	c #C7C7C7",
";	c #C5C5C5",
">	c #BEBEBE",
",	c #B6B6B6",
"......................",
"++++++++++++++++++++++",
"@@@@@@@@@@@@@@@@@@@@@@",
"@@@@@@@@@@@@@@@@@@@@@@",
"######################",
"$$$$$$$$$$$$$$$$$$$$$$",
"%%%%%%%%%%%%%%%%%%%%%%",
"%%%%%%%&%%&&&%%%%%%%%%",
"%%%%%%%*%%&&&%%%%%%%%%",
"%%%%%%%**%%&&%%%%%%%%%",
"&&&&&&&***&&&==&&&&&&&",
"&&&&&&&****&&==&&&&&&&",
"&&&&&&&*****&&&&&&&&&&",
"=======******=========",
"=======*******-=======",
"======================",
"----------------------",
"----------------------",
"----------------------",
";;;;;;;;;;;;;;;;;;;;;;",
">>>>>>>>>>>>>>>>>>>>>>",
",,,,,,,,,,,,,,,,,,,,,,"};
