/* XPM */
static char * stick_unfocus_xpm[] = {
"22 22 12 1",
" 	c None",
".	c #B4B8C0",
"+	c #A9AEB7",
"@	c #A7ACB5",
"#	c #A5ABB4",
"$	c #666666",
"%	c #A3A9B2",
"&	c #A0A6AF",
"*	c #9EA4AE",
"=	c #9CA2AC",
"-	c #9299A3",
";	c #888F9B",
"......................",
"++++++++++++++++++++++",
"@@@@@@@@@@@@@@@@@@@@@@",
"@@@@@@@@@@@@@@@@@@@@@@",
"@@@@@@@@@@@@@@@@@@@@@@",
"######################",
"######################",
"#########$$$$#########",
"########$$##$$########",
"#######$$####$$#######",
"%%%%%%%$%%%%%%$%%%%%%%",
"%%%%%%%$%%%%%%$%%%%%%%",
"%%%%%%%$$%%%%$$%%%%%%%",
"&&&&&&&&$$&&$$&&&&&&&&",
"&&&&&&&&&$$$$&&&&&&&&&",
"&&&&&&&&&&&&&&&&&&&&&&",
"**********************",
"**********************",
"**********************",
"======================",
"----------------------",
";;;;;;;;;;;;;;;;;;;;;;"};
