/* XPM */
static char * max_xpm[] = {
"16 16 38 1",
" 	c #D0DAE8",
".	c #CFD9E6",
"+	c #CDD7E4",
"@	c #CBD5E2",
"#	c #CBD5E3",
"$	c #CAD3E0",
"%	c #C9D3E0",
"&	c #525252",
"*	c #C7D1DE",
"=	c #C8D1DE",
"-	c #F4F3F2",
";	c #C6CFDC",
">	c #B3B3B4",
",	c #C5CDDB",
"'	c #C4CDDA",
")	c #C2CBD9",
"!	c #C2CBD8",
"~	c #C0CAD7",
"{	c #C1CAD7",
"]	c #BFC8D5",
"^	c #BEC8D5",
"/	c #BFC8D4",
"(	c #BDC6D3",
"_	c #BDC6D2",
":	c #BBC4D0",
"<	c #BCC4D0",
"[	c #BCC4D1",
"}	c #BBC4D1",
"|	c #B9C2CF",
"1	c #BAC2CF",
"2	c #B9C2CE",
"3	c #BAC2CE",
"4	c #B7C0CD",
"5	c #B8C0CD",
"6	c #B8C0CC",
"7	c #B5BECB",
"8	c #B6BECB",
"9	c #B6BECA",
"                ",
"................",
"++++++++++++++++",
"@@##@@@@@@###@@@",
"$$$$%%&&&&%%%%%%",
"****=&----&*****",
";;;;&-->>--&;;;;",
",''&--->>---&'''",
")))&->>>>>>-&!!!",
"~~{&->>>>>>-&~~{",
"]^^&--->>---&^^/",
"((__&-->>--&____",
"::::<&----&[[[[}",
"|11111&&&&||233|",
"4555556666555556",
"7888889999887778"};
