/* XPM */
static char * icon_xpm[] = {
"16 16 55 1",
" 	c None",
".	c #C5C7D2",
"+	c #3C86AC",
"@	c #5799BB",
"#	c #6FA9C7",
"$	c #DFE0E6",
"%	c #76AECA",
"&	c #91BFD6",
"*	c #EDEDF2",
"=	c #3581A8",
"-	c #69A5C4",
";	c #F3F3F7",
">	c #27779F",
",	c #4D93B6",
"'	c #5598BA",
")	c #F8F9FB",
"!	c #1B6D97",
"~	c #3783A9",
"{	c #3A85AB",
"]	c #FAFAFC",
"^	c #1A6C96",
"/	c #3884AA",
"(	c #1E7099",
"_	c #418AAF",
":	c #448CB1",
"<	c #F8F8FA",
"[	c #21729B",
"}	c #00486D",
"|	c #4B91B5",
"1	c #EEEEF1",
"2	c #24749D",
"3	c #003651",
"4	c #E3E3E7",
"5	c #2878A0",
"6	c #20719A",
"7	c #5B9CBD",
"8	c #D0D0D8",
"9	c #307EA5",
"0	c #63A1C1",
"a	c #6BA7C5",
"b	c #C3C3CA",
"c	c #3380A7",
"d	c #6DA8C6",
"e	c #AFB0B9",
"f	c #7AB0CC",
"g	c #87B9D2",
"h	c #A0A2AC",
"i	c #81B5CF",
"j	c #8F919D",
"k	c #83B6D0",
"l	c #9DC6DB",
"m	c #848694",
"n	c #2D7BA3",
"o	c #65A3C2",
"p	c #78AFCB",
"....+@##########",
"$$$$+%&&&&&&&&&&",
"****=-%%%%%%%%%%",
";;;;>,''''''''''",
"))))!~{{{{{{{{{{",
"]]]]^/++++++++++",
"]]]](_::::::::::",
"<<<<[:}}}}}}}|||",
"11112|3333333'''",
"44445'2262222777",
"888890aaaaaaaaaa",
"bbbbcd%%%%%%%%%%",
"eeee=fgggggggggg",
"hhhhci&&&&&&&&&&",
"jjjjckllllllllll",
"mmmmnopppppppppp"};
