/* XPM */
static char * stick_xpm[] = {
"16 14 84 1",
" 	c None",
".	c #C7C8D3",
"+	c #76AECA",
"@	c #418AAF",
"#	c #7AB0CC",
"$	c #6BA7C5",
"%	c #3884AA",
"&	c #D7D8DE",
"*	c #DADBE2",
"=	c #E4E4EA",
"-	c #83B6D0",
";	c #5195B8",
">	c #87B9D2",
",	c #7CB2CD",
"'	c #3C86AC",
")	c #E7E7EC",
"!	c #EBEBF1",
"~	c #EFEFF3",
"{	c #7EB3CE",
"]	c #4F94B7",
"^	c #6FA9C7",
"/	c #69A5C4",
"(	c #3581A8",
"_	c #EDEEF1",
":	c #F3F3F7",
"<	c #F6F6FA",
"[	c #78AFCB",
"}	c #327FA6",
"|	c #428BB0",
"1	c #22739C",
"2	c #F2F3F4",
"3	c #F8F9FC",
"4	c #FAFAFC",
"5	c #2D7BA3",
"6	c #3A85AB",
"7	c #1E7099",
"8	c #F3F4F3",
"9	c #448CB1",
"0	c #20719A",
"a	c #F3F3F2",
"b	c #FAF9FB",
"c	c #F8F8FA",
"d	c #3783A9",
"e	c #4B91B5",
"f	c #488FB3",
"g	c #24749D",
"h	c #EDEDED",
"i	c #F3F3F6",
"j	c #EDEDF0",
"k	c #EDEDF1",
"l	c #73ACC9",
"m	c #3F89AE",
"n	c #5598BA",
"o	c #2878A0",
"p	c #E0E0E0",
"q	c #E5E5E9",
"r	c #DEDEE3",
"s	c #6DA8C6",
"t	c #5F9FBF",
"u	c #5B9CBD",
"v	c #307EA5",
"w	c #CECFD2",
"x	c #D3D3DA",
"y	c #CCCDD4",
"z	c #61A0C0",
"A	c #5397B9",
"B	c #BEBFC3",
"C	c #C2C2C9",
"D	c #B9BAC2",
"E	c #5799BB",
"F	c #AAACB2",
"G	c #AEAEB7",
"H	c #A5A6B0",
"I	c #8EBDD5",
"J	c #9799A2",
"K	c #9A9CA7",
"L	c #9395A1",
"M	c #63A1C1",
"N	c #9AC4DA",
"O	c #888B96",
"P	c #8A8C99",
"Q	c #858794",
"R	c #7D7F8D",
"S	c #7E808F",
"...+@######$%&**",
"===-;>>>>>>,')!!",
"~~~{]^^^^^^/(_::",
"<<<[}||||||@1233",
"444[5''''''67844",
"444+}999999@0abb",
"ccc#deeeeeefghii",
"jkklmnnnnnn;opqq",
"rrrsfttttttuvwxx",
"yyyzA^^^^^^$dBCC",
"DDDEt,,,,,,[6FGG",
"HHHfzIIIIII>6JKK",
"LLL@MNNNNNNI6OPP",
"QQQ6e,,,,,,l}RSS"};
