/* XPM */
static char * close_pressed_new_xpm[] = {
"22 22 79 1",
" 	c #758A68",
".	c #7C926F",
"+	c #748967",
"@	c #778C6A",
"#	c #819874",
"$	c #89987D",
"%	c #849379",
"&	c #758969",
"*	c #6F8363",
"=	c #65775A",
"-	c #78856D",
";	c #C2C6BA",
">	c #C1C4B9",
",	c #BFC2B7",
"'	c #7D8C73",
")	c #5A6A50",
"!	c #707D67",
"~	c #B4B8AD",
"{	c #B4B7AC",
"]	c #B3B7AC",
"^	c #AEB1A7",
"/	c #697660",
"(	c #434F3C",
"_	c #AFB2A8",
":	c #ACAFA5",
"<	c #8C9485",
"[	c #889080",
"}	c #A6AAA0",
"|	c #8C9484",
"1	c #A4A89E",
"2	c #9A9D94",
"3	c #5A6452",
"4	c #3B4635",
"5	c #A9ADA3",
"6	c #848D7D",
"7	c #5D6D52",
"8	c #7F8778",
"9	c #9C9F96",
"0	c #5D6D53",
"a	c #999C93",
"b	c #8E9189",
"c	c #555F4E",
"d	c #A2A59B",
"e	c #7E8677",
"f	c #7C8475",
"g	c #989B92",
"h	c #5B6B51",
"i	c #95988F",
"j	c #8C8F86",
"k	c #9B9E94",
"l	c #5B6A51",
"m	c #7C8474",
"n	c #848C7C",
"o	c #5D6C52",
"p	c #889081",
"q	c #808779",
"r	c #A0A399",
"s	c #979A91",
"t	c #94978E",
"u	c #A4A79E",
"v	c #94978F",
"w	c #8A8C84",
"x	c #878A82",
"y	c #888B83",
"z	c #888A82",
"A	c #555E4D",
"B	c #63755A",
"C	c #727F68",
"D	c #626D5A",
"E	c #535D4C",
"F	c #4E5747",
"G	c #505949",
"H	c #475440",
"I	c #5E6E53",
"J	c #4F5D46",
"K	c #394433",
"L	c #323A2C",
"M	c #343D2E",
"N	c #364030",
" .++++++++++++++++++++",
"@#$%%%%%%%%%%%%%%%%%&*",
"=-;>,,,,,,,,,,,,,,,,')",
"=!~{]]]]]]]]]]]]]]]^/(",
"=!_:<[}}}}}}}}}}[|1234",
"=!_567899999999808abc4",
"=!_5de)fggggggfhfgijc4",
"=!_5dkf)fggggflfggijc4",
"=!_5dkgf)fggfhfgggijc4",
"=!_5dkggf)mmlfggggijc4",
"=!_5dkgggm))mgggggijc4",
"=!_5dkgggm))mgggggijc4",
"=!_5dkggflmm)fggggijc4",
"=!_5dkgfhfggf)fgggijc4",
"=!_5dkflfggggf)fggijc4",
"=!_5dehfggggggf)fgijc4",
"=!_5nofggggggggf)fijc4",
"=!_5peggggggggggfqijc4",
"=!_5rstttttttttttttjc4",
"=!_uvwxxxxxxxxxxxxyzA4",
"=BCDEFFFFFFFFFFFFFFGH4",
"=IJKLLLLLLLLLLLLLLLLMN"};
