/* XPM */
static char * stick_pressed_new_xpm[] = {
"22 22 68 1",
" 	c #758A68",
".	c #7C926F",
"+	c #748967",
"@	c #778C6A",
"#	c #819874",
"$	c #89987D",
"%	c #849379",
"&	c #758969",
"*	c #6F8363",
"=	c #65775A",
"-	c #78856D",
";	c #C2C6BA",
">	c #C1C4B9",
",	c #BFC2B7",
"'	c #7D8C73",
")	c #5A6A50",
"!	c #707D67",
"~	c #B4B8AD",
"{	c #B4B7AC",
"]	c #B3B7AC",
"^	c #AEB1A7",
"/	c #697660",
"(	c #434F3C",
"_	c #AFB2A8",
":	c #ACAFA5",
"<	c #A7AAA0",
"[	c #A6A9A0",
"}	c #A6AAA0",
"|	c #A4A89E",
"1	c #9A9D94",
"2	c #5A6452",
"3	c #3B4635",
"4	c #A9ADA3",
"5	c #A2A59C",
"6	c #9C9F96",
"7	c #999C93",
"8	c #8E9189",
"9	c #555F4E",
"0	c #A2A59B",
"a	c #9B9E94",
"b	c #989B92",
"c	c #95988F",
"d	c #8C8F86",
"e	c #727C6A",
"f	c #68745F",
"g	c #A0A399",
"h	c #979A91",
"i	c #94978E",
"j	c #A4A79E",
"k	c #94978F",
"l	c #8A8C84",
"m	c #878A82",
"n	c #888B83",
"o	c #888A82",
"p	c #555E4D",
"q	c #63755A",
"r	c #727F68",
"s	c #626D5A",
"t	c #535D4C",
"u	c #4E5747",
"v	c #505949",
"w	c #475440",
"x	c #5E6E53",
"y	c #4F5D46",
"z	c #394433",
"A	c #323A2C",
"B	c #343D2E",
"C	c #364030",
" .++++++++++++++++++++",
"@#$%%%%%%%%%%%%%%%%%&*",
"=-;>,,,,,,,,,,,,,,,,')",
"=!~{]]]]]]]]]]]]]]]^/(",
"=!_:<[}}}}}}}}}}}}|123",
"=!_4566666666666667893",
"=!_40abbbbbbbbbbbbcd93",
"=!_40abbbbbbbbbbbbcd93",
"=!_40abbbbbbbbbbbbcd93",
"=!_40abbbeffebbbbbcd93",
"=!_40abbbf))fbbbbbcd93",
"=!_40abbbf))fbbbbbcd93",
"=!_40abbbeffebbbbbcd93",
"=!_40abbbbbbbbbbbbcd93",
"=!_40abbbbbbbbbbbbcd93",
"=!_40abbbbbbbbbbbbcd93",
"=!_40abbbbbbbbbbbbcd93",
"=!_40abbbbbbbbbbbbcd93",
"=!_4ghiiiiiiiiiiiiid93",
"=!_jklmmmmmmmmmmmmnop3",
"=qrstuuuuuuuuuuuuuuvw3",
"=xyzAAAAAAAAAAAAAAAABC"};
