/* XPM */
static char * close_xpm[] = {
"16 16 5 1",
" 	c None",
".	c #43464F",
"+	c #7E7E7E",
"@	c #7D7D7D",
"#	c #7F7F7F",
"................",
"................",
"..++++++++++++..",
"..+..........+..",
"..+..........+..",
"..+..++..++..+..",
"..+..++@+++..+..",
"..+...+#+#...+..",
"..+...++++...+..",
"..+..++++++..+..",
"..+..++..++..+..",
"..+..........@..",
"..+..........+..",
"..++++++++++++..",
"................",
"................"};
