/* XPM */
static char * icon_xpm[] = {
"16 16 4 1",
" 	c None",
".	c #43464F",
"+	c #7E7E7E",
"@	c #7F7F7F",
"................",
"................",
"..+++++++@++++..",
"..+..........+..",
"..+..........+..",
"..+..........+..",
"..+..........+..",
"..+..........+..",
"..+..........+..",
"..+..++++++..+..",
"..+..++++++..+..",
"..+..........+..",
"..+..........+..",
"..++++++++++++..",
"................",
"................"};
