/* XPM */
static char * max_xpm[] = {
"22 22 278 2",
"  	c #DBE4EB",
". 	c #DCE3EB",
"+ 	c #DCE5EE",
"@ 	c #DCE5EC",
"# 	c #DBE4ED",
"$ 	c #DAE4EE",
"% 	c #DBE6EC",
"& 	c #DAE4ED",
"* 	c #DAE5EB",
"= 	c #DAE3EC",
"- 	c #D9E4EA",
"; 	c #DAE3EA",
"> 	c #D9E2EB",
", 	c #D9E3EC",
"' 	c #D9E2E9",
") 	c #DAE5E9",
"! 	c #D8E1EA",
"~ 	c #D8E1E8",
"{ 	c #D8E2EB",
"] 	c #D7E1EB",
"^ 	c #D8E2EC",
"/ 	c #D6E0EA",
"( 	c #D6E1E7",
"_ 	c #D8E3E9",
": 	c #D9E1EC",
"< 	c #D8E0EB",
"[ 	c #D6E0E9",
"} 	c #D5DFE9",
"| 	c #D5DFE8",
"1 	c #D7DDE9",
"2 	c #D6DEE9",
"3 	c #D4DEE8",
"4 	c #D3DDE7",
"5 	c #D3DDE6",
"6 	c #D3DCE5",
"7 	c #B5BCC2",
"8 	c #999EA2",
"9 	c #828689",
"0 	c #767779",
"a 	c #868688",
"b 	c #9A9FA3",
"c 	c #B4BBC1",
"d 	c #D4DDE4",
"e 	c #D4DEE7",
"f 	c #D0DDE6",
"g 	c #D1DBE4",
"h 	c #CAD4DE",
"i 	c #A8B2B3",
"j 	c #8A8A8A",
"k 	c #8B8C90",
"l 	c #898E91",
"m 	c #888D90",
"n 	c #87908F",
"o 	c #8E8C91",
"p 	c #898B8A",
"q 	c #A9B1B3",
"r 	c #CAD2DF",
"s 	c #CFDEE5",
"t 	c #CFDCE5",
"u 	c #D0DDE5",
"v 	c #CFDBE7",
"w 	c #CDDAE3",
"x 	c #CCDAE3",
"y 	c #B0BBBD",
"z 	c #9FA1A0",
"A 	c #8E9198",
"B 	c #53646B",
"C 	c #294752",
"D 	c #092F44",
"E 	c #264653",
"F 	c #53666C",
"G 	c #8A9392",
"H 	c #9EA2A3",
"I 	c #B5BABE",
"J 	c #CCD9E2",
"K 	c #CCDAE5",
"L 	c #CDDAE2",
"M 	c #CBD9E4",
"N 	c #C1CCD2",
"O 	c #B5B3B8",
"P 	c #9CA0A1",
"Q 	c #415C65",
"R 	c #084863",
"S 	c #086287",
"T 	c #0B6C97",
"U 	c #09628A",
"V 	c #064862",
"W 	c #415D69",
"X 	c #9FA0A4",
"Y 	c #B3B3B3",
"Z 	c #C4CDD4",
"` 	c #CDD7E3",
" .	c #CAD6E4",
"..	c #C8D6E1",
"+.	c #C6D0D2",
"@.	c #C6C7CB",
"#.	c #67797B",
"$.	c #074763",
"%.	c #057BB8",
"&.	c #1D9AEE",
"*.	c #6ABDFF",
"=.	c #34A1F3",
"-.	c #0E7EBD",
";.	c #074762",
">.	c #6A797E",
",.	c #C8C8CA",
"'.	c #C4CECF",
").	c #C9D7E2",
"!.	c #C8D6E3",
"~.	c #C7D5E0",
"{.	c #C4D4E1",
"].	c #D4D8D9",
"^.	c #D8D7DC",
"/.	c #35515D",
"(.	c #0A618C",
"_.	c #088EED",
":.	c #40A8FF",
"<.	c #B8DFFE",
"[.	c #6FBFFC",
"}.	c #1794EE",
"|.	c #0A6487",
"1.	c #32525D",
"2.	c #D7D8DC",
"3.	c #D3D9D9",
"4.	c #C6D4E1",
"5.	c #C6D4DD",
"6.	c #C7D3DF",
"7.	c #C5D3DE",
"8.	c #C2D2DF",
"9.	c #E6E6E6",
"0.	c #EAEAE8",
"a.	c #083343",
"b.	c #0B6C96",
"c.	c #1498FD",
"d.	c #29A0FE",
"e.	c #4FB0FD",
"f.	c #3CA8FF",
"g.	c #1F9BFF",
"h.	c #0A6D96",
"i.	c #0D3445",
"j.	c #EAE8E9",
"k.	c #E8E6E7",
"l.	c #C5D1DF",
"m.	c #C4D2DF",
"n.	c #C5D1DD",
"o.	c #C0D1DB",
"p.	c #C0D0DF",
"q.	c #EEEFF4",
"r.	c #F4F4F4",
"s.	c #3B5762",
"t.	c #0A5F88",
"u.	c #299DF2",
"v.	c #34A6FE",
"w.	c #39A6FF",
"x.	c #38A6FF",
"y.	c #259EEF",
"z.	c #0A6288",
"A.	c #395666",
"B.	c #F6F6F4",
"C.	c #EEEFF1",
"D.	c #C0D0DD",
"E.	c #BFCFDE",
"F.	c #BFCFDC",
"G.	c #BDCDDA",
"H.	c #BDCDDC",
"I.	c #E3EAF0",
"J.	c #FFFFFF",
"K.	c #839096",
"L.	c #084861",
"M.	c #1685BC",
"N.	c #35A3F0",
"O.	c #49B0FD",
"P.	c #35A4EC",
"Q.	c #1886BB",
"R.	c #879097",
"S.	c #FFFFFD",
"T.	c #E2ECEE",
"U.	c #BBCFDA",
"V.	c #BECCD9",
"W.	c #BCCCDB",
"X.	c #BACCDA",
"Y.	c #B8CAD8",
"Z.	c #CEDBE3",
"`.	c #FDFEFF",
" +	c #DFDFDF",
".+	c #5E707A",
"++	c #064662",
"@+	c #07638C",
"#+	c #076486",
"$+	c #0A4763",
"%+	c #5B717E",
"&+	c #DFDFDD",
"*+	c #FCFEFD",
"=+	c #D1DBE5",
"-+	c #B9C9D9",
";+	c #B7C9D7",
">+	c #B6C8D6",
",+	c #B7C7D7",
"'+	c #DEE5EB",
")+	c #FEFFFF",
"!+	c #DFDFE1",
"~+	c #869197",
"{+	c #3A5765",
"]+	c #0E3343",
"^+	c #3D5764",
"/+	c #E1DFE2",
"(+	c #FFFEFF",
"_+	c #DFE6EE",
":+	c #B7C7D4",
"<+	c #B5C8D6",
"[+	c #B5C9D4",
"}+	c #B3C6D5",
"|+	c #B2C5D4",
"1+	c #B5C5D5",
"2+	c #B7C9D5",
"3+	c #DBE6EA",
"4+	c #FEFEFF",
"5+	c #FFFFFB",
"6+	c #FCFFFF",
"7+	c #B4C6D4",
"8+	c #B2C4D2",
"9+	c #B3C3D3",
"0+	c #B0C3D2",
"a+	c #AFC2D1",
"b+	c #AEC4D1",
"c+	c #B0C2D0",
"d+	c #C8D6DF",
"e+	c #DEE7EC",
"f+	c #F3F4F8",
"g+	c #FDFDFF",
"h+	c #F1F5F8",
"i+	c #DFE8F1",
"j+	c #C9D5E1",
"k+	c #B1C1D1",
"l+	c #B0C1D1",
"m+	c #B1C4D3",
"n+	c #AFC0D2",
"o+	c #ACC1D2",
"p+	c #AEC1D2",
"q+	c #ABC0D3",
"r+	c #B0C0CF",
"s+	c #AEC1D0",
"t+	c #ADC2D3",
"u+	c #ADC0CE",
"v+	c #ACC2D0",
"w+	c #AFC2D3",
"x+	c #ABC1CF",
"y+	c #ABC2D0",
"z+	c #ABC0D1",
"A+	c #ADC3D1",
"B+	c #ACBFCE",
"C+	c #AAC0CE",
"D+	c #ACBED2",
"E+	c #A9C0D0",
"F+	c #ACBFD0",
"G+	c #AEBFCF",
"H+	c #ACBDCD",
"I+	c #ADC0CF",
"J+	c #AAC0CB",
"K+	c #ADBECE",
"L+	c #ADBED0",
"M+	c #ADC0D1",
"N+	c #ABBECF",
"O+	c #A8BDCE",
"P+	c #A7BCCD",
"Q+	c #A8BECC",
"R+	c #A9BCCD",
"S+	c #A5BCCA",
"T+	c #A9BBCF",
"U+	c #AABCD0",
"V+	c #AABBCD",
"W+	c #A5BCCC",
"X+	c #A6BDCD",
"Y+	c #AABDCE",
"Z+	c #A7BDCB",
"`+	c #A9BACC",
" @	c #A7BCCF",
".@	c #A8BDD0",
"        . .             + @       # + $     ",
"# # # # # + + #     % & + # # + #     * # # ",
"= = = = - - * ; # = > # - * - , '   @ ) = = ",
"! ! ! ! ~ ~ ~ { { ] ^ / ~ ' ( _ ! ! : < ! ! ",
"[ [ [ [ [ } / | | [ [ [ 1 2 ] } ] / / / [ [ ",
"3 3 3 3 4 5 6 7 8 9 0 a b c d 5 4 } e 5 3 3 ",
"f f f f g h i j k l m n o p q r s t u v f f ",
"w w w w x y z A B C D E F G H I J w K L w w ",
"M M M M N O P Q R S T U V W X Y Z `  .J J J ",
"........+.@.#.$.%.&.*.=.-.;.>.,.'.).).!.~.~.",
"{.{.{.{.].^./.(._.:.<.[.}.|.1.2.3.4.5.6.7.7.",
"8.8.8.8.9.0.a.b.c.d.e.f.g.h.i.j.k.l.m.n.o.o.",
"p.p.p.p.q.r.s.t.u.v.w.x.y.z.A.B.C.D.E.F.G.G.",
"H.H.H.H.I.J.K.L.M.N.O.P.Q.$.R.S.T.U.V.W.X.X.",
"Y.Y.Y.Y.Z.`. +.+++@+b.#+$+%+&+*+=+-+-+Y.;+;+",
">+>+>+>+,+'+)+!+~+{+]+^+~+/+(+_+:+<+<+[+}+}+",
"|+|+|+|+1+2+3+4+S.S.J.J.5+6+  2+|+7+8+9+0+0+",
"a+a+a+a+b+0+c+d+e+f+g+h+i+j+k+0+0+l+m+n+o+o+",
"o+o+o+o+o+p+q+o+r+s+t+s+u+v+w+x+y+p+z+A+B+B+",
"C+C+C+C+D+E+F+G+H+x+I+J+K+B+L+I+C+M+N+C+O+O+",
"P+P+P+P+Q+P+R+S+T+U+V+R+O+W+X+R+P+P+Y+X+Y+Y+",
"P+P+P+P+Z+R+`+P+Z+W+ @P+T+O+X+Y+.@W+R+Y+O+O+"};
