/* XPM */
static char * close_new_xpm[] = {
"120 120 84 1",
" 	c #758A68",
".	c #7C926F",
"+	c #748967",
"@	c #778C6A",
"#	c #7E9570",
"$	c #768B69",
"%	c #728766",
"&	c #6F8363",
"*	c #65775A",
"=	c #677A5C",
"-	c #738766",
";	c #728665",
">	c #718564",
",	c #6C8060",
"'	c #5A6A50",
")	c #617356",
"!	c #6B7E5F",
"~	c #6A7D5E",
"{	c #67795C",
"]	c #5B6C51",
"^	c #434F3C",
"/	c #66785A",
"(	c #637458",
"_	c #627457",
":	c #627458",
"<	c #617357",
"[	c #5B6B51",
"}	c #4E5C45",
"|	c #3B4635",
"1	c #647659",
"2	c #607155",
"3	c #5D6D52",
"4	c #5C6D52",
"5	c #54634B",
"6	c #495641",
"7	c #5C6C51",
"8	c #58684F",
"9	c #53624A",
"0	c #CFD4CD",
"a	c #C9CEC7",
"b	c #CDD2CA",
"c	c #C6CBC4",
"d	c #B5BCB3",
"e	c #7A8574",
"f	c #B9BFB6",
"g	c #CCD1CA",
"h	c #B4BBB1",
"i	c #8B9587",
"j	c #B2B9AF",
"k	c #CBD1C9",
"l	c #B6BCB3",
"m	c #6A7863",
"n	c #6E7B67",
"o	c #B4BAB1",
"p	c #7B8674",
"q	c #617059",
"r	c #778371",
"s	c #B1B8AE",
"t	c #5E6D55",
"u	c #5D6D54",
"v	c #687660",
"w	c #737F6C",
"x	c #5F6F54",
"y	c #5A6950",
"z	c #58674E",
"A	c #57674E",
"B	c #53614A",
"C	c #617256",
"D	c #58684E",
"E	c #516048",
"F	c #505E47",
"G	c #505F48",
"H	c #505F47",
"I	c #55644B",
"J	c #485540",
"K	c #44503C",
"L	c #45513D",
"M	c #46523E",
"N	c #5E6E53",
"O	c #4F5D46",
"P	c #394433",
"Q	c #323A2C",
"R	c #343D2E",
"S	c #364030",
" .++++++++++++++++++++++++++++++++++++++++++++++++++++++++++++++++++++++++++++++++++++++++++++++++++++++++++++++++++++++",
"@#$%%%%%%%%%%%%%%%%%%%%%%%%%%%%%%%%%%%%%%%%%%%%%%%%%%%%%%%%%%%%%%%%%%%%%%%%%%%%%%%%%%%%%%%%%%%%%%%%%%%%%%%%%%%%%%%%%%%%&",
"*=-;>>>>>>>>>>>>>>>>>>>>>>>>>>>>>>>>>>>>>>>>>>>>>>>>>>>>>>>>>>>>>>>>>>>>>>>>>>>>>>>>>>>>>>>>>>>>>>>>>>>>>>>>>>>>>>>>>>,'",
"*)!~~~~~~~~~~~~~~~~~~~~~~~~~~~~~~~~~~~~~~~~~~~~~~~~~~~~~~~~~~~~~~~~~~~~~~~~~~~~~~~~~~~~~~~~~~~~~~~~~~~~~~~~~~~~~~~~~~{]^",
"*)=/(_::::::::::::::::::::::::::::::::::::::::::::::::::::::::::::::::::::::::::::::::::::::::::::::::::::::::::::::<[}|",
"*)=12344444444444444444444444444444444444444444444444444444444444444444444444444444444444444444444444444444444444444'56|",
"*)=127''''''''''''''''''''''''''''''''''''''''''''''''''''''''''''''''''''''''''''''''''''''''''''''''''''''''''''''896|",
"*)=127''''''''''''''''''''''''''''''''''''''''''''''''''''''''''''''''''''''''''''''''''''''''''''''''''''''''''''''896|",
"*)=127''''''''''''''''''''''''''''''''''''''''''''''''''''''''''''''''''''''''''''''''''''''''''''''''''''''''''''''896|",
"*)=127''''''''''''''''''''''''''''''''''''''''''''''''''''''''''''''''''''''''''''''''''''''''''''''''''''''''''''''896|",
"*)=127''''0000000000000000000000000000000000000000000000000000000000000000000000000000000000000000000000000000''''''896|",
"*)=127''''0000000000000000000000000000000000000000000000000000000000000000000000000000000000000000000000000000''''''896|",
"*)=127''''0000000000000000000000000000000000000000000000000000000000000000000000000000000000000000000000000000''''''896|",
"*)=127''''0000000000000000000000000000000000000000000000000000000000000000000000000000000000000000000000000000''''''896|",
"*)=127''''0000000000000000000000000000000000000000000000000000000000000000000000000000000000000000000000000000''''''896|",
"*)=127''''0000000000000000000000000000000000000000000000000000000000000000000000000000000000000000000000000000''''''896|",
"*)=127''''0000000000000000000000000000000000000000000000000000000000000000000000000000000000000000000000000000''''''896|",
"*)=127''''0000000000000000000000000000000000000000000000000000000000000000000000000000000000000000000000000000''''''896|",
"*)=127''''0000000000000000000000000000000000000000000000000000000000000000000000000000000000000000000000000000''''''896|",
"*)=127''''0000000000000000000000000000000000000000000000000000000000000000000000000000000000000000000000000000''''''896|",
"*)=127''''0000000000000000000000000000000000000000000000000000000000000000000000000000000000000000000000000000''''''896|",
"*)=127''''00000000000000000a000000000000000000000000000000000000000000000000000000000000000bcb0000000000000000''''''896|",
"*)=127''''0000000000000000def0000000000000000000000000000000000000000000000000000000000000ghijk000000000000000''''''896|",
"*)=127''''000000000000000lm'nf00000000000000000000000000000000000000000000000000000000000gopqrsk00000000000000''''''896|",
"*)=127''''00000000000000lm'''nf000000000000000000000000000000000000000000000000000000000gopt'ursk0000000000000''''''896|",
"*)=127''''0000000000000lm'''''nf0000000000000000000000000000000000000000000000000000000gopt'''ursk000000000000''''''896|",
"*)=127''''000000000000dm'''''''nf00000000000000000000000000000000000000000000000000000gopt'''''urjb00000000000''''''896|",
"*)=127''''00000000000ae'''''''''nf000000000000000000000000000000000000000000000000000gopt'''''''qic00000000000''''''896|",
"*)=127''''000000000000fn'''''''''nf0000000000000000000000000000000000000000000000000gopt'''''''tphb00000000000''''''896|",
"*)=127''''0000000000000fn'''''''''nf00000000000000000000000000000000000000000000000gopt'''''''tpog000000000000''''''896|",
"*)=127''''00000000000000fn'''''''''nf000000000000000000000000000000000000000000000gopt'''''''tpog0000000000000''''''896|",
"*)=127''''000000000000000fn'''''''''nf0000000000000000000000000000000000000000000gopt'''''''tpog00000000000000''''''896|",
"*)=127''''0000000000000000fn'''''''''nf00000000000000000000000000000000000000000gopt'''''''tpog000000000000000''''''896|",
"*)=127''''00000000000000000fn'''''''''nf000000000000000000000000000000000000000gopt'''''''tpog0000000000000000''''''896|",
"*)=127''''000000000000000000fn'''''''''nf0000000000000000000000000000000000000gopt'''''''tpog00000000000000000''''''896|",
"*)=127''''0000000000000000000fn'''''''''nf00000000000000000000000000000000000gopt'''''''tpog000000000000000000''''''896|",
"*)=127''''00000000000000000000fn'''''''''nf000000000000000000000000000000000gopt'''''''tpog0000000000000000000''''''896|",
"*)=127''''000000000000000000000fn'''''''''nf0000000000000000000000000000000gopt'''''''tpog00000000000000000000''''''896|",
"*)=127''''0000000000000000000000fn'''''''''nf00000000000000000000000000000gopt'''''''tpog000000000000000000000''''''896|",
"*)=127''''00000000000000000000000fn'''''''''nf000000000000000000000000000gopt'''''''tpog0000000000000000000000''''''896|",
"*)=127''''000000000000000000000000fn'''''''''nf0000000000000000000000000gopt'''''''tpog00000000000000000000000''''''896|",
"*)=127''''0000000000000000000000000fn'''''''''nf00000000000000000000000gopt'''''''tpog000000000000000000000000''''''896|",
"*)=127''''00000000000000000000000000fn'''''''''nf000000000000000000000gopt'''''''tpog0000000000000000000000000''''''896|",
"*)=127''''000000000000000000000000000fn'''''''''nf0000000000000000000gopt'''''''tpog00000000000000000000000000''''''896|",
"*)=127''''0000000000000000000000000000fn'''''''''nf00000000000000000gopt'''''''tpog000000000000000000000000000''''''896|",
"*)=127''''00000000000000000000000000000fn'''''''''nf000000000000000gopt'''''''tpog0000000000000000000000000000''''''896|",
"*)=127''''000000000000000000000000000000fn'''''''''nf0000000000000gopt'''''''tpog00000000000000000000000000000''''''896|",
"*)=127''''0000000000000000000000000000000fn'''''''''nf00000000000gopt'''''''tpog000000000000000000000000000000''''''896|",
"*)=127''''00000000000000000000000000000000fn'''''''''nf000000000gopt'''''''tpog0000000000000000000000000000000''''''896|",
"*)=127''''000000000000000000000000000000000fn'''''''''nf0000000gopt'''''''tpog00000000000000000000000000000000''''''896|",
"*)=127''''0000000000000000000000000000000000fn'''''''''nf00000gopt'''''''tpog000000000000000000000000000000000''''''896|",
"*)=127''''00000000000000000000000000000000000fn'''''''''nf000gopt'''''''tpog0000000000000000000000000000000000''''''896|",
"*)=127''''000000000000000000000000000000000000fn'''''''''nf0gopt'''''''tpog00000000000000000000000000000000000''''''896|",
"*)=127''''0000000000000000000000000000000000000fn'''''''''nlopt'''''''tpog000000000000000000000000000000000000''''''896|",
"*)=127''''00000000000000000000000000000000000000fn'''''''''vwt'''''''tpog0000000000000000000000000000000000000''''''896|",
"*)=127''''000000000000000000000000000000000000000fn'''''''''['''''''tpog00000000000000000000000000000000000000''''''896|",
"*)=127''''0000000000000000000000000000000000000000fn'''''''''''''''tpog000000000000000000000000000000000000000''''''896|",
"*)=127''''00000000000000000000000000000000000000000fn'''''''''''''tpog0000000000000000000000000000000000000000''''''896|",
"*)=127''''000000000000000000000000000000000000000000fn'''''''''''tpog00000000000000000000000000000000000000000''''''896|",
"*)=127''''0000000000000000000000000000000000000000000lv'''''''''[wog000000000000000000000000000000000000000000''''''896|",
"*)=127''''000000000000000000000000000000000000000000gow['''''''''vl0000000000000000000000000000000000000000000''''''896|",
"*)=127''''00000000000000000000000000000000000000000gopt'''''''''''nf000000000000000000000000000000000000000000''''''896|",
"*)=127''''0000000000000000000000000000000000000000gopt'''''''''''''nf00000000000000000000000000000000000000000''''''896|",
"*)=127''''000000000000000000000000000000000000000gopt'''''''''''''''nf0000000000000000000000000000000000000000''''''896|",
"*)=127''''00000000000000000000000000000000000000gopt'''''''['''''''''nf000000000000000000000000000000000000000''''''896|",
"*)=127''''0000000000000000000000000000000000000gopt'''''''twv'''''''''nf00000000000000000000000000000000000000''''''896|",
"*)=127''''000000000000000000000000000000000000gopt'''''''tpoln'''''''''nf0000000000000000000000000000000000000''''''896|",
"*)=127''''00000000000000000000000000000000000gopt'''''''tpog0fn'''''''''nf000000000000000000000000000000000000''''''896|",
"*)=127''''0000000000000000000000000000000000gopt'''''''tpog000fn'''''''''nf00000000000000000000000000000000000''''''896|",
"*)=127''''000000000000000000000000000000000gopt'''''''tpog00000fn'''''''''nf0000000000000000000000000000000000''''''896|",
"*)=127''''00000000000000000000000000000000gopt'''''''tpog0000000fn'''''''''nf000000000000000000000000000000000''''''896|",
"*)=127''''0000000000000000000000000000000gopt'''''''tpog000000000fn'''''''''nf00000000000000000000000000000000''''''896|",
"*)=127''''000000000000000000000000000000gopt'''''''tpog00000000000fn'''''''''nf0000000000000000000000000000000''''''896|",
"*)=127''''00000000000000000000000000000gopt'''''''tpog0000000000000fn'''''''''nf000000000000000000000000000000''''''896|",
"*)=127''''0000000000000000000000000000gopt'''''''tpog000000000000000fn'''''''''nf00000000000000000000000000000''''''896|",
"*)=127''''000000000000000000000000000gopt'''''''tpog00000000000000000fn'''''''''nf0000000000000000000000000000''''''896|",
"*)=127''''00000000000000000000000000gopt'''''''tpog0000000000000000000fn'''''''''nf000000000000000000000000000''''''896|",
"*)=127''''0000000000000000000000000gopt'''''''tpog000000000000000000000fn'''''''''nf00000000000000000000000000''''''896|",
"*)=127''''000000000000000000000000gopt'''''''tpog00000000000000000000000fn'''''''''nf0000000000000000000000000''''''896|",
"*)=127''''00000000000000000000000gopt'''''''tpog0000000000000000000000000fn'''''''''nf000000000000000000000000''''''896|",
"*)=127''''0000000000000000000000gopt'''''''tpog000000000000000000000000000fn'''''''''nf00000000000000000000000''''''896|",
"*)=127''''000000000000000000000gopt'''''''tpog00000000000000000000000000000fn'''''''''nf0000000000000000000000''''''896|",
"*)=127''''00000000000000000000gopt'''''''tpog0000000000000000000000000000000fn'''''''''nf000000000000000000000''''''896|",
"*)=127''''0000000000000000000gopt'''''''tpog000000000000000000000000000000000fn'''''''''nf00000000000000000000''''''896|",
"*)=127''''000000000000000000gopt'''''''tpog00000000000000000000000000000000000fn'''''''''nf0000000000000000000''''''896|",
"*)=127''''00000000000000000gopt'''''''tpog0000000000000000000000000000000000000fn'''''''''nf000000000000000000''''''896|",
"*)=127''''0000000000000000gopt'''''''tpog000000000000000000000000000000000000000fn'''''''''nf00000000000000000''''''896|",
"*)=127''''000000000000000gopt'''''''tpog00000000000000000000000000000000000000000fn'''''''''nf0000000000000000''''''896|",
"*)=127''''00000000000000gopt'''''''tpog0000000000000000000000000000000000000000000fn'''''''''nf000000000000000''''''896|",
"*)=127''''0000000000000gopt'''''''tpog000000000000000000000000000000000000000000000fn'''''''''nf00000000000000''''''896|",
"*)=127''''000000000000gopt'''''''tpog00000000000000000000000000000000000000000000000fn'''''''''nf0000000000000''''''896|",
"*)=127''''00000000000bhpt'''''''tpog0000000000000000000000000000000000000000000000000fn'''''''''nf000000000000''''''896|",
"*)=127''''00000000000ciq'''''''tpog000000000000000000000000000000000000000000000000000fn'''''''''ea00000000000''''''896|",
"*)=127''''00000000000bjru'''''tpog00000000000000000000000000000000000000000000000000000fn'''''''md000000000000''''''896|",
"*)=127''''000000000000ksru'''tpog0000000000000000000000000000000000000000000000000000000fn'''''ml0000000000000''''''896|",
"*)=127''''0000000000000ksru'tpog000000000000000000000000000000000000000000000000000000000fn'''ml00000000000000''''''896|",
"*)=127''''00000000000000ksrqpog00000000000000000000000000000000000000000000000000000000000fn'ml000000000000000''''''896|",
"*)=127''''000000000000000kjihg0000000000000000000000000000000000000000000000000000000000000fed0000000000000000''''''896|",
"*)=127''''0000000000000000bcb000000000000000000000000000000000000000000000000000000000000000a00000000000000000''''''896|",
"*)=127''''0000000000000000000000000000000000000000000000000000000000000000000000000000000000000000000000000000''''''896|",
"*)=127''''0000000000000000000000000000000000000000000000000000000000000000000000000000000000000000000000000000''''''896|",
"*)=127''''0000000000000000000000000000000000000000000000000000000000000000000000000000000000000000000000000000''''''896|",
"*)=127''''0000000000000000000000000000000000000000000000000000000000000000000000000000000000000000000000000000''''''896|",
"*)=127''''0000000000000000000000000000000000000000000000000000000000000000000000000000000000000000000000000000''''''896|",
"*)=127''''0000000000000000000000000000000000000000000000000000000000000000000000000000000000000000000000000000''''''896|",
"*)=127''''0000000000000000000000000000000000000000000000000000000000000000000000000000000000000000000000000000''''''896|",
"*)=127''''0000000000000000000000000000000000000000000000000000000000000000000000000000000000000000000000000000''''''896|",
"*)=127''''0000000000000000000000000000000000000000000000000000000000000000000000000000000000000000000000000000''''''896|",
"*)=127''''0000000000000000000000000000000000000000000000000000000000000000000000000000000000000000000000000000''''''896|",
"*)=127''''0000000000000000000000000000000000000000000000000000000000000000000000000000000000000000000000000000''''''896|",
"*)=127''''''''''''''''''''''''''''''''''''''''''''''''''''''''''''''''''''''''''''''''''''''''''''''''''''''''''''''896|",
"*)=127''''''''''''''''''''''''''''''''''''''''''''''''''''''''''''''''''''''''''''''''''''''''''''''''''''''''''''''896|",
"*)=127''''''''''''''''''''''''''''''''''''''''''''''''''''''''''''''''''''''''''''''''''''''''''''''''''''''''''''''896|",
"*)=127''''''''''''''''''''''''''''''''''''''''''''''''''''''''''''''''''''''''''''''''''''''''''''''''''''''''''''''896|",
"*)=127''''''''''''''''''''''''''''''''''''''''''''''''''''''''''''''''''''''''''''''''''''''''''''''''''''''''''''''896|",
"*)=127''''''''''''''''''''''''''''''''''''''''''''''''''''''''''''''''''''''''''''''''''''''''''''''''''''''''''''''896|",
"*)=1xyzzzzzzzzzzzzzzzzzzzzzzzzzzzzzzzzzzzzzzzzzzzzzzzzzzzzzzzzzzzzzzzzzzzzzzzzzzzzzzzzzzzzzzzzzzzzzzzzzzzzzzzzzzzzzzAB6|",
"*)=CDEFFFFFFFFFFFFFFFFFFFFFFFFFFFFFFFFFFFFFFFFFFFFFFFFFFFFFFFFFFFFFFFFFFFFFFFFFFFFFFFFFFFFFFFFFFFFFFFFFFFFFFFFFFFFFFGH6|",
"*)(IJKKKKKKKKKKKKKKKKKKKKKKKKKKKKKKKKKKKKKKKKKKKKKKKKKKKKKKKKKKKKKKKKKKKKKKKKKKKKKKKKKKKKKKKKKKKKKKKKKKKKKKKKKKKKKKKKLM|",
"*NOPQQQQQQQQQQQQQQQQQQQQQQQQQQQQQQQQQQQQQQQQQQQQQQQQQQQQQQQQQQQQQQQQQQQQQQQQQQQQQQQQQQQQQQQQQQQQQQQQQQQQQQQQQQQQQQQQQQRS"};
