/* XPM */
static char *max[] = {
/* columns rows colors chars-per-pixel */
"21 21 9 1",
"  c gray100",
". c #DFDFCDCDCDCD",
"X c #C0C0AFAFAFAF",
"o c #636355555555",
"O c #C1C185858585",
"+ c #A7A773737373",
"@ c #8C8C55555555",
"# c #EEEEE3E3E3E3",
"$ c #A4A478787878",
/* pixels */
"                     ",
".....................",
".....................",
"XXXXXXXXXXXXXXXXXXXXX",
"ooooooooooooooooooooo",
"OOOOOOOOOOOOOOOOOOOOO",
"+++++++++++++++++++++",
"++++++++@@@@@++++++++",
"+++++++@#####@+++++++",
"+++++++@#####@+++++++",
"+++++++@#@@@#@+++++++",
"+++++++@#@$$#@+++++++",
"+++++++@#####@+++++++",
"++++++++@@@@@++++++++",
"+++++++++++++++++++++",
"+++++++++++++++++++++",
"ooooooooooooooooooooo",
"                     ",
".....................",
".....................",
"....................."
};
