/* XPM */
static char *toolbar[] = {
/* columns rows colors chars-per-pixel */
"5 21 3 1",
"  c gray100",
". c #DFDFCDCDCDCD",
"X c #636355555555",
/* pixels */
"     ",
".....",
".....",
".....",
".....",
".....",
".....",
".....",
".....",
".....",
".....",
".....",
".....",
".....",
".....",
".....",
".....",
".....",
".....",
".....",
"XXXXX"
};
