/* XPM */
static char * close_xpm[] = {
"19 19 50 1",
" 	c None",
".	c #43919B",
"+	c #2B6771",
"@	c #2C6771",
"#	c #2C6671",
"$	c #2B6671",
"%	c #255156",
"&	c #2C6972",
"*	c #2C6A73",
"=	c #67AA99",
"-	c #67AA9A",
";	c #67AB9A",
">	c #68AB9A",
",	c #2D6C73",
"'	c #2C6C73",
")	c #6EAB9B",
"!	c #6EAC9C",
"~	c #6EAB9C",
"{	c #6FAB9B",
"]	c #2D6F75",
"^	c #2D6F74",
"/	c #75AC9E",
"(	c #75AC9D",
"_	c #76AC9D",
":	c #2D7275",
"<	c #7CAD9E",
"[	c #7CAD9F",
"}	c #7CAC9F",
"|	c #7DAC9F",
"1	c #7DAD9E",
"2	c #7DAD9F",
"3	c #2F7476",
"4	c #83AEA0",
"5	c #83ADA0",
"6	c #83AEA1",
"7	c #83ADA1",
"8	c #8AAEA2",
"9	c #84AEA0",
"0	c #7DAC9E",
"a	c #75AB9D",
"b	c #2A5C62",
"c	c #2E7275",
"d	c #2D7074",
"e	c #68AA9A",
"f	c #68AA99",
"g	c #67AB99",
"h	c #2D6C74",
"i	c #2D6D73",
"j	c #2C6973",
"k	c #2C6A72",
"...................",
"+@+++#@$#+$@@@+#@@@",
"%%%%%%%%%%%%%%%&&&*",
"=------;-;---->%,''",
")!~))~)))~{~~)~~%]^",
"/(/%%(((((%%_((_/%:",
"<[}%%%|}1%%%}}}22%3",
"4565%%%4%%%754765%3",
"88888%%%%%8888888%3",
"888888%%%88888888%3",
"88888%%%%%8888888%3",
"9564%%%7%%%566677%3",
"[0[%%%[[[%%%}1}[[%3",
"(aa%%_/((a%%((a(_bc",
"~)))~))~~)~)~~)~b^d",
"---=;;e-ef--g;>bh,i",
"bbbbbbbbbbbbbbb&&jk",
"+@@@@@@@##+@++$@@++",
"%%%%%%%%%%%%%%%%%%%"};
