/* XPM */
static char * focus_xpm[] = {
"1 19 13 1",
" 	c None",
".	c #43919B",
"+	c #2C6771",
"@	c #2C6972",
"#	c #2C6C73",
"$	c #2D7075",
"%	c #2D7275",
"&	c #2F7476",
"*	c #2E7275",
"=	c #2E6F74",
"-	c #2C6A72",
";	c #2B6771",
">	c #255156",
".",
"+",
"@",
"#",
"$",
"%",
"&",
"&",
"&",
"&",
"&",
"&",
"&",
"*",
"=",
"#",
"-",
";",
">"};
