/* XPM */
static char * menu_xpm[] = {
"1 19 11 1",
" 	c None",
".	c #2B6470",
"+	c #2B6771",
"@	c #2C6A72",
"#	c #2D6C74",
"$	c #2D6F74",
"%	c #2E7275",
"&	c #2F7476",
"*	c #2E6F74",
"=	c #2D6D73",
"-	c #2C6972",
".",
"+",
"@",
"#",
"$",
"%",
"&",
"&",
"&",
"&",
"&",
"&",
"&",
"%",
"*",
"=",
"-",
"+",
"."};
