/* XPM */
static char * unfocus_xpm[] = {
"19 19 34 1",
" 	c None",
".	c #43919B",
"+	c #2B6771",
"@	c #2C6671",
"#	c #2C6771",
"$	c #2B6671",
"%	c #2C6A72",
"&	c #2C6972",
"*	c #2D6A72",
"=	c #2D6C73",
"-	c #2D6D73",
";	c #2C6C73",
">	c #2D6F74",
",	c #2E6F75",
"'	c #2D6F75",
")	c #2E7176",
"!	c #2D7275",
"~	c #2E7175",
"{	c #2E7275",
"]	c #2D7176",
"^	c #2F7476",
"/	c #2D7175",
"(	c #2E7276",
"_	c #2D7276",
":	c #2E7074",
"<	c #2E6F74",
"[	c #2D7074",
"}	c #2D6C74",
"|	c #2C6D73",
"1	c #2C6C74",
"2	c #2D6972",
"3	c #2C6A73",
"4	c #2B6772",
"5	c #255156",
"...................",
"+@###++##$+#+##+@$+",
"%&%&%&&&%%*%&%&&%%%",
"==-=;--==;;-;;=;-;-",
">,>>>>>>>>>'>>>'>>>",
")!~{~!~]!{!~!{!!~!{",
"^^^^^^^^^^^^^^^^^^^",
"^^^^^^^^^^^^^^^^^^^",
"^^^^^^^^^^^^^^^^^^^",
"^^^^^^^^^^^^^^^^^^^",
"^^^^^^^^^^^^^^^^^^^",
"^^^^^^^^^^^^^^^^^^^",
"^^^^^^^^^^^^^^^^^^^",
"/{!({/!{/{_{!]{{{{{",
">:>>>><<>>'>>>>><>[",
"=}-=--=--=|===11=-|",
"%&%%%&%%&23%&%&&%%%",
"$+@##4++##+#+++@+@#",
"5555555555555555555"};
