/* XPM */
static char * icon_xpm[] = {
"20 21 64 1",
" 	c #FEFEFE",
".	c #FFFFFF",
"+	c #F5F5F5",
"@	c #F6F6F6",
"#	c #EDEDED",
"$	c #EEEEEE",
"%	c #ECECEC",
"&	c #EBEBEB",
"*	c #EAEAEA",
"=	c #E9E9E9",
"-	c #E2E2E2",
";	c #E1E1E1",
">	c #C3C3C3",
",	c #B0B0B0",
"'	c #A5A5A5",
")	c #A3A3A3",
"!	c #A6A6A6",
"~	c #A4A4A4",
"{	c #B2B2B2",
"]	c #E0E0E0",
"^	c #666666",
"/	c #454545",
"(	c #434343",
"_	c #444444",
":	c #646464",
"<	c #ACACAC",
"[	c #ABABAB",
"}	c #6A6A6A",
"|	c #7E7E7E",
"1	c #CFCFCF",
"2	c #D0D0D0",
"3	c #CECECE",
"4	c #808080",
"5	c #696969",
"6	c #B7B7B7",
"7	c #B6B6B6",
"8	c #C6C6C6",
"9	c #F0F0F0",
"0	c #EFEFEF",
"a	c #C5C5C5",
"b	c #474747",
"c	c #E3E3E3",
"d	c #464646",
"e	c #B8B8B8",
"f	c #DCDCDC",
"g	c #DBDBDB",
"h	c #DDDDDD",
"i	c #D3D3D3",
"j	c #D2D2D2",
"k	c #6F6F6F",
"l	c #6B6B6B",
"m	c #A9A9A9",
"n	c #A8A8A8",
"o	c #6C6C6C",
"p	c #484848",
"q	c #707070",
"r	c #C2C2C2",
"s	c #C4C4C4",
"t	c #F3F3F3",
"u	c #F1F1F1",
"v	c #F2F2F2",
"w	c #F9F9F9",
"x	c #F7F7F7",
"y	c #F8F8F8",
"    ................",
"+@++++++++++++++++++",
"####$$$$$$$$$$$$$$$$",
"%&%%#%##%##%#%##%##%",
"&&*&=&&&*&&*=&&&*&&*",
"&&&&&&%&*%&*&&%&*%&*",
"%%%%#%%%%%%%#%%%%%%%",
"--;-;>,')!'~~'){>'!'",
"--]-~^/(__(//(_(:'<[",
";;-;}|12131122114567",
";;-;/89$$$#$$$$0abaa",
";]c;deffffffgffh6dij",
"-;;-klmmnnmnmnnmokh]",
";;-;7kppbpppbpppq6**",
"----;jr>rrrrs>>sjtuv",
"--;-wxyyyyyywxyyyyyy",
";;-;];--;--;];--;--;",
";;];;-];;];;;-];;];;",
";-;;;;;-;;-;;;;-;;-;",
";-;;----------------",
"-;------------------"};
