/* XPM */
static char * unfocus_xpm[] = {
"22 22 72 1",
" 	c #FFFFFF",
".	c #FEFEFE",
"+	c #FBFBFB",
"@	c #F9F9F9",
"#	c #F7F7F7",
"$	c #F6F6F6",
"%	c #F3F3F3",
"&	c #EFEFEF",
"*	c #EBEBEB",
"=	c #E7E7E7",
"-	c #E5E5E5",
";	c #EEEEEE",
">	c #E8E8E8",
",	c #CCCCCC",
"'	c #ABABAB",
")	c #9B9B9B",
"!	c #F4F4F4",
"~	c #E3E3E3",
"{	c #B7B7B7",
"]	c #A8B5BC",
"^	c #BED8EA",
"/	c #CAE6F8",
"(	c #F2F2F2",
"_	c #ECECEC",
":	c #BBBBBB",
"<	c #B1C7D5",
"[	c #C7E7FC",
"}	c #F1F1F1",
"|	c #D1D1D1",
"1	c #A6B5BF",
"2	c #BDE1F7",
"3	c #BDE1F8",
"4	c #A6B5BE",
"5	c #EAEAEB",
"6	c #E5E5E6",
"7	c #AFAFAF",
"8	c #A5CDE5",
"9	c #B1DAF3",
"0	c #E8E8E9",
"a	c #A5A5A5",
"b	c #9ACCE8",
"c	c #9BCEEB",
"d	c #AAAAAA",
"e	c #85BFE1",
"f	c #85C1E4",
"g	c #84BEE2",
"h	c #A9A9A9",
"i	c #BABABA",
"j	c #7EB9DB",
"k	c #85C2E5",
"l	c #7FB8DA",
"m	c #EBEBEC",
"n	c #D7D7D7",
"o	c #9EB9C7",
"p	c #87C4E9",
"q	c #86C4E9",
"r	c #A1B9C8",
"s	c #D8D8D8",
"t	c #ECECED",
"u	c #CECECE",
"v	c #96C0DA",
"w	c #8BC8EE",
"x	c #D0D0D1",
"y	c #ABC4D4",
"z	c #94C8EA",
"A	c #93CDF0",
"B	c #EDEDEE",
"C	c #E0E0E1",
"D	c #CFCFD0",
"E	c #C8C8C8",
"F	c #EEEEEF",
"G	c #DBDCDC",
"                      ",
"......................",
"++++++++++++++++++++++",
"@@@@@@@@@@@@@@@@@@@@@@",
"######################",
"#####$%&*=--=*&%$#####",
"####$%;>,'))',>;%$####",
"####!&~{]^//^]{~&!####",
"####(_:<[[[[[[<:_(####",
"####}|1233333324|}####",
"5555678999999998765555",
"55550abccccccccba05555",
"55555deffffffffgh55555",
"55555ijkkkkkkkkl:55555",
"5555mnopqqqqqqprsm5555",
"5555mtuvwwwwwwvutm5555",
"55555m5xyzAAzyx5m55555",
"555555tBCDEEDCBt555555",
"5555555mtBFFBtm5555555",
"555555555mmmm555555555",
"GGGGGGGGGGGGGGGGGGGGGG",
"######################"};
