/* XPM */
static char * close_xpm[] = {
"17 17 6 1",
" 	c None",
".	c #466391",
"+	c #6384B5",
"@	c #4B73AA",
"#	c #141414",
"$	c #FFFFFF",
".................",
"+++++++++++++++..",
"++++++++++++++++.",
"++++@@@@@@@@@+++.",
"+++@@@#@@@#@@@++.",
"+++@@###@###@@++.",
"+++@##$#@#$##@++.",
"+++@@##$#$##@@++.",
"@@@@@@@#$##@@@@@.",
"@@@@@##$#$##@@@@.",
"@@@@##$###$##@@@.",
"@@@@@###@###@@@@.",
"@@@@@@#@@@#@@@@@.",
"@@@@@@@@@@@@@@@@.",
"@@@@@@@@@@@@@@@@.",
"@@@@@@@@@@@@@@@@.",
"................."};
