/* XPM */
static char * icon_unfocus_xpm[] = {
"17 17 6 1",
" 	c None",
".	c #383838",
"+	c #4E4E4E",
"@	c #434343",
"#	c #141414",
"$	c #D0D2D4",
".................",
"+++++++++++++++++",
"+++++++++++++++++",
"+++++++++++++++++",
"++++@@@@@@@@@++++",
"+++@@@@@@@@@@@+++",
"+++@@@@@@@@@@@+++",
"+++@@@@@@@@@@@+++",
"@@@@@#######@@@@@",
"@@@@@#$$$$$#@@@@@",
"@@@@@#######@@@@@",
"@@@@@@@@@@@@@@@@@",
"@@@@@@@@@@@@@@@@@",
"@@@@@@@@@@@@@@@@@",
"@@@@@@@@@@@@@@@@@",
"@@@@@@@@@@@@@@@@@",
"................."};
