/* XPM */
static char * stick_xpm[] = {
"16 17 11 1",
" 	c None",
".	c #466391",
"+	c #6384B5",
"@	c #4B73AA",
"#	c #141414",
"$	c #EDEDED",
"%	c #FDFDFD",
"&	c #D7D7D7",
"*	c #C3C3C3",
"=	c #B5B5B5",
"-	c #B0B1B2",
"................",
"..++++++++++++++",
".+++++++++++++++",
".++@@@@@@@@@++++",
".+@@@@@@@@@@@+++",
".+@@#######@@+++",
".+@@#$%%%$#@@+++",
".+@@#$$$$&#@@+++",
".@@@#&&&&*#@@@@@",
".@@@#****=#@@@@@",
".@@@#-====#@@@@@",
".@@@#######@@@@@",
".@@@@@@@@@@@@@@@",
".@@@@@@@@@@@@@@@",
".@@@@@@@@@@@@@@@",
".@@@@@@@@@@@@@@@",
"................"};
