/* XPM */
static char * title_inactive_xpm[] = {
"2 17 4 1",
" 	c None",
".	c #383838",
"+	c #4E4E4E",
"@	c #434343",
"..",
"++",
"++",
"++",
"++",
"++",
"++",
"++",
"++",
"@@",
"@@",
"@@",
"@@",
"@@",
"@@",
"@@",
".."};
