/* XPM */
static char * toolbar_xpm[] = {
"3 17 4 1",
" 	c None",
".	c #6384B5",
"+	c #4B73AA",
"@	c #466391",
"...",
"...",
"...",
"...",
"...",
"...",
"...",
"...",
"+++",
"+++",
"+++",
"+++",
"+++",
"+++",
"+++",
"+++",
"@@@"};
