/* XPM */
static char * icon_xpm[] = {
"22 22 161 2",
"  	c #D9E2E8",
". 	c #D8E1E7",
"+ 	c #D9E2E7",
"@ 	c #D8E2E7",
"# 	c #FFFFFF",
"$ 	c #F3F6F7",
"% 	c #DDE5EB",
"& 	c #CBD6DF",
"* 	c #C1CDD7",
"= 	c #CAD5DE",
"- 	c #DDE5EA",
"; 	c #E5ECEF",
"> 	c #C4D0D9",
", 	c #A4B4C4",
"' 	c #93A5B7",
") 	c #869AAD",
"! 	c #7E94A6",
"~ 	c #859AAC",
"{ 	c #A3B4C3",
"] 	c #C4CFD9",
"^ 	c #E6ECEF",
"/ 	c #F9FCFC",
"( 	c #FAFCFC",
"_ 	c #DCE4EA",
": 	c #A8B9C6",
"< 	c #869AAC",
"[ 	c #9CAEBE",
"} 	c #AEBFCB",
"| 	c #BBC9D4",
"1 	c #ADBECA",
"2 	c #9CAFBE",
"3 	c #A9B9C7",
"4 	c #F3F7F8",
"5 	c #F4F8F9",
"6 	c #F4F7F8",
"7 	c #DFE7EB",
"8 	c #72879C",
"9 	c #A0B1C1",
"0 	c #94A7B7",
"a 	c #8194A9",
"b 	c #7C90A4",
"c 	c #8195A9",
"d 	c #95A7B8",
"e 	c #7F94A7",
"f 	c #A4B4C3",
"g 	c #DEE7EB",
"h 	c #F4F7F9",
"i 	c #EFF4F5",
"j 	c #F0F4F5",
"k 	c #EAEFF2",
"l 	c #C1CED8",
"m 	c #687C92",
"n 	c #677B91",
"o 	c #6F8398",
"p 	c #556982",
"q 	c #475B73",
"r 	c #455970",
"s 	c #677C92",
"t 	c #E9EEF2",
"u 	c #889CAE",
"v 	c #3C4D66",
"w 	c #6E8398",
"x 	c #64788F",
"y 	c #495D75",
"z 	c #3D5067",
"A 	c #3B4D65",
"B 	c #3D5068",
"C 	c #4A5E75",
"D 	c #63778F",
"E 	c #879CAD",
"F 	c #EAEFF3",
"G 	c #E6ECF0",
"H 	c #D2DBE3",
"I 	c #4C5F78",
"J 	c #33455D",
"K 	c #566982",
"L 	c #3C4E66",
"M 	c #3B4D66",
"N 	c #556981",
"O 	c #DFE6EC",
"P 	c #DFE5EB",
"Q 	c #DFE6EB",
"R 	c #CDD8DF",
"S 	c #0C101D",
"T 	c #C2CED8",
"U 	c #E4EAEE",
"V 	c #DEE5EB",
"W 	c #DFE7EC",
"X 	c #E4EAEF",
"Y 	c #0C101C",
"Z 	c #D9E0E7",
"` 	c #D9E1E7",
" .	c #CFDAE1",
"..	c #000000",
"+.	c #D1DBE2",
"@.	c #D5DFE5",
"#.	c #D6DFE6",
"$.	c #D8E0E7",
"%.	c #D5DFE6",
"&.	c #D3DDE3",
"*.	c #D2DCE3",
"=.	c #D1DAE2",
"-.	c #B0C0CC",
";.	c #CCD6DF",
">.	c #D1DBE3",
",.	c #D3DDE4",
"'.	c #D2DCE4",
").	c #D0DAE2",
"!.	c #CCD7E0",
"~.	c #B1C1CD",
"{.	c #CDD8E0",
"].	c #3A4B63",
"^.	c #212D43",
"/.	c #32425A",
"(.	c #3A4C63",
"_.	c #32435A",
":.	c #C9D3DC",
"<.	c #C8D3DC",
"[.	c #0C0F1C",
"}.	c #33455C",
"|.	c #34455D",
"1.	c #222E43",
"2.	c #8296AA",
"3.	c #C9D4DC",
"4.	c #C4D0DA",
"5.	c #C3CFD9",
"6.	c #C9D4DD",
"7.	c #394B62",
"8.	c #1A2336",
"9.	c #2B3950",
"0.	c #394A62",
"a.	c #34465D",
"b.	c #192235",
"c.	c #384A62",
"d.	c #CCD7DF",
"e.	c #C0CDD7",
"f.	c #0F1423",
"g.	c #192236",
"h.	c #AEBECB",
"i.	c #C1CED7",
"j.	c #BECAD5",
"k.	c #BDCAD5",
"l.	c #BECBD6",
"m.	c #D9E1E8",
"n.	c #B4C3CF",
"o.	c #40536A",
"p.	c #3F526A",
"q.	c #B5C4D0",
"r.	c #D7DFE6",
"s.	c #99ABBC",
"t.	c #4D6179",
"u.	c #4D6079",
"v.	c #99ACBC",
"w.	c #D7E0E6",
"x.	c #BECAD6",
"y.	c #F2F5F7",
"z.	c #BCCAD5",
"A.	c #BCC9D4",
"B.	c #BCC9D5",
"C.	c #74899E",
"D.	c #74889D",
"  . + + + + + .   + .       @ @     + + +   ",
"# # # # # # # # # # # # # # # # # # # # # # ",
"# # # # # # # # $ % & * = - $ # # # # # # # ",
"# # # # # # ; > , ' ) ! ~ ' { ] ^ # # # # # ",
"/ ( ( ( ( _ : < < [ } | 1 2 ~ ) 3 % ( ( / ( ",
"4 5 4 6 7 { 8 ! 9 0 a b c d 9 e 8 f g h 6 6 ",
"i i j k l m n ) o p q r q p o ) s n l k j i ",
"k t k . u v w x y z v v A B C D w v E   F k ",
"^ G ^ H I J K y B L M v v v B C N J I H ^ G ",
"O P Q R S T Q ^ G U 7 V W X ; G Q l Y R O V ",
"Z ` Z  ...+.@.#.Z ` ` ` $.` ` #.%.+... .` $.",
"&.*.&.=...-.;. .>.*.,.&.&.'.). .!.~...+.&.,.",
"R {.{.'.]...^./.(.v A A v A (._.^...(.'.{.R ",
":.<.:.'.c ..[.^.}.(.v v A ].|.1.S ..2.>.:.3.",
"4.5.] 6.{.7.....8.9.|.0.a.9.b.....c.d.<.5.] ",
"l l e.e.*.1 b.........f.........g.h.*.l l i.",
"j.k.l.j.k.m.n.o...............p.q.m.k.j.l.l.",
"l.j.j.k.j.j.r.O s.t.......u.v.Q w.l.k.j.j.l.",
"x.l.j.l.k.l.j.<.Q y.# # # y.V <.x.x.l.k.l.k.",
"z.| A.z.A.| | z.| z.A.| A.z.z.A.z.z.z.z.| | ",
"z.z.z.B.A.| z.| z.| | z.z.z.z.| A.z.z.B.z.| ",
"C.D.C.D.C.C.D.C.C.C.D.C.C.C.C.C.C.C.D.C.C.C."};
