/* XPM */
static char * stuck_unfocus_xpm[] = {
"22 22 91 1",
" 	c None",
".	c #4D6079",
"+	c #4C6078",
"@	c #4C6079",
"#	c #501528",
"$	c #521529",
"%	c #511529",
"&	c #401120",
"*	c #91A4B6",
"=	c #90A4B5",
"-	c #8C2547",
";	c #8B2446",
">	c #761F3C",
",	c #90A3B5",
"'	c #8FA3B4",
")	c #8C9FB2",
"!	c #8B9EB1",
"~	c #872344",
"{	c #721E3A",
"]	c #8498AC",
"^	c #802241",
"/	c #6B1C36",
"(	c #7B8FA4",
"_	c #7B8EA4",
":	c #7A203E",
"<	c #79203D",
"[	c #781F3D",
"}	c #791F3D",
"|	c #641A33",
"1	c #72879C",
"2	c #72869C",
"3	c #5E182F",
"4	c #667A91",
"5	c #677B91",
"6	c #667B91",
"7	c #671B34",
"8	c #661B34",
"9	c #55162B",
"0	c #5B6F87",
"a	c #5B6F86",
"b	c #5C7087",
"c	c #5D182F",
"d	c #4B1426",
"e	c #52657E",
"f	c #52667E",
"g	c #51657E",
"h	c #54162B",
"i	c #441222",
"j	c #475973",
"k	c #475A73",
"l	c #4B1326",
"m	c #4A1325",
"n	c #3B0F1E",
"o	c #3F526B",
"p	c #40526B",
"q	c #441122",
"r	c #350D1A",
"s	c #3C4D66",
"t	c #310D19",
"u	c #3A4C65",
"v	c #3B4C65",
"w	c #3F1020",
"x	c #3B4D65",
"y	c #2D0B16",
"z	c #35465E",
"A	c #35475E",
"B	c #3A0F1D",
"C	c #2A0B15",
"D	c #2F3F57",
"E	c #340D1A",
"F	c #250912",
"G	c #2A384F",
"H	c #2A394F",
"I	c #2E0C17",
"J	c #220911",
"K	c #1D293C",
"L	c #1E293D",
"M	c #1E2A3D",
"N	c #210811",
"O	c #120409",
"P	c #141B2B",
"Q	c #141C2C",
"R	c #15050A",
"S	c #16050B",
"T	c #020001",
"U	c #0A0F18",
"V	c #0B0F18",
"W	c #0A0205",
"X	c #0B0305",
"Y	c #0C0306",
"Z	c #000000",
"..+@..+..+..+...+##$%&",
"*=**==**=*==*===*-;-->",
",'',''',''''''''';;;;>",
")!))!!))!)!!)!!!)~~~~{",
"]]]]]]]]]]]]]]]]]^^^^/",
"(__(___(_________:<[}|",
"11221121121121112{{{{3",
"4456445445445444577789",
"0ab0aab0abaabaaab3cccd",
"efggffgefgffgfffg9hhhi",
"jjkjjjkjjkjjkjjjkllmln",
"oppopppopppppppppqiqqr",
"sssssssssssssssss&&&&t",
"uvvvvvvuvvvvvvvvvwwwwt",
"xuxvuuxxuxuuxuuuxwwwwy",
"zAAzAAAzAAAAAAAAABBBBC",
"DDDDDDDDDDDDDDDDDErrEF",
"GGHHGGHGGHGGHGGGHIIIIJ",
"KLMLLLMKLMLLMLLLMNNNNO",
"PQPQQQPPQPQQPQQQPRRSST",
"UVVUVVVUVVVVVVVVVWXYWZ",
"ZZZZZZZZZZZZZZZZZZZZZZ"};
