/* XPM */
static char * wtitle_xpm[] = {
"1 22 18 1",
" 	c #D9E2E8",
".	c #FFFFFF",
"+	c #FAFCFC",
"@	c #F4F7F8",
"#	c #EFF4F5",
"$	c #EAEFF2",
"%	c #E5EBEF",
"&	c #DFE6EC",
"*	c #D9E0E7",
"=	c #D2DCE3",
"-	c #CCD7DF",
";	c #C9D4DD",
">	c #C3CFD9",
",	c #C1CDD7",
"'	c #BECBD6",
")	c #BBC9D4",
"!	c #BCCAD5",
"~	c #74889E",
" ",
".",
".",
".",
"+",
"@",
"#",
"$",
"%",
"&",
"*",
"=",
"-",
";",
">",
",",
"'",
"'",
"'",
")",
"!",
"~"};
