/* XPM */
static char * close_xpm[] = {
"16 16 29 1",
" 	c #91A5BD",
".	c #74808E",
"+	c #76808C",
"@	c #777F8C",
"#	c #BBC3D6",
"$	c #B9C4DA",
"%	c #B9C4D6",
"&	c #BBC3DA",
"*	c #B9C3DC",
"=	c #BBC3D8",
"-	c #BCC3D6",
";	c #7D7D87",
">	c #7E7D83",
",	c #BFC3CF",
"'	c #7D7E83",
")	c #7B7E87",
"!	c #BCC2D8",
"~	c #7E7D85",
"{	c #7F7D80",
"]	c #7D7C82",
"^	c #7F7D7E",
"/	c #C0C2CF",
"(	c #807E81",
"_	c #7F7E83",
":	c #BFC3CE",
"<	c #B8C3D9",
"[	c #7E7D82",
"}	c #BAC5DB",
"|	c #767E8B",
"                ",
"                ",
"  .+@@@++@@++.  ",
"  @#$$$$$$$$%+  ",
"  @&*=-==#=*$@  ",
"  @$=;>,,')=$@  ",
"  @$!~{]'^'#$@  ",
"  @$&/>(^_:=<@  ",
"  @$=,>{^[:=$@  ",
"  @$#'{''^'#$@  ",
"  @}=)',,')=$@  ",
"  @}*=#==#=*$|  ",
"  +%}$$$$$$$%+  ",
"  .+@@@@@@@@+.  ",
"                ",
"                "};
