/* XPM */
static char * stick1a_xpm[] = {
"16 16 24 1",
" 	c #7F7F7F",
".	c #7A7A7A",
"+	c #747474",
"@	c #6E6E6E",
"#	c #686868",
"$	c #4C4C4C",
"%	c #292929",
"&	c #FFFFFF",
"*	c #171717",
"=	c #151515",
"-	c #0E0E0E",
";	c #070707",
">	c #060606",
",	c #030303",
"'	c #000000",
")	c #D7D7D7",
"!	c #D6D6D6",
"~	c #040404",
"{	c #020202",
"]	c #222222",
"^	c #212121",
"/	c #202020",
"(	c #1F1F1F",
"_	c #505050",
"                ",
"                ",
"................",
"++++++++++++++++",
"@@@@@@@@@@@@@@@@",
"################",
"$$$$$$$$$$$$$$$$",
"%%%%%%&&&&&%%%%%",
"*==**=-&&&-**==*",
";;;;;;>,&,>;;;;;",
"''''))))))))!'''",
"''''&&&&&&&&&'''",
"~~~>{{{,{{{,{~~>",
"]]]^^^/(////^]]^",
"________________",
"''''''''''''''''"};
