/* XPM */
static char * stick2_xpm[] = {
"16 16 62 1",
" 	c #8FB4CB",
".	c #899FAD",
"+	c #94C5E3",
"@	c #98D0F4",
"#	c #99D1F5",
"$	c #8FC0DE",
"%	c #93CBEF",
"&	c #94CCF0",
"*	c #89BAD8",
"=	c #8DC5E9",
"-	c #8EC6EA",
";	c #83B4D2",
">	c #87BFE3",
",	c #88C0E4",
"'	c #FFFFFF",
")	c #7DAECC",
"!	c #81B9DD",
"~	c #82BADE",
"{	c #587E96",
"]	c #6192B0",
"^	c #659DC1",
"/	c #669EC2",
"(	c #5C8FAF",
"_	c #375669",
":	c #3E6F8D",
"<	c #437B9F",
"[	c #3C6F90",
"}	c #2C5169",
"|	c #2D5D7C",
"1	c #2F678B",
"2	c #31698D",
"3	c #1D4D6C",
"4	c #21597D",
"5	c #0F3F5E",
"6	c #134B6F",
"7	c #D7D7D7",
"8	c #D6D6D6",
"9	c #063655",
"0	c #0A4266",
"a	c #1A4A69",
"b	c #1E567A",
"c	c #20587C",
"d	c #123349",
"e	c #0F2D40",
"f	c #0F2C3F",
"g	c #102D3F",
"h	c #0F2C3E",
"i	c #102E41",
"j	c #386887",
"k	c #3C7498",
"l	c #3B7397",
"m	c #3B7296",
"n	c #3A7194",
"o	c #396F92",
"p	c #386E91",
"q	c #396E91",
"r	c #397093",
"s	c #6696B5",
"t	c #6AA2C6",
"u	c #00304F",
"v	c #023A5E",
"w	c #043C60",
" ...............",
"+@@@############",
"$%%%&&&&&&&&&&&&",
"*==-------------",
";>>,,,''''',,,,,",
")!~~~~{'''{~~~~~",
"]^////(_'_(/////",
":<<<<<<[}[<<<<<<",
"|112211221122112",
"3444444444444444",
"5666777777778666",
"9000'''''''''000",
"abbcdefghhfidbbc",
"jkklmnopqoormkkl",
"sttttttttttttttt",
"uvvvwvvvwvvvwvvv"};
