/* XPM */
static char * close_xpm[] = {
"21 21 10 1",
" 	c None",
".	c #FCFDFC",
"+	c #D5E2CE",
"@	c #B8CEAD",
"#	c #689153",
"$	c #98B788",
"%	c #7FA46D",
"&	c #87AA76",
"*	c #70985D",
"=	c #E5EDE1",
".....................",
"++++++++++++++++++++@",
"++++++++++++++++++++@",
"@@@@@@@@@@@@@@@@@@++@",
"#################.++@",
"$$$$$$$$$$$$$$$%#.++@",
"&&&&&&&&&&&&&&&%#.++@",
"&&&&&&*&&&*&&&&%#.++@",
"&&&&&*=*&*=*&&&%#.++@",
"&&&&&&*=*=*&&&&%#.++@",
"&&&&&&&*=*&&&&&%#.++@",
"&&&&&&*=*=*&&&&%#.++@",
"&&&&&*=*&*=*&&&%#.++@",
"&&&&&&*&&&*&&&&%#.++@",
"&&&&&&&&&&&&&&&%#.++@",
"&&&&&&&&&&&&&&&%#.++@",
"#################.++@",
"..................++@",
"++++++++++++++++++++@",
"++++++++++++++++++++@",
"++++++++++++++++++++@"};
