/* XPM */
static char * wtitle_xpm[] = {
"5 21 8 1",
" 	c None",
".	c #FCFDFC",
"+	c #D5E2CE",
"@	c #B8CEAD",
"#	c #689153",
"$	c #98B788",
"%	c #87AA76",
"&	c #7FA46D",
".....",
"+++++",
"+++++",
"@@@@@",
"#####",
"$$$$$",
"%%%%%",
"%%%%%",
"%%%%%",
"%%%%%",
"%%%%%",
"%%%%%",
"%%%%%",
"%%%%%",
"%%%%%",
"&&&&&",
"#####",
".....",
"+++++",
"+++++",
"+++++"};
