/* XPM */
static char * close_xpm[] = {
"22 22 46 1",
" 	c None",
".	c #993C99",
"+	c #7A147A",
"@	c #490849",
"#	c #520952",
"$	c #630B63",
"%	c #781278",
"&	c #4D084D",
"*	c #4C084C",
"=	c #550955",
"-	c #730D73",
";	c #761076",
">	c #530953",
",	c #580958",
"'	c #740E74",
")	c #670B67",
"!	c #600A60",
"~	c #620A62",
"{	c #FDFCFD",
"]	c #700C70",
"^	c #650B65",
"/	c #6A0B6A",
"(	c #6C0C6C",
"_	c #6E0C6E",
":	c #690B69",
"<	c #771177",
"[	c #791379",
"}	c #7B157B",
"|	c #7C167C",
"1	c #5E0A5E",
"2	c #801B80",
"3	c #5B0A5B",
"4	c #831F83",
"5	c #842084",
"6	c #811C81",
"7	c #882588",
"8	c #560956",
"9	c #8B298B",
"0	c #903090",
"a	c #8F2E8F",
"b	c #852185",
"c	c #943494",
"d	c #4F084F",
"e	c #963796",
"f	c #3E063E",
"g	c #000000",
"......................",
"++++++++++++++++++++++",
"@@@@@@@@@@@@@@#$%%%%%%",
"&&**&*&&*&*&&**&=-;;;;",
">>>>>>>>>>>>>>>#>,''''",
",,,,,,,,,,,,,,,,,,)---",
"!~!{{!!!!!!!{{~!!!~]]]",
"^^^{{{^^^^^{{{^^))^///",
"(_(_{{{__({{{(____(:::",
"'''''{{{'{{{'''''''^^^",
"<<[[%[{{{{{%%<<<[<%$$$",
"}}}}}}}{{{||}}}}}||111",
"222222{{{{{22222222333",
"45555{{{5{{{5455556333",
"7777{{{777{{{777772888",
"999{{{99999{{{9999-===",
"00a{{00000a0{{000b####",
"cccccccccccccccc7,dddd",
"..ee.e..e.e..e9<******",
"@@@@@@@@@@@@@@@@@@@@@@",
"ffffffffffffffffffffff",
"gggggggggggggggggggggg"};
