/* XPM */
static char * icon_xpm[] = {
"22 22 45 1",
" 	c None",
".	c #993C99",
"+	c #7A147A",
"@	c #781278",
"#	c #630B63",
"$	c #520952",
"%	c #490849",
"&	c #761076",
"*	c #730D73",
"=	c #550955",
"-	c #4C084C",
";	c #4D084D",
">	c #740E74",
",	c #580958",
"'	c #530953",
")	c #650B65",
"!	c #700C70",
"~	c #620A62",
"{	c #600A60",
"]	c #6A0B6A",
"^	c #690B69",
"/	c #6C0C6C",
"(	c #6E0C6E",
"_	c #791379",
":	c #771177",
"<	c #5E0A5E",
"[	c #7B157B",
"}	c #7C167C",
"|	c #5B0A5B",
"1	c #801B80",
"2	c #811C81",
"3	c #842084",
"4	c #831F83",
"5	c #560956",
"6	c #7F1A7F",
"7	c #882588",
"8	c #8B298B",
"9	c #FDFCFD",
"0	c #852185",
"a	c #903090",
"b	c #4F084F",
"c	c #943494",
"d	c #963796",
"e	c #3E063E",
"f	c #000000",
"......................",
"++++++++++++++++++++++",
"@@@@@@#$%%%%%%%%%%%%%%",
"&&&&*=-;;;;;;;;;;;;;;;",
">>>>,''$''''''''''''''",
"***),,,,,,,,,,,,,,,,,,",
"!!!~{{{{{{{{{{~{{{{{{~",
"]]])))))))))))))))))))",
"^^^/((/!//////!//////!",
")))>>>>>*>*>*>>*>*>*>>",
"###_:::@:_:_:_@:_:_:_@",
"<<<[[[[}[[[[[[}[[[[[[}",
"|||1111111111111111111",
"|||2333443434334343433",
"5556777777777777777777",
"===*888899999999999888",
"$$$$0aaa99999999999aaa",
"bbbb,7cccccccccccccccc",
"------:8dddddd.dddddd.",
"%%%%%%%%%%%%%%%%%%%%%%",
"eeeeeeeeeeeeeeeeeeeeee",
"ffffffffffffffffffffff"};
