/* XPM */
static char * max_off_xpm[] = {
"22 22 24 1",
" 	c None",
".	c #6A4783",
"+	c #4D2868",
"@	c #341848",
"#	c #36194B",
"$	c #38194D",
"%	c #3B1B51",
"&	c #3F1D57",
"*	c #F3F0F6",
"=	c #421E5B",
"-	c #452060",
";	c #462161",
">	c #472262",
",	c #4B2666",
"'	c #4F2B6A",
")	c #542F6E",
"!	c #563170",
"~	c #593573",
"{	c #5C3876",
"]	c #633F7C",
"^	c #623E7B",
"/	c #66437F",
"(	c #2E1540",
"_	c #0A040E",
"......................",
"++++++++++++++++++++++",
"@@@@@@@@@@@@@@@@@@@@@@",
"######################",
"$$$$$$$$$$$$$$$$$$$$$$",
"%%%%%%%%%%%%%%%%%%%%%%",
"&&&&&&***********&&&&&",
"======***********=====",
"-;----*---------*-----",
">>>>>>*>>>>>>>>>*>>>>>",
"+,,,,,*,+,+,,++,*++++,",
"''''++*'++'''''+*'++++",
"))))))*)))))))))*)))))",
"!!!!!!*!!!!!!!!!*!!!!!",
"~~~~~~*~~~~~~~~~*~~~~~",
"{{{{{{*{{{{{{{{{*{{{{{",
"]^]]]]***********]]]]^",
"//////////////////////",
"......................",
"@@@@@@@@@@@@@@@@@@@@@@",
"((((((((((((((((((((((",
"______________________"};
