/* XPM */
static char * menu_xpm[] = {
"3 22 22 1",
" 	c None",
".	c #993C99",
"+	c #7A147A",
"@	c #781278",
"#	c #761076",
"$	c #740E74",
"%	c #730D73",
"&	c #700C70",
"*	c #6A0B6A",
"=	c #690B69",
"-	c #650B65",
";	c #630B63",
">	c #5E0A5E",
",	c #5B0A5B",
"'	c #560956",
")	c #550955",
"!	c #520952",
"~	c #4F084F",
"{	c #4C084C",
"]	c #490849",
"^	c #3E063E",
"/	c #000000",
"...",
"+++",
"@@@",
"###",
"$$$",
"%%%",
"&&&",
"***",
"===",
"---",
";;;",
">>>",
",,,",
",,,",
"'''",
")))",
"!!!",
"~~~",
"{{{",
"]]]",
"^^^",
"///"};
