/* XPM */
static char * stick_xpm[] = {
"22 22 46 1",
" 	c None",
".	c #993C99",
"+	c #7A147A",
"@	c #781278",
"#	c #630B63",
"$	c #520952",
"%	c #490849",
"&	c #761076",
"*	c #730D73",
"=	c #550955",
"-	c #4C084C",
";	c #4D084D",
">	c #740E74",
",	c #580958",
"'	c #530953",
")	c #650B65",
"!	c #670B67",
"~	c #700C70",
"{	c #620A62",
"]	c #600A60",
"^	c #6A0B6A",
"/	c #FDFCFD",
"(	c #690B69",
"_	c #6C0C6C",
":	c #6E0C6E",
"<	c #791379",
"[	c #771177",
"}	c #5E0A5E",
"|	c #7B157B",
"1	c #7C167C",
"2	c #5B0A5B",
"3	c #801B80",
"4	c #811C81",
"5	c #842084",
"6	c #831F83",
"7	c #560956",
"8	c #7F1A7F",
"9	c #882588",
"0	c #8B298B",
"a	c #852185",
"b	c #903090",
"c	c #4F084F",
"d	c #943494",
"e	c #963796",
"f	c #3E063E",
"g	c #000000",
"......................",
"++++++++++++++++++++++",
"@@@@@@#$%%%%%%$#@@@@@@",
"&&&&*=-;;;;;;;-;=*&&&&",
">>>>,''$'''''''$',>>>>",
"***),,,,,,,,,,,,,,!***",
"~~~{]]]]]]{]]{{]]]{~~~",
"^^^)))///////////!)^^^",
"(((_::///////////:_(((",
")))>>>>>*>>*>>>>>>>)))",
"###<[[[/////////<[@###",
"}}}||||//|1||1//|11}}}",
"22233333//333//3333222",
"222455566//6//55554222",
"7778999999///999993777",
"===*0000000/000000*===",
"$$$$abbbbbbbbbbbba$$$$",
"cccc,9dddddddddd9,cccc",
"------[0ee.ee.0[------",
"%%%%%%%%%%%%%%%%%%%%%%",
"ffffffffffffffffffffff",
"gggggggggggggggggggggg"};
