/* XPM */
static char * max_xpm[] = {
"22 22 311 2",
"  	c None",
". 	c #FBFBFD",
"+ 	c #FBFCFE",
"@ 	c #FCFDFE",
"# 	c #FDFEFE",
"$ 	c #FDFEFF",
"% 	c #FEFEFF",
"& 	c #FFFFFF",
"* 	c #FFFEFF",
"= 	c #FEFFFF",
"- 	c #FDFDFF",
"; 	c #FBFDFE",
"> 	c #FAFCFD",
", 	c #FAFBFD",
"' 	c #FAFBFE",
") 	c #F9FBFE",
"! 	c #F9FBFD",
"~ 	c #F8FAFD",
"{ 	c #F7F9FD",
"] 	c #F7F9FC",
"^ 	c #F7F8FC",
"/ 	c #F6F9FC",
"( 	c #F5F8FB",
"_ 	c #F4F8FC",
": 	c #F5F7FC",
"< 	c #F4F7FB",
"[ 	c #F4F7FC",
"} 	c #F3F7FB",
"| 	c #F3F6FB",
"1 	c #F2F6FB",
"2 	c #F2F5FB",
"3 	c #F1F5FB",
"4 	c #F0F4FA",
"5 	c #F0F4FB",
"6 	c #EFF3FA",
"7 	c #EEF3FA",
"8 	c #EEF2F9",
"9 	c #EDF2F9",
"0 	c #ECF2F9",
"a 	c #ECF1F9",
"b 	c #EBF0F9",
"c 	c #EBF0F8",
"d 	c #EAF0F8",
"e 	c #EAF0F9",
"f 	c #E9EFF8",
"g 	c #E8EFF8",
"h 	c #E8EEF8",
"i 	c #E7EEF7",
"j 	c #E7EDF7",
"k 	c #E6EDF8",
"l 	c #E6EDF7",
"m 	c #E5EDF7",
"n 	c #E5ECF6",
"o 	c #E5ECF7",
"p 	c #E4EBF6",
"q 	c #E4ECF6",
"r 	c #E3EBF6",
"s 	c #E3EAF6",
"t 	c #E2EAF6",
"u 	c #E1EAF5",
"v 	c #E0EAF5",
"w 	c #E1E9F5",
"x 	c #E0E8F6",
"y 	c #DFE8F5",
"z 	c #DFE7F4",
"A 	c #DEE7F4",
"B 	c #DEE7F5",
"C 	c #DDE6F4",
"D 	c #DCE6F4",
"E 	c #DBE5F4",
"F 	c #DBE5F3",
"G 	c #DBE4F4",
"H 	c #DAE5F4",
"I 	c #DAE3F3",
"J 	c #D9E4F3",
"K 	c #D9E3F3",
"L 	c #D8E3F3",
"M 	c #D8E2F2",
"N 	c #D8E2F3",
"O 	c #D7E2F3",
"P 	c #D6E1F2",
"Q 	c #D5E0F2",
"R 	c #D5E0F1",
"S 	c #D4E0F2",
"T 	c #D4DFF1",
"U 	c #D3DFF1",
"V 	c #D2DFF1",
"W 	c #D2DEF0",
"X 	c #D1DEF1",
"Y 	c #D0DDF0",
"Z 	c #D0DCF0",
"` 	c #CFDCF0",
" .	c #CEDCEF",
"..	c #CEDBF0",
"+.	c #CDDBEF",
"@.	c #CEDAEF",
"#.	c #CCDAEF",
"$.	c #CCDAEE",
"%.	c #CBD9EE",
"&.	c #CBD9EF",
"*.	c #CAD9EE",
"=.	c #C9D8EE",
"-.	c #C8D7ED",
";.	c #C7D7ED",
">.	c #C3D3EC",
",.	c #C2D2EC",
"'.	c #C2D2EB",
").	c #C1D1EB",
"!.	c #C0D2EB",
"~.	c #BFD1EB",
"{.	c #BFD0EB",
"].	c #BECFEA",
"^.	c #000000",
"/.	c #B9CCE9",
"(.	c #B8CCE8",
"_.	c #B8CBE9",
":.	c #B7CAE8",
"<.	c #B7CBE8",
"[.	c #B6CAE8",
"}.	c #B5C9E7",
"|.	c #B5C9E8",
"1.	c #AFC5E5",
"2.	c #AFC5E6",
"3.	c #AFC4E6",
"4.	c #AEC5E6",
"5.	c #AEC4E5",
"6.	c #ADC3E5",
"7.	c #ADC4E6",
"8.	c #ACC3E5",
"9.	c #ADC3E4",
"0.	c #ABC2E5",
"a.	c #ACC2E4",
"b.	c #ABC2E4",
"c.	c #A6BEE3",
"d.	c #A5BEE3",
"e.	c #A5BDE2",
"f.	c #A5BDE3",
"g.	c #A4BCE2",
"h.	c #A4BDE2",
"i.	c #A3BCE1",
"j.	c #A2BCE1",
"k.	c #A2BBE1",
"l.	c #9CB7E0",
"m.	c #9CB7DF",
"n.	c #9CB6E0",
"o.	c #9BB6DF",
"p.	c #9AB5DF",
"q.	c #9AB6DF",
"r.	c #99B5DF",
"s.	c #98B4DE",
"t.	c #97B3DE",
"u.	c #97B3DF",
"v.	c #96B3DE",
"w.	c #95B3DD",
"x.	c #93B0DD",
"y.	c #93B0DC",
"z.	c #92AFDC",
"A.	c #91B0DC",
"B.	c #91AFDC",
"C.	c #90AFDC",
"D.	c #90AEDC",
"E.	c #8FAEDC",
"F.	c #8FAEDB",
"G.	c #8EADDB",
"H.	c #8EACDB",
"I.	c #8DADDB",
"J.	c #8DACDA",
"K.	c #8CABDB",
"L.	c #8CABDA",
"M.	c #89AAD9",
"N.	c #88A9D9",
"O.	c #88A8DA",
"P.	c #87A8D9",
"Q.	c #87A7D9",
"R.	c #86A7D9",
"S.	c #85A7D9",
"T.	c #85A6D9",
"U.	c #84A5D8",
"V.	c #84A6D8",
"W.	c #83A5D7",
"X.	c #82A5D7",
"Y.	c #80A2D7",
"Z.	c #7FA2D7",
"`.	c #7FA2D6",
" +	c #7EA1D6",
".+	c #7EA0D6",
"++	c #7DA1D6",
"@+	c #7CA0D6",
"#+	c #7C9FD6",
"$+	c #7BA0D5",
"%+	c #7B9FD5",
"&+	c #7A9ED5",
"*+	c #799ED4",
"=+	c #799DD4",
"-+	c #769BD4",
";+	c #769BD3",
">+	c #759AD4",
",+	c #749AD3",
"'+	c #739AD3",
")+	c #7499D3",
"!+	c #7399D3",
"~+	c #7299D3",
"{+	c #7298D2",
"]+	c #7197D2",
"^+	c #7097D2",
"/+	c #6F97D1",
"(+	c #6F96D1",
"_+	c #6D94D1",
":+	c #6B94D0",
"<+	c #6B93D1",
"[+	c #6B93D0",
"}+	c #6B92D0",
"|+	c #6A92D0",
"1+	c #6993D0",
"2+	c #6991D0",
"3+	c #6992CF",
"4+	c #6891CF",
"5+	c #6791CF",
"6+	c #6790CF",
"7+	c #6790CE",
"8+	c #6690CE",
"9+	c #658FCE",
"0+	c #658ECE",
"a+	c #638ECD",
"b+	c #638ECE",
"c+	c #638DCD",
"d+	c #628DCD",
"e+	c #618CCD",
"f+	c #618CCC",
"g+	c #608CCD",
"h+	c #608BCD",
"i+	c #5F8BCD",
"j+	c #5F8BCC",
"k+	c #5F8ACC",
"l+	c #5E8ACC",
"m+	c #5D8ACC",
"n+	c #5D89CC",
"o+	c #5D89CB",
"p+	c #5C88CB",
"q+	c #5B88CB",
"r+	c #5C88CC",
"s+	c #5A87CB",
"t+	c #5A87CA",
"u+	c #5987CA",
"v+	c #5986CB",
"w+	c #5885CA",
"x+	c #5784C9",
"y+	c #5784CA",
"z+	c #5684CA",
"A+	c #5584C9",
"B+	c #5583CA",
"C+	c #5483C9",
"D+	c #5583C9",
"E+	c #5483C8",
"F+	c #5382C8",
"G+	c #5381C8",
"H+	c #5281C8",
"I+	c #5181C8",
"J+	c #5180C8",
"K+	c #507FC7",
"L+	c #5080C8",
"M+	c #4F7FC7",
"N+	c #4E7FC7",
"O+	c #4E7EC7",
"P+	c #4D7EC7",
"Q+	c #4D7DC7",
"R+	c #4C7DC6",
"S+	c #4B7DC6",
"T+	c #4B7CC6",
"U+	c #4A7BC6",
"V+	c #497BC5",
"W+	c #497BC6",
"X+	c #497AC5",
"Y+	c #487AC5",
"Z+	c #477AC5",
"`+	c #4779C5",
" @	c #4679C4",
".@	c #4679C5",
"+@	c #4578C4",
"@@	c #4477C4",
"#@	c #4376C4",
"$@	c #4477C3",
"%@	c #4476C3",
"&@	c #4276C4",
"*@	c #4275C3",
"=@	c #4174C3",
"-@	c #4074C3",
";@	c #4073C2",
">@	c #3F73C2",
",@	c #3E73C2",
"'@	c #3E72C1",
")@	c #3D72C1",
"!@	c #3D71C1",
"~@	c #3C71C2",
"{@	c #3C71C1",
"]@	c #3B71C1",
"^@	c #3B70C1",
"/@	c #3A6FC0",
"(@	c #3970C0",
"_@	c #396FC0",
":@	c #386FC0",
"<@	c #386EC0",
"[@	c #376EC0",
"}@	c #366DBF",
"|@	c #376DBF",
"1@	c #366DC0",
"2@	c #356CBF",
"3@	c #366CBF",
"4@	c #356DBF",
"5@	c #376DC0",
"6@	c #396FC1",
". + + @ @ # $ # % & & * = $ # - @ @ ; + > , ",
"' ) ! ! ~ ~ { ] ^ / ( _ : < [ } | 1 2 2 3 4 ",
"5 4 6 6 7 7 8 9 0 0 a b c d d e f g g h i j ",
"k l m n o p p q r s t t u v w x y z A B A C ",
"A C D D E F G H I J K L M N O P P Q R S S T ",
"T U V V W X X Y Z Z `  ...+.@.+.#.$.$.%.&.*.",
"*.=.=.=.-.;.& & & & & & & & & & >.,.,.'.).).",
"!.!.~.{.~.].& ^.^.^.^.^.^.^.^.& /.(._._.:.<.",
":.[.[.}.}.|.& ^.^.^.^.^.^.^.^.& 1.2.3.4.5.6.",
"7.8.9.0.a.b.& ^.^.^.^.^.^.^.^.& c.d.e.f.g.h.",
"g.g.i.j.k.k.& & & & & & ^.^.^.& l.m.n.o.o.p.",
"q.p.p.r.s.t.u.t.t.v.w.& ^.^.^.& x.y.z.A.B.B.",
"C.D.E.F.G.G.H.I.J.K.L.& ^.^.^.& M.N.O.N.P.Q.",
"Q.R.R.S.T.U.U.V.W.X.W.& ^.^.^.& Y.Z.`. + +.+",
"++@+@+#+$+%+%+&+&+*+=+& ^.^.^.& -+;+>+,+,+'+",
")+!+!+~+{+{+]+^+^+/+(+& & & & & _+:+<+[+}+|+",
"}+1+2+3+4+4+5+6+7+8+9+9+9+0+a+b+c+c+d+e+f+g+",
"h+g+i+j+k+l+m+n+o+p+q+r+q+s+t+u+v+v+w+w+w+x+",
"y+z+A+B+C+D+C+E+F+G+H+H+I+J+J+K+L+M+M+N+O+P+",
"P+Q+R+R+S+T+U+U+V+W+X+Y+Y+Z+`+ @.@+@+@+@@@#@",
"$@%@&@#@*@*@=@-@-@;@>@>@,@'@)@)@!@~@{@]@^@/@",
"/@(@_@:@<@[@<@}@|@1@2@2@3@4@1@1@5@<@:@_@6@6@"};
