/* XPM */
static char * button_menu_focused_xpm[] = {
"23 23 51 1",
" 	c None",
".	c #465774",
"+	c #D6DCEE",
"@	c #D2D8EB",
"#	c #D4DAED",
"$	c #CFD7EA",
"%	c #97A9C7",
"&	c #B2BED7",
"*	c #BCC6DD",
"=	c #95A7C5",
"-	c #A1B0CC",
";	c #92A4C3",
">	c #9AABC8",
",	c #8FA2C1",
"'	c #7E93B5",
")	c #4C5E7C",
"!	c #99AAC7",
"~	c #8C9FBF",
"{	c #BBBDC4",
"]	c #FFFEFF",
"^	c #899DBD",
"/	c #96A8C5",
"(	c #8EA0BF",
"_	c #879ABB",
":	c #FCFAFA",
"<	c #F9F7F6",
"[	c #EFECE9",
"}	c #908B74",
"|	c #8699BA",
"1	c #F2F0ED",
"2	c #ECE9E5",
"3	c #53637F",
"4	c #E5E2DB",
"5	c #C0BCB6",
"6	c #7C91B3",
"7	c #E1DED6",
"8	c #798FB1",
"9	c #A3A09B",
"0	c #768CAE",
"a	c #7389AC",
"b	c #DDDAD1",
"c	c #7086AA",
"d	c #ACA79B",
"e	c #D9D6CC",
"f	c #6D84A8",
"g	c #D6D2C7",
"h	c #768BAC",
"i	c #6A81A5",
"j	c #677EA3",
"k	c #647BA1",
"l	c #61799F",
".......................",
".......++++++++++++++++",
"....@#$%%%%%%%%%%%%%%%%",
"..&*=======%===========",
"..-;;;;;;;;;;;;;;;;;;;;",
"..>,,,'))))))))))',,,,,",
".!;~~'){]]]]]]]]{)'^~~~",
"./^^^){]]]]]]]]]]{)^^^^",
".(___)::::::::::::)____",
".(___)<<<[[[[}<<<<)____",
".|''')111222}}1111)''''",
"3|''')[[[44}5}[[[[)''''",
".6666)2227}55}2222)6666",
".8888)444999994444)8888",
".0000)777]]]]]7777)0000",
".aaaa)bbbbbbbbbbbb)aaaa",
".cccc)deeeeeeeeeed)accc",
".ffff0)dggggeeggd)hafff",
".iiiii6))))))))))8jjiii",
".jjjjjj66666888'8jjjjjj",
".kkkljllljljljljjlljkkk",
".llllllllllllllllllllll",
")))))))))))))))))))))))"};
