/* XPM */
static char * min1_xpm[] = {
"10 28 105 2",
"  	c None",
". 	c #FFB366",
"+ 	c #FFB266",
"@ 	c #F6A553",
"# 	c #F6A453",
"$ 	c #F5A454",
"% 	c #F5A453",
"& 	c #F3A04D",
"* 	c #F2A04D",
"= 	c #F3A04E",
"- 	c #F29E4A",
"; 	c #F19E4B",
"> 	c #F19E4A",
", 	c #F29E4B",
"' 	c #D3893F",
") 	c #D38A40",
"! 	c #D48A3F",
"~ 	c #D4893F",
"{ 	c #D48940",
"] 	c #E29241",
"^ 	c #E39241",
"/ 	c #E39141",
"( 	c #E39240",
"_ 	c #E29240",
": 	c #E99541",
"< 	c #E99542",
"[ 	c #EA9541",
"} 	c #EC9742",
"| 	c #ED9742",
"1 	c #EC9741",
"2 	c #DA8A3B",
"3 	c #DA8B3C",
"4 	c #D98A3C",
"5 	c #DA8B3B",
"6 	c #D98B3B",
"7 	c #D98A3B",
"8 	c #E4913D",
"9 	c #E4903D",
"0 	c #E4903C",
"a 	c #E8933E",
"b 	c #E8933D",
"c 	c #E9933E",
"d 	c #E9933D",
"e 	c #EA953E",
"f 	c #EB943E",
"g 	c #EA943E",
"h 	c #EB953E",
"i 	c #D48637",
"j 	c #D48538",
"k 	c #D48638",
"l 	c #D38538",
"m 	c #D38637",
"n 	c #E18D3B",
"o 	c #E18E3A",
"p 	c #E18E3B",
"q 	c #E7923D",
"r 	c #E7923C",
"s 	c #E7913C",
"t 	c #E8913C",
"u 	c #EA943D",
"v 	c #EA933D",
"w 	c #EB933D",
"x 	c #C77D33",
"y 	c #C77E34",
"z 	c #C87D34",
"A 	c #C87E34",
"B 	c #C77D34",
"C 	c #CB8035",
"D 	c #CA8035",
"E 	c #CB7F35",
"F 	c #D58637",
"G 	c #D48537",
"H 	c #D58537",
"I 	c #D58638",
"J 	c #CF8236",
"K 	c #CE8236",
"L 	c #CF8336",
"M 	c #CE8235",
"N 	c #CE8335",
"O 	c #CF8235",
"P 	c #D08336",
"Q 	c #D38537",
"R 	c #D38437",
"S 	c #C17A32",
"T 	c #C27A32",
"U 	c #C17A33",
"V 	c #C27A33",
"W 	c #C07932",
"X 	c #BC7731",
"Y 	c #BC7630",
"Z 	c #BC7730",
"` 	c #BC7631",
" .	c #9C6229",
"..	c #9C6228",
"+.	c #9C6329",
"@.	c #9C6328",
"#.	c #895623",
"$.	c #895724",
"%.	c #895624",
"&.	c #563716",
"*.	c #573617",
"=.	c #563717",
"-.	c #573717",
";.	c #563617",
">.	c #573616",
". + . . . . + . + + ",
"@ # # $ # # % # # # ",
"& & * & = * & & & * ",
"- ; > , > > > - , - ",
"' ) ! ! ! ~ ~ ~ ~ { ",
"] ^ / ( ( ^ ( ( _ / ",
": : < : [ : < : [ : ",
"} } | 1 1 1 } } } 1 ",
"2 3 4 5 6 3 3 2 7 7 ",
"8 8 9 9 8 0 8 9 9 9 ",
"a b c a b a a c d a ",
"e f f e g f h h h g ",
"i j k j l j m k i k ",
"n o p p p p p p o o ",
"q r s r r s r r r t ",
"u v u u u w w v v u ",
"x y z A y z B x B B ",
"C D C C E C E C C E ",
"i F G H i i F I G k ",
"J J K K L M N J O J ",
"L P P P P P P L L P ",
"Q Q Q Q Q Q Q R Q Q ",
"S T U T T T U S U V ",
"W W W W W W W W W W ",
"X Y X Z X ` ` X ` X ",
" . ... ...+.@... ...",
"#.$.#.#.%.$.$.#.%.%.",
"&.*.=.&.-.;.*.*.*.>."};
