/* XPM */
static char * min2a_xpm[] = {
"20 20 57 1",
" 	c None",
".	c #F5A453",
"+	c #140000",
"@	c #CDCDCD",
"#	c #ABABAB",
"$	c #0A0A0A",
"%	c #C9C9C9",
"&	c #D2D2D2",
"*	c #B5B5B5",
"=	c #B3B3B3",
"-	c #D4D4D4",
";	c #B9B9B9",
">	c #D0D0D0",
",	c #B8B8B8",
"'	c #B6B6B6",
")	c #CFCFCF",
"!	c #D1D1D1",
"~	c #B1B1B1",
"{	c #CCCCCC",
"]	c #F5F5F5",
"^	c #A6A6A6",
"/	c #A4A4A4",
"(	c #C7C7C7",
"_	c #C4C4C4",
":	c #9F9F9F",
"<	c #C3C3C3",
"[	c #C1C1C1",
"}	c #989898",
"|	c #EEEEEE",
"1	c #C0C0C0",
"2	c #939393",
"3	c #E4E4E4",
"4	c #BDBDBD",
"5	c #AFAFAF",
"6	c #8C8C8C",
"7	c #DCDCDC",
"8	c #8E8E8E",
"9	c #868686",
"0	c #878787",
"a	c #D8D8D8",
"b	c #9D9D9D",
"c	c #808080",
"d	c #7D7D7D",
"e	c #7A7A7A",
"f	c #E9E9E9",
"g	c #B0B0B0",
"h	c #888888",
"i	c #767676",
"j	c #ACACAC",
"k	c #818181",
"l	c #A7A7A7",
"m	c #8B8B8B",
"n	c #8F8F8F",
"o	c #949494",
"p	c #A0A0A0",
"q	c #A9A9A9",
"r	c #C8C8C8",
".........+@###$%####",
".........$&*==$@=*==",
"........$-;;;;$>,;,,",
"..$$$$$$&''''*$)*'''",
".$!!!!!!~~~~~~$@~~~~",
"${###########$]$%###",
"$%^^////////$]]]$(^/",
"$_:::::::::$]]]]]$<:",
"$[}}}}}}$}$|||||$1}}",
"$,22222$3$33333$4222",
"$566666$777777$;6686",
"$/90999$aaaaa$'99999",
"$bccccc$7777$~cccccc",
"$2deddd$fffff$gdeddd",
"$hiiiiii$$$$$$jiiiii",
"$kiiiii$lllllliiiiii",
"$keddee$leedeeeeeded",
"$m00000$=00000000000",
"$no222o$4oo2o2oo222o",
"$pqqqqq$rqqqqqqqqqqq"};
