/* XPM */
static char * stick2_xpm[] = {
"20 20 49 1",
" 	c None",
".	c #ABABAB",
"+	c #CACACA",
"@	c #0A0A0A",
"#	c #CDCDCD",
"$	c #F5A453",
"%	c #B3B3B3",
"&	c #B5B5B5",
"*	c #CFCFCF",
"=	c #D2D2D2",
"-	c #B8B8B8",
";	c #B9B9B9",
">	c #D4D4D4",
",	c #B6B6B6",
"'	c #D0D0D0",
")	c #B1B1B1",
"!	c #CECECE",
"~	c #D1D1D1",
"{	c #CCCCCC",
"]	c #A6A6A6",
"^	c #C7C7C7",
"/	c #A4A4A4",
"(	c #C9C9C9",
"_	c #9F9F9F",
":	c #C4C4C4",
"<	c #989898",
"[	c #C1C1C1",
"}	c #939393",
"|	c #BEBEBE",
"1	c #8C8C8C",
"2	c #8E8E8E",
"3	c #BABABA",
"4	c #AFAFAF",
"5	c #868686",
"6	c #B7B7B7",
"7	c #878787",
"8	c #808080",
"9	c #9D9D9D",
"0	c #7D7D7D",
"a	c #7A7A7A",
"b	c #767676",
"c	c #AEAEAE",
"d	c #888888",
"e	c #818181",
"f	c #8B8B8B",
"g	c #949494",
"h	c #8F8F8F",
"i	c #A9A9A9",
"j	c #A0A0A0",
".....+@..#@$$$$$$$$$",
"%&%&%*@%&=@$$$$$$$$$",
"-;-;-=@;;;>@$$$$$$$$",
",&,&,'@,,,,=@@@@@@$$",
")))))!@)))))~~~~~~@$",
".....+@@@@@.......{@",
"]]]]]^@^^^^@////]](@",
"_____:@____:@_____:@",
"<<<<<[@<<<<<[@<<<<[@",
"}}}}}|@}}}}}}|@}}}-@",
"111123@11121113@114@",
"555556@55555556@75/@",
"88888&@8888888&@889@",
"0a0a00)@a0a0a0)@a0}@",
"bbbbbbbc@bbbbbc@bbd@",
"bbbbbbbbc@bbbb@cbbe@",
"0a0aaaaa)@@@@@)00ae@",
"77777777-@----7777f@",
"}}}}gg}g|@g}gg}}}gh@",
"iiiiiiii(@iiiiiiiij@"};
