/* XPM */
static char * menu_xpm[] = {
"121 19 361 2",
"  	c None",
". 	c #53564F",
"+ 	c #585B54",
"@ 	c #6F756B",
"# 	c #68715E",
"$ 	c #666F5C",
"% 	c #67705D",
"& 	c #69725F",
"* 	c #68715C",
"= 	c #67705B",
"- 	c #666F5A",
"; 	c #656E59",
"> 	c #656F57",
", 	c #646D58",
"' 	c #636C57",
") 	c #636D55",
"! 	c #626C54",
"~ 	c #656E5D",
"{ 	c #676C60",
"] 	c #575B52",
"^ 	c #777D73",
"/ 	c #676E5E",
"( 	c #707B63",
"_ 	c #798469",
": 	c #79866C",
"< 	c #7F8C72",
"[ 	c #828F75",
"} 	c #839076",
"| 	c #849177",
"1 	c #839074",
"2 	c #818E74",
"3 	c #818E72",
"4 	c #808D71",
"5 	c #7F8C70",
"6 	c #7E8B6F",
"7 	c #7C8B6E",
"8 	c #7D8C6D",
"9 	c #798869",
"0 	c #788567",
"a 	c #8A9A75",
"b 	c #8B9B73",
"c 	c #7E8E6E",
"d 	c #788268",
"e 	c #6B6D68",
"f 	c #6F7668",
"g 	c #6B785E",
"h 	c #879673",
"i 	c #94A57F",
"j 	c #9EAC8B",
"k 	c #C0C7B7",
"l 	c #CAD1C1",
"m 	c #D1D8C8",
"n 	c #D2D9C9",
"o 	c #D2D8CA",
"p 	c #D1D7C9",
"q 	c #D0D7C7",
"r 	c #CFD6C6",
"s 	c #CFD6C4",
"t 	c #C8D1BE",
"u 	c #BCC8B2",
"v 	c #ACB99F",
"w 	c #96A77D",
"x 	c #92A279",
"y 	c #8B9A76",
"z 	c #5D6357",
"A 	c #6E7468",
"B 	c #808D6D",
"C 	c #92A27B",
"D 	c #98A981",
"E 	c #A1AF8D",
"F 	c #B0B8A7",
"G 	c #ABAEA7",
"H 	c #9FA19C",
"I 	c #999B96",
"J 	c #9B9D98",
"K 	c #9A9C97",
"L 	c #9A9C99",
"M 	c #989A95",
"N 	c #A8ADA6",
"O 	c #B5BBAF",
"P 	c #C2C9B7",
"Q 	c #B4C1A7",
"R 	c #96A77E",
"S 	c #8FA077",
"T 	c #849076",
"U 	c #777D71",
"V 	c #6D7A5E",
"W 	c #8E9F78",
"X 	c #9EAB8E",
"Y 	c #9DA099",
"Z 	c #9A9D96",
"` 	c #9A9B96",
" .	c #A0A19C",
"..	c #B3B9AF",
"+.	c #B7C3AA",
"@.	c #7F8E6F",
"#.	c #8F9C7F",
"$.	c #879773",
"%.	c #98A97F",
"&.	c #9FAA8D",
"*.	c #92918D",
"=.	c #91918F",
"-.	c #91938E",
";.	c #92948F",
">.	c #939590",
",.	c #949590",
"'.	c #93948F",
").	c #92938E",
"!.	c #92958C",
"~.	c #90938C",
"{.	c #8F9490",
"].	c #AAB2A5",
"^.	c #A3B38F",
"/.	c #94A47D",
"(.	c #849372",
"_.	c #606658",
":.	c #778565",
"<.	c #93A27B",
"[.	c #9BAA84",
"}.	c #888B81",
"|.	c #82847F",
"1.	c #848780",
"2.	c #858681",
"3.	c #848681",
"4.	c #858782",
"5.	c #868782",
"6.	c #838882",
"7.	c #868684",
"8.	c #858784",
"9.	c #858881",
"0.	c #868781",
"a.	c #83867F",
"b.	c #858680",
"c.	c #838582",
"d.	c #888B82",
"e.	c #B2BBA8",
"f.	c #9BAB85",
"g.	c #899875",
"h.	c #939A87",
"i.	c #6F7666",
"j.	c #8E9E77",
"k.	c #99A983",
"l.	c #98A485",
"m.	c #72746F",
"n.	c #747770",
"o.	c #73766F",
"p.	c #767771",
"q.	c #747671",
"r.	c #757772",
"s.	c #767772",
"t.	c #757774",
"u.	c #757871",
"v.	c #757670",
"w.	c #72756C",
"x.	c #949C8D",
"y.	c #ABBB95",
"z.	c #93A37F",
"A.	c #8B967E",
"B.	c #6B755D",
"C.	c #8F9F79",
"D.	c #99AA83",
"E.	c #7D8574",
"F.	c #62655E",
"G.	c #62655C",
"H.	c #646760",
"I.	c #63665D",
"J.	c #656762",
"K.	c #646661",
"L.	c #64675E",
"M.	c #65685F",
"N.	c #63665B",
"O.	c #656764",
"P.	c #656861",
"Q.	c #64655F",
"R.	c #63665F",
"S.	c #62685E",
"T.	c #62645F",
"U.	c #767C70",
"V.	c #AFBE9D",
"W.	c #98A984",
"X.	c #8A9577",
"Y.	c #66725A",
"Z.	c #8D9D79",
"`.	c #9AAB82",
" +	c #66705C",
".+	c #52554A",
"++	c #51544B",
"@+	c #52554C",
"#+	c #52554E",
"$+	c #545651",
"%+	c #515652",
"&+	c #535550",
"*+	c #535552",
"=+	c #525753",
"-+	c #51564F",
";+	c #4F554B",
">+	c #595F53",
",+	c #A6B594",
"'+	c #9AAF88",
")+	c #899674",
"!+	c #707964",
"~+	c #90A179",
"{+	c #98AA81",
"]+	c #4F5846",
"^+	c #2A2D22",
"/+	c #2C2F26",
"(+	c #282E24",
"_+	c #2C2F28",
":+	c #292F25",
"<+	c #2B3127",
"[+	c #2D3027",
"}+	c #2D3029",
"|+	c #2B3029",
"1+	c #2C312A",
"2+	c #2C2F24",
"3+	c #2B2E25",
"4+	c #282E22",
"5+	c #2A2D26",
"6+	c #464D3D",
"7+	c #8F9F7B",
"8+	c #9DAF87",
"9+	c #8B9679",
"0+	c #787F6F",
"a+	c #8C9C75",
"b+	c #778666",
"c+	c #2B2E23",
"d+	c #2A3026",
"e+	c #2C3226",
"f+	c #2D3025",
"g+	c #2D2F2A",
"h+	c #292F23",
"i+	c #5B674F",
"j+	c #93A57F",
"k+	c #9CAC87",
"l+	c #949E87",
"m+	c #898C83",
"n+	c #899973",
"o+	c #90A07A",
"p+	c #333C2B",
"q+	c #2E302B",
"r+	c #2B3123",
"s+	c #2A3024",
"t+	c #34382A",
"u+	c #768566",
"v+	c #99AB85",
"w+	c #97A484",
"x+	c #9EA894",
"y+	c #7E8C6D",
"z+	c #95A67F",
"A+	c #9CAD83",
"B+	c #687358",
"C+	c #2E2F27",
"D+	c #2A2D24",
"E+	c #5A6052",
"F+	c #8E9F7D",
"G+	c #93A080",
"H+	c #8A9282",
"I+	c #8C9082",
"J+	c #899775",
"K+	c #636F55",
"L+	c #31392A",
"M+	c #2B2E27",
"N+	c #2E312A",
"O+	c #2B2F21",
"P+	c #33392B",
"Q+	c #5A6352",
"R+	c #7E8D6E",
"S+	c #99A986",
"T+	c #9BA98C",
"U+	c #868F7C",
"V+	c #9AAC82",
"W+	c #A3B58B",
"X+	c #829170",
"Y+	c #5C6850",
"Z+	c #474E3E",
"`+	c #353B2D",
" @	c #2A2F28",
".@	c #2E3128",
"+@	c #393C31",
"@@	c #484E40",
"#@	c #606954",
"$@	c #79866A",
"%@	c #91A07F",
"&@	c #98AA84",
"*@	c #9AAA86",
"=@	c #9AA58E",
"-@	c #5B6055",
";@	c #8B947F",
">@	c #8FA07A",
",@	c #99AD83",
"'@	c #A8BA90",
")@	c #A7B98F",
"!@	c #9FAF8A",
"~@	c #98A884",
"{@	c #92A180",
"]@	c #909F7E",
"^@	c #909F80",
"/@	c #91A081",
"(@	c #92A182",
"_@	c #93A281",
":@	c #94A382",
"<@	c #94A384",
"[@	c #95A284",
"}@	c #96A385",
"|@	c #95A487",
"1@	c #96A588",
"2@	c #95A485",
"3@	c #93A283",
"4@	c #97A486",
"5@	c #9AA988",
"6@	c #9FB18B",
"7@	c #A1B38D",
"8@	c #9CAD8D",
"9@	c #98A68E",
"0@	c #8F9881",
"a@	c #939C8B",
"b@	c #8A9877",
"c@	c #94A47F",
"d@	c #9FAF8B",
"e@	c #A3B58D",
"f@	c #A7B991",
"g@	c #A9BB91",
"h@	c #AABC92",
"i@	c #ABBD93",
"j@	c #ACBE96",
"k@	c #ACBE98",
"l@	c #ADBF99",
"m@	c #AEC09A",
"n@	c #AFC19B",
"o@	c #B0C29C",
"p@	c #B1C19C",
"q@	c #B0C09B",
"r@	c #B1C39D",
"s@	c #B3C39E",
"t@	c #B3C39F",
"u@	c #B5C5A1",
"v@	c #B4C4A0",
"w@	c #B1C19D",
"x@	c #ADBE9A",
"y@	c #A7B695",
"z@	c #A1AF8E",
"A@	c #9BA58A",
"B@	c #A3AC9B",
"C@	c #9DA395",
"D@	c #949E86",
"E@	c #8E9D7E",
"F@	c #8E9D7C",
"G@	c #91A17D",
"H@	c #93A180",
"I@	c #94A183",
"J@	c #95A382",
"K@	c #96A483",
"L@	c #98A587",
"M@	c #99A688",
"N@	c #98A589",
"O@	c #9AA78B",
"P@	c #9BA88C",
"Q@	c #98A58B",
"R@	c #9EA792",
"S@	c #A7AD9F",
"T@	c #60635C",
". . . . . . + @ # $ % & * * * = - - - - - ; ; ; - - - - - - - - - - - - - - - - - - - - - - - - - - - - - - - - - - - - - - - - - - - - - - - - - - - - - ; ; ; ; ; - - - - - - ; ; - - - - - - - - - - ; ; > > ; ; ; , ' ) ) ! ~ { . ] ] . . . . ",
". . . . ^ / ( _ : < [ } | | } 1 [ [ [ [ [ [ 2 2 3 3 3 3 3 3 3 3 3 3 3 3 3 3 3 3 3 3 3 3 3 3 3 3 3 3 3 3 3 3 3 3 3 3 3 3 3 3 3 3 3 3 3 3 3 3 3 3 3 3 3 3 3 3 3 3 3 3 3 3 3 3 3 3 3 3 3 3 3 3 3 3 3 3 3 3 3 3 4 4 4 5 5 5 6 7 8 9 0 a b c d ] . . . ",
". . e f g h i j k l m n o o o n n n n n n n n n p p p p p p p p p p p p p p p p p p p p p p p p p p p p p p p p p p p p p p p p p p p p p p p p p p p p p p p p p p p p p p p p p p p p p p p p m m m m m m m m q m q r r q s t u v w w x y z . . ",
". . A B C D E F G H I J J K L L K K K K K K K K K K K K K K K K K K K K K J J K L L K K K K K K K K K K K K K K K K K K J J K L L K K K K K K K K K K K K K K K K K K K K K K K K K K K K K K K K K K K K K K K I M I K I M K H N O P Q R S T ] . ",
". U V W D X Y Z I J J J J J J J J J J J J J J J J J J J J J J J J J J J J J J J J J J J J J J J J J J J J J J J J J J J J J J J J J J J J J J J J J J J J J J J J J J J J J J J J J J J J J J J J J J J J J J J K J J K K J I K K `  ...+.R @.#.. ",
". % $.%.&.*.=.-.;.-.;.>.>.>.>.>.,.,.,.,.,.,.,.,.,.,.,.,.,.,.,.,.,.,.,.,.,.>.>.>.>.>.,.,.,.,.,.,.,.,.,.,.,.,.,.,.,.,.,.,.>.>.>.>.>.,.,.,.,.,.,.,.,.,.,.,.,.,.,.,.,.,.,.,.,.,.,.,.,.,.,.,.,.,.,.,.>.>.>.>.>.>.>.>.>.;.;.>.'.).,.'.-.!.~.{.].^./.(._.",
". :.<.[.}.|.1.2.3.3.3.3.4.4.4.4.4.4.4.4.4.4.4.4.5.5.5.5.5.5.5.5.3.6.5.7.8.3.4.4.4.4.4.4.4.4.4.4.4.4.5.5.5.5.5.5.5.5.3.6.3.4.4.4.4.4.4.4.4.4.4.4.4.5.5.5.5.5.5.5.5.3.6.5.7.4.9.0.5.5.5.5.5.5.5.5.5.5.5.5.5.5.5.5.4.3.3.3.3.3.1.a.3.b.c.1.d.e.f.g.h.",
"i.j.k.l.m.n.o.p.q.q.q.q.r.r.r.r.r.r.r.r.r.r.r.r.r.r.r.r.r.r.r.r.s.r.t.r.u.q.r.r.r.r.r.r.r.r.r.r.r.r.r.r.r.r.r.r.r.r.s.r.q.r.r.r.r.r.r.r.r.r.r.r.r.r.r.r.r.r.r.r.r.s.r.t.r.v.v.r.r.r.r.r.r.r.r.r.r.r.r.r.r.r.r.r.r.r.r.q.q.n.n.n.n.v.q.w.o.x.y.z.A.",
"B.C.D.E.F.G.H.I.H.H.H.H.H.J.J.J.H.H.H.H.H.K.K.K.J.J.J.J.J.J.J.J.L.J.M.N.O.H.H.J.J.J.H.H.H.H.H.K.K.K.J.J.J.J.J.J.J.J.L.J.H.H.J.J.J.H.H.H.H.H.K.K.K.J.J.J.J.J.J.J.J.L.J.M.N.K.M.J.J.J.J.J.J.J.J.J.J.J.J.J.P.P.P.P.J.J.K.K.H.H.H.H.H.Q.R.S.T.U.V.W.X.",
"Y.Z.`. +.+++@+#+#+#+#+. . . . . . . . . . . . . . . . . . . . . $+%+&+$+*+. . . . . . . . . . . . . . . . . . . . . $+%+. . . . . . . . . . . . . . . . . . . . . $+%+&+$+=+-+$+. . . . . . . . . . . . . . . . . . . . #+#+#+#+@+@+@+;+&+>+,+'+)+",
"!+~+{+]+^+/+(+_+:+/+/+/+/+/+/+<+[+[+[+[+[+}+}+}+}+}+}+}+}+}+}+}+[+|+/+1+2+/+/+/+/+<+[+[+[+[+[+}+}+}+}+}+}+}+}+}+}+}+[+|+/+/+/+/+<+[+[+[+[+[+}+}+}+}+}+}+}+}+}+}+}+[+|+/+1+/+/+[+}+}+}+}+}+}+}+}+}+}+}+}+}+}+}+}+}+}+}+[+/+/+/+/+3+3+:+4+5+6+7+8+9+",
"0+a+%.b+(+:+(+c+:+:+d+/+/+d+d+d+[+[+[+[+[+[+[+[+[+[+[+[+[+[+[+[+[+[+/+e+f+/+/+d+d+d+[+[+[+[+[+[+[+[+[+[+[+[+[+[+[+[+[+[+/+/+d+d+d+[+[+[+[+[+[+[+[+[+[+[+[+[+[+[+[+[+[+/+e+g+_+[+[+[+[+[+[+[+[+[+}+}+}+}+[+[+[+[+[+[+<+<+d+d+/+/+/+3+(+h+c+i+j+k+l+",
"m+n+%.o+p+h+(+^+:+3+/+/+/+/+/+<+[+[+[+[+[+[+[+[+[+[+[+[+[+[+[+[+/+}+[+/+q+/+/+/+/+<+[+[+[+[+[+[+[+[+[+[+[+[+[+[+[+[+/+}+/+/+/+/+<+[+[+[+[+[+[+[+[+[+[+[+[+[+[+[+[+/+}+[+/+d+r+[+[+[+[+[+[+[+[+[+[+[+[+[+[+[+[+[+<+<+[+[+[+/+d+d+/+:+s+3+t+u+v+w+x+",
". y+z+A+B+(+:+c+3+3+3+3+3+3+/+/+}+[+[+[+[+[+[+[+[+[+[+[+[+[+[+[+[+d+[+[+C+3+3+3+/+/+}+[+[+[+[+[+[+[+[+[+[+[+[+[+[+[+[+d+3+3+3+/+/+}+[+[+[+[+[+[+[+[+[+[+[+[+[+[+[+[+d+[+[+}+[+/+[+[+[+[+[+[+[+[+[+[+[+[+[+[+[+[+<+[+[+[+[+/+/+:+c+d+s+D+E+F+'+G+H+",
". I+J+%.D K+L+(+:+:+d+d+:+/+_+M+d+d+d+d+d+d+<+<+[+[+[+[+[+[+[+[+[+[+[+[+[+d+:+/+_+M+d+d+d+d+d+d+<+<+[+[+[+[+[+[+[+[+[+[+d+:+/+_+M+d+d+d+d+d+d+<+<+[+[+[+[+[+[+[+[+[+[+[+[+[+[+[+[+[+[+[+[+[+[+[+<+<+<+<+[+[+[+[+}+}+}+N+/+[+/+3+/+O+P+Q+R+%.S+T+. ",
". . U+7+V+W+X+Y+Z+`+h+^+3+/+2+2+/+/+/+/+/+/+/+/+ @ @|+|+|+|+|+|+ @ @ @ @ @^+3+/+2+2+/+/+/+/+/+/+/+/+ @ @|+|+|+|+|+|+ @ @^+3+/+2+2+/+/+/+/+/+/+/+/+ @ @|+|+|+|+|+|+ @ @ @ @|+|+|+|+|+|+|+|+|+|+|+_+}+}+}+}+}+}+}+[+[+[+[+.@2+2++@@@#@$@%@&@*@=@-@. ",
". . . ;@>@,@'@)@!@~@{@]@^@^@/@(@{@_@_@_@_@_@:@:@:@:@:@:@:@:@:@:@:@:@:@:@:@:@:@:@:@:@:@:@:@:@:@:@:@:@:@:@:@:@:@:@:@:@:@:@:@:@:@:@:@:@:@:@:@:@:@:@:@:@:@:@:@:@:@:@:@:@:@:@:@:@:@:@:@:@:@:@:@:@:@:@<@<@<@<@[@[@}@}@<@|@1@1@1@1@2@3@4@5@6@7@8@9@0@. . ",
". . . . a@b@c@d@e@f@g@h@i@j@k@l@m@m@m@n@n@n@n@o@p@p@p@p@p@p@p@p@q@q@q@q@q@q@q@q@p@p@p@p@p@q@q@q@p@p@p@p@p@p@p@p@p@p@p@p@p@p@p@p@p@p@p@p@p@p@p@p@p@p@p@p@p@p@p@p@p@p@p@p@p@p@p@p@p@p@p@p@p@p@p@p@o@o@o@o@o@o@r@r@s@t@t@u@v@t@t@w@x@y@z@A@B@. -@. . ",
". . . . . . C@D@E@F@]@G@G@H@H@I@J@J@J@J@J@J@K@K@}@}@}@}@}@}@}@4@}@}@}@}@}@}@}@}@}@}@}@}@}@}@}@}@}@}@}@}@}@}@}@}@}@}@}@}@}@}@}@}@}@}@}@}@}@}@}@}@}@}@}@}@}@}@}@}@}@}@}@}@}@}@}@}@}@}@}@}@}@}@}@}@}@}@}@4@4@4@4@4@L@L@M@N@O@P@M@L@Q@R@S@T@. . . . . "};
