/* XPM */
static char * closep_xpm[] = {
"18 18 120 2",
"  	c None",
". 	c #4F849B",
"+ 	c #4F849C",
"@ 	c #4F859C",
"# 	c #50849C",
"$ 	c #5588A3",
"% 	c #5589A3",
"& 	c #5588A4",
"* 	c #5689A3",
"= 	c #5688A3",
"- 	c #708C9B",
"; 	c #678CA2",
"> 	c #5C8CA8",
", 	c #5B8DAB",
"' 	c #5B8EAB",
") 	c #5C8DAA",
"! 	c #5B8DAA",
"~ 	c #5C8DAB",
"{ 	c #5C8EAB",
"] 	c #8A949B",
"^ 	c #919394",
"/ 	c #939392",
"( 	c #939393",
"_ 	c #8C9296",
": 	c #7992A3",
"< 	c #6392B0",
"[ 	c #6192B3",
"} 	c #6292B3",
"| 	c #6191B3",
"1 	c #6292B2",
"2 	c #6291B3",
"3 	c #749BB3",
"4 	c #749AB4",
"5 	c #799AAF",
"6 	c #889AA7",
"7 	c #989B9D",
"8 	c #9C9B9B",
"9 	c #9C9C9B",
"0 	c #959A9E",
"a 	c #7597B1",
"b 	c #6896BA",
"c 	c #6796BB",
"d 	c #6796BA",
"e 	c #6797BA",
"f 	c #6D92AD",
"g 	c #6E92AC",
"h 	c #6D92AC",
"i 	c #7394AB",
"j 	c #949EA6",
"k 	c #A4A4A4",
"l 	c #A4A5A4",
"m 	c #8EA1AF",
"n 	c #6D9BC2",
"o 	c #6D9AC2",
"p 	c #6E9BC1",
"q 	c #678AA6",
"r 	c #668AA5",
"s 	c #678AA5",
"t 	c #678BA5",
"u 	c #668BA6",
"v 	c #668AA6",
"w 	c #8297A8",
"x 	c #ACACAD",
"y 	c #ADADAD",
"z 	c #88A4BE",
"A 	c #739FC9",
"B 	c #60829F",
"C 	c #60829E",
"D 	c #61829F",
"E 	c #95A2AC",
"F 	c #B6B5B5",
"G 	c #8EA8C0",
"H 	c #597A97",
"I 	c #5A7A98",
"J 	c #597A98",
"K 	c #8E9CA8",
"L 	c #B0B3B6",
"M 	c #577794",
"N 	c #567794",
"O 	c #577694",
"P 	c #567694",
"Q 	c #8D9AA7",
"R 	c #5A7A97",
"S 	c #597B97",
"T 	c #8E9AA5",
"U 	c #ADACAC",
"V 	c #8BA4BD",
"W 	c #7A8FA0",
"X 	c #A4A4A5",
"Y 	c #819EB6",
"Z 	c #6D8CA3",
"` 	c #8B969E",
" .	c #9B9B9C",
"..	c #879AA7",
"+.	c #6E92AD",
"@.	c #7192A9",
"#.	c #80929F",
"$.	c #909293",
"%.	c #8C9295",
"&.	c #6F91A9",
"*.	c #6192B2",
"=.	c #848F95",
"-.	c #8A8A8B",
";.	c #8B8A8A",
">.	c #8A8A8A",
",.	c #8B8A8B",
"'.	c #838A8E",
").	c #718C9B",
"!.	c #5E8CA9",
"~.	c #5C8EAA",
"{.	c #6A8594",
"].	c #608699",
"^.	c #5688A1",
"/.	c #5589A4",
"(.	c #4A8094",
"_.	c #497F94",
":.	c #498094",
"<.	c #498093",
"[.	c #497F93",
"}.	c #4A7F94",
". . . . + . @ + # + . . . . + . @ . ",
"$ % & % $ $ % % * % $ $ = % $ $ % % ",
"- ; > , ' , , , ) ! ~ ~ ' { ' , ! ) ",
"] ^ / ( / _ : < [ [ } | [ | 1 [ 1 2 ",
"3 4 4 4 5 6 7 8 9 0 a b c d d e b d ",
"f g h h g h f f i j k l m n o n p p ",
"q r s q t u q v s v r w x y z A A A ",
"B C C B D C B C C B B C C E F G A A ",
"H I H H J H H H H I I I H I K L A A ",
"M N O P P O O P O P P P P P Q L A A ",
"R J I J S H H R J R H I I T U V A A ",
"C B B B C B C C C B C W X k Y n o o ",
"q r q q s r s q Z `  .8 ..b d d d c ",
"f +.g f @.#.$.( / %.&.| [ 2 [ 1 | *.",
"=.-.;.>.,.'.).!.) , , , ~., ! ! , , ",
"{.].^.% $ $ * $ $ % % & * % $ /.$ % ",
". . . + + + . . + . . + . . # + + + ",
"(._._.:.<.:._._.[.:._.}.<.<._.:._.<."};
