/* XPM */
static char * close_xpm[] = {
"18 18 116 2",
"  	c None",
". 	c #4F849B",
"+ 	c #4F849C",
"@ 	c #4F859C",
"# 	c #50849C",
"$ 	c #5588A3",
"% 	c #5589A3",
"& 	c #5588A4",
"* 	c #5689A3",
"= 	c #5688A3",
"- 	c #708C9B",
"; 	c #678CA2",
"> 	c #5C8CA8",
", 	c #5B8DAB",
"' 	c #5B8EAB",
") 	c #5C8DAA",
"! 	c #5B8DAA",
"~ 	c #5C8DAB",
"{ 	c #5C8EAB",
"] 	c #88929C",
"^ 	c #919294",
"/ 	c #939392",
"( 	c #939393",
"_ 	c #8C9296",
": 	c #7992A3",
"< 	c #6392B0",
"[ 	c #6192B3",
"} 	c #6292B3",
"| 	c #6191B3",
"1 	c #6292B2",
"2 	c #6291B3",
"3 	c #6A91B6",
"4 	c #6B92B6",
"5 	c #6A92B6",
"6 	c #7193B2",
"7 	c #8396A8",
"8 	c #989B9D",
"9 	c #9C9B9B",
"0 	c #9C9C9B",
"a 	c #959A9E",
"b 	c #7597B1",
"c 	c #6896BA",
"d 	c #6796BB",
"e 	c #6796BA",
"f 	c #6797BA",
"g 	c #749DC1",
"h 	c #739DC1",
"i 	c #749EC1",
"j 	c #799DBD",
"k 	c #96A1AC",
"l 	c #A4A4A4",
"m 	c #A4A5A4",
"n 	c #8EA1AF",
"o 	c #6D9BC2",
"p 	c #6D9AC2",
"q 	c #6E9BC1",
"r 	c #7EA9CC",
"s 	c #7DA8CC",
"t 	c #7DA9CC",
"u 	c #8FAABF",
"v 	c #ACACAD",
"w 	c #ADADAD",
"x 	c #88A4BE",
"y 	c #739FC9",
"z 	c #87B4D7",
"A 	c #87B5D7",
"B 	c #87B5D6",
"C 	c #86B5D7",
"D 	c #A4B4C1",
"E 	c #B6B5B5",
"F 	c #8EA8C0",
"G 	c #90C0E1",
"H 	c #90C0E2",
"I 	c #91C0E2",
"J 	c #90C1E1",
"K 	c #91C1E2",
"L 	c #A5BAC7",
"M 	c #B0B3B6",
"N 	c #95C6E7",
"O 	c #A7BCC9",
"P 	c #90C1E2",
"Q 	c #A2B4C0",
"R 	c #ADACAC",
"S 	c #8BA4BD",
"T 	c #91AEC2",
"U 	c #A4A4A5",
"V 	c #819EB6",
"W 	c #81A7C6",
"X 	c #929FA9",
"Y 	c #9B9B9C",
"Z 	c #879AA7",
"` 	c #779BBB",
" .	c #8497A9",
"..	c #919394",
"+.	c #8C9295",
"@.	c #6F91A9",
"#.	c #6192B2",
"$.	c #818C95",
"%.	c #898A8B",
"&.	c #8B8A8A",
"*.	c #8A8A8A",
"=.	c #8B8A8B",
"-.	c #838A8E",
";.	c #718C9B",
">.	c #5E8CA9",
",.	c #5C8EAA",
"'.	c #6A8594",
").	c #608699",
"!.	c #5688A1",
"~.	c #5589A4",
"{.	c #4A8094",
"].	c #497F94",
"^.	c #498094",
"/.	c #498093",
"(.	c #497F93",
"_.	c #4A7F94",
". . . . + . @ + # + . . . . + . @ . ",
"$ % & % $ $ % % * % $ $ = % $ $ % % ",
"- ; > , ' , , , ) ! ~ ~ ' { ' , ! ) ",
"] ^ / ( / _ : < [ [ } | [ | 1 [ 1 2 ",
"3 3 4 5 6 7 8 9 0 a b c d e e f c e ",
"g g g h g h g i j k l m n o p o q q ",
"r s s t t t t t t r t u v w x y y y ",
"z A z B A B A C A A A A z D E F y y ",
"G H H I H J G K H G H K I H L M y y ",
"N N N N N N N N N N N N N N O M y y ",
"H I I P H H P J K P I P P Q R S y y ",
"A A A A z A A z B z C T U l V o p p ",
"t r t t t t t t W X Y 9 Z c e e e d ",
"h g g g `  ...( / +.@.| [ 2 [ 1 | #.",
"$.%.&.*.=.-.;.>.) , , , ,., ! ! , , ",
"'.).!.% $ $ * $ $ % % & * % $ ~.$ % ",
". . . + + + . . + . . + . . # + + + ",
"{.].].^./.^.].].(.^.]._././.].^.]./."};
