/* XPM */
static char * icobf_xpm[] = {
"2 18 23 1",
" 	c None",
".	c #7094AF",
"+	c #6F94AF",
"@	c #6C91AB",
"#	c #6C90AB",
"$	c #688CA7",
"%	c #6588A4",
"&	c #6587A4",
"*	c #6183A0",
"=	c #6284A0",
"-	c #5D7F9C",
";	c #597B98",
">	c #5A7A98",
",	c #567795",
"'	c #567794",
")	c #567694",
"!	c #61839F",
"~	c #6588A3",
"{	c #688CA8",
"]	c #698CA8",
"^	c #6C91AC",
"/	c #7095AF",
"(	c #7399B3",
".+",
"@#",
"$$",
"%&",
"*=",
"--",
";>",
",'",
"))",
"))",
";>",
"--",
"!!",
"~&",
"{]",
"^#",
"//",
"(("};
