/* XPM */
static char * iconf_xpm[] = {
"18 18 119 2",
"  	c None",
". 	c #4F849C",
"+ 	c #4F849B",
"@ 	c #50849B",
"# 	c #4F859B",
"$ 	c #5588A3",
"% 	c #5589A3",
"& 	c #5689A3",
"* 	c #5589A4",
"= 	c #5B8DAB",
"- 	c #5B8EAB",
"; 	c #5C8DAB",
"> 	c #5C8EAA",
", 	c #5B8DAA",
"' 	c #5C8CA9",
") 	c #688CA2",
"! 	c #708B9C",
"~ 	c #6292B3",
"{ 	c #6192B3",
"] 	c #6191B2",
"^ 	c #6291B2",
"/ 	c #6192B2",
"( 	c #6191B3",
"_ 	c #6291B3",
": 	c #6491B0",
"< 	c #7991A3",
"[ 	c #8C9297",
"} 	c #939392",
"| 	c #939292",
"1 	c #939393",
"2 	c #919294",
"3 	c #88929C",
"4 	c #6897BA",
"5 	c #6896BA",
"6 	c #6796BA",
"7 	c #6797BA",
"8 	c #7697B1",
"9 	c #949A9E",
"0 	c #9B9C9B",
"a 	c #9C9B9C",
"b 	c #989B9D",
"c 	c #8396A8",
"d 	c #7093B2",
"e 	c #6B91B6",
"f 	c #6A91B6",
"g 	c #6A92B6",
"h 	c #6D9AC2",
"i 	c #6E9BC2",
"j 	c #6D9BC2",
"k 	c #8FA0AF",
"l 	c #A4A4A4",
"m 	c #96A1AC",
"n 	c #799EBD",
"o 	c #749DC1",
"p 	c #739DC1",
"q 	c #749EC1",
"r 	c #739FC9",
"s 	c #88A4BE",
"t 	c #ADACAD",
"u 	c #8FAABF",
"v 	c #7DA9CB",
"w 	c #7EA9CC",
"x 	c #7DA9CC",
"y 	c #8EA8C0",
"z 	c #B5B5B5",
"A 	c #A4B4C1",
"B 	c #87B5D7",
"C 	c #87B5D6",
"D 	c #86B4D7",
"E 	c #87B4D7",
"F 	c #87B4D6",
"G 	c #B0B3B6",
"H 	c #A5B9C7",
"I 	c #90C0E1",
"J 	c #91C1E1",
"K 	c #91C0E2",
"L 	c #91C0E1",
"M 	c #90C0E2",
"N 	c #91C1E2",
"O 	c #90C1E1",
"P 	c #90C1E2",
"Q 	c #A7BCC9",
"R 	c #95C6E7",
"S 	c #8AA4BD",
"T 	c #ACACAD",
"U 	c #A2B4C0",
"V 	c #829DB6",
"W 	c #91AEC3",
"X 	c #86B4D6",
"Y 	c #86B5D7",
"Z 	c #8699A8",
"` 	c #9B9C9C",
" .	c #939FA9",
"..	c #80A7C6",
"+.	c #7DA8CC",
"@.	c #6F92A9",
"#.	c #8D9296",
"$.	c #929393",
"%.	c #919394",
"&.	c #8497A9",
"*.	c #779BBB",
"=.	c #5B8EAA",
"-.	c #5D8CA8",
";.	c #728B9B",
">.	c #838A8E",
",.	c #8A8A8A",
"'.	c #8B8A8B",
").	c #8A8A8B",
"!.	c #888A8B",
"~.	c #818C95",
"{.	c #5687A1",
"].	c #61869A",
"^.	c #698593",
"/.	c #50849C",
"(.	c #4F859C",
"_.	c #497F93",
":.	c #498094",
"<.	c #497F94",
"[.	c #498093",
". . + @ . + . . . + + . + @ # . + . ",
"$ % & & % $ % % * $ % % % % % % % % ",
"= = - ; - = = > ; , - , - = = ' ) ! ",
"~ { ~ ] ^ / ( _ { _ : < [ } | 1 2 3 ",
"4 5 5 6 5 7 7 8 9 0 a b c d e e f g ",
"h i j i j k l l m n o p p q o o o o ",
"r r r s t t u v w w x w x x v x v x ",
"r r y z A B C D B C D E E F E B B B ",
"r r G H I J K L M N O M M K P P J J ",
"r r G Q R R R R R R R R R R R R R R ",
"r r S T U K K M M J L J P M P K I K ",
"h j j V l l W X E D D E F Y B B Y C ",
"5 6 7 6 6 Z a `  ...v x +.x w +.w x ",
"] / ] { / / ] @.#.1 $.%.&.*.q o q o ",
"= , = ; = = , ; - =.-.;.>.,.'.).!.~.",
"$ % % % % % & & % $ % $ % % % {.].^.",
"/.+ # + + + /.+ (.. @ + (.+ . @ # /.",
"_.:.<.:.<.:.[._.<.:.<.[.<.<.<.<.:.[."};
