/* XPM */
static char * select_xpm[] = {
"13 13 3 1",
" 	c None",
".	c #567694",
"+	c #95C6E7",
"             ",
"             ",
"             ",
".......      ",
". +++ .      ",
".+++++.      ",
".+++++.      ",
".+++++.      ",
". +++ .      ",
".......      ",
"             ",
"             ",
"             "};
