/* XPM */
static char * stick_xpm[] = {
"18 18 25 1",
" 	c None",
".	c #4F859C",
"+	c #4F849B",
"@	c #5589A3",
"#	c #5B8DAA",
"$	c #5C8DAA",
"%	c #6292B2",
"&	c #6291B3",
"*	c #6896BA",
"=	c #6796BA",
"-	c #6E9BC1",
";	c #739FC9",
">	c #7F9AB4",
",	c #939393",
"'	c #93A6B3",
")	c #95C6E7",
"!	c #6D9AC2",
"~	c #6796BB",
"{	c #6191B3",
"]	c #6192B2",
"^	c #5B8DAB",
"/	c #5588A3",
"(	c #4F849C",
"_	c #497F94",
":	c #498093",
".+.+.+.+.+.+.+.+.+",
"@@@@@@@@@@@@@@@@@@",
"#$#$#$#$#$#$#$#$#$",
"%&%&%&%&%&%&%&%&%&",
"*=*=*=*=*=*=*=*=*=",
"------------------",
";;;;;;;;;;;;;;;;;;",
";;;;;>,,,,,,>;;;;;",
";;;;,,'))))',,;;;;",
";;;;;>,,,,,,>;;;;;",
";;;;;;;;;;;;;;;;;;",
"!!!!!!!!!!!!!!!!!!",
"=~=~=~=~=~=~=~=~=~",
"{]{]{]{]{]{]{]{]{]",
"^^^^^^^^^^^^^^^^^^",
"/@/@/@/@/@/@/@/@/@",
"((((((((((((((((((",
"_:_:_:_:_:_:_:_:_:"};
