/* XPM */
static char * stuck_xpm[] = {
"18 18 64 1",
" 	c None",
".	c #4F859C",
"+	c #4F849B",
"@	c #5589A3",
"#	c #5B8DAA",
"$	c #5C8DAA",
"%	c #6292B2",
"&	c #6291B3",
"*	c #6896BA",
"=	c #6796BA",
"-	c #6E9BC1",
";	c #759CBD",
">	c #8BA1B5",
",	c #99A5AF",
"'	c #A0A7AB",
")	c #A3A7AB",
"!	c #A3A7AA",
"~	c #A1A7AC",
"{	c #99A5AE",
"]	c #8AA1B5",
"^	c #739FC9",
"/	c #8C9CAC",
"(	c #989C9F",
"_	c #919AA0",
":	c #7E93A3",
"<	c #718FA5",
"[	c #6A8DA7",
"}	c #6A8CA6",
"|	c #718FA6",
"1	c #7F93A3",
"2	c #929AA0",
"3	c #989D9F",
"4	c #8C9DAC",
"5	c #8495A4",
"6	c #8D9193",
"7	c #6D8499",
"8	c #5D7F9C",
"9	c #5E7E9C",
"0	c #5D7F9B",
"a	c #5E7F9C",
"b	c #6C8599",
"c	c #8D9293",
"d	c #868B8D",
"e	c #647C91",
"f	c #567694",
"g	c #8496A4",
"h	c #8D9294",
"i	c #6D8599",
"j	c #8C9294",
"k	c #8B9DAC",
"l	c #728FA6",
"m	c #6B8CA6",
"n	c #6A8DA6",
"o	c #999D9F",
"p	c #6D9AC2",
"q	c #749BBE",
"r	c #6796BB",
"s	c #6191B3",
"t	c #6192B2",
"u	c #5B8DAB",
"v	c #5588A3",
"w	c #4F849C",
"x	c #497F94",
"y	c #498093",
".+.+.+.+.+.+.+.+.+",
"@@@@@@@@@@@@@@@@@@",
"#$#$#$#$#$#$#$#$#$",
"%&%&%&%&%&%&%&%&%&",
"*=*=*=*=*=*=*=*=*=",
"----;>,')!~{];----",
"^^^/(_:<[}|1234^^^",
"^^567890a8a88bc5^^",
"^^deffffffffffed^^",
"^^ghi88a88a8a7j5^^",
"^^^k3_:lmn<:2o4^^^",
"ppppq],'!!~,]qpppp",
"=r=r=r=r=r=r=r=r=r",
"ststststststststst",
"uuuuuuuuuuuuuuuuuu",
"v@v@v@v@v@v@v@v@v@",
"wwwwwwwwwwwwwwwwww",
"xyxyxyxyxyxyxyxyxy"};
