/* XPM */
static char *closep[] = {
/* columns rows colors chars-per-pixel */
"16 16 31 1",
"  c black",
". c #03070F",
"X c #050B15",
"o c #050C17",
"O c #07101F",
"+ c #081325",
"@ c #0D1E3B",
"# c #132951",
"$ c #132A52",
"% c #18366A",
"& c #19396F",
"* c #1A3A72",
"= c #1B3C75",
"- c #1C3E7A",
"; c #1C3F7B",
": c #1D417F",
"> c #1E4282",
", c #1E4382",
"< c #1E4384",
"1 c #20478B",
"2 c #21488D",
"3 c #21488E",
"4 c #21498F",
"5 c #214A91",
"6 c #224B92",
"7 c #224C95",
"8 c #234D96",
"9 c #234E98",
"0 c #234E99",
"q c #244F9A",
"w c #244F9B",
/* pixels */
"OOOOOOo         ",
"                ",
"0000000000000=  ",
"000000000000q0= ",
"00000000000000= ",
"0000$$0q0$$000= ",
"0000:@@0@@>000= ",
"00005>+++<5000= ",
"88880..,..0888* ",
"5666  ,3>  555& ",
"3333;;131;;33%  ",
"                ",
"                ",
"                ",
"                ",
"XXXoX           "
};
