/* XPM */
static char *max[] = {
/* columns rows colors chars-per-pixel */
"16 16 16 1",
"  c black",
". c #040811",
"X c #091428",
"o c #091529",
"O c #0E203F",
"+ c #0F2140",
"@ c #224C94",
"# c #2653A3",
"$ c #295AB1",
"% c #295BB1",
"& c #295BB2",
"* c #2A5DB6",
"= c #2A5DB7",
"- c #2B60BB",
"; c #2B60BC",
": c #2C62C0",
/* pixels */
"                ",
"                ",
"::::::::::::::::",
"::::::::::::::::",
"::::++OO+O+O::::",
"::::oooooXoo::::",
"::::.######.::::",
":::: :::::: ::::",
";;;=        =;;;",
"====@@@@@@@@====",
"&%%%%%%%%%%%&%&&",
"                ",
"                ",
"                ",
"                ",
"                "
};
