/* XPM */
static char *max2[] = {
/* columns rows colors chars-per-pixel */
"16 16 15 1",
"  c black",
". c #040811",
"X c #091428",
"o c #091529",
"O c #0E203F",
"+ c #0F2140",
"@ c #1B3C76",
"# c #1B3D77",
"$ c #1E4384",
"% c #21488E",
"& c #21498F",
"* c #224B92",
"= c #224C95",
"- c #234D96",
"; c #234E99",
/* pixels */
"                ",
"                ",
";;;;;;;;;;;;;;;;",
";;;;;;;;;;;;;;;;",
";;;;++OO+O+O;;;;",
";;;;oooooXoo;;;;",
";;;;.$$$$$$.;;;;",
";;;; ;;;;;; ;;;;",
"----        ----",
"****@@@@@@@@****",
"%%%%%%%%%%%%%%%%",
"                ",
"                ",
"                ",
"                ",
"                "
};
