/* XPM */
static char * max_off_xpm[] = {
"20 20 71 1",
" 	c None",
".	c #EDEDED",
"+	c #9394D7",
"@	c #9494D7",
"#	c #000000",
"$	c #FDFDFC",
"%	c #FDFCFC",
"&	c #FDFCFD",
"*	c #FDFDFD",
"=	c #FCFBFC",
"-	c #FCFCFC",
";	c #FCFBFB",
">	c #FBFBFB",
",	c #FBFAFA",
"'	c #FAFAFB",
")	c #5C5C83",
"!	c #FAFBFA",
"~	c #FBFBFA",
"{	c #F9FAFA",
"]	c #FAFAFA",
"^	c #FAF9FA",
"/	c #BCBCBC",
"(	c #F9FAF9",
"_	c #FAFAF9",
":	c #F9F8F8",
"<	c #F8F9F8",
"[	c #F8F8F9",
"}	c #616161",
"|	c #717171",
"1	c #7B7B7B",
"2	c #7D7D7D",
"3	c #F9F9F9",
"4	c #F8F7F8",
"5	c #F8F8F8",
"6	c #F7F8F8",
"7	c #A0A0A0",
"8	c #BBBBBB",
"9	c #C0C0C0",
"0	c #BDBDBD",
"a	c #F8F8F7",
"b	c #F7F7F7",
"c	c #F7F6F7",
"d	c #F6F6F7",
"e	c #E1E1E1",
"f	c #E8E8E8",
"g	c #F6F7F7",
"h	c #F7F6F6",
"i	c #F6F5F6",
"j	c #F6F6F6",
"k	c #F6F6F5",
"l	c #F5F4F5",
"m	c #F5F5F4",
"n	c #F5F5F5",
"o	c #F4F3F4",
"p	c #F3F4F3",
"q	c #F4F4F4",
"r	c #F4F4F3",
"s	c #F3F3F3",
"t	c #F2F3F3",
"u	c #F3F2F3",
"v	c #F3F3F2",
"w	c #F2F1F2",
"x	c #F1F2F2",
"y	c #F2F2F2",
"z	c #F1F1F0",
"A	c #F1F1F1",
"B	c #F0F0F0",
"C	c #EFF0F0",
"D	c #EFEFEF",
"E	c #EEEEEE",
"F	c #EDEEEE",
"....................",
"+++@@@@@@@@@@@@@@@@@",
"####################",
"....................",
"$%$%%$%%%&$%%%$%%%&*",
"=-=--=--=;=--==--=;>",
",>,>'>'>)))))))))>!~",
"{]{]^]^])))))))))/(_",
":<:<[<[<))}|121))/33",
"45456565))|7890))/aa",
"bcbcdcdc))10efe))/gh",
"ijijjjjj))29f.f))/jk",
"lmlmnmnm))10efe))/nl",
"opopqpqp)))))))))/or",
"sssststs)))))))))/uv",
"wxwxyxyyy/////////yy",
"zAzAAzAzAAzAzAzAzAAA",
"BBCBBBBCBBBBCBBBCBBB",
"DDDDDDDDDDDDDDDDDDDD",
"EFEEEEFEEEEFEEEFEEEE"};
