/* XPM */
static char * selected_xpm[] = {
"17 17 13 1",
" 	c None",
".	c #000000",
"+	c #A2A6DD",
"@	c #9FA4DC",
"#	c #878ED2",
"$	c #8187CF",
"%	c #787FCB",
"&	c #8E94D5",
"*	c #7E85CE",
"=	c #767DCA",
"-	c #7A81CC",
";	c #737AC9",
">	c #8389D0",
"                 ",
"                 ",
"                 ",
"                 ",
"                 ",
"     .......     ",
"     .+@@@#.     ",
"     .$%%%&.     ",
"     .*===&.     ",
"     .-;;;>.     ",
"     .;&&&&.     ",
"     .......     ",
"                 ",
"                 ",
"                 ",
"                 ",
"                 "};
