/* XPM */
static char * stick_xpm[] = {
"20 20 54 1",
" 	c #000000",
".	c #EDEDED",
"+	c #040005",
"@	c #9494D7",
"#	c #9C9BD9",
"$	c #A5A5DC",
"%	c #AFAFDF",
"&	c #FCFDFC",
"*	c #FCFCFC",
"=	c #B9B8E2",
"-	c #B9B9E2",
";	c #FCFCFB",
">	c #FCFBFC",
",	c #C3C2E6",
"'	c #C3C3E5",
")	c #FAFBFB",
"!	c #FBFBFA",
"~	c #CDCCE8",
"{	c #FAF9F9",
"]	c #F9F9FA",
"^	c #CDCDCD",
"/	c #D7D6EB",
"(	c #D6D6EB",
"_	c #F8F9F9",
":	c #F8F8F8",
"<	c #989898",
"[	c #E1E0EE",
"}	c #F8F8F7",
"|	c #FEFEFE",
"1	c #7D7D7D",
"2	c #EBEBF1",
"3	c #EBEAF1",
"4	c #F7F6F7",
"5	c #F7F6F6",
"6	c #7B7B7B",
"7	c #F5F5F6",
"8	c #F5F6F6",
"9	c #7C7C7C",
"0	c #F5F5F5",
"a	c #F5F5F4",
"b	c #F5F4F5",
"c	c #F4F4F3",
"d	c #F4F4F4",
"e	c #F3F4F4",
"f	c #F3F3F3",
"g	c #F3F2F3",
"h	c #F2F2F2",
"i	c #F2F1F2",
"j	c #F1F1F1",
"k	c #F0F1F1",
"l	c #F0F0F0",
"m	c #EFEFEF",
"n	c #EDEEEE",
"o	c #EEEEEE",
"     ...............",
" +@@@@@@@@@@@@@@@@@@",
" ####            ###",
" $$$  ..........  $$",
" %%  &**&*&*&**&.  %",
"=-  ;>;;>;>;>;;>;.  ",
",' )!)))!)!)!))!)). ",
"~~ {]{         ^{{. ",
"/( _:_         <__. ",
"[[ :}:  |||||  1::. ",
"23 454  |  ||  644. ",
"77 787  |||||  977. ",
"00 aba  |   |  1aa. ",
"cc ded  |||||  9de. ",
"ff gfg         6gf. ",
"hh hih         1hi. ",
"jj jkj^<1611161<jk. ",
"ll lllllllllllllll. ",
"mm mmmmmmmmmmmmmmm. ",
"nn oooooooooooooooo."};
