/* XPM */
static char * stick_xpm[] = {
"18 23 6 1",
" 	c None",
".	c #000000",
"+	c #FFFFFF",
"@	c #D8D8D8",
"#	c #B2B2B2",
"$	c #041215",
"..................",
"++++++++++++++++++",
"@@@@@@@@@@@@@@@@@@",
"@@@@@@@@@@@@@@@###",
"@.............@#..",
"@.+++++++++++.##.$",
"@.+@@@@@@@@@#.##.$",
"@.+@@@@@@@@@#.##.$",
"@.+@@@@.@@@@#.##.$",
"@.+@@@...@@@#.##.$",
"@.+@@.....@@#.##.$",
"@.+@@@...@@@#.##.$",
"@.+@@@@.@@@@#.##.$",
"@.+@@@@@@@@@#.##.$",
"@.+@@@@@@@@@#.##.$",
"@.+##########.##.$",
"@.............##.$",
"@@##############.$",
"@@@@@@@@@@@@@@@#..",
"@@@@@@@@@@@@@@@#++",
"@@@@@@@@@@@@@@@@@@",
"##################",
".................."};
