/* XPM */
static char *close_unfocus[] = {
/* columns rows colors chars-per-pixel */
"25 32 27 1 ",
"  c #262A33",
". c #262A34",
"X c #262B34",
"o c #262B35",
"O c #272B35",
"+ c #2F343F",
"@ c #2F3440",
"# c #303540",
"$ c #303541",
"% c #313641",
"& c #313642",
"* c #313742",
"= c #323743",
"- c #323844",
"; c #333844",
": c #333845",
"> c #333945",
", c #333946",
"< c #343946",
"1 c #343A46",
"2 c #343A47",
"3 c #353B47",
"4 c #353B48",
"5 c #4A4F5B",
"6 c #909398",
"7 c #909399",
"8 c #919399",
/* pixels */
"5555555555555555555555555",
"4444444444444444444444444",
"4444444444444444444444444",
"3333333333333333333333333",
"3333333333333333333333:33",
"3333333333333333::3333333",
"33333333333333333:3333333",
"3333333333333333333333333",
"3333333333333333333333333",
"3333333333333333333333333",
"3333333333333333333333333",
"3333333377O333O7733333333",
"::::::::777O:O777::::::::",
"::::::::O777O777O::::::::",
":::::::::O77777O:::::::::",
"::::::::::O777O::::::::::",
":::::::::O77777O:::::::::",
"::::::::O777O777O::::::::",
"::::::::777O:O777::::::::",
"::::::::67 ::: 77::::::::",
":::::::::::::::::::::::::",
":::::::::::::::=:::::::::",
"::::::::::::::==:::::::::",
"::::::::::::::===::::::::",
"=========================",
"=========================",
"=========================",
"=========================",
"==@@@=====@@@=====@@@====",
"==++======++======++=====",
"@+++@@@@@+++@@@@@+++@@@@@",
"+++++++++++++++++++++++++"
};
