/* XPM */
static char *maximize_focus[] = {
/* columns rows colors chars-per-pixel */
"25 32 22 1 ",
"  c #262A34",
". c #272B35",
"X c #2F343F",
"o c #2F3440",
"O c #303540",
"+ c #303541",
"@ c #313641",
"# c #313642",
"$ c #313742",
"% c #323743",
"& c #323844",
"* c #333844",
"= c #333845",
"- c #333945",
"; c #333946",
": c #343946",
"> c #343A46",
", c #343A47",
"< c #353B47",
"1 c #353B48",
"2 c #575C67",
"3 c #EEEEEC",
/* pixels */
"2222222222222222222222222",
"1111111111111111111111111",
"1111111111111111111111111",
"<<<<<<<<<<<<<<<<<<<<<<<<<",
"<<<<<<<<<<<<<<<<-<<<<<<<<",
"<<<<<<<<<<<<<<<<--<<<<-<<",
"<<<<<<<<<<<<<<<<<<<<<<<<<",
"<<<<<<<<<<<<<<<<<<<<<<<<<",
"<<<<<<<<<<<<<<<<<<<<<<<<<",
"<<<<<<<<<<<<<<<<<<<<<<<<<",
"<<<<<<<<.........<<<<<<<<",
"<<<<<<<<333333333<<<<<<<<",
"--------333333333--------",
"--------33-----33--------",
"--------33-----33--------",
"--------33-----33--------",
"--------33-----33--------",
"--------33.....33--------",
"--------333333333--------",
"--------333333333--------",
"--&&--------------&&-----",
"--&&-----------%---&-----",
"--------------%%---------",
"--------------%%---------",
"%%%%%%%%%%%%%%%%%%%%%%%%%",
"%%%%%%%%%%%%%%%%%%%%%%%%%",
"%%%%%%%%%%%%%%%%%%%%%%%%%",
"%%%%%%%%%%%%%%%%%%%%%%%%%",
"%%ooo%%%%%ooo%%%%%ooo%%%%",
"%%XX%%%%%%XX%%%%%%XX%%%%%",
"oXXXoooooXXXoooooXXXooooo",
"XXXXXXXXXXXXXXXXXXXXXXXXX"
};
