/* XPM */
static char *menu_checkbox_checked_insensitive_grayed[] = {
/* columns rows colors chars-per-pixel */
"14 14 19 1 ",
"  c None",
". c #5E6976",
"X c #5C6979",
"o c #676A6E",
"O c gray42",
"+ c #696B6C",
"@ c #686A6D",
"# c #6A6B6C",
"$ c #616973",
"% c #626972",
"& c #646970",
"* c #566B84",
"= c #556C88",
"- c #51749F",
"; c #5177A5",
": c #5183BF",
"> c #5088CA",
", c #518FD7",
"< c #5294E2",
/* pixels */
" <<<<<<<<<<   ",
"<<<<<<<<<<<<  ",
"<<<<<<<<<$&<< ",
"<<<<<<<<=O@<< ",
"<<<<<<<>OO:<< ",
"<<<<<<<@O*<<< ",
"<<oo<<XO&<<<< ",
"<,@Oo;O@,<<<< ",
"<<,@OOO-<<<<< ",
"<<<,@O.<<<<<< ",
"<<<<,$<<<<<<< ",
"<<<<<<<<<<<<  ",
" <<<<<<<<<<   ",
"              "
};
