/* XPM */
static char *stick_unfocus[] = {
/* columns rows colors chars-per-pixel */
"25 32 25 1 ",
"  c #262A33",
". c #262B34",
"X c #272B35",
"o c #2F343F",
"O c #2F3440",
"+ c #303540",
"@ c #303541",
"# c #313641",
"$ c #313642",
"% c #313742",
"& c #323743",
"* c #323844",
"= c #333844",
"- c #333845",
"; c #333945",
": c #333946",
"> c #343946",
", c #343A46",
"< c #343A47",
"1 c #353B47",
"2 c #353B48",
"3 c #4A4F5B",
"4 c #909398",
"5 c #909399",
"6 c #919399",
/* pixels */
"3333333333333333333333333",
"2222222222222222222222222",
"2222222222222222222222222",
"1111111111111111111111111",
"1111111111111111111111111",
"11111111111111111111111:1",
"1111111111111111::1111111",
"1111111111111111:11111111",
"1111111111111111111111111",
"1111111111111111111111111",
"1111111111111:11111111111",
"11111111:11X6X:1111111111",
":::::::::::666:::::::::::",
":::::::::::666:::::::::::",
"::::::::X6666666X::::::::",
"::::::::666666666::::::::",
"::::::::X6666666X::::::::",
":::::::::::644:::::::::::",
":::::::::::446:::::::::::",
":======:::: 4 :::======::",
"=====:::====::::=====::::",
":====:::====:::=:====::::",
"::====::===:::==::====:::",
"::===:::===:::==::===::::",
"&&&&&&&&&&&&&&&&&&&&&&&&&",
"&&&&&&&&&&&&&&&&&&&&&&&&&",
"&&&&&&&&&&&&&&&&&&&&&&&&&",
"&&&&&&&&&&&&&&&&&&&&&&&&&",
"&&OOO&&&&&OOO&&&&&OOO&&&&",
"&&oo&&&&&&oo&&&&&&oo&&&&o",
"OoooOOOOOoooOOOOOoooOOOOO",
"ooooooooooooooooooooooooo"
};
