/* XPM */
static char *stuck_unfocus[] = {
/* columns rows colors chars-per-pixel */
"25 32 24 1 ",
"  c #262A34",
". c #262B34",
"X c #2F343F",
"o c #2F3440",
"O c #303540",
"+ c #303541",
"@ c #313641",
"# c #313642",
"$ c #313742",
"% c #323743",
"& c #323844",
"* c #333844",
"= c #333845",
"- c #333945",
"; c #333946",
": c #343946",
"> c #343A46",
", c #343A47",
"< c #353B47",
"1 c #353B48",
"2 c #4A4F5B",
"3 c #909398",
"4 c #909399",
"5 c #919399",
/* pixels */
"2222222222222222222222222",
"1111111111111111111111111",
"1111111111111111111111111",
"<<<<<<<<<<<<<<<<<<<<<<<<<",
"<<<<<<<<<<<<<<<<<<<<<<<<<",
"<<<<<<<<<<<<<<<<<<<<<<<<<",
"<<<<<<<<<<<<<<<<;<<<<<<;<",
"<<<<<<<<<<<<<<<<;;<<<<<<<",
"<<<<<<<<<<<<<<<<<<<<<<<<<",
"<<<<<<<<<<<<<<<<<<<<<<<<<",
"<<<<<<<<<<<<<;<<<<<<<<<<<",
"<<<<<<<<;<<555;<<<<<<<<<<",
";;;;;;;;;;;555;;;;;;;;;;;",
";;;;;;;;;;; 5 ;;;;;;;;;;;",
";;;;;;;;55 ; ; 55;;;;;;;;",
";;;;;;;;555 ; 555;;;;;;;;",
";;;;;;;;55 ; ; 55;;;;;;;;",
";;;;;;;;;;; 3 ;;;;;;;;;;;",
";;;;;;;;;;;335;;;;;;;;;;;",
";******;;;;355;;***;*;***",
"*****;;;****;;;;;;*;;;;*;",
";****;;;****;;;*;*;*;**;;",
";;****;;***;;;**;;****;;;",
";;***;;;***;;;**;;*****;;",
"%%%%%%%%%%%%%%%%%%%%%%%%%",
"%%%%%%%%%%%%%%%%%%%%%%%%%",
"%%%%%%%%%%%%%%%%%%%%%%%%%",
"%%%%%%%%%%%%%%%%%%%%%%%%%",
"%%ooo%%%%%ooo%%%%%ooo%%%%",
"%%XX%%%%%%XX%%%%%%XX%%%%%",
"oXXXoooooXXXooooXXXXooooo",
"XXXXXXXXXXXXXXXXXXXXXXXXX"
};
