/* XPM */
static char * close_xpm[] = {
"19 19 34 1",
" 	c #B8B6B8",
".	c #B8B5B8",
"+	c #B7B6B7",
"@	c #BFBEBF",
"#	c #C0BEC0",
"$	c #C0BDBF",
"%	c #C0BEBF",
"&	c #C0BDC0",
"*	c #C8C6C7",
"=	c #C7C6C8",
"-	c #C8C6C8",
";	c #C8C5C8",
">	c #D0CECF",
",	c #D0CED0",
"'	c #CFCED0",
")	c #D7D6D7",
"!	c #D7D6D8",
"~	c #D7D7D8",
"{	c #D8D6D8",
"]	c #E0DEDF",
"^	c #DFDEE0",
"/	c #DFDFDF",
"(	c #DFDFE0",
"_	c #000000",
":	c #E8E7E7",
"<	c #E8E6E7",
"[	c #E7E6E7",
"}	c #EFEFF0",
"|	c #EFEEEF",
"1	c #F0EEEF",
"2	c #F8F7F7",
"3	c #F7F7F7",
"4	c #F7F6F7",
"5	c #FFFFFF",
" .+...+.. .+.. .+..",
"@#$%&#$%&@#$%&@#$%&",
"*=--;=--;*=--;*=--;",
">,'',,'',>,'',>,'',",
"))!~{)!~{))!~{))!~{",
"]^/((_/((]^/(_]^/((",
"::<[::_[:::<_:::<[:",
"}|1}||1_|}|_}|}|1}|",
"23343334_2_34323343",
"555555555_555555555",
"55555555_5_55555555",
"5555555_555_5555555",
"555555_55555_555555",
"55555_5555555_55555",
"5555555555555555555",
"5555555555555555555",
"5555555555555555555",
"5555555555555555555",
"5555555555555555555"};
