/* XPM */
static char * hilite4_xpm[] = {
"22 22 25 1",
" 	c None",
".	c #9E9E9E",
"+	c #9D9D9D",
"@	c #9F9F9F",
"#	c #A1A1A1",
"$	c #A0A0A0",
"%	c #9F9FA0",
"&	c #9E9E9F",
"*	c #9D9D9E",
"=	c #A0A0A1",
"-	c #B7B7B8",
";	c #BCBCBE",
">	c #BEBDC0",
",	c #C1C0C3",
"'	c #C3C3C3",
")	c #C6C6C6",
"!	c #C9C9C9",
"~	c #CACACA",
"{	c #D0D0D0",
"]	c #D6D6D6",
"^	c #D7D7D7",
"/	c #E1E1E1",
"(	c #E2E2E2",
"_	c #E3E3E3",
":	c #E4E4E4",
"........++++++++......",
"@@@@@@@@@@@@@@@@......",
"########@@@@....@@@@@@",
"$$$$$$$$@@@@@..@......",
"%%%%%%%%@@@@@@@@@@@@@@",
"@@@@@@@@&&&&&&&&&&&&&&",
"@@@@@@@@@@@@@@@@&&&&&&",
"**********************",
"**********************",
"@@@@@@@@@@@@@@@@@@@@@@",
"======================",
"----------------------",
";;;;;;;;;;;;;;;;;;;;;;",
">>>>>>>>>>>>>>>>>>>>>>",
",,,,,,,,,,,,,,,,,,,,,,",
"''''''''''''''''''''''",
"))))))))))))))))))))))",
"!!!!!!!!!!!!!!!!!!!!!!",
"~~~~~~~~~~~~~~~~~~~~~~",
"{{{{{{{{{{{{{{{{{{{{{{",
"]^^^^^]]]]^]]^^]]]]]]]",
"//(__(((_____::_______"};
