/* XPM */
static char * hilite7_xpm[] = {
"5 19 28 1",
" 	c None",
".	c #9A989A",
"+	c #999899",
"@	c #9E9D9E",
"#	c #9F9D9F",
"$	c #9F9D9E",
"%	c #A5A3A4",
"&	c #A4A3A5",
"*	c #A5A3A5",
"=	c #AAA9AA",
"-	c #AFAEAF",
";	c #AFAEB0",
">	c #AFAFB0",
",	c #B0AEB0",
"'	c #B6B4B5",
")	c #B5B4B6",
"!	c #B5B5B5",
"~	c #B5B5B6",
"{	c #BDBCBC",
"]	c #BDBBBC",
"^	c #BCBBBC",
"/	c #C3C3C4",
"(	c #C3C2C3",
"_	c #C4C2C3",
":	c #CBCACA",
"<	c #CACACA",
"[	c #CAC9CA",
"}	c #D2D2D2",
"..+..",
"@#$$#",
"%&***",
"=====",
"--;>,",
"')!~~",
"{{]^{",
"/(_/(",
":<<[<",
"}}}}}",
"}}}}}",
"}}}}}",
"}}}}}",
"}}}}}",
"}}}}}",
"}}}}}",
"}}}}}",
"}}}}}",
"}}}}}"};
