/* XPM */
static char * iconu_xpm[] = {
"19 19 32 1",
" 	c #A7A4A7",
".	c #A6A5A6",
"+	c #A7A5A7",
"@	c #AEACAE",
"#	c #AEACAD",
"$	c #ADACAD",
"%	c #B5B4B6",
"&	c #B6B4B6",
"*	c #B6B3B6",
"=	c #B6B4B5",
"-	c #BDBBBD",
";	c #BCBBBD",
">	c #BDBBBC",
",	c #C3C2C3",
"'	c #C3C2C4",
")	c #C3C3C4",
"!	c #C4C2C4",
"~	c #000000",
"{	c #CAC9CB",
"]	c #CACACA",
"^	c #CACACB",
"/	c #CBC9CA",
"(	c #D3D2D2",
"_	c #D3D1D2",
":	c #D2D1D2",
"<	c #D9D8D9",
"[	c #DAD8D9",
"}	c #D9D9DA",
"|	c #E0E0E0",
"1	c #E0DFE0",
"2	c #E1E0E0",
"3	c #E7E7E7",
" .  + .  + .  + .  ",
"@##@$@##@$@##@$@##@",
"%&&*=%&&*=%&&*=%&&*",
"-;;->-;;->-;;->-;;-",
",')!,,')!,,~~~~,')!",
"{]^^/{]^^/~~~~~{]^^",
"(_:(((_:(~~~~~~(_:(",
"<[}<}<[}~~~~~~~<[}<",
"||1|2||~~~~~~~2||1|",
"333333~~~~~~~333333",
"33333~~~~~~~3333333",
"33333~~~~~~33333333",
"33333~~~~~~33333333",
"33333~~~~3333333333",
"3333333333333333333",
"3333333333333333333",
"3333333333333333333",
"3333333333333333333",
"3333333333333333333"};
