/* XPM */
static char * wtitle_xpm[] = {
"10 26 5 1",
" 	c #FDFDFD",
".	c #F8F8F8",
"+	c #F5F5F5",
"@	c #F6F6F6",
"#	c #F4F4F4",
"          ",
"..........",
"++++++++++",
"++++++++++",
"++++++++++",
"++++++++++",
"++++++++++",
"++++++++++",
"++++++++++",
"++++++++++",
"++++++++++",
"++++++++++",
"++++++++++",
"++++++++++",
"++++++++++",
"++++++++++",
"++++++++++",
"++++++++++",
"++++++++++",
"++++++++++",
"++++++++++",
"++++++++++",
"++++++++++",
"++++++++++",
"++@+++#+++",
"+++@++@+++"};
