/* XPM */
static char * toolbar_xpm[] = {
"1 22 14 1",
" 	c #FFFFFF",
".	c #FEFEFE",
"+	c #FDFDFD",
"@	c #FCFCFC",
"#	c #FBFBFB",
"$	c #F9F9F9",
"%	c #F8F8F8",
"&	c #F6F6F6",
"*	c #F4F4F4",
"=	c #F3F3F3",
"-	c #F1F1F1",
";	c #F0F0F0",
">	c #E3E3E3",
",	c #BBBBBB",
" ",
" ",
" ",
" ",
" ",
" ",
" ",
" ",
" ",
".",
"+",
"@",
"#",
"$",
"%",
"&",
"*",
"=",
"-",
";",
">",
","};
