/* XPM */
static char * close_xpm[] = {
"26 23 129 2",
"  	c #317CFA",
". 	c #0F68FE",
"+ 	c #000000",
"@ 	c #0764FF",
"# 	c #5394FF",
"$ 	c #3984FF",
"% 	c #116BFF",
"& 	c #4F91FF",
"* 	c #1B71FF",
"= 	c #5595FF",
"- 	c #5B99FF",
"; 	c #498EFF",
"> 	c #0B67FF",
", 	c #5897FF",
"' 	c #B7D2FF",
") 	c #99C0FF",
"! 	c #80B0FF",
"~ 	c #D2E3FF",
"{ 	c #73A8FF",
"] 	c #2175FF",
"^ 	c #B9D3FF",
"/ 	c #DBE9FF",
"( 	c #9CC1FF",
"_ 	c #D9E8FF",
": 	c #D5E5FF",
"< 	c #317FFF",
"[ 	c #AECDFF",
"} 	c #B2CFFF",
"| 	c #2D7CFF",
"1 	c #69A1FF",
"2 	c #CEE1FF",
"3 	c #D8E7FF",
"4 	c #7DAEFF",
"5 	c #1D72FF",
"6 	c #D7E6FF",
"7 	c #7BADFF",
"8 	c #438AFF",
"9 	c #539CFF",
"0 	c #91C0FF",
"a 	c #DBEAFF",
"b 	c #ABCEFF",
"c 	c #458FFF",
"d 	c #1176FF",
"e 	c #0770FF",
"f 	c #4196FF",
"g 	c #76B3FF",
"h 	c #D6E8FF",
"i 	c #D8E9FF",
"j 	c #8CC0FF",
"k 	c #2587FF",
"l 	c #0776FF",
"m 	c #077CFF",
"n 	c #50A3FF",
"o 	c #CAE3FF",
"p 	c #CBE4FF",
"q 	c #69B0FF",
"r 	c #0A7CFC",
"s 	c #0787FF",
"t 	c #81C2FF",
"u 	c #CBE6FF",
"v 	c #C9E5FF",
"w 	c #60B2FF",
"x 	c #B7DCFF",
"y 	c #A5D3FF",
"z 	c #0E8AFF",
"A 	c #0987FD",
"B 	c #0C87FA",
"C 	c #078DFF",
"D 	c #088DFF",
"E 	c #85C7FF",
"F 	c #CBE7FF",
"G 	c #C9E6FF",
"H 	c #47ABFF",
"I 	c #239AFF",
"J 	c #B6DDFF",
"K 	c #A5D5FF",
"L 	c #1593FF",
"M 	c #088DFE",
"N 	c #0C8DFA",
"O 	c #128CF4",
"P 	c #0793FF",
"Q 	c #0994FF",
"R 	c #86CAFF",
"S 	c #47AFFF",
"T 	c #219EFF",
"U 	c #8ECEFF",
"V 	c #1599FF",
"W 	c #0899FE",
"X 	c #0B92FB",
"Y 	c #1393F5",
"Z 	c #1992EF",
"` 	c #079FFF",
" .	c #0B9EFB",
"..	c #1398F5",
"+.	c #1A93F0",
"@.	c #1E92EC",
"#.	c #07A5FF",
"$.	c #0AA4FC",
"%.	c #129DF6",
"&.	c #1897F0",
"*.	c #2493E8",
"=.	c #07B0FF",
"-.	c #0AA9FC",
";.	c #11A2F5",
">.	c #199DF1",
",.	c #1E97EC",
"'.	c #2393E9",
").	c #278EE5",
"!.	c #07B6FF",
"~.	c #09B5FD",
"{.	c #10A7F6",
"].	c #17A1F1",
"^.	c #1E9CEC",
"/.	c #2497E8",
"(.	c #2793E7",
"_.	c #2A8FE4",
":.	c #10ADF6",
"<.	c #17A7F1",
"[.	c #1C9BEC",
"}.	c #2296E8",
"|.	c #2792E5",
"1.	c #2D8EE1",
"2.	c #16A2F2",
"3.	c #1D9CED",
"4.	c #2197E9",
"5.	c #2692E6",
"6.	c #298EE3",
"7.	c #2C8FE2",
"8.	c #2D8BE3",
"                                      . . + + + + + ",
"@ @ @ @ @ @ @ @ @ @ @ @ @ @ @ @ @ @ @ @ @ @ @ + + + ",
"@ @ @ @ @ @ @ @ @ @ @ @ @ @ @ @ @ @ @ @ @ @ @ @ + + ",
"# # # # # # # # # # # # # # # # # # # $ % @ @ @ @ + ",
"# # # # # # # # # # # # # # # # # # # # & * @ @ @ + ",
"# # # # # # # # = # # # # # - # # # # # # ; > @ @ @ ",
"# # # # # # # , ' ) # # # ! ~ { # # # # # # ] @ @ @ ",
"# # # # # # , ^ / / ( # ! _ / : { # # # # # < @ @ @ ",
"# # # # # # [ / / / / } _ / / / ~ - # # # # | @ @ @ ",
"# # # # # # 1 2 / / / / / / / 3 4 # # # # # 5 @ @ @ ",
"# # # # # # # 1 2 / / / / / 6 7 # # # # # 8 @ @ @ @ ",
"9 9 9 9 9 9 9 9 0 a a a a a b 9 9 9 9 9 c d e e e e ",
"f f f f f f f g h i i i i i i j f f f k l l l l l l ",
"m m m m m m n o p p p p p p p p q m m m m m m m m r ",
"s s s s s s t u u u v w x u u u y z s s s s s s A B ",
"C C C C C C D E F G H C I J F K L C C C C C C M N O ",
"P P P P P P P Q R S P P P T U V P P P P P P W X Y Z ",
"` ` ` ` ` ` ` ` ` ` ` ` ` ` ` ` ` ` ` ` ` `  ...+.@.",
"#.#.#.#.#.#.#.#.#.#.#.#.#.#.#.#.#.#.#.#.#.$.%.&.@.*.",
"=.=.=.=.=.=.=.=.=.=.=.=.=.=.=.=.=.=.=.=.-.;.>.,.'.).",
"!.!.!.!.!.!.!.!.!.!.!.!.!.!.!.!.!.!.!.~.{.].^./.(._.",
"!.!.!.!.!.!.!.!.!.!.!.!.!.!.!.!.!.!.!.:.<.[.}.|._.1.",
"!.!.!.!.!.!.!.!.!.!.!.!.!.!.!.!.!.!.!.2.3.4.5.6.7.8."};
