/* XPM */
static char * maxu_xpm[] = {
"23 23 41 1",
" 	c #426C7F",
".	c #2B576B",
"+	c #5A8192",
"@	c #648999",
"#	c #81A0AE",
"$	c #8EAAB7",
"%	c #90ACB9",
"&	c #5C8293",
"*	c #7193A3",
"=	c #BBCDD5",
"-	c #D1DDE3",
";	c #CFDCE1",
">	c #CDDAE0",
",	c #C4D3DA",
"'	c #7395A4",
")	c #AAC0CA",
"!	c #D3DFE4",
"~	c #A6BDC7",
"{	c #B9CBD3",
"]	c #5F8596",
"^	c #567D8F",
"/	c #B4C8D1",
"(	c #376276",
"_	c #3D677A",
":	c #A8BEC8",
"<	c #C1D2D9",
"[	c #C6D5DC",
"}	c #406A7D",
"|	c #92ADBA",
"1	c #BFD0D8",
"2	c #8CA9B6",
"3	c #436D80",
"4	c #597F91",
"5	c #A2BAC4",
"6	c #C8D7DD",
"7	c #4A7385",
"8	c #4C7486",
"9	c #6A8E9E",
"0	c #6C8F9F",
"a	c #4E7689",
"b	c #547C8D",
"                       ",
".......................",
".......................",
"+++++++++++++++++++++++",
"+++++++++++++++++++++++",
"++++++@#$%%%%%$#@&+++++",
"+++++*=--;;;;;;>,'+++++",
"+++++)>!;;;;;;;;-~+++++",
"+++++{-;;;;;;;;;;=+++++",
"+++++{-;;;;;;;;;;=+++++",
"+++++{-;;;;;;;;;;{+++++",
"]]]]]=!----------=]]]]]",
"^^^^^/>>>>>>>>>>>/^^^^^",
"(((((~,,,,,,,,,,,~(((((",
"_____:<[[[[[[[[[[:_____",
"}}}}}|1[[[[[[[[[[2}}}}}",
"3333345[6666666,:433333",
"777778^@9000000@^877777",
"aaaaaaaaaaaaaaaaaaaaaaa",
"bbbbbbbbbbbbbbbbbbbbbbb",
"44444444444444444444444",
"44444444444444444444444",
"44444444444444444444444"};
