/* XPM */
static char * sticku_xpm[] = {
"28 23 54 1",
" 	c None",
".	c #000000",
"+	c #426C7F",
"@	c #2B576B",
"#	c #315D70",
"$	c #497284",
"%	c #5A8192",
"&	c #376276",
"*	c #577E90",
"=	c #2E596D",
"-	c #537A8C",
";	c #698D9D",
">	c #7E9DAC",
",	c #8CA9B6",
"'	c #7A9AA9",
")	c #678B9C",
"!	c #3A6578",
"~	c #648999",
"{	c #A8BEC8",
"]	c #D3DFE4",
"^	c #9CB5C0",
"/	c #5F8596",
"(	c #436D80",
"_	c #C6D5DC",
":	c #BDCED6",
"<	c #6E91A0",
"[	c #50788A",
"}	c #85A3B1",
"|	c #9EB6C2",
"1	c #90ACB9",
"2	c #356074",
"3	c #466F82",
"4	c #567D8F",
"5	c #D1DDE3",
"6	c #7899A8",
"7	c #4E7689",
"8	c #3D677A",
"9	c #A0B8C3",
"0	c #C8D7DD",
"a	c #94AFBB",
"b	c #406A7D",
"c	c #3F697C",
"d	c #C4D3DA",
"e	c #BBCDD5",
"f	c #456E81",
"g	c #547C8D",
"h	c #CAD8DF",
"i	c #477083",
"j	c #4A7385",
"k	c #4C7486",
"l	c #8EAAB7",
"m	c #4D7588",
"n	c #597F91",
"o	c #51798B",
".....+++++++++++++++++++++++",
"...@@@@@@@@@@@@@@@@@@@@@@@@@",
"..@@@@@@@@@@@@@@@@@@@@@@@@@@",
".@@@@#$%%%%%%%%%%%%%%%%%%%%%",
".@@@&*%%%%%%%%%%%%%%%%%%%%%%",
"@@@=-%%%%%%%;>,')%%%%%%%%%%%",
"@@@!%%%%%%~{]]]]]^/%%%%%%%%%",
"@@@(%%%%%~_]]]]]]]:/%%%%%%%%",
"@@@+%%%%%{]]]]]]]]]^%%%%%%%%",
"@@@&%%%%<]]]]]]]]]]])%%%%%%%",
"@@@@[%%%}]]]]]]]]]]]'%%%%%%%",
"####&-//|]]]]]]]]]]]1///////",
"22222234}5555555555564444444",
"&&&&&&&&7___________3&&&&&&&",
"8888888889000000000a88888888",
"bbcbbbbbb7d0000000e$bbbbbbbb",
"3f(3((((((g{hhhhh|7(((((((((",
"33ijjjjjjjjk)>l'~jjjjjjjjjjj",
"$3$kk77777777777777777777777",
"3$$km7gggggggggggggggggggggg",
"$$kkm[4nnnnnnnnnnnnnnnnnnnnn",
"i$$jkognnnnnnnnnnnnnnnnnnnnn",
"3$3$jm7nnnnnnnnnnnnnnnnnnnnn"};
