/* XPM */
static char * stick_xpm[] = {
"27 23 117 2",
"  	c #000000",
". 	c #317CFA",
"+ 	c #0764FF",
"@ 	c #116BFF",
"# 	c #3984FF",
"$ 	c #5394FF",
"% 	c #1B71FF",
"& 	c #4F91FF",
"* 	c #0B67FF",
"= 	c #498EFF",
"- 	c #66A0FF",
"; 	c #7FAFFF",
"> 	c #91BBFF",
", 	c #7BADFF",
"' 	c #639EFF",
") 	c #2175FF",
"! 	c #5E9BFF",
"~ 	c #B0CEFF",
"{ 	c #DBE9FF",
"] 	c #A4C6FF",
"^ 	c #5998FF",
"/ 	c #317FFF",
"( 	c #609CFF",
"_ 	c #CFE1FF",
": 	c #C6DCFF",
"< 	c #2D7CFF",
"[ 	c #1D72FF",
"} 	c #6BA3FF",
"| 	c #438AFF",
"1 	c #89B6FF",
"2 	c #0770FF",
"3 	c #1176FF",
"4 	c #458FFF",
"5 	c #539CFF",
"6 	c #A1C9FF",
"7 	c #DBEAFF",
"8 	c #91C0FF",
"9 	c #0776FF",
"0 	c #2587FF",
"a 	c #4196FF",
"b 	c #81B9FF",
"c 	c #D8E9FF",
"d 	c #71B1FF",
"e 	c #0A7CFC",
"f 	c #077CFF",
"g 	c #3293FF",
"h 	c #CBE4FF",
"i 	c #228AFF",
"j 	c #0C87FA",
"k 	c #0987FD",
"l 	c #0787FF",
"m 	c #9BCFFF",
"n 	c #CBE6FF",
"o 	c #8DC8FF",
"p 	c #128CF4",
"q 	c #0C8DFA",
"r 	c #088DFE",
"s 	c #078DFF",
"t 	c #249AFF",
"u 	c #C4E4FF",
"v 	c #CBE7FF",
"w 	c #BADFFF",
"x 	c #1895FF",
"y 	c #1992EF",
"z 	c #1393F5",
"A 	c #0B92FB",
"B 	c #0899FE",
"C 	c #0793FF",
"D 	c #26A1FF",
"E 	c #A3D7FF",
"F 	c #CBE9FF",
"G 	c #95D1FF",
"H 	c #1B9CFF",
"I 	c #1E92EC",
"J 	c #1A93F0",
"K 	c #1398F5",
"L 	c #0B9EFB",
"M 	c #079FFF",
"N 	c #09A0FF",
"O 	c #3BB3FF",
"P 	c #60C1FF",
"Q 	c #79CBFF",
"R 	c #5BBFFF",
"S 	c #36B1FF",
"T 	c #2493E8",
"U 	c #1897F0",
"V 	c #129DF6",
"W 	c #0AA4FC",
"X 	c #07A5FF",
"Y 	c #278EE5",
"Z 	c #2393E9",
"` 	c #1E97EC",
" .	c #199DF1",
"..	c #11A2F5",
"+.	c #0AA9FC",
"@.	c #07B0FF",
"#.	c #2A8FE4",
"$.	c #2793E7",
"%.	c #2497E8",
"&.	c #1E9CEC",
"*.	c #17A1F1",
"=.	c #10A7F6",
"-.	c #09B5FD",
";.	c #07B6FF",
">.	c #2D8EE1",
",.	c #2792E5",
"'.	c #2296E8",
").	c #1C9BEC",
"!.	c #17A7F1",
"~.	c #10ADF6",
"{.	c #2D8BE3",
"].	c #2C8FE2",
"^.	c #298EE3",
"/.	c #2692E6",
"(.	c #2197E9",
"_.	c #1D9CED",
":.	c #16A2F2",
"          . . . . . . . . . . . . . . . . . . . . . . ",
"      + + + + + + + + + + + + + + + + + + + + + + + + ",
"    + + + + + + + + + + + + + + + + + + + + + + + + + ",
"  + + + + @ # $ $ $ $ $ $ $ $ $ $ $ $ $ $ $ $ $ $ $ $ ",
"  + + + % & $ $ $ $ $ $ $ $ $ $ $ $ $ $ $ $ $ $ $ $ $ ",
"+ + + * = $ $ $ $ $ $ $ - ; > , ' $ $ $ $ $ $ $ $ $ $ ",
"+ + + ) $ $ $ $ $ $ ! ~ { { { { { ] ^ $ $ $ $ $ $ $ $ ",
"+ + + / $ $ $ $ $ ( _ { { { { { { { : ^ $ $ $ $ $ $ $ ",
"+ + + < $ $ $ $ $ ~ { { { { { { { { { ] $ $ $ $ $ $ $ ",
"+ + + [ $ $ $ $ } { { { { { { { { { { { ' $ $ $ $ $ $ ",
"+ + + + | $ $ $ 1 { { { { { { { { { { { , $ $ $ $ $ $ ",
"2 2 2 2 3 4 5 5 6 7 7 7 7 7 7 7 7 7 7 7 8 5 5 5 5 5 5 ",
"9 9 9 9 9 9 0 a b c c c c c c c c c c c d a a a a a a ",
"e f f f f f f f g h h h h h h h h h h h i f f f f f f ",
"j k l l l l l l l m n n n n n n n n n o l l l l l l l ",
"p q r s s s s s s t u v v v v v v v w x s s s s s s s ",
"y z A B C C C C C C D E F F F F F G H C C C C C C C C ",
"I J K L M M M M M M M N O P Q R S M M M M M M M M M M ",
"T I U V W X X X X X X X X X X X X X X X X X X X X X X ",
"Y Z `  ...+.@.@.@.@.@.@.@.@.@.@.@.@.@.@.@.@.@.@.@.@.@.",
"#.$.%.&.*.=.-.;.;.;.;.;.;.;.;.;.;.;.;.;.;.;.;.;.;.;.;.",
">.#.,.'.).!.~.;.;.;.;.;.;.;.;.;.;.;.;.;.;.;.;.;.;.;.;.",
"{.].^./.(._.:.;.;.;.;.;.;.;.;.;.;.;.;.;.;.;.;.;.;.;.;."};
