/* XPM */
static char * wtitle_xpm[] = {
"11 23 13 1",
" 	c #317CFA",
".	c #0764FF",
"+	c #5394FF",
"@	c #539CFF",
"#	c #4196FF",
"$	c #077CFF",
"%	c #0787FF",
"&	c #078DFF",
"*	c #0793FF",
"=	c #079FFF",
"-	c #07A5FF",
";	c #07B0FF",
">	c #07B6FF",
"           ",
"...........",
"...........",
"+++++++++++",
"+++++++++++",
"+++++++++++",
"+++++++++++",
"+++++++++++",
"+++++++++++",
"+++++++++++",
"+++++++++++",
"@@@@@@@@@@@",
"###########",
"$$$$$$$$$$$",
"%%%%%%%%%%%",
"&&&&&&&&&&&",
"***********",
"===========",
"-----------",
";;;;;;;;;;;",
">>>>>>>>>>>",
">>>>>>>>>>>",
">>>>>>>>>>>"};
