/* XPM */
static char * bar_xpm[] = {
"17 17 53 1",
" 	c None",
".	c #E9E9E9",
"+	c #E8E8E8",
"@	c #D8D8D8",
"#	c #D7D7D7",
"$	c #D6D6D6",
"%	c #D4D4D4",
"&	c #D3D3D3",
"*	c #D2D2D2",
"=	c #D0D0D0",
"-	c #CFCFCF",
";	c #CECECE",
">	c #CCCCCC",
",	c #CBCBCB",
"'	c #CACACA",
")	c #C8C8C8",
"!	c #C7C7C7",
"~	c #C6C6C6",
"{	c #C5C5C5",
"]	c #C3C3C3",
"^	c #C2C2C2",
"/	c #C1C1C1",
"(	c #BFBFBF",
"_	c #BEBEBE",
":	c #BDBDBD",
"<	c #BBBBBB",
"[	c #BABABA",
"}	c #B9B9B9",
"|	c #B7B7B7",
"1	c #B6B6B6",
"2	c #B5B5B5",
"3	c #B3B3B3",
"4	c #B2B2B2",
"5	c #B1B1B1",
"6	c #AFAFAF",
"7	c #AEAEAE",
"8	c #ADADAD",
"9	c #ABABAB",
"0	c #AAAAAA",
"a	c #A9A9A9",
"b	c #A7A7A7",
"c	c #A6A6A6",
"d	c #A5A5A5",
"e	c #A3A3A3",
"f	c #A2A2A2",
"g	c #A1A1A1",
"h	c #9F9F9F",
"i	c #9E9E9E",
"j	c #9D9D9D",
"k	c #9B9B9B",
"l	c #9A9A9A",
"m	c #999999",
"n	c #989898",
"................+",
"@@@@#######$$$$$$",
"%%%&&&&&&&&******",
"==--------;;;;;;;",
">>,,,,,,,''''''''",
")!!!!!!!!~~~~~~~{",
"]]]]]]]]^^^^^^^//",
"(((((((________::",
"<<<<<<<[[[[[[[}}}",
"||||||11111112222",
"33333444444445555",
"66666777777788888",
"99990000000aaaaaa",
"bbbccccccccdddddd",
"eeefffffffggggggg",
"hhiiiiiiijjjjjjjj",
"kllllllllmmmmmmmn"};
