/* XPM */
static char * close3_xpm[] = {
"17 17 56 1",
" 	c None",
".	c #EFEFEF",
"+	c #B6B6B6",
"@	c #BCBCBC",
"#	c #787878",
"$	c #C3C3C3",
"%	c #7D7D7D",
"&	c #000000",
"*	c #FFFFFF",
"=	c #CACACA",
"-	c #828282",
";	c #D1D1D1",
">	c #868686",
",	c #AAAAAA",
"'	c #AFAFAF",
")	c #B4B4B4",
"!	c #B9B9B9",
"~	c #BEBEBE",
"{	c #C8C8C8",
"]	c #CDCDCD",
"^	c #939393",
"/	c #D8D8D8",
"(	c #8A8A8A",
"_	c #D2D2D2",
":	c #979797",
"<	c #DFDFDF",
"[	c #8E8E8E",
"}	c #505050",
"|	c #5B5B5B",
"1	c #676767",
"2	c #727272",
"3	c #D7D7D7",
"4	c #9A9A9A",
"5	c #E6E6E6",
"6	c #7E7E7E",
"7	c #DCDCDC",
"8	c #9E9E9E",
"9	c #E8E8E8",
"0	c #959595",
"a	c #898989",
"b	c #E1E1E1",
"c	c #A1A1A1",
"d	c #EBEBEB",
"e	c #969696",
"f	c #A5A5A5",
"g	c #EEEEEE",
"h	c #989898",
"i	c #A8A8A8",
"j	c #F0F0F0",
"k	c #ACACAC",
"l	c #F3F3F3",
"m	c #9B9B9B",
"n	c #F5F5F5",
"o	c #9D9D9D",
"p	c #F8F8F8",
"q	c #FAFAFA",
".................",
"+++++++++++++++++",
"@@#############@@",
"$$%&&&&&&&&&&&&*$",
"==-&&&&&&&&&&&&*=",
";;>&&,')!~${]^&*;",
"//(&&'&&&&&&_:&*/",
"<<[&&)&}|12&34&*<",
"55^&&!&|126&78&*5",
"990&&~&126a&bc&*9",
"dde&&$&26a0&5f&*d",
"ggh&&{&&&&&&di&*g",
"jj4&&]_37b5djk&*j",
"llm&&^:48cfik'&*l",
"nno&&&&&&&&&&&&*n",
"ppp************pp",
"qqqqqqqqqqqqqqqqq"};
