/* XPM */
static char * close_xpm[] = {
"17 17 51 1",
" 	c None",
".	c #EFEFEF",
"+	c #B6B6B6",
"@	c #BCBCBC",
"#	c #AFAFAF",
"$	c #D1D1D1",
"%	c #C3C3C3",
"&	c #B2B2B2",
"*	c #737373",
"=	c #F3F3F3",
"-	c #CACACA",
";	c #B4B4B4",
">	c #BBBBBB",
",	c #C8C8C8",
"'	c #CBCBCB",
")	c #CDCDCD",
"!	c #D0D0D0",
"~	c #D2D2D2",
"{	c #D5D5D5",
"]	c #D7D7D7",
"^	c #DADADA",
"/	c #BDBDBD",
"(	c #D8D8D8",
"_	c #B8B8B8",
":	c #DCDCDC",
"<	c #BFBFBF",
"[	c #DFDFDF",
"}	c #BABABA",
"|	c #9B9B9B",
"1	c #A1A1A1",
"2	c #A7A7A7",
"3	c #ACACAC",
"4	c #C0C0C0",
"5	c #E6E6E6",
"6	c #E1E1E1",
"7	c #C2C2C2",
"8	c #E8E8E8",
"9	c #BEBEBE",
"0	c #E4E4E4",
"a	c #C4C4C4",
"b	c #EBEBEB",
"c	c #C6C6C6",
"d	c #EEEEEE",
"e	c #E9E9E9",
"f	c #C7C7C7",
"g	c #F0F0F0",
"h	c #C9C9C9",
"i	c #C1C1C1",
"j	c #F5F5F5",
"k	c #F8F8F8",
"l	c #FAFAFA",
".................",
"+++++++++++++++++",
"@@#############$@",
"%%&************=%",
"--;*=========>*=-",
"$$+*=,')!~{]^/*=$",
"((_*='******:<*=(",
"[[}*=)*|123*[4*=[",
"55/*=!*123&*67*=5",
"889*=~*23&_*0a*=8",
"bb9*={*3&_9*5c*=b",
"dd<*=]******ef*=d",
"gg4*=^:[605ebh*=g",
"==i*>/<47acfh'*==",
"jj7************=j",
"kk.============.k",
"lllllllllllllllll"};
