/* XPM */
static char * max_xpm[] = {
"17 17 46 1",
" 	c None",
".	c #EFEFEF",
"+	c #B6B6B6",
"@	c #BCBCBC",
"#	c #BEBEBE",
"$	c #D1D1D1",
"%	c #C3C3C3",
"&	c #C1C1C1",
"*	c #737373",
"=	c #F3F3F3",
"-	c #CACACA",
";	c #C4C4C4",
">	c #BBBBBB",
",	c #C7C7C7",
"'	c #C8C8C8",
")	c #CBCBCB",
"!	c #CDCDCD",
"~	c #D0D0D0",
"{	c #D2D2D2",
"]	c #D5D5D5",
"^	c #D7D7D7",
"/	c #DADADA",
"(	c #BDBDBD",
"_	c #D8D8D8",
":	c #DCDCDC",
"<	c #BFBFBF",
"[	c #DFDFDF",
"}	c #CCCCCC",
"|	c #C0C0C0",
"1	c #E6E6E6",
"2	c #CFCFCF",
"3	c #E1E1E1",
"4	c #C2C2C2",
"5	c #E8E8E8",
"6	c #E4E4E4",
"7	c #EBEBEB",
"8	c #C6C6C6",
"9	c #EEEEEE",
"0	c #E9E9E9",
"a	c #F0F0F0",
"b	c #D3D3D3",
"c	c #C9C9C9",
"d	c #D4D4D4",
"e	c #F5F5F5",
"f	c #F8F8F8",
"g	c #FAFAFA",
".................",
"+++++++++++++++++",
"@@#############$@",
"%%&************=%",
"--;*=========>*=-",
"$$,*=')!~{]^/(*=$",
"__-*=)!~{]^/:<*=_",
"[[}*=!~{]^/:[|*=[",
"112*=~{]^/:[34*=1",
"55~*={]^/:[36;*=5",
"77$*=]^/:[3618*=7",
"99{*=^/:[3610,*=9",
"aab*=/:[36107c*=a",
"==d*>(<|4;8,c)*==",
"ee]************=e",
"ff.============.f",
"ggggggggggggggggg"};
