/* XPM */
static char * min_xpm[] = {
"17 17 57 1",
" 	c None",
".	c #EFEFEF",
"+	c #B6B6B6",
"@	c #BCBCBC",
"#	c #BEBEBE",
"$	c #D1D1D1",
"%	c #C3C3C3",
"&	c #C1C1C1",
"*	c #737373",
"=	c #F3F3F3",
"-	c #CACACA",
";	c #C4C4C4",
">	c #9B9B9B",
",	c #9D9D9D",
"'	c #9F9F9F",
")	c #A1A1A1",
"!	c #A4A4A4",
"~	c #A6A6A6",
"{	c #A8A8A8",
"]	c #AAAAAA",
"^	c #ACACAC",
"/	c #AEAEAE",
"(	c #C7C7C7",
"_	c #B0B0B0",
":	c #D8D8D8",
"<	c #B2B2B2",
"[	c #DFDFDF",
"}	c #CCCCCC",
"|	c #B5B5B5",
"1	c #E6E6E6",
"2	c #CFCFCF",
"3	c #B7B7B7",
"4	c #E8E8E8",
"5	c #D0D0D0",
"6	c #B9B9B9",
"7	c #EBEBEB",
"8	c #EEEEEE",
"9	c #D2D2D2",
"0	c #BBBBBB",
"a	c #F0F0F0",
"b	c #D3D3D3",
"c	c #D5D5D5",
"d	c #D7D7D7",
"e	c #DADADA",
"f	c #DCDCDC",
"g	c #E1E1E1",
"h	c #C2C2C2",
"i	c #D4D4D4",
"j	c #BDBDBD",
"k	c #BFBFBF",
"l	c #C0C0C0",
"m	c #C6C6C6",
"n	c #C9C9C9",
"o	c #CBCBCB",
"p	c #F5F5F5",
"q	c #F8F8F8",
"r	c #FAFAFA",
".................",
"+++++++++++++++++",
"@@#############$@",
"%%&************=%",
"--;*>,')!~{]^/*=-",
"$$(*,')!~{]^/_*=$",
"::-*')!~{]^/_<*=:",
"[[}*)!~{]^/_<|*=[",
"112*!~{]^/_<|3*=1",
"445*~{]^/_<|36*=4",
"77$************=7",
"889*=========0*=8",
"aab*=59cdef[gh*=a",
"==i*0jklh;m(no*==",
"ppc************=p",
"qq.============.q",
"rrrrrrrrrrrrrrrrr"};
