/* XPM */
static char * min3_xpm[] = {
"17 17 62 1",
" 	c None",
".	c #EFEFEF",
"+	c #B6B6B6",
"@	c #BCBCBC",
"#	c #969696",
"$	c #C3C3C3",
"%	c #9C9C9C",
"&	c #000000",
"*	c #FFFFFF",
"=	c #CACACA",
"-	c #A2A2A2",
";	c #505050",
">	c #545454",
",	c #585858",
"'	c #5C5C5C",
")	c #616161",
"!	c #656565",
"~	c #696969",
"{	c #6D6D6D",
"]	c #727272",
"^	c #767676",
"/	c #D1D1D1",
"(	c #A7A7A7",
"_	c #7A7A7A",
":	c #D8D8D8",
"<	c #ADADAD",
"[	c #7E7E7E",
"}	c #DFDFDF",
"|	c #B2B2B2",
"1	c #838383",
"2	c #E6E6E6",
"3	c #B8B8B8",
"4	c #878787",
"5	c #E8E8E8",
"6	c #BABABA",
"7	c #8B8B8B",
"8	c #EBEBEB",
"9	c #EEEEEE",
"0	c #BEBEBE",
"a	c #F0F0F0",
"b	c #C0C0C0",
"c	c #B9B9B9",
"d	c #C8C8C8",
"e	c #CDCDCD",
"f	c #D2D2D2",
"g	c #D7D7D7",
"h	c #DCDCDC",
"i	c #9E9E9E",
"j	c #F3F3F3",
"k	c #C2C2C2",
"l	c #939393",
"m	c #979797",
"n	c #9A9A9A",
"o	c #A1A1A1",
"p	c #A5A5A5",
"q	c #A8A8A8",
"r	c #ACACAC",
"s	c #AFAFAF",
"t	c #F5F5F5",
"u	c #C4C4C4",
"v	c #F8F8F8",
"w	c #FAFAFA",
".................",
"+++++++++++++++++",
"@@#############@@",
"$$%&&&&&&&&&&&&*$",
"==-&;>,')!~{]^&*=",
"//(&>,')!~{]^_&*/",
"::<&,')!~{]^_[&*:",
"}}|&')!~{]^_[1&*}",
"223&)!~{]^_[14&*2",
"556&!~{]^_[147&*5",
"88@&&&&&&&&&&&&*8",
"990&&&&&&&&&&&&*9",
"aab&&c0$defghi&*a",
"jjk&&lmniopqrs&*j",
"ttu&&&&&&&&&&&&*t",
"vvv************vv",
"wwwwwwwwwwwwwwwww"};
