/* XPM */
static char * stick3_xpm[] = {
"17 17 112 2",
"  	c None",
". 	c #EFEFEF",
"+ 	c #F0F0F0",
"@ 	c #B6B6B6",
"# 	c #F2F2F2",
"$ 	c #BCBCBC",
"% 	c #969696",
"& 	c #F3F3F3",
"* 	c #C3C3C3",
"= 	c #9C9C9C",
"- 	c #000000",
"; 	c #FFFFFF",
"> 	c #F4F4F4",
", 	c #CACACA",
"' 	c #A2A2A2",
") 	c #454545",
"! 	c #565656",
"~ 	c #646464",
"{ 	c #666666",
"] 	c #686868",
"^ 	c #696969",
"/ 	c #6B6B6B",
"( 	c #606060",
"_ 	c #767676",
": 	c #F6F6F6",
"< 	c #D1D1D1",
"[ 	c #A7A7A7",
"} 	c #3F3F3F",
"| 	c #5B5B5B",
"1 	c #F7F7F7",
"2 	c #D8D8D8",
"3 	c #ADADAD",
"4 	c #424242",
"5 	c #8686CF",
"6 	c #8686CD",
"7 	c #8484CC",
"8 	c #8383C9",
"9 	c #8181C6",
"0 	c #7777B6",
"a 	c #4E4E77",
"b 	c #4C4C4C",
"c 	c #F9F9F9",
"d 	c #DFDFDF",
"e 	c #B2B2B2",
"f 	c #8585CD",
"g 	c #8383CA",
"h 	c #8282C7",
"i 	c #7F7FC3",
"j 	c #7E7EC1",
"k 	c #7C7CBE",
"l 	c #6C6CA5",
"m 	c #5F5F5F",
"n 	c #FAFAFA",
"o 	c #E6E6E6",
"p 	c #B8B8B8",
"q 	c #494949",
"r 	c #8282C8",
"s 	c #8080C4",
"t 	c #7A7ABB",
"u 	c #7878B8",
"v 	c #6969A0",
"w 	c #616161",
"x 	c #E8E8E8",
"y 	c #BABABA",
"z 	c #7B7BBB",
"A 	c #7676B5",
"B 	c #7575B2",
"C 	c #66669C",
"D 	c #626262",
"E 	c #FBFBFB",
"F 	c #EBEBEB",
"G 	c #4F4F4F",
"H 	c #7B7BBD",
"I 	c #7979B9",
"J 	c #7575B3",
"K 	c #7373AF",
"L 	c #7171AC",
"M 	c #636397",
"N 	c #636363",
"O 	c #FCFCFC",
"P 	c #EEEEEE",
"Q 	c #BEBEBE",
"R 	c #525252",
"S 	c #7878B6",
"T 	c #7373B0",
"U 	c #6F6FAA",
"V 	c #6D6DA7",
"W 	c #616193",
"X 	c #656565",
"Y 	c #C0C0C0",
"Z 	c #7272AE",
"` 	c #7070AB",
" .	c #6E6EA8",
"..	c #6C6CA4",
"+.	c #6A6AA0",
"@.	c #68689F",
"#.	c #5D5D8E",
"$.	c #FDFDFD",
"%.	c #C2C2C2",
"&.	c #595959",
"*.	c #737371",
"=.	c #6D6D6B",
"-.	c #6B6B69",
";.	c #666664",
">.	c #636361",
",.	c #626260",
"'.	c #585856",
").	c #5E5E5E",
"!.	c #F5F5F5",
"~.	c #C4C4C4",
"{.	c #FEFEFE",
"].	c #F8F8F8",
". . . . . . . . . . . . . . . . . ",
"+ @ @ @ @ @ @ @ @ @ @ @ @ @ @ @ @ ",
"# $ % % % % % % % % % % % % % $ $ ",
"& * = - - - - - - - - - - - - ; * ",
"> , ' - ) ! ~ { ] ^ / ] ( _ - ; , ",
": < [ - } - - - - - - - - | - ; < ",
"1 2 3 - 4 - 5 6 7 8 9 0 a b - ; 2 ",
"c d e - ) - f g h i j k l m - ; d ",
"n o p - q - r s j k t u v w - ; o ",
"n x y - b - j k z u A B C D - ; x ",
"E F $ - G - H I 0 J K L M N - ; F ",
"O P Q - R - S J T L U V W X - ; P ",
"O + Y - ! - Z `  ...+.@.#.{ - ; + ",
"$.& %.- &.{ *.=.-.;.>.,.'.).- ; & ",
"$.!.~.- - - - - - - - - - - - ; !.",
"{.].].; ; ; ; ; ; ; ; ; ; ; ; ].].",
"{.n n n n n n n n n n n n n n n n "};
