/* XPM */
static char * stick2_xpm[] = {
"17 17 114 2",
"  	c None",
". 	c #EFEFEF",
"+ 	c #F0F0F0",
"@ 	c #B6B6B6",
"# 	c #F2F2F2",
"$ 	c #BCBCBC",
"% 	c #969696",
"& 	c #F3F3F3",
"* 	c #C3C3C3",
"= 	c #9C9C9C",
"- 	c #000000",
"; 	c #FFFFFF",
"> 	c #F4F4F4",
", 	c #CACACA",
"' 	c #A2A2A2",
") 	c #454545",
"! 	c #565656",
"~ 	c #646464",
"{ 	c #666666",
"] 	c #686868",
"^ 	c #696969",
"/ 	c #6B6B6B",
"( 	c #606060",
"_ 	c #767676",
": 	c #F6F6F6",
"< 	c #D1D1D1",
"[ 	c #A7A7A7",
"} 	c #3F3F3F",
"| 	c #B0B0B0",
"1 	c #E7E7E7",
"2 	c #E6E6E6",
"3 	c #E4E4E4",
"4 	c #7A7A7A",
"5 	c #5B5B5B",
"6 	c #F7F7F7",
"7 	c #D8D8D8",
"8 	c #ADADAD",
"9 	c #424242",
"0 	c #C2C2C2",
"a 	c #FEFEFE",
"b 	c #FCFCFC",
"c 	c #F8F8F8",
"d 	c #F5F5F5",
"e 	c #E2E2E1",
"f 	c #959594",
"g 	c #4C4C4C",
"h 	c #F9F9F9",
"i 	c #DFDFDF",
"j 	c #B2B2B2",
"k 	c #C1C1C1",
"l 	c #FDFDFD",
"m 	c #FAFAFA",
"n 	c #F2F2F1",
"o 	c #EFEFEE",
"p 	c #EBEBEA",
"q 	c #CDCDCC",
"r 	c #5F5F5F",
"s 	c #B8B8B8",
"t 	c #494949",
"u 	c #F0F0EF",
"v 	c #ECECEB",
"w 	c #E8E8E7",
"x 	c #E4E4E3",
"y 	c #C8C8C6",
"z 	c #616161",
"A 	c #E8E8E8",
"B 	c #BABABA",
"C 	c #BEBEBE",
"D 	c #E9E9E7",
"E 	c #E5E5E3",
"F 	c #E1E1DF",
"G 	c #DEDEDB",
"H 	c #C2C2C0",
"I 	c #626262",
"J 	c #FBFBFB",
"K 	c #EBEBEB",
"L 	c #4F4F4F",
"M 	c #EAEAE8",
"N 	c #E6E6E4",
"O 	c #E2E2E0",
"P 	c #DFDFDC",
"Q 	c #DBDBD8",
"R 	c #D7D7D4",
"S 	c #BDBDBA",
"T 	c #636363",
"U 	c #EEEEEE",
"V 	c #525252",
"W 	c #BCBCBB",
"X 	c #E3E3E1",
"Y 	c #DFDFDD",
"Z 	c #DCDCD9",
"` 	c #D4D4D1",
" .	c #D0D0CD",
"..	c #B8B8B5",
"+.	c #656565",
"@.	c #C0C0C0",
"#.	c #B7B7B6",
"$.	c #DADAD7",
"%.	c #D5D5D2",
"&.	c #D2D2CF",
"*.	c #CDCDCA",
"=.	c #C9C9C5",
"-.	c #C7C7C3",
";.	c #B1B1AE",
">.	c #595959",
",.	c #737371",
"'.	c #6D6D6B",
").	c #6B6B69",
"!.	c #666664",
"~.	c #636361",
"{.	c #626260",
"].	c #585856",
"^.	c #5E5E5E",
"/.	c #C4C4C4",
". . . . . . . . . . . . . . . . . ",
"+ @ @ @ @ @ @ @ @ @ @ @ @ @ @ @ @ ",
"# $ % % % % % % % % % % % % % $ $ ",
"& * = - - - - - - - - - - - - ; * ",
"> , ' - ) ! ~ { ] ^ / ] ( _ - ; , ",
": < [ - } | 1 1 1 2 3 , 4 5 - ; < ",
"6 7 8 - 9 0 ; a b c d e f g - ; 7 ",
"h i j - ) k l m : n o p q r - ; i ",
"m 2 s - t k 6 & u v w x y z - ; 2 ",
"m A B - g C u v D E F G H I - ; A ",
"J K $ - L $ M N O P Q R S T - ; K ",
"b U C - V W X Y Z R `  ...+.- ; U ",
"b + @.- ! #.$.%.&.*.=.-.;.{ - ; + ",
"l & 0 - >.{ ,.'.).!.~.{.].^.- ; & ",
"l d /.- - - - - - - - - - - - ; d ",
"a c c ; ; ; ; ; ; ; ; ; ; ; ; c c ",
"a m m m m m m m m m m m m m m m m "};
