/* XPM */
static char * close_off_xpm[] = {
"20 20 29 1",
" 	c None",
".	c #9DAFB5",
"+	c #020405",
"@	c #69828C",
"#	c #657E88",
"$	c #58737D",
"%	c #637D87",
"&	c #1C2F36",
"*	c #5D7882",
"=	c #5A757F",
"-	c #59747E",
";	c #2F4D58",
">	c #FAFBFB",
",	c #56727C",
"'	c #546F79",
")	c #4F6C76",
"!	c #4C6872",
"~	c #48646F",
"{	c #46636E",
"]	c #425F69",
"^	c #405E68",
"/	c #3F5C67",
"(	c #3C5964",
"_	c #3A5863",
":	c #385661",
"<	c #36545E",
"[	c #35535D",
"}	c #324F5A",
"|	c #33505B",
"...............+++++",
"@@@@@@@@@@@@@@@@@@++",
"###$$$$$$$$$$$$$$$#+",
"%%%$&&&&&&&&&&&&&$%+",
"***$&&&&&&&&&&&&&$*+",
"=--$&&&;>&&&&>;&&$--",
",,,$&&&>>>&&>>>&&$,,",
"'''$&&&&>>>>>>&&&$''",
")))$&&&&&>>>>&&&&$))",
"!!!$&&&&&>>>>&&&&$!!",
"~~~$&&&&>>>>>>&&&$~~",
"{{{$&&&>>>&&>>>&&${{",
"]]^$&&&;>&&&&>;&&$^]",
"///$&&&&&&&&&&&&&$//",
"(_($&&&&&&&&&&&&&$__",
":::$&&&&&&&&&&&&&$::",
"<<[$$$$$$$$$$$$$$$<<",
"}}|}|}}||}|||}}}}}}}",
";;;;;;;;;;;;;;;;;;;;",
"&&&&&&&&&&&&&&&&&&&&"};
