/* XPM */
static char * close_xpm[] = {
"20 20 48 1",
" 	c #C4CDDC",
".	c #000000",
"+	c #9DA8BB",
"@	c #9BA6B9",
"#	c #9BA6BA",
"$	c #9AA6B9",
"%	c #8A9BB9",
"&	c #97A3B7",
"*	c #97A3B8",
"=	c #4B5462",
"-	c #98A3B7",
";	c #94A0B5",
">	c #94A0B4",
",	c #909EB2",
"'	c #909DB2",
")	c #647694",
"!	c #FFFFFF",
"~	c #909DB3",
"{	c #8D9AB0",
"]	c #8D9AB1",
"^	c #8A97AD",
"/	c #8997AD",
"(	c #8694AB",
"_	c #8794AB",
":	c #8694AC",
"<	c #8391A9",
"[	c #808EA7",
"}	c #7F8EA7",
"|	c #7C8BA4",
"1	c #7C8BA5",
"2	c #7988A3",
"3	c #7988A2",
"4	c #7888A3",
"5	c #7888A2",
"6	c #7585A0",
"7	c #7685A0",
"8	c #72829E",
"9	c #71829E",
"0	c #72829D",
"a	c #6E7F9B",
"b	c #6F7F9B",
"c	c #6B7C99",
"d	c #6A7C99",
"e	c #6B7C98",
"f	c #677997",
"g	c #687996",
"h	c #687997",
"i	c #677996",
"               .....",
"++++++++++++++++++..",
"@#$%%%%%%%%%%%%%%%#.",
"&*&%=============%-.",
";>;%=============%;.",
",''%===)!====!)==%'~",
"{{{%===!!!==!!!==%]{",
"^^/%====!!!!!!===%/^",
"(_:%=====!!!!====%((",
"<<<%=====!!!!====%<<",
"[[}%====!!!!!!===%}}",
"|1|%===!!!==!!!==%11",
"234%===)!====!)==%53",
"666%=============%67",
"890%=============%99",
"aab%=============%aa",
"ccd%%%%%%%%%%%%%%%ce",
"ffgfhffggigghifiiiii",
"))))))))))))))))))))",
"===================="};
