/* XPM */
static char * max_xpm[] = {
"20 20 47 1",
" 	c #C4CDDC",
".	c #9DA8BB",
"+	c #9BA6BA",
"@	c #8A9BB9",
"#	c #9BA6B9",
"$	c #97A3B7",
"%	c #98A3B7",
"&	c #4B5462",
"*	c #94A0B5",
"=	c #93A0B5",
"-	c #93A0B4",
";	c #919DB3",
">	c #909DB2",
",	c #909DB3",
"'	c #919DB2",
")	c #8D9AB0",
"!	c #647694",
"~	c #FFFFFF",
"{	c #8A97AE",
"]	c #8997AE",
"^	c #8694AB",
"/	c #8694AC",
"(	c #8391A9",
"_	c #8391AA",
":	c #7F8EA7",
"<	c #808EA6",
"[	c #7F8EA6",
"}	c #7C8BA5",
"|	c #7C8BA4",
"1	c #7988A3",
"2	c #7888A2",
"3	c #7988A2",
"4	c #7585A0",
"5	c #7685A0",
"6	c #75859F",
"7	c #72829D",
"8	c #72829E",
"9	c #71829D",
"0	c #6F7F9B",
"a	c #6E7F9B",
"b	c #6B7C99",
"c	c #6A7C98",
"d	c #6B7C98",
"e	c #677997",
"f	c #687996",
"g	c #687997",
"h	c #677996",
"                    ",
"....................",
"++@@@@@@@@@@@@@@@##+",
"$%@&&&&&&&&&&&&&@$%$",
"*=@&&&&&&&&&&&&&@-**",
";>@&&&&&&&&&&&&&@>,'",
"))@&&&&!~~~~!&&&@)))",
"{{@&&&!~~~~~~!&&@{]]",
"^/@&&&~~@&&@~~&&@/^/",
"((@&&&~~&&&&~~&&@___",
":<@&&&~~&&&&~~&&@[::",
"}|@&&&~~@&&@~~&&@|}|",
"12@&&&!~~~~~~!&&@223",
"44@&&&&!~~~~!&&&@546",
"78@&&&&&&&&&&&&&@989",
"0a@&&&&&&&&&&&&&@a0a",
"bb@@@@@@@@@@@@@@@cbd",
"eefgfegffffhhhffeheg",
"!!!!!!!!!!!!!!!!!!!!",
"&&&&&&&&&&&&&&&&&&&&"};
