/* XPM */
static char * stuck_xpm[] = {
"20 20 65 1",
" 	c None",
".	c #000000",
"+	c #C4CDDC",
"@	c #9DA8BB",
"#	c #9BA6B9",
"$	c #8A9BB9",
"%	c #9BA6BA",
"&	c #97A4B7",
"*	c #4B5462",
"=	c #98A3B8",
"-	c #97A3B7",
";	c #98A3B7",
">	c #93A0B5",
",	c #94A0B5",
"'	c #94A0B4",
")	c #919DB3",
"!	c #909DB3",
"~	c #4C5563",
"{	c #909DB2",
"]	c #8D9AB0",
"^	c #4B5463",
"/	c #F8F8F9",
"(	c #FEFEFF",
"_	c #515A68",
":	c #4C5564",
"<	c #8997AE",
"[	c #8A97AD",
"}	c #FAFAFA",
"|	c #FFFFFF",
"1	c #4F5866",
"2	c #8A97AE",
"3	c #8694AB",
"4	c #FCFCFC",
"5	c #4D5664",
"6	c #8694AC",
"7	c #8391A9",
"8	c #4E5765",
"9	c #FEFEFE",
"0	c #F9F9F9",
"a	c #7F8EA6",
"b	c #808EA7",
"c	c #FDFDFE",
"d	c #7F8EA7",
"e	c #7C8BA4",
"f	c #7C8BA5",
"g	c #7B8BA5",
"h	c #7988A2",
"i	c #7888A2",
"j	c #75859F",
"k	c #7685A0",
"l	c #7586A0",
"m	c #7585A0",
"n	c #72829E",
"o	c #72829D",
"p	c #71829D",
"q	c #6F7F9B",
"r	c #6E7F9B",
"s	c #6A7C99",
"t	c #6B7C98",
"u	c #6B7C99",
"v	c #677996",
"w	c #677997",
"x	c #687996",
"y	c #687997",
"z	c #647694",
".....+++++++++++++++",
"..@@@@@@@@@@@@@@@@@@",
".#$$$$$$$$$$$$$$$%##",
".&$*************$=-;",
".>$*************$,',",
")!$******~******$!{!",
"]]$***^**/(_~:**$]]]",
"<[$***~**}|1****$2<2",
"33$***_1*4|5****$663",
"77$***(|89|*0/~*$777",
"ab$**~/|||94|c**$dad",
"ef$***5}||||4_**$ffg",
"hi$****14||}1~**$hhh",
"jk$***^*_c/5*^**$lmk",
"no$*******~*****$npo",
"qr$*************$rqr",
"ss$$$$$$$$$$$$$$$tuu",
"vvwxvvxxvwwyvxxvvvyw",
"zzzzzzzzzzzzzzzzzzzz",
"********************"};
