/* XPM */
static char * wtitle_off_xpm[] = {
"5 20 26 1",
" 	c None",
".	c #9DAFB5",
"+	c #69828C",
"@	c #657E88",
"#	c #637D87",
"$	c #5D7882",
"%	c #59747E",
"&	c #5A757F",
"*	c #56727C",
"=	c #546F79",
"-	c #4F6C76",
";	c #4C6872",
">	c #48646F",
",	c #46636E",
"'	c #405E68",
")	c #425F69",
"!	c #3F5C67",
"~	c #3C5964",
"{	c #3A5863",
"]	c #385661",
"^	c #36545E",
"/	c #35535D",
"(	c #324F5A",
"_	c #33505B",
":	c #2F4D58",
"<	c #1C2F36",
".....",
"+++++",
"@@@@@",
"#####",
"$$$$$",
"%%&%%",
"*****",
"=====",
"-----",
";;;;;",
">>>>>",
",,,,,",
"')))'",
"!!!!!",
"~{~{~",
"]]]]]",
"^^^^/",
"(_((_",
":::::",
"<<<<<"};
