/* XPM */
static char *close_dn[] = {
/* columns rows colors chars-per-pixel */
"21 21 14 1",
"  c #122867",
". c #2C3656",
"X c #2C3657",
"o c #394B81",
"O c #3C4E88",
"+ c #3F5394",
"@ c #405496",
"# c #405597",
"$ c #42589E",
"% c #455CA5",
"& c #3C92AB",
"* c #46A1CA",
"= c #68B5CF",
"- c #7AC3E5",
/* pixels */
"                     ",
".................... ",
"XX..XXXXXXXXXX...... ",
"#+O$#@@@@@+Oo....... ",
".X.....%%%%%%....... ",
".......%*****&&&.... ",
".......%*----==&.... ",
".......%*----==&.... ",
".......%*----==&.... ",
".......%*----==&.... ",
".......%*****&&&.... ",
".......%%%%%%....... ",
".......%%%%%%....... ",
".......%%%%%%....... ",
".......%%%%%%....... ",
".......%%%%%%....... ",
".......%%%%%%....... ",
".......%%%%%%....... ",
"%%%%%%%%%%%%%....... ",
".................... ",
"                     "
};
