/* XPM */
static char *max[] = {
/* columns rows colors chars-per-pixel */
"21 21 9 1",
"  c #122867",
". c #2C3656",
"X c #2C3657",
"o c #405496",
"O c #455CA5",
"+ c #426583",
"@ c #3C92AB",
"# c #5982BD",
"$ c #46A1CA",
/* pixels */
"                     ",
".....................",
"XX..XXXXXXXXXXXXXXXXX",
"ooooooooooooooooooooo",
"XXXXXXXXOOOOOOXXXXXXX",
"........OOOOOO.......",
"........OOOOOO.......",
"........OOOOOO.......",
"........O$$$$$@@@....",
"........O$####++@....",
"........O$####++@....",
"........O$####++@....",
"........O$####++@....",
"........O$$$$$@@@....",
"........OOOOOO.......",
"........OOOOOO.......",
"........OOOOOO.......",
"........OOOOOO.......",
"OOOOOOOOOOOOOOOOOOOOO",
".....................",
"                     "
};
