/* XPM */
static char *min_dn[] = {
/* columns rows colors chars-per-pixel */
"21 21 21 1",
"  c #122867",
". c #2C3656",
"X c #2C3657",
"o c #2E395C",
"O c #2E3A5E",
"+ c #303C63",
"@ c #33416E",
"# c #3C4E89",
"$ c #3D508D",
"% c #3E518F",
"& c #3E5290",
"* c #3F5394",
"= c #405495",
"- c #405496",
"; c #42579B",
": c #42589E",
"> c #455CA5",
", c #3C92AB",
"< c #46A1CA",
"1 c #69B7D1",
"2 c #7BC5E6",
/* pixels */
"                     ",
".....................",
"............OX..oXXXX",
"+*#*--&&--------*****",
"O$..XXXX>>>>>>...XXX.",
"O$......>>>>>>.......",
"O$......>>>>>>.......",
"O$......>>>>>>.......",
"O&......>>>>>>.......",
"O#......>>>>>>.......",
"O#......>>>>>>.......",
"O&......><<<<<,,,....",
"O&XX....><222211,....",
"O#......><222211,....",
"O#......><222211,....",
"@&......><222211,....",
">;......><<<<<,,,....",
"........>>>>>>.......",
">>>>>>>>>>>>>>>>>>>>>",
".....................",
"                     "
};
