/* XPM */
static char *min_uf[] = {
/* columns rows colors chars-per-pixel */
"21 21 19 1",
"  c #0F2259",
". c #262F4A",
"X c #262F4B",
"o c #283150",
"O c #283251",
"+ c #293456",
"@ c #2C385F",
"# c #344377",
"$ c #35457A",
"% c #35467C",
"& c #35477D",
"* c #364880",
"= c #374981",
"- c #374982",
"; c #394B86",
": c #394C89",
"> c #3C508F",
", c #347F95",
"< c #3C8CBC",
/* pixels */
"                     ",
".....................",
"....X......XOXXXX..XX",
"+*#***&&-------------",
"O$..XXXX>>>>>>.XXXXXX",
"O$......>>>>>>.......",
"O$......>>>>>>.......",
"O$......>>>>>>.......",
"O$......>>>>>>.......",
"O$......>>>>>>.......",
"O$......>>>>>>.......",
"O$......><<<<<,,,....",
"O$......><>>>>..,....",
"O$......><>>>>..,....",
"O$......><>>>>..,....",
"@&......><>>>>..,....",
":;......><<<<<,,,....",
"........>>>>>>.......",
">>>>>>>>>>>>>>>>>>>>>",
".....................",
"                     "
};
