/* XPM */
static char *stick[] = {
/* columns rows colors chars-per-pixel */
"20 21 21 1",
"  c #122867",
". c #2C3656",
"X c #2C3657",
"o c #2D385A",
"O c #2E395E",
"+ c #2E3A5E",
"@ c #313E67",
"# c #38487C",
"$ c #39607F",
"% c #394B81",
"& c #3B4D86",
"* c #3B4D87",
"= c #3D508C",
"- c #3D508D",
"; c #3D508E",
": c #3F5392",
"> c #3F5393",
", c #455CA5",
"< c #4B7BB8",
"1 c #3C92AB",
"2 c #46A1CA",
/* pixels */
"                    ",
" ...................",
" ...................",
" .....o#%%%%%>>>>>*o",
" ......,,,,,,.....&.",
" ......,,,222111..&.",
" ......,,,2<<$$1..&.",
" ......,,,2<<$$1..&.",
" ......,,,2<<$$1..&.",
" ......,,,2<<$$1..&.",
" ......,,,2<<$$1..=+",
" ......,,,2<<$$1..=+",
" ......,,,2<<$$1..;+",
" ......,,,2<<$$1..=+",
" ......,,,2<<$$1..;+",
" ......,,,2<<$$1..;@",
" ......,,,222111..&;",
" ......,,,,,,.......",
" ......,,,,,,,,,,,,,",
" ...................",
"                    "
};
