/* XPM */
static char *tb[] = {
/* columns rows colors chars-per-pixel */
"1 21 3 1",
"  c #122867",
". c #2C3656",
"X c #455CA5",
/* pixels */
" ",
".",
".",
".",
".",
".",
".",
".",
".",
".",
".",
".",
".",
".",
".",
".",
".",
".",
".",
"X",
" "
};
