/* XPM */
static char *tb_but[] = {
/* columns rows colors chars-per-pixel */
"21 21 7 1",
"  c #122867",
". c #2C3656",
"X c #30468B",
"o c #3A4C85",
"O c #3D5E89",
"+ c #455CA5",
"@ c #42679C",
/* pixels */
"                     ",
".....................",
".....................",
".....................",
".....................",
".....oooooo..........",
".....oooooo..........",
".....ooo@@@OOO.......",
".....ooo@@@OOO.......",
".....ooo@@@OOO.......",
".....ooo@@@OOO.......",
".....ooo@@@OOO.......",
".....ooo@@@OOO.......",
".....ooo@@@OOO.......",
".....ooo@@@OOO.......",
".....oooooo..........",
".....oooooo..........",
".....oooooo..........",
".....oooooo..........",
"+++++++++++++++++++++",
"     XXXXXX          "
};
