/* XPM */
static char *tb_wrkspc[] = {
/* columns rows colors chars-per-pixel */
"28 21 24 1",
"  c #122867",
". c #2C3656",
"X c #2F3B61",
"o c #2F3B62",
"O c #303D65",
"+ c #313E68",
"@ c #323F6A",
"# c #33416E",
"$ c #334270",
"% c #344373",
"& c #364576",
"* c #364678",
"= c #37477B",
"- c #38497E",
"; c #394A80",
": c #3A4B83",
"> c #3B4D86",
", c #3B4E88",
"< c #405597",
"1 c #41569A",
"2 c #42589C",
"3 c #43599F",
"4 c #445AA2",
"5 c #455CA5",
/* pixels */
"                            ",
" 555555,....................",
" 5555555>...................",
" 55555555:..................",
" 555555555-.................",
" 5555555555:................",
" 55555555555*...............",
" 555555555555*..............",
" 5555555555555&.............",
" 55555555555555%............",
" 555555555555555$...........",
" 5555555555555554#..........",
" 55555555555555555@.........",
" 555555555555555554@........",
" 5555555555555555553#.......",
" 55555555555555555553O......",
" 555555555555555555551X.....",
" 555555555555555555555,.....",
" 55555555555555555555555....",
" 555555555555555555555555555",
"                            "
};
