/* XPM */
static char * iconbar_unfocus_xpm[] = {
"1 30 30 1",
" 	c None",
".	c #868986",
"+	c #A4A7A4",
"@	c #CDCFCD",
"#	c #CFD1CF",
"$	c #D0D2D0",
"%	c #D2D3D2",
"&	c #D3D4D3",
"*	c #D4D6D4",
"=	c #D6D7D6",
"-	c #D7D8D7",
";	c #D8DAD8",
">	c #DADBDA",
",	c #DBDCDB",
"'	c #DCDEDC",
")	c #DEDFDE",
"!	c #DFE0DF",
"~	c #E0E1E0",
"{	c #E2E3E2",
"]	c #E3E4E3",
"^	c #E4E5E4",
"/	c #E6E7E6",
"(	c #E7E8E7",
"_	c #E8E9E8",
":	c #EAEBEA",
"<	c #EBECEB",
"[	c #ECEDEC",
"}	c #EEEEEE",
"|	c #EFF0EF",
"1	c #FFFFFF",
".",
"+",
"@",
"#",
"$",
"%",
"&",
"*",
"=",
"-",
";",
">",
",",
"'",
")",
"!",
"~",
"{",
"]",
"^",
"/",
"(",
"_",
":",
"<",
"[",
"}",
"|",
"1",
"."};
