/* XPM */
static char * pressed_xpm[] = {
"21 19 156 2",
"  	c None",
". 	c #FFFFFF",
"+ 	c #D2D4D2",
"@ 	c #D3D5D3",
"# 	c #D5D6D4",
"$ 	c #D6D7D6",
"% 	c #D7D9D7",
"& 	c #D9DAD8",
"* 	c #D9DBDA",
"= 	c #DADCDB",
"- 	c #DCDDDC",
"; 	c #DEDEDD",
"> 	c #DEE0DF",
", 	c #E0E1E0",
"' 	c #E1E3E1",
") 	c #E2E4E3",
"! 	c #E4E4E4",
"~ 	c #E4E6E4",
"{ 	c #E6E7E6",
"] 	c #E7E8E7",
"^ 	c #E8EAE9",
"/ 	c #D4D5D3",
"( 	c #D5D6D5",
"_ 	c #D6D8D6",
": 	c #D7D8D7",
"< 	c #D8DAD8",
"[ 	c #DADBD9",
"} 	c #DCDEDC",
"| 	c #DDDEDE",
"1 	c #E1E2E2",
"2 	c #E2E3E2",
"3 	c #E5E6E5",
"4 	c #E6E8E6",
"5 	c #E8E8E7",
"6 	c #E9EAE9",
"7 	c #EAEAEA",
"8 	c #DBDCDA",
"9 	c #FDFDFD",
"0 	c #E4E6E5",
"a 	c #E7E8E8",
"b 	c #E9E9E8",
"c 	c #EAEBE9",
"d 	c #EBECEB",
"e 	c #DADBDA",
"f 	c #DADCDA",
"g 	c #FAFAF9",
"h 	c #FAF9FA",
"i 	c #FAF9F9",
"j 	c #4876E2",
"k 	c #487CF6",
"l 	c #4876E3",
"m 	c #F9F9F9",
"n 	c #F9FAFA",
"o 	c #EAEBEA",
"p 	c #ECEDEC",
"q 	c #E4E5E4",
"r 	c #D8D9D8",
"s 	c #DBDCDB",
"t 	c #F6F7F6",
"u 	c #F6F6F6",
"v 	c #436ED1",
"w 	c #4171E0",
"x 	c #4271E0",
"y 	c #446ED1",
"z 	c #EDEDEC",
"A 	c #EEEEED",
"B 	c #E3E4E3",
"C 	c #F3F3F2",
"D 	c #3F65C0",
"E 	c #3A64C5",
"F 	c #3B64C6",
"G 	c #3A63C6",
"H 	c #3A64C6",
"I 	c #4065C0",
"J 	c #F2F3F3",
"K 	c #EDEEED",
"L 	c #EFF0EF",
"M 	c #D9DBD9",
"N 	c #DCDDDB",
"O 	c #EFEFEF",
"P 	c #EFEFEE",
"Q 	c #3357AB",
"R 	c #3357AC",
"S 	c #3356AB",
"T 	c #3257AB",
"U 	c #F0F0EF",
"V 	c #E0E2E0",
"W 	c #DBDDDB",
"X 	c #DCDEDD",
"Y 	c #EBECEC",
"Z 	c #35549D",
"` 	c #2B4A91",
" .	c #2B4991",
"..	c #2C4991",
"+.	c #36549E",
"@.	c #ECECEB",
"#.	c #F0F1EF",
"$.	c #F1F2F1",
"%.	c #DFE1DF",
"&.	c #DBDDDC",
"*.	c #DDDEDD",
"=.	c #DEDFDE",
"-.	c #E8E8E8",
";.	c #243D79",
">.	c #243C77",
",.	c #E7E9E8",
"'.	c #E0E0DF",
").	c #243D7A",
"!.	c #F2F3F2",
"~.	c #F3F4F3",
"{.	c #DEE0DE",
"].	c #E0E1DF",
"^.	c #314D90",
"/.	c #324E91",
"(.	c #F5F5F5",
"_.	c #DFE0DF",
":.	c #E0E2E1",
"<.	c #E1E3E2",
"[.	c #DDDFDD",
"}.	c #F4F5F4",
"|.	c #F5F6F6",
"1.	c #E1E2E0",
"2.	c #324D90",
"3.	c #F7F7F7",
"4.	c #D9DAD9",
"5.	c #324E90",
"6.	c #F5F6F5",
"7.	c #F8F8F8",
"8.	c #E5E7E6",
"9.	c #E6E7E7",
"0.	c #D3D4D3",
"a.	c #D2D5D3",
"b.	c #D2D4D3",
"c.	c #F8F9F8",
"d.	c #E6E8E7",
"e.	c #E9E9E9",
"f.	c #EAEBEB",
"g.	c #CFD1CF",
"h.	c #FBFBFB",
"i.	c #D5D7D5",
"j.	c #E7E9E7",
"k.	c #EEEEEE",
"l.	c #F1F1F1",
"m.	c #F2F2F2",
"n.	c #F4F5F5",
"o.	c #F9FAF9",
"p.	c #FCFCFC",
"q.	c #D4D6D4",
"r.	c #EDEEEC",
"s.	c #F2F2F1",
"t.	c #F3F3F3",
"u.	c #F4F4F4",
"v.	c #F5F5F6",
"w.	c #F6F7F7",
"x.	c #FBFAFA",
"y.	c #FBFCFC",
". . . . . . . . . . . . . . . . . . . . . ",
". + @ # $ % & * = - ; > , ' ) ! ~ { ] ^ ] ",
". / ( _ : < [ = } | > , 1 2 ! 3 4 5 6 7 { ",
". ( $ % < * 8 - 9 9 9 9 9 9 0 { a b c d 3 ",
". _ _ < e f g h i j k k l m m n 6 o d p q ",
". % r [ s t u v w w w x x x y u u d z A B ",
". < * s - C D E F G E G H E H I J p K L ' ",
". M s N O P Q R S S Q Q T S Q T P O L U V ",
". 8 W X Y Z `  . . . . ... .`  .+.@.#.$.%.",
". &.*.=.-.;.>.>.>.>.>.>.>.>.>.>.;.,.$.C =.",
". X =.'.q ).>.>.>.>.>.>.>.>.>.>.).~ !.~.*.",
". {.].V V ^.>.>.>.>.>.>.>.>.>.>./.V ~.(.s ",
". _.:.<.*.| >.>.>.>.>.>.>.>.>.>.[.*.}.|.e ",
". 1.<.B q e 2.>.>.>.>.>.>.>.>./.e }.u 3.4.",
". 1 B q 3 _ _ 5.>.>.>.>.>.>./._ $ 6.3.7.% ",
". B q 8.9.,.+ + 0./.).)./.a.b.@ |.3.c.i _ ",
". q 8.d.5 e.f.p g.g.g.g.g.g.}.6.3.7.m h.i.",
". 3 d.j.6 o Y p k.L l.m.~.n.u t 7.o.h.p.q.",
". d.j.6 o Y r.k.O l.s.t.u.v.w.7.o.x.y.9 @ "};
