/* XPM */
static char * selected_xpm[] = {
"17 17 3 1",
" 	c None",
".	c #4AA0D7",
"+	c #000000",
"                 ",
"                 ",
"                 ",
"             ..  ",
"            .+.  ",
"  ..       .++.  ",
"  .+.     .+++.  ",
"  .++.   .++++.  ",
"  .+++. .++++.   ",
"  .++++.++++.    ",
"   .+++++++.     ",
"    .+++++.      ",
"     .+++.       ",
"      .+.        ",
"       .         ",
"                 ",
"                 "};
