/* XPM */
static char * stuck_xpm[] = {
"21 19 179 2",
"  	c None",
". 	c #FFFFFF",
"+ 	c #D2D4D2",
"@ 	c #D3D5D3",
"# 	c #D5D6D4",
"$ 	c #D6D7D6",
"% 	c #D7D9D7",
"& 	c #D9DAD8",
"* 	c #D9DBDA",
"= 	c #DADCDB",
"- 	c #DCDDDC",
"; 	c #DEDEDD",
"> 	c #DEE0DF",
", 	c #E0E1E0",
"' 	c #E1E3E1",
") 	c #E2E4E3",
"! 	c #E4E4E4",
"~ 	c #E4E6E4",
"{ 	c #E6E7E6",
"] 	c #E7E8E7",
"^ 	c #E8EAE9",
"/ 	c #D4D5D3",
"( 	c #D5D6D5",
"_ 	c #D6D8D6",
": 	c #D7D8D7",
"< 	c #D8DAD8",
"[ 	c #DADBD9",
"} 	c #DCDEDC",
"| 	c #DDDEDE",
"1 	c #E1E2E2",
"2 	c #E2E3E2",
"3 	c #E5E6E5",
"4 	c #E6E8E6",
"5 	c #E8E8E7",
"6 	c #E9EAE9",
"7 	c #EAEAEA",
"8 	c #DBDCDA",
"9 	c #FDFDFD",
"0 	c #E4E6E5",
"a 	c #E7E8E8",
"b 	c #E9E9E8",
"c 	c #EAEBE9",
"d 	c #EBECEB",
"e 	c #DADBDA",
"f 	c #DADCDA",
"g 	c #FAFAF9",
"h 	c #FAF9FA",
"i 	c #A9D6F9",
"j 	c #47A1F4",
"k 	c #48AAF9",
"l 	c #48ABF9",
"m 	c #A8D6F9",
"n 	c #F9F9F9",
"o 	c #F9FAFA",
"p 	c #EAEBEA",
"q 	c #ECEDEC",
"r 	c #E4E5E4",
"s 	c #D8D9D8",
"t 	c #DBDCDB",
"u 	c #F6F7F6",
"v 	c #DEE9F4",
"w 	c #4391E3",
"x 	c #449AE9",
"y 	c #459AE9",
"z 	c #449BE9",
"A 	c #4390E4",
"B 	c #F6F6F6",
"C 	c #EDEDEC",
"D 	c #EEEEED",
"E 	c #E3E4E3",
"F 	c #F3F3F2",
"G 	c #3F80D2",
"H 	c #4088D8",
"I 	c #4089D8",
"J 	c #3F88D8",
"K 	c #3F88D7",
"L 	c #3F89D8",
"M 	c #F2F3F3",
"N 	c #EDEEED",
"O 	c #EFF0EF",
"P 	c #D9DBD9",
"Q 	c #DCDDDB",
"R 	c #EFEFEF",
"S 	c #9DB7DC",
"T 	c #3B77C6",
"U 	c #3C76C6",
"V 	c #3B77C7",
"W 	c #3B76C7",
"X 	c #3B76C6",
"Y 	c #9DB8DB",
"Z 	c #F0F0EF",
"` 	c #E0E2E0",
" .	c #DBDDDB",
"..	c #DCDEDD",
"+.	c #EBECEC",
"@.	c #3661AF",
"#.	c #3764B5",
"$.	c #3765B5",
"%.	c #3664B5",
"&.	c #3660AF",
"*.	c #ECECEB",
"=.	c #F0F1EF",
"-.	c #F1F2F1",
";.	c #DFE1DF",
">.	c #DBDDDC",
",.	c #DDDEDD",
"'.	c #DEDFDE",
").	c #E8E8E8",
"!.	c #3151A2",
"~.	c #3253A4",
"{.	c #3252A4",
"].	c #3353A4",
"^.	c #3152A2",
"/.	c #E7E9E8",
"(.	c #E0E0DF",
"_.	c #3663B3",
":.	c #3764B6",
"<.	c #3665B6",
"[.	c #3664B6",
"}.	c #3665B5",
"|.	c #3664B4",
"1.	c #F2F3F2",
"2.	c #F3F4F3",
"3.	c #DEE0DE",
"4.	c #E0E1DF",
"5.	c #386DBA",
"6.	c #3C76C7",
"7.	c #F5F5F5",
"8.	c #DFE0DF",
"9.	c #E0E2E1",
"0.	c #E1E3E2",
"a.	c #95B7DA",
"b.	c #4089D7",
"c.	c #3F89D7",
"d.	c #F4F5F4",
"e.	c #F5F6F6",
"f.	c #E1E2E0",
"g.	c #3F8AD6",
"h.	c #449BE8",
"i.	c #459BE8",
"j.	c #449AE8",
"k.	c #F7F7F7",
"l.	c #D9DAD9",
"m.	c #C3D2DA",
"n.	c #4398E4",
"o.	c #48ACFA",
"p.	c #49ADFA",
"q.	c #F5F6F5",
"r.	c #F8F8F8",
"s.	c #E5E7E6",
"t.	c #E6E7E7",
"u.	c #91BADD",
"v.	c #3F89D6",
"w.	c #4397E6",
"x.	c #D2D4D3",
"y.	c #F8F9F8",
"z.	c #FAF9F9",
"A.	c #E6E8E7",
"B.	c #E9E9E9",
"C.	c #EAEBEB",
"D.	c #CFD1CF",
"E.	c #FBFBFB",
"F.	c #D5D7D5",
"G.	c #E7E9E7",
"H.	c #EEEEEE",
"I.	c #F1F1F1",
"J.	c #F2F2F2",
"K.	c #F4F5F5",
"L.	c #F9FAF9",
"M.	c #FCFCFC",
"N.	c #D4D6D4",
"O.	c #EDEEEC",
"P.	c #F2F2F1",
"Q.	c #F3F3F3",
"R.	c #F4F4F4",
"S.	c #F5F5F6",
"T.	c #F6F7F7",
"U.	c #FBFAFA",
"V.	c #FBFCFC",
". . . . . . . . . . . . . . . . . . . . . ",
". + @ # $ % & * = - ; > , ' ) ! ~ { ] ^ ] ",
". / ( _ : < [ = } | > , 1 2 ! 3 4 5 6 7 { ",
". ( $ % < * 8 - 9 9 9 9 9 9 0 { a b c d 3 ",
". _ _ < e f g h i j k l j m n o 6 p d q r ",
". % s [ t u v w x y x z x z A v B d C D E ",
". < * t - F G H I I H J K L I G M q N O ' ",
". P t Q R S T U T V T W X T W V Y R O Z ` ",
". 8  ...+.@.#.#.#.$.$.$.#.%.#.#.&.*.=.-.;.",
". >.,.'.).!.~.{.].{.~.~.~.{.{.~.^./.-.F '.",
". ..'.(.r _.:.<.[.$.#.$.}.#.#.}.|.~ 1.2.,.",
". 3.4.` ` 5.T X V V X W T T V 6.5.` 2.7.t ",
". 8.9.0.,.a.K b.b.H L L J c.J c.a.,.d.e.e ",
". f.0.E r e g.z h.i.h.j.z x x g.e d.B k.l.",
". 1 E r 3 _ m.n.o.p.o.p.p.o.n.m.$ q.k.r.% ",
". E r s.t./.+ + u.v.w.w.g.u.x.@ e.k.y.z._ ",
". r s.A.5 B.C.q D.D.D.D.D.D.d.q.k.r.n E.F.",
". 3 A.G.6 p +.q H.O I.J.2.K.B u r.L.E.M.N.",
". A.G.6 p +.O.H.R I.P.Q.R.S.T.r.L.U.V.9 @ "};
