/* XPM */
static char * wtitle_unfocus_xpm[] = {
"25 25 82 1",
" 	c None",
".	c #3256AC",
"+	c #3154A8",
"@	c #3154A7",
"#	c #3155A7",
"$	c #3155A8",
"%	c #3052A4",
"&	c #2F52A4",
"*	c #3053A4",
"=	c #2F51A0",
"-	c #2F51A1",
";	c #2F50A1",
">	c #2F50A0",
",	c #2E4F9C",
"'	c #2D4F9C",
")	c #2D4F9D",
"!	c #2E4F9D",
"~	c #2D4D99",
"{	c #2D4E98",
"]	c #2D4D98",
"^	c #2D4E99",
"/	c #2C4B95",
"(	c #2B4B96",
"_	c #2B4B95",
":	c #2C4B96",
"<	c #2B4991",
"[	c #2A478E",
"}	c #29478E",
"|	c #29478D",
"1	c #2A478D",
"2	c #28458A",
"3	c #284689",
"4	c #28468A",
"5	c #29468A",
"6	c #284589",
"7	c #29458A",
"8	c #274486",
"9	c #274386",
"0	c #284386",
"a	c #284487",
"b	c #284486",
"c	c #274387",
"d	c #284387",
"e	c #274487",
"f	c #264182",
"g	c #264282",
"h	c #274282",
"i	c #25407E",
"j	c #26407E",
"k	c #26407F",
"l	c #25407F",
"m	c #243E7B",
"n	c #243E7C",
"o	c #243C77",
"p	c #233C77",
"q	c #223A73",
"r	c #223A74",
"s	c #213870",
"t	c #22386F",
"u	c #223870",
"v	c #21386F",
"w	c #20366C",
"x	c #20376C",
"y	c #1F3568",
"z	c #1F3468",
"A	c #203468",
"B	c #203568",
"C	c #1E3365",
"D	c #1E3364",
"E	c #1E3265",
"F	c #1E3264",
"G	c #1D3161",
"H	c #1E3161",
"I	c #1D3160",
"J	c #1C2F5D",
"K	c #1B2F5D",
"L	c #1B2D59",
"M	c #192B55",
"N	c #1A2B55",
"O	c #1A2B56",
"P	c #192B56",
"Q	c #192952",
".........................",
"+@@+@+++#@@$@@#+$@$$#@+@@",
"%&*%%**%**%*%%*%%**%%*&*%",
"=-=--=--;>>=;==--------==",
",,,,''',,,)!'',,!!!,!',,'",
"~~~~{]~^~]~~{~~~~~^~]~^~~",
"//(///(_//_////(_///_://:",
"<<<<<<<<<<<<<<<<<<<<<<<<<",
"[}[|}|11[1111111[[111[1||",
"2232456722624226222222222",
"89809ab9aacabaddee800eae0",
"fgfggggggggghffggfggfgggg",
"ijikllljliiikjiiikljjllki",
"mnmmmmmmmmnmmmmmmmmnmmmmm",
"opopooppopppppooppopooppp",
"qrqqqqqqqrqrqqqqqqqqqqrqq",
"ssstuuususuuutuvsuusstssu",
"wxwxwwwxwxwwwwwwwwwwwwwwx",
"yyzyyyAzyzAzAzzzyAzBzzABA",
"CDDDDDDCDDDDDEDEDDDCCDFDD",
"GHHGGGHGGGIIGGGGGGGGGGGGG",
"JKKKKJJJJJJKJJJJJJKJJKKJJ",
"LLLLLLLLLLLLLLLLLLLLLLLLL",
"MMNOPMNMNNONNMPOMMMNNPMPN",
"QQQQQQQQQQQQQQQQQQQQQQQQQ"};
