/* XPM */
static char * maximize3_xpm[] = {
"22 22 10 1",
" 	c None",
".	c #00E1FF",
"+	c #0096E7",
"@	c #0171AC",
"#	c #000000",
"$	c #FFFFFF",
"%	c #DADADA",
"&	c #A3A3A3",
"*	c #777777",
"=	c #F4F4F4",
"......................",
"++++++++++++++++++++++",
"@@@@@@@@@@@@@@@@@@@@@@",
"######################",
"$%%%%%%%%%%%%%%%%%%%%&",
"$%%%%%%%%%%%%%%%%%%%%&",
"$%%%%%%%%%%%*******%%&",
"$%%%%%%%%%%%*==*==*=%&",
"$%%%%%%%%%%%*=%*=%*=%&",
"$%%%%%%%%%%%*=%*=%*=%&",
"$%%%%%%%%%%%*=%*=%*=%&",
"$%%%%%%%%%%%*=%*=%*=%&",
"$%%%%%%%%%%%%=%%=%%=%&",
"$%%%%%%%%%%%%%%%%%%%%&",
"######################",
"......................",
"++++++++++++++++++++++",
"@@@@@@@@@@@@@@@@@@@@@@",
"######################",
"%%%%%%%%%%%%%%%%%%%%%%",
"%%%%%%%%%%%%%%%%%%%%%%",
"&&&&&&&&&&&&&&&&&&&&&&"};
