/* XPM */
static char * stick3_xpm[] = {
"22 22 11 1",
" 	c None",
".	c #FFFFFF",
"+	c #000000",
"@	c #00E1FF",
"#	c #DADADA",
"$	c #0096E7",
"%	c #0171AC",
"&	c #015581",
"*	c #01A8FF",
"=	c #A3A3A3",
"-	c #F4F4F4",
"...+@@@@@@@@@@@@@@@@+@",
".##+@$$$$$$$$$$$$$$$+%",
".##+@$$$$$$$$$$$$$$$+&",
".##+@$$$$$$$$$$$$$$$++",
".##+*$$$$$$$$$$$$$$$$$",
".###+%$$$$$$$$$$$$$$$$",
".#=##+%$$$$$$$$$$$$$$$",
".##.##+%$$$$$$$$$$$$$$",
".######+%$$$$$$$$$$$$$",
".#=##=##+%$$$$$$$$$$$$",
".##.##.##+%$$$$$$$$$$$",
".#########+%$$$$$$$$$$",
".#=##=##=##+%$$$$$$$$$",
".##.##.##.##+%$$$$$$$$",
".############+%$$$$$$$",
".#=##=##=##=##+%$$$$$$",
".##.##.##.##.##+%$$$$$",
".###############+&%%%%",
".################+++++",
".#####################",
".#####################",
"-====================="};
