/* XPM */
static char * title3_xpm[] = {
"1 22 7 1",
" 	c None",
".	c #00E1FF",
"+	c #0096E7",
"@	c #0171AC",
"#	c #000000",
"$	c #DADADA",
"%	c #A3A3A3",
".",
"+",
"@",
"#",
"+",
"+",
"+",
"+",
"+",
"+",
"+",
"+",
"+",
"+",
"+",
"+",
"+",
"@",
"#",
"$",
"$",
"%"};
