/* XPM */
static char * close_background_xpm[] = {
"20 20 119 2",
"  	c None",
". 	c #9BA0A1",
"+ 	c #9AA0A1",
"@ 	c #9BA1A1",
"# 	c #9BA0A2",
"$ 	c #9CA1A1",
"% 	c #9CA0A0",
"& 	c #9CA0A1",
"* 	c #929697",
"= 	c #929797",
"- 	c #B1B5B4",
"; 	c #B0B5B4",
"> 	c #AFB4B3",
", 	c #B4B8BA",
"' 	c #B4B9BA",
") 	c #B4B9B9",
"! 	c #B5B9BA",
"~ 	c #B2B6B7",
"{ 	c #8A8E90",
"] 	c #A1A6A5",
"^ 	c #AFB5B4",
"/ 	c #B4B8B9",
"( 	c #ACB0B2",
"_ 	c #878C8C",
": 	c #9FA4A4",
"< 	c #B2B5B7",
"[ 	c #B1B5B7",
"} 	c #A5A9AA",
"| 	c #848889",
"1 	c #ABB0AF",
"2 	c #AEB5B3",
"3 	c #B0B4B5",
"4 	c #B0B5B5",
"5 	c #B0B4B6",
"6 	c #A3A7A8",
"7 	c #858989",
"8 	c #ABB0B0",
"9 	c #AEB3B4",
"0 	c #AEB2B3",
"a 	c #AEB2B4",
"b 	c #A1A6A7",
"c 	c #7D8181",
"d 	c #788589",
"e 	c #A2A8AC",
"f 	c #A9ADAE",
"g 	c #ACB0B1",
"h 	c #7C8181",
"i 	c #848E92",
"j 	c #828D91",
"k 	c #838E91",
"l 	c #7F8A8E",
"m 	c #7D898D",
"n 	c #818C90",
"o 	c #848F93",
"p 	c #9FA4A7",
"q 	c #A5AAAB",
"r 	c #7D8182",
"s 	c #7A878B",
"t 	c #7F8B8E",
"u 	c #879194",
"v 	c #939A9D",
"w 	c #9EA3A5",
"x 	c #A2A7A8",
"y 	c #A6AAAB",
"z 	c #A0A4A5",
"A 	c #79868A",
"B 	c #7C888C",
"C 	c #828C90",
"D 	c #979DA0",
"E 	c #979EA0",
"F 	c #9FA3A5",
"G 	c #A1A5A6",
"H 	c #9DA1A3",
"I 	c #7C8182",
"J 	c #9CA1A4",
"K 	c #9CA1A3",
"L 	c #9BA1A3",
"M 	c #9BA0A3",
"N 	c #989EA0",
"O 	c #999FA1",
"P 	c #9EA2A4",
"Q 	c #9DA1A2",
"R 	c #9EA1A3",
"S 	c #9A9E9F",
"T 	c #999D9E",
"U 	c #989C9D",
"V 	c #969B9C",
"W 	c #979C9D",
"X 	c #989C9E",
"Y 	c #9A9EA0",
"Z 	c #969A9B",
"` 	c #949899",
" .	c #95999B",
"..	c #8F9495",
"+.	c #8F9394",
"@.	c #8E9293",
"#.	c #8B8F90",
"$.	c #8B8E90",
"%.	c #8A8F90",
"&.	c #898D8E",
"*.	c #878B8C",
"=.	c #868B8C",
"-.	c #878B8B",
";.	c #868A8B",
">.	c #838788",
",.	c #838789",
"'.	c #808486",
").	c #808485",
"!.	c #979B9D",
"~.	c #979B9C",
"{.	c #818586",
"].	c #8E9392",
"^.	c #7B7F81",
"/.	c #7B8080",
"(.	c #7B8081",
"_.	c #7C8081",
":.	c #7B7F80",
"<.	c #838888",
"[.	c #ACB1B0",
". + . @ # . + $ $ $ $ $ % & * = - ; > > ",
", , ' ' ' ) ) ' , , , , , ! ~ { ] ; > ^ ",
"/ / / / / / / / / / / / / , , ( _ : > ^ ",
"~ < ~ ~ ~ ~ ~ ~ ~ ~ ~ ~ ~ ~ ~ [ } | 1 2 ",
"3 4 3 3 3 3 3 3 3 3 3 3 3 3 3 5 3 6 7 8 ",
"9 0 0 0 0 0 0 0 0 0 0 0 a 0 a 0 0 a b c ",
"d d d d d d d d d d d d d d d e f g } h ",
"i j k l m m l l l n n l l o i p q f 6 r ",
"s l l l t t m m m m m m l u v w x y z r ",
"d d d d d d A A A A A B C D E w F G H I ",
"J K L M M L M L L L L M M N O P Q R S I ",
"T U U T T U T T T T U V W V X Y X T Z r ",
"` ` ` ` ` ` ` ` ` ` ` ` ` `  . .` ` * r ",
"................................+...@.I ",
"#.#.#.#.#.#.#.$.$.$.$.$.#.{ #.#.%.&.&.I ",
"*.*.=.=.*.*.-.*.*.*.*.=.*.*.*.*.*.;.*.c ",
">.>.>.>.>.>.>.>.>.>.>.>.>.,.>.>.>.( b c ",
"'.'.).).'.'.'.'.'.'.'.'.'.'.'.'.'.0 b c ",
"!.!.U !.!.!.~.!.W W W !.W !.!.!.!.T {.].",
"^.^././.(.(._././.(.(.(.:./././././.<.[."};
