/* XPM */
static char * close_xpm[] = {
"20 20 166 2",
"  	c None",
". 	c #C1C4C3",
"+ 	c #C0C4C3",
"@ 	c #C1C4C4",
"# 	c #C1C5C4",
"$ 	c #C1C4C5",
"% 	c #C0C3C4",
"& 	c #C3C5C4",
"* 	c #C3C3C2",
"= 	c #C3C4C3",
"- 	c #ABACAB",
"; 	c #ADAEAB",
"> 	c #F5F7F1",
", 	c #F4F6F0",
"' 	c #F2F3EE",
") 	c #F2F4EF",
"! 	c #FDFEFE",
"~ 	c #FDFFFE",
"{ 	c #FDFFFD",
"] 	c #FDFFFC",
"^ 	c #FEFEFE",
"/ 	c #FFFFFF",
"( 	c #F9F9F9",
"_ 	c #9A9A9A",
": 	c #D0D1CD",
"< 	c #F3F5F0",
"[ 	c #F2F5F0",
"} 	c #FCFCFC",
"| 	c #FCFDFC",
"1 	c #FCFDFD",
"2 	c #EBEBEB",
"3 	c #939491",
"4 	c #CCCECB",
"5 	c #F1F3EE",
"6 	c #F1F5F0",
"7 	c #F8F8F8",
"8 	c #F9F7F8",
"9 	c #F7F7F7",
"0 	c #DADADA",
"a 	c #8A8B89",
"b 	c #E8EBE5",
"c 	c #F0F5EF",
"d 	c #F4F4F4",
"e 	c #F4F5F4",
"f 	c #F3F3F4",
"g 	c #F4F4F5",
"h 	c #D5D5D5",
"i 	c #8D8E8B",
"j 	c #E8EBE7",
"k 	c #F0F0F0",
"l 	c #EFEFEF",
"m 	c #EFEFF1",
"n 	c #EFEFF0",
"o 	c #D1D1D1",
"p 	c #797A78",
"q 	c #6F838A",
"r 	c #D3D6DE",
"s 	c #E2E2E3",
"t 	c #EAEAEA",
"u 	c #787978",
"v 	c #8A9AA0",
"w 	c #86979D",
"x 	c #88989E",
"y 	c #7E8F96",
"z 	c #7B8D93",
"A 	c #84959B",
"B 	c #8B9BA1",
"C 	c #8B99A0",
"D 	c #CCCED1",
"E 	c #DADBDC",
"F 	c #7A7A7A",
"G 	c #74888E",
"H 	c #7F9197",
"I 	c #7E9096",
"J 	c #919FA5",
"K 	c #AEB6BB",
"L 	c #C8CBCE",
"M 	c #D3D4D5",
"N 	c #DBDBDC",
"O 	c #CECECE",
"P 	c #797979",
"Q 	c #71858C",
"R 	c #788A91",
"S 	c #87959B",
"T 	c #B7BCC0",
"U 	c #B9BEC1",
"V 	c #C8CBCC",
"W 	c #CBCBCC",
"X 	c #CFCFCF",
"Y 	c #C7C7C7",
"Z 	c #787A79",
"` 	c #C4C7CA",
" .	c #C3C5C9",
"..	c #C1C5C8",
"+.	c #C1C4C7",
"@.	c #C1C4C8",
"#.	c #C2C5C8",
"$.	c #BABEC2",
"%.	c #BCC1C4",
"&.	c #C8C9CA",
"*.	c #C6C6C6",
"=.	c #C8C7C7",
"-.	c #BEBEBE",
";.	c #BCBCBC",
">.	c #BBBBBB",
",.	c #B5B7B8",
"'.	c #B9BAB9",
").	c #BABBBC",
"!.	c #BFBFC1",
"~.	c #BBBBBC",
"{.	c #BDBCBC",
"].	c #B5B5B5",
"^.	c #797B7A",
"/.	c #B1B1B1",
"(.	c #B0B0B0",
"_.	c #B0B1B0",
":.	c #B3B4B4",
"<.	c #B3B3B4",
"[.	c #B1B0B0",
"}.	c #ABABAB",
"|.	c #797A7A",
"1.	c #A6A6A6",
"2.	c #A6A6A7",
"3.	c #A6A8A7",
"4.	c #A5A5A5",
"5.	c #A2A2A2",
"6.	c #9B9B9B",
"7.	c #9B9A9B",
"8.	c #9B9A9A",
"9.	c #9B9B9A",
"0.	c #9B9B9C",
"a.	c #9A9C9B",
"b.	c #979797",
"c.	c #919191",
"d.	c #909291",
"e.	c #91918F",
"f.	c #909191",
"g.	c #919192",
"h.	c #909090",
"i.	c #797977",
"j.	c #888888",
"k.	c #888887",
"l.	c #898888",
"m.	c #898989",
"n.	c #828282",
"o.	c #828281",
"p.	c #818181",
"q.	c #EEEEEE",
"r.	c #7A7A78",
"s.	c #B9B9B9",
"t.	c #BABABA",
"u.	c #B9B9B8",
"v.	c #BDBDBD",
"w.	c #838383",
"x.	c #A3A5A0",
"y.	c #767676",
"z.	c #757775",
"A.	c #767877",
"B.	c #767776",
"C.	c #777777",
"D.	c #757875",
"E.	c #757776",
"F.	c #757674",
"G.	c #767875",
"H.	c #888A87",
"I.	c #EAEDE6",
". + @ # $ @ % & & & & & * = - ; > , ' ) ",
"! ! ~ ~ ~ { ] ~ ! ^ ^ ^ ^ / ( _ : < ) [ ",
"} | 1 1 1 | 1 | } } } } } ^ ^ 2 3 4 5 6 ",
"7 8 7 7 7 7 7 7 7 7 7 7 7 7 ( 9 0 a b c ",
"d e d d d d d d d d d d d d f g f h i j ",
"k l l l l l l l l l l l m l n l l n o p ",
"q q q q q q q q q q q q q q q r s t 0 u ",
"v w x y z z y y y A A y y B C D E s h F ",
"G y y y H H z z z z z z I J K L M N O P ",
"q q q q q q Q Q Q Q Q R S T U V W X Y Z ",
"`  ...+.@...+.#.#.#.#.+.+.$.%.&.*.=.-.Z ",
";.>.>.;.;.>.;.;.;.;.>.,.'.,.).!.~.{.].^.",
"/.(.(.(.(.(.(.(.(.(.(._._./.:.<.(.[.}.|.",
"1.1.1.1.1.1.1.1.1.1.1.1.2.1.1.3.4.1.5.Z ",
"6.6.6.6.6.6.6.7.7.7.7.8.9._ 0.0.a.b.b.Z ",
"c.c.d.d.c.c.e.c.c.c.c.f.c.c.c.c.g.h.c.i.",
"j.j.k.j.j.j.l.j.j.j.j.l.j.m.j.j.j.2 o i.",
"n.n.o.p.n.n.n.n.n.n.n.n.n.n.n.n.n.q.o r.",
"s.s.t.s.s.s.u.s.'.'.'.s.'.s.s.s.s.v.w.x.",
"y.y.z.z.A.B.C.D.z.E.A.B.F.G.z.z.G.z.H.I."};
