/* XPM */
static char * iconify_background_xpm[] = {
"20 20 98 2",
"  	c None",
". 	c #929698",
"+ 	c #929697",
"@ 	c #848989",
"# 	c #828788",
"$ 	c #B3B7B8",
"% 	c #AAAFB0",
"& 	c #B1B5B6",
"* 	c #B2B7B8",
"= 	c #A4A8A9",
"- 	c #ACB0B1",
"; 	c #9CA1A2",
"> 	c #979C9D",
", 	c #A1A6A7",
"' 	c #B3B7B9",
") 	c #B4B8B9",
"! 	c #ABAFB0",
"~ 	c #9CA0A1",
"{ 	c #B3B7B7",
"] 	c #B4B7B7",
"^ 	c #B4B7B8",
"/ 	c #B3B8B8",
"( 	c #969B9B",
"_ 	c #B2B6B7",
": 	c #8C9091",
"< 	c #B2B7B7",
"[ 	c #AFB3B5",
"} 	c #999D9E",
"| 	c #9FA4A5",
"1 	c #979B9C",
"2 	c #B0B4B5",
"3 	c #9FA3A5",
"4 	c #ADB1B2",
"5 	c #ACB1B2",
"6 	c #ACB0B2",
"7 	c #AFB3B4",
"8 	c #A6AAAB",
"9 	c #9FA4A6",
"0 	c #90A1A6",
"a 	c #92A1A6",
"b 	c #91A1A6",
"c 	c #A0A4A5",
"d 	c #93A1A6",
"e 	c #95A2A6",
"f 	c #9B9FA0",
"g 	c #9A9EA0",
"h 	c #9A9FA0",
"i 	c #95999A",
"j 	c #94999A",
"k 	c #94999B",
"l 	c #8FA1A6",
"m 	c #8F9494",
"n 	c #8F9395",
"o 	c #949999",
"p 	c #9EA3A5",
"q 	c #8A8E8F",
"r 	c #8A8F90",
"s 	c #A8ADB0",
"t 	c #9A9E9F",
"u 	c #9A9F9F",
"v 	c #A6AAAC",
"w 	c #868A8B",
"x 	c #858A8A",
"y 	c #9B9FA1",
"z 	c #949899",
"A 	c #828687",
"B 	c #95999B",
"C 	c #9DA2A3",
"D 	c #8F9495",
"E 	c #8F9394",
"F 	c #95999C",
"G 	c #A6ABAD",
"H 	c #ADB3B6",
"I 	c #9EA1A2",
"J 	c #9DA1A2",
"K 	c #9EA1A1",
"L 	c #8B8F90",
"M 	c #8B8E90",
"N 	c #898D8E",
"O 	c #898D8F",
"P 	c #888C8E",
"Q 	c #878B8C",
"R 	c #878A8C",
"S 	c #838788",
"T 	c #838789",
"U 	c #808485",
"V 	c #808486",
"W 	c #808484",
"X 	c #808585",
"Y 	c #808586",
"Z 	c #989C9D",
"` 	c #989C9E",
" .	c #7B8081",
"..	c #7B8080",
"+.	c #7A8081",
"@.	c #7A8080",
"#.	c #7C8081",
"$.	c #7B8181",
". . + + + + + + + + . @ + + + + + # . + ",
"$ $ $ $ $ $ $ $ $ $ % & $ $ * * = - $ $ ",
"; ; ; ; ; ; ; ; ; > , ' ) ) ) ! ~ ) ) ) ",
"$ $ { ] ^ ^ / * * ( $ $ $ _ _ : _ _ < < ",
"[ [ [ [ [ [ [ [ } | | | | | 1 2 & & & 2 ",
"! ! ! ! ! ! ! 3 4 5 6 6 6 6 6 [ 7 [ 7 7 ",
"8 8 8 8 8 8 9 0 0 0 0 0 a b 0 0 0 0 b 0 ",
"c c c c c | a d a d d b d a a a d e e e ",
"f g g f h 0 a 0 b a a a b b a b a a b a ",
"i i j j k l l l l l l l l l l l l l l l ",
"m n m o p p p p p p p | | p p p p p p p ",
"q q r s g g g t u v g g g g g g g g g g ",
"w x | y o z z o 3 | z z z j z z z z z z ",
"A B C D E m E F G n m E m D D D D D D D ",
"( H I I I J K 8 r r L M L L L L L L L L ",
"N N N N N O q P Q Q Q Q Q Q Q Q Q Q R Q ",
"S T T T S S T T T S S T S S S S S T S S ",
"U V V V V V U V V V V V V V W X Y V V U ",
"Z Z Z Z Z ` Z Z Z Z Z Z Z Z Z Z Z Z Z Z ",
" . . . ..... .+. . .+.@...#...$. .#. . ."};
