/* XPM */
static char * maximise_background_xpm[] = {
"20 20 61 1",
" 	c None",
".	c #929697",
"+	c #929698",
"@	c #919698",
"#	c #B3B7B8",
"$	c #B4B8B9",
"%	c #B4B8BA",
"&	c #B4B8B8",
"*	c #B3B8B9",
"=	c #B2B7B8",
"-	c #B2B6B7",
";	c #B2B6B8",
">	c #B1B5B6",
",	c #B0B4B5",
"'	c #B1B5B5",
")	c #B1B4B6",
"!	c #B1B4B5",
"~	c #AFB3B4",
"{	c #AEB3B4",
"]	c #AEB2B4",
"^	c #AFB2B4",
"/	c #AEB2B3",
"(	c #8FA1A6",
"_	c #849397",
":	c #859498",
"<	c #849297",
"[	c #91A1A6",
"}	c #92A1A6",
"|	c #879599",
"1	c #869499",
"2	c #869498",
"3	c #88969A",
"4	c #889599",
"5	c #889699",
"6	c #828C90",
"7	c #7F8A8E",
"8	c #808B8E",
"9	c #839297",
"0	c #788589",
"a	c #9EA3A5",
"b	c #9DA3A5",
"c	c #9CA1A3",
"d	c #9A9FA1",
"e	c #9A9EA0",
"f	c #949899",
"g	c #8F9495",
"h	c #8B8F90",
"i	c #8B8E90",
"j	c #878B8C",
"k	c #868B8C",
"l	c #878B8D",
"m	c #838788",
"n	c #838789",
"o	c #808486",
"p	c #818486",
"q	c #808485",
"r	c #989C9D",
"s	c #7B8081",
"t	c #7C8081",
"u	c #7B8080",
"v	c #7C8080",
"...++.++@++.........",
"###$%$$$&$$$$$$$$$$$",
"###$$$$$$$$$$$$$$$*$",
"===##-;-------------",
">>,,,>>>'>>>>>>>)!)!",
"~~~~{{{{{]{{{{{{^/^{",
"(((______:_<_____:__",
"[}|||||1||||23453|36",
"[}||||||||||22|4||78",
"(99<_9_________<9000",
"aaabaaaaaaaaaaaaabcd",
"eeeeeeeeeeeeeeeeeeee",
"ffffffffffffffffffff",
"gggggggggggggggggggg",
"hhhhhhihhhihhhhhhhhh",
"jjjjjjjkljjjjjjjjjjj",
"mmnmmmmnnnmmmmmmmmmm",
"opqqqqqqqqqqqqqqqqoo",
"rrrrrrrrrrrrrrrrrrrr",
"sttuusssssvusssssttt"};
