/* XPM */
static char * stick_xpm[] = {
"20 20 231 2",
"  	c None",
". 	c #F8F2F2",
"+ 	c #929392",
"@ 	c #ABACAB",
"# 	c #AAABAB",
"$ 	c #AAACAA",
"% 	c #AAACAB",
"& 	c #9EA09E",
"* 	c #9FA09E",
"= 	c #ABACAA",
"- 	c #8C8D8C",
"; 	c #EBE6E6",
"> 	c #C2C3C3",
", 	c #D9D9D9",
"' 	c #FEFEFE",
") 	c #FDFEFE",
"! 	c #ACAEAD",
"~ 	c #F8F8F8",
"{ 	c #FAFAFA",
"] 	c #E1E1E1",
"^ 	c #E3E0E0",
"/ 	c #C8C7C7",
"( 	c #CCCBCB",
"_ 	c #F6F6F6",
": 	c #FDFDFD",
"< 	c #FCFCFC",
"[ 	c #FCFDFD",
"} 	c #C5C6C5",
"| 	c #EAEAEA",
"1 	c #FBFCFC",
"2 	c #FCFBFC",
"3 	c #FBFCFB",
"4 	c #C4C5C4",
"5 	c #B4B5B5",
"6 	c #E8E3E3",
"7 	c #B7B8B8",
"8 	c #BFBEBE",
"9 	c #F7F6F8",
"0 	c #F8F8F7",
"a 	c #F9F9F9",
"b 	c #F9F9FA",
"c 	c #CECFCF",
"d 	c #DBDCDB",
"e 	c #A6A8A7",
"f 	c #DFDFDF",
"g 	c #E0DBDB",
"h 	c #D2D2D2",
"i 	c #E9EAEA",
"j 	c #F3F4F4",
"k 	c #F5F5F5",
"l 	c #F4F4F4",
"m 	c #F4F5F4",
"n 	c #E0E1E1",
"o 	c #A9A9A9",
"p 	c #D1D1D1",
"q 	c #D0D1D1",
"r 	c #D1D2D1",
"s 	c #D0D1D0",
"t 	c #F0F0F2",
"u 	c #F2F2F2",
"v 	c #E0E0E0",
"w 	c #808686",
"x 	c #E2E2E2",
"y 	c #F0F0F0",
"z 	c #F1F1F0",
"A 	c #F1F1F1",
"B 	c #E7E7E7",
"C 	c #DBDBDB",
"D 	c #D7D7D7",
"E 	c #838482",
"F 	c #E8E8E9",
"G 	c #EAEAE9",
"H 	c #EAEAEB",
"I 	c #CCCDCC",
"J 	c #CCCCCC",
"K 	c #CDCDCD",
"L 	c #CCCDCD",
"M 	c #B6B6B6",
"N 	c #DCDCDC",
"O 	c #D0D0D0",
"P 	c #828481",
"Q 	c #E4E4E5",
"R 	c #E3E3E2",
"S 	c #E6E6EA",
"T 	c #A5A7A6",
"U 	c #A4A4A4",
"V 	c #B4B4B4",
"W 	c #BDBDBD",
"X 	c #B8B8B8",
"Y 	c #A9ABAA",
"Z 	c #9FA1A0",
"` 	c #A8A8A8",
" .	c #BABABA",
"..	c #CFCFCF",
"+.	c #C8C8C8",
"@.	c #838383",
"#.	c #DFE0E1",
"$.	c #979998",
"%.	c #898989",
"&.	c #8A8A8A",
"*.	c #8D8D8D",
"=.	c #8B8B8B",
"-.	c #878787",
";.	c #A2A2A2",
">.	c #C1C1C1",
",.	c #B7B7B7",
"'.	c #BFBFBF",
").	c #838483",
"!.	c #D8D9DB",
"~.	c #959796",
"{.	c #7F7F7F",
"].	c #7D7D7D",
"^.	c #858585",
"/.	c #909090",
"(.	c #B0B0B0",
"_.	c #B3B3B3",
":.	c #AFAFAF",
"<.	c #C8C9C8",
"[.	c #C9C9C7",
"}.	c #CDCECE",
"|.	c #B7B9BA",
"1.	c #B1B3B6",
"2.	c #AFB1B3",
"3.	c #AEB0B2",
"4.	c #AEB1B3",
"5.	c #AEB2B3",
"6.	c #B1B4B6",
"7.	c #9E9F9E",
"8.	c #A6A6A6",
"9.	c #A3A3A3",
"0.	c #828483",
"a.	c #BEBEBD",
"b.	c #BDBEBC",
"c.	c #C7C8C8",
"d.	c #F6F8FA",
"e.	c #C4C6C8",
"f.	c #C5C6C7",
"g.	c #C6C7C8",
"h.	c #C5C6C6",
"i.	c #CED0D1",
"j.	c #CFD2D4",
"k.	c #9A9B9A",
"l.	c #9A9A98",
"m.	c #999B98",
"n.	c #989A99",
"o.	c #969897",
"p.	c #9C9E9D",
"q.	c #838384",
"r.	c #B2B2B2",
"s.	c #B2B2B1",
"t.	c #B4B4B5",
"u.	c #DCDDDD",
"v.	c #B1B2B3",
"w.	c #BAB9B9",
"x.	c #D6D9DA",
"y.	c #8F908E",
"z.	c #8E8F8F",
"A.	c #8F8F8E",
"B.	c #8F908F",
"C.	c #8F8F8F",
"D.	c #8E8F8D",
"E.	c #8E8F8C",
"F.	c #A7A7A7",
"G.	c #A5A7A7",
"H.	c #D0D1CF",
"I.	c #B2B5B5",
"J.	c #A7A7A9",
"K.	c #E3E4E7",
"L.	c #90918F",
"M.	c #8A8C88",
"N.	c #868885",
"O.	c #868686",
"P.	c #868786",
"Q.	c #8F9190",
"R.	c #898A88",
"S.	c #91918F",
"T.	c #90918E",
"U.	c #838382",
"V.	c #9A9B9B",
"W.	c #ADADAC",
"X.	c #ECEDEE",
"Y.	c #BBBABB",
"Z.	c #BBBAB9",
"`.	c #BBBBB9",
" +	c #BABAB8",
".+	c #DBDBD9",
"++	c #C7CACD",
"@+	c #C0C3C3",
"#+	c #BFC0C1",
"$+	c #B9B9BB",
"%+	c #B8BABA",
"&+	c #B9BABB",
"*+	c #BBBCBC",
"=+	c #B5B6B7",
"-+	c #B9BABC",
";+	c #B1B3B5",
">+	c #ACAEB0",
",+	c #919091",
"'+	c #97979A",
")+	c #A8A7A5",
"!+	c #A7A7A6",
"~+	c #A8A8A7",
"{+	c #A5A6A7",
"]+	c #A8AAAB",
"^+	c #A9AAAC",
"/+	c #A7A8A9",
"(+	c #A6A8A9",
"_+	c #A7A9AA",
":+	c #A6A7A8",
"<+	c #A2A3A3",
"[+	c #838385",
"}+	c #E9E8E8",
"|+	c #898988",
"1+	c #838381",
"2+	c #D5D5D5",
"3+	c #828282",
"4+	c #828183",
"5+	c #828182",
"6+	c #758284",
"7+	c #A3A5A5",
"8+	c #BEBEBE",
"9+	c #C6C6C6",
"0+	c #C7C5C6",
"a+	c #F2EDED",
"b+	c #7B7D7D",
"c+	c #7B7D7F",
"d+	c #7C7D7D",
"e+	c #7C7D7C",
"f+	c #7C7E7D",
"g+	c #7A7D7C",
"h+	c #7D7E7D",
". . . . + @ @ # @ $ % % @ & * $ = @ $ - ",
". . ; > , ' ' ' ' ) ) ' ) ! ~ { { { { ] ",
". ^ / ( _ ' : : < : : [ } | 1 2 < 3 4 5 ",
"6 7 8 9 0 a a a a b ~ c d { { { a e a f ",
"g h i j k l k k k m n o p q p r s t u v ",
"w x y z A A A A A A | B B B B C f B B D ",
"E F G H I J J K J K J L I J K M N N , O ",
"P Q R S T U V W W W X Y Z `  .......+.+.",
"@.N N #.$.%.&.*.*.*.=.-.*.;.>.>.>.>.,.'.",
").h h !.~.-.{.].].].{.^./.(._.V V V :.:.",
"E <.[.}.|.1.2.3.2.4.5.6.7.8.8.8.8.8.9.o ",
"0.a.b.a.c.d.e.f.g.h.i.j.k.l.l.m.m.n.o.p.",
"q.r.s.t.u.v._._.r.w.x.y.z.A.B.C.B.D.E.E.",
").F.G.H.I.F.F.` J.K.L.M.N.O.P.P.Q.R.S.T.",
"U.V.W.X.Y.Z.`. +.+++@+#+$+%+&+*+=+-+;+>+",
").,+'+)+!+!+!+!+~+{+{+{+]+^+]+/+(+_+:+<+",
"[+}+>.|+%.%.%.%.%.%.%.%.%.%.%.%.%.%.%.%.",
"1+v 2+3+4+3+3+3+5+3+3+3+3+5+5+3+3+3+3+3+",
"6+7+8+9+9+0+0+9+9+9+9+9+9+9+9+9+9+9+9+W ",
"a+b+b+c+d+e+f+e+d+d+d+d+f+g+e+e+e+e+e+h+"};
