/* XPM */
static char * submenu_lit_xpm[] = {
"20 20 8 1",
" 	c None",
".	c #D0D0D0",
"+	c #FFFFFF",
"@	c #B2B2B2",
"#	c #D5D5D5",
"$	c #9F9F9F",
"%	c #F9F9F9",
"&	c #AEAEAE",
"                    ",
"                    ",
"                    ",
"                    ",
"                    ",
"      .             ",
"      ++@           ",
"      ++++          ",
"      +++++#        ",
"      +++++++       ",
"      ++++++++      ",
"      +++++++       ",
"      +++++         ",
"      +++$          ",
"      %&            ",
"                    ",
"                    ",
"                    ",
"                    ",
"                    "};
