/* XPM */
static char * close_xpm[] = {
"16 16 56 1",
" 	c #CBDCFC",
".	c #709AF5",
"+	c #FFFFFF",
"@	c #E7EFFD",
"#	c #707070",
"$	c #717071",
"%	c #707170",
"&	c #717070",
"*	c #8EAFF7",
"=	c #525252",
"-	c #C7D9FC",
";	c #535253",
">	c #535252",
",	c #B7CFFB",
"'	c #98B7F8",
")	c #363536",
"!	c #363636",
"~	c #C8DAFC",
"{	c #171817",
"]	c #171818",
"^	c #93B4F8",
"/	c #181817",
"(	c #C5D8FC",
"_	c #020202",
":	c #91B3F8",
"<	c #AAC4F9",
"[	c #C4D7FB",
"}	c #6995F5",
"|	c #BBD0FB",
"1	c #7FA5F6",
"2	c #80A6F6",
"3	c #A7C2F9",
"4	c #B6CDFA",
"5	c #6290F4",
"6	c #B0C8FA",
"7	c #AEC8FA",
"8	c #5989F3",
"9	c #ECECEC",
"0	c #A6C1F9",
"a	c #5184F3",
"b	c #E6E5E5",
"c	c #E6E6E6",
"d	c #9AB8F8",
"e	c #9BBAF8",
"f	c #4A7FF2",
"g	c #DEDEDF",
"h	c #DEDEDE",
"i	c #DFDEDF",
"j	c #89ADF7",
"k	c #3C74F1",
"l	c #D3D3D3",
"m	c #D5E3FC",
"n	c #5B8CF4",
"o	c #EEEEEE",
"p	c #5F8EF4",
"q	c #B7B7B7",
"      .+++++++++",
"++++@  ......+++",
"             .++",
"              .+",
"    #$   %&   .+",
"    *==-;>*   .+",
"    ,')!!',   .+",
"    ~{]^]/-   .+",
"((((__:<:__(([}+",
"||||1234321|||5+",
"66666766676668+9",
"0000000aaaaaa+bc",
"dededef++++++ghi",
"jjjjjk+lllllllll",
"mmmmmnoooooooooo",
"ppppppqqqqqqqqqq"};
