/* XPM */
static char * stick2_xpm[] = {
"16 16 17 1",
" 	c #FFFFFF",
".	c #5184F3",
"+	c #CBDCFC",
"@	c #FAFAFA",
"#	c #F4F4F4",
"$	c #C5D8FC",
"%	c #ECEDED",
"&	c #EDECEC",
"*	c #AEC8FA",
"=	c #E5E6E6",
"-	c #E6E5E6",
";	c #DEDEDE",
">	c #DEDEDF",
",	c #DEDFDF",
"'	c #D3D3D3",
")	c #EEEEEE",
"!	c #B7B7B7",
"                ",
"    .......     ",
"   .+++++++.    ",
"  .+++++  ++.   ",
"  .++++++  +.   ",
"  .+++++++ +.   ",
"  .+++++++++.   ",
"  .+++++++++.   ",
"@@.+++++++++.@@@",
"##.$$$$$$$$$.###",
"%& .*******. &&&",
"=== ....... =---",
";;;>       >;,,,",
"''''''''''''''''",
"))))))))))))))))",
"!!!!!!!!!!!!!!!!"};
