/* XPM */
static char * menu_xpm[] = {
"15 15 53 1",
" 	c #727E74",
".	c #737D75",
"+	c #767C78",
"@	c #757B77",
"#	c #737D74",
"$	c #FBFFFD",
"%	c #FCFFFF",
"&	c #FBFFFE",
"*	c #FCFFFD",
"=	c #FAFFFC",
"-	c #F6F8F5",
";	c #F6F8F3",
">	c #F5F7F4",
",	c #F4F9F5",
"'	c #CDD2CE",
")	c #757C75",
"!	c #FCFFFB",
"~	c #EFF1EC",
"{	c #F0F2ED",
"]	c #CCD1CD",
"^	c #E8EAE5",
"/	c #7C7C7A",
"(	c #7B7D7A",
"_	c #E6EBE5",
":	c #E1E3DE",
"<	c #F4F9F3",
"[	c #EFF1EE",
"}	c #E8EAE7",
"|	c #7A7C79",
"1	c #DBDDDA",
"2	c #D4D6D3",
"3	c #E1E3E0",
"4	c #DBDDDC",
"5	c #F7F9F6",
"6	c #7B7D7C",
"7	c #747B74",
"8	c #7C7C7C",
"9	c #E9EAE5",
"0	c #EEF0EB",
"a	c #7B7B79",
"b	c #F0F1EC",
"c	c #FCFFFA",
"d	c #F7F8F3",
"e	c #F5F7F2",
"f	c #F7F8F2",
"g	c #FAFFF9",
"h	c #CDD2CB",
"i	c #CED3CD",
"j	c #CCD1CB",
"k	c #CFD1CC",
"l	c #CDD2CC",
"m	c #A8AEAA",
"n	c #717D71",
" .+@@+@@@+@@@.#",
".$%&%%*%*%*%*=.",
".*----;>;-;-,')",
"#!-~~{~~~~~~;])",
"#!-~^^^/(^_~;'.",
"#!-~^:(/((_~<'#",
"#!-[}||((((~<'#",
"#*-[((1213}~<'#",
"#*-[((1443}{<'#",
"#*5[}((66((~;'7",
"#*-~^^(88/90;')",
"#!;~~0~/abb~;')",
"#c;;;dde;ddf;')",
"#ghijkkijkkklm#",
"n##..##..#.... "};
