/* XPM */
static char * unshade_xpm[] = {
"15 15 46 1",
" 	c #727E74",
".	c #737D74",
"+	c #737D75",
"@	c #727C74",
"#	c #A8AEAA",
"$	c #CDD2CC",
"%	c #CCD1CB",
"&	c #CFD1CC",
"*	c #F9FFF9",
"=	c #757C74",
"-	c #CED3CD",
";	c #F6F8F3",
">	c #F5F7F2",
",	c #F7F8F3",
"'	c #FBFFFD",
")	c #757C75",
"!	c #EFF1EE",
"~	c #EFF1EC",
"{	c #EEF0EB",
"]	c #E8EAE7",
"^	c #E8EAE5",
"/	c #757B77",
"(	c #F0F0EE",
"_	c #7C7C7A",
":	c #E2E2E0",
"<	c #E1E3DE",
"[	c #F7F9F4",
"}	c #F1F1EF",
"|	c #7C7C7C",
"1	c #DBDDDA",
"2	c #7B7D7A",
"3	c #F6F8F5",
"4	c #747A76",
"5	c #E2E4DF",
"6	c #E1E3E0",
"7	c #DFE4DE",
"8	c #E6EBE5",
"9	c #F7F9F6",
"0	c #F4F9F3",
"a	c #F4F9F5",
"b	c #FBFFFF",
"c	c #737C77",
"d	c #FAFFFA",
"e	c #FCFFFD",
"f	c #FCFFFF",
"g	c #727B76",
" ..++  @+..+++ ",
".#$$$$$%$&&$$*+",
"=-;;;>;;;,,;;')",
"+$;!!~~~~{~~;')",
"@$;!]]^^^^^~;'/",
".$;(__:<<__~['/",
".$;}_|_12__~;'/",
".$;!]__222^~;'/",
".$;!]:_22<^~3'4",
".$;~^562678~9'/",
".$;~^^^]]88~3'/",
".$;~~~~~~~~~3'/",
".$;;3;30a0a;abc",
".deefef'b'befbc",
" +)////cccc/4g+"};
