/* XPM */
static char * close_off_xpm[] = {
"23 22 140 2",
"  	c None",
". 	c #FFFFFF",
"+ 	c #FDFEFD",
"@ 	c #FEFEFC",
"# 	c #FEFDFD",
"$ 	c #FDFDFD",
"% 	c #FDFDFC",
"& 	c #F1F1F1",
"* 	c #F3F3F2",
"= 	c #F5F6F5",
"- 	c #FAFCF9",
"; 	c #FBFCF9",
"> 	c #F1F2F2",
", 	c #F2F1F1",
"' 	c #F2F2F2",
") 	c #F2F2F1",
"! 	c #F2F1F2",
"~ 	c #F1F1F2",
"{ 	c #F6F8F4",
"] 	c #F7FAF5",
"^ 	c #F7F9F5",
"/ 	c #F2F3F2",
"( 	c #F3F2F3",
"_ 	c #F3F2F2",
": 	c #F2F3F3",
"< 	c #F3F3F3",
"[ 	c #F3F4F2",
"} 	c #F4F8F1",
"| 	c #F3F3F4",
"1 	c #F4F3F4",
"2 	c #F4F3F3",
"3 	c #F3F4F4",
"4 	c #F4F4F3",
"5 	c #F4F4F4",
"6 	c #F3F4F3",
"7 	c #F1F5EF",
"8 	c #F1F5ED",
"9 	c #F1F6EE",
"0 	c #F5F4F4",
"a 	c #000000",
"b 	c #F4F5F4",
"c 	c #F2F4F1",
"d 	c #EEF4EA",
"e 	c #EEF4E9",
"f 	c #F5F5F5",
"g 	c #F5F5F6",
"h 	c #BFBFBF",
"i 	c #BDBDBD",
"j 	c #A6A6A6",
"k 	c #F6F5F5",
"l 	c #F5F6F6",
"m 	c #F5F4F5",
"n 	c #EBF2E6",
"o 	c #EBF2E5",
"p 	c #F6F7F6",
"q 	c #F6F6F6",
"r 	c #F6F6F7",
"s 	c #A0A0A0",
"t 	c #959595",
"u 	c #B0B0B0",
"v 	c #F7F7F6",
"w 	c #E7F0E2",
"x 	c #F7F7F7",
"y 	c #9B9B9B",
"z 	c #929292",
"A 	c #ACACAC",
"B 	c #F6F7F7",
"C 	c #E5EEDE",
"D 	c #F8F8F8",
"E 	c #F8F8F7",
"F 	c #989898",
"G 	c #909090",
"H 	c #A1A1A1",
"I 	c #F8F7F8",
"J 	c #E2ECDA",
"K 	c #F9F9F9",
"L 	c #F8F8F9",
"M 	c #F8F9F9",
"N 	c #8F8F8F",
"O 	c #AEAEAE",
"P 	c #F9F8F9",
"Q 	c #F8F9F8",
"R 	c #DFEAD6",
"S 	c #DEEAD6",
"T 	c #F9FAFA",
"U 	c #FAF9F9",
"V 	c #FAFAFA",
"W 	c #F9F9FA",
"X 	c #FAF9FA",
"Y 	c #DCE8D2",
"Z 	c #FAFBFB",
"` 	c #FAFBFA",
" .	c #FBFAFA",
"..	c #FAFAFB",
"+.	c #FBFBFB",
"@.	c #FBFAFB",
"#.	c #FBFBFA",
"$.	c #F9FAF8",
"%.	c #D8E6CF",
"&.	c #D9E6CE",
"*.	c #FCFBFB",
"=.	c #FBFBFC",
"-.	c #FCFBFC",
";.	c #FCFCFC",
">.	c #FBFCFB",
",.	c #FCFCFB",
"'.	c #F3F6F1",
").	c #D5E4CA",
"!.	c #FDFCFC",
"~.	c #FCFDFC",
"{.	c #FCFCFD",
"].	c #FDFCFD",
"^.	c #FCFDFD",
"/.	c #E5EDDF",
"(.	c #D2E2C7",
"_.	c #FDFEFE",
":.	c #FEFDFE",
"<.	c #FDFDFE",
"[.	c #F3F6F0",
"}.	c #CFE0C3",
"|.	c #CFE0C2",
"1.	c #D0E0C3",
"2.	c #FFFEFE",
"3.	c #FEFEFE",
"4.	c #FFFEFF",
"5.	c #FEFEFF",
"6.	c #F3F7F0",
"7.	c #D2E2C6",
"8.	c #CCDDBF",
"9.	c #CCDEBF",
"0.	c #E2EBD9",
"a.	c #C9DCBB",
"b.	c #C9DCBC",
"c.	c #CADCBB",
"d.	c #C6DAB7",
"e.	c #C6DAB8",
"f.	c #C7DAB7",
"g.	c #C3D8B4",
"h.	c #C3D8B3",
"i.	c #ABABB0",
". . . . . . . . . . . . . . . . . . . . . . . ",
"+ + @ + + + + # + + + + $ % $ % + @ + + + + + ",
"& & & & & & & & & & & & & & & & * = - - ; - - ",
"& > & , & ' , ' ) > ' ! > > ~ > ~ ' ) { ] ^ ^ ",
"/ ( / _ / : / / : / < _ / / ( ( / _ ( [ } } } ",
"< < | < | | < 1 2 3 4 1 < 5 1 4 < 4 6 | 7 8 9 ",
"5 5 5 5 0 a a a a a a a 5 b 0 5 5 0 b b c d e ",
"f f f f g a h i i i j a k f f k l g k f m n o ",
"p q r q q a s t t t u a q p q q q q v q f w w ",
"x x x x x a y z z z A a x v B x x v x x x C C ",
"D D D E D a F G G G H a E I D D D D D E I J J ",
"K K L M K a N O O O O a K M M P Q K M L M R S ",
"T T U K V a a a a a a a W V X V X X V X V Y Y ",
"Z ` Z V Z  ...+. .@...` ..` #.@.@.V #.@.$.%.&.",
"*.=.-.;.+.>.=.-.+.-.,.=.=.,.,.,.-.,.>.;.'.).).",
"!.~.{.~.{.;.].].{.% % ].!.;.!.~.~.^.{.;./.(.(.",
"_.$ # $ + :.# + $ $ $ $ $ $ + $ $ <.<.[.}.|.1.",
"2.3.3.3.3.4.3.5.3.3.3.3.3.4.5.3.5.3.6.7.8.9.9.",
". . . . . . . . . . . . . . . ~.6.0.a.b.c.a.c.",
"d.d.d.d.e.e.d.d.d.e.e.e.f.e.d.e.d.d.d.d.e.d.d.",
"g.h.g.g.g.h.g.g.h.h.g.g.h.g.h.h.g.g.g.h.g.g.h.",
"i.i.i.i.i.i.i.i.i.i.i.i.i.i.i.i.i.i.i.i.i.i.i."};
