/* XPM */
static char * iconbar_xpm[] = {
"10 19 80 1",
" 	c None",
".	c #BFCEBD",
"+	c #C0CEBD",
"@	c #C2D0C0",
"#	c #C1CFBF",
"$	c #C1D0BF",
"%	c #C2CFBF",
"&	c #C2D0BF",
"*	c #C4D2C3",
"=	c #C5D2C3",
"-	c #C5D2C2",
";	c #C4D2C2",
">	c #C4D1C2",
",	c #C8D4C6",
"'	c #C7D4C5",
")	c #C8D5C6",
"!	c #C8D5C5",
"~	c #C7D4C6",
"{	c #C8D4C5",
"]	c #C7D5C6",
"^	c #CBD6C9",
"/	c #CBD7CA",
"(	c #CBD7C9",
"_	c #CED9CC",
":	c #CFD9CC",
"<	c #CFD9CD",
"[	c #CED9CD",
"}	c #CEDACC",
"|	c #D2DBD0",
"1	c #D2DCD0",
"2	c #D1DBD0",
"3	c #D1DBCF",
"4	c #D1DCD0",
"5	c #D5DED3",
"6	c #D4DED3",
"7	c #D8E0D6",
"8	c #D7E1D7",
"9	c #D7E0D7",
"0	c #D8E1D7",
"a	c #D7E0D6",
"b	c #D8E0D7",
"c	c #DBE2D9",
"d	c #DBE2DA",
"e	c #DBE3D9",
"f	c #DBE3DA",
"g	c #DFE5DD",
"h	c #DEE5DD",
"i	c #E1E8E0",
"j	c #E2E8E1",
"k	c #E1E7E1",
"l	c #E1E7E0",
"m	c #E2E8E0",
"n	c #E5EAE3",
"o	c #E5EAE4",
"p	c #E4EAE3",
"q	c #E4EBE4",
"r	c #E8ECE8",
"s	c #E8ECE7",
"t	c #E8EDE7",
"u	c #E7ECE7",
"v	c #E7EDE7",
"w	c #EBEFEA",
"x	c #EBEFEB",
"y	c #EEF1EE",
"z	c #EEF2EE",
"A	c #EEF1ED",
"B	c #F1F3F1",
"C	c #F1F4F1",
"D	c #F2F3F1",
"E	c #F2F4F1",
"F	c #F5F6F5",
"G	c #F4F6F4",
"H	c #F5F7F4",
"I	c #F4F6F5",
"J	c #F5F6F4",
"K	c #F4F7F5",
"L	c #F8F9F8",
"M	c #F8F9F7",
"N	c #F8F8F8",
"O	c #F7F9F7",
".+.+++.+..",
"@#$#%@&#%#",
"*=*-=;>===",
",,')!~{)],",
"^/^((((((^",
"_:_<:[[[}:",
"|1|||12344",
"5566556555",
"7789077ab7",
"cdefeffeff",
"ghggghhggh",
"iijkilmmim",
"noopnoqppo",
"rstsuvssst",
"wxwwxxwxwx",
"yzzyyyAyAy",
"BCCDDEDECE",
"FGGHGIJKJG",
"LMLNOLOLLL"};
