/* XPM */
static char * f_clo_xpm[] = {
"20 20 200 2",
"  	c None",
". 	c #FFFFFF",
"+ 	c #FEFFFD",
"@ 	c #FFFEFF",
"# 	c #FEFFFF",
"$ 	c #FEFEFE",
"% 	c #FFFFFD",
"& 	c #FDFFFE",
"* 	c #EBECEE",
"= 	c #B8B8B8",
"- 	c #6F6F6F",
"; 	c #252324",
"> 	c #262523",
", 	c #6F6D6E",
"' 	c #B9B9BB",
") 	c #ECEAED",
"! 	c #FDFFFC",
"~ 	c #CECECE",
"{ 	c #5B5A58",
"] 	c #333438",
"^ 	c #4A6475",
"/ 	c #4E7795",
"( 	c #486279",
"_ 	c #2F2F2F",
": 	c #5E5C5D",
"< 	c #CFD0D2",
"[ 	c #3A3A3C",
"} 	c #474747",
"| 	c #5A8CAD",
"1 	c #9BC0D2",
"2 	c #C1D9E3",
"3 	c #C1DDE0",
"4 	c #9FC2D5",
"5 	c #5C8CB2",
"6 	c #48474C",
"7 	c #37383A",
"8 	c #D0CED3",
"9 	c #EEEEF0",
"0 	c #5F5F5F",
"a 	c #403E3F",
"b 	c #3F79A9",
"c 	c #7BB3D6",
"d 	c #A3D4F2",
"e 	c #ACD9F6",
"f 	c #ADDBF5",
"g 	c #7AB2D5",
"h 	c #3D7AA7",
"i 	c #3D3F3E",
"j 	c #5E605F",
"k 	c #ECECEC",
"l 	c #BDBEC0",
"m 	c #262729",
"n 	c #1F568E",
"o 	c #3475AF",
"p 	c #4B94CB",
"q 	c #589DD6",
"r 	c #57A0D3",
"s 	c #589FD3",
"t 	c #599AD0",
"u 	c #4C93C9",
"v 	c #3476B2",
"w 	c #1C578F",
"x 	c #2B2C30",
"y 	c #BFBFBF",
"z 	c #FDFEFF",
"A 	c #80827F",
"B 	c #32465E",
"C 	c #2562A1",
"D 	c #2F74B5",
"E 	c #2F5A87",
"F 	c #4A8FC8",
"G 	c #4990C8",
"H 	c #458BC9",
"I 	c #24629B",
"J 	c #334664",
"K 	c #7F7F7F",
"L 	c #FDFDFD",
"M 	c #FCFEFD",
"N 	c #FFFDFC",
"O 	c #3D3D3D",
"P 	c #2E5986",
"Q 	c #2E72B1",
"R 	c #3C82BE",
"S 	c #4A93CA",
"T 	c #61A5D6",
"U 	c #3E82BF",
"V 	c #2F75B1",
"W 	c #3C3C3C",
"X 	c #FCFCFC",
"Y 	c #FCFCFA",
"Z 	c #FBFCFE",
"` 	c #393836",
" .	c #2F669E",
"..	c #448BC1",
"+.	c #539CD1",
"@.	c #66A9DD",
"#.	c #78B7E3",
"$.	c #6BADDF",
"%.	c #599CD1",
"&.	c #458BC6",
"*.	c #316698",
"=.	c #3A3A3A",
"-.	c #FBFBFB",
";.	c #FBFBF9",
">.	c #838788",
",.	c #4C7296",
"'.	c #5596CE",
").	c #6CAFDC",
"!.	c #86C0E8",
"~.	c #91CBF0",
"{.	c #80BFE8",
"].	c #6FB2DF",
"^.	c #5799D3",
"/.	c #868686",
"(.	c #F9FBFA",
"_.	c #F9F9FB",
":.	c #C4C6C5",
"<.	c #6A6B70",
"[.	c #60A4D3",
"}.	c #82C0E7",
"|.	c #95CBF1",
"1.	c #ACDBF9",
"2.	c #62A6D5",
"3.	c #717173",
"4.	c #C4C4C4",
"5.	c #F9F9F9",
"6.	c #F9F8F6",
"7.	c #FAF9F7",
"8.	c #F8F8F6",
"9.	c #E6E6E6",
"0.	c #838383",
"a.	c #709EC2",
"b.	c #8DC9EE",
"c.	c #B3E0FD",
"d.	c #B4E3FF",
"e.	c #ADDCF8",
"f.	c #73A3C7",
"g.	c #858489",
"h.	c #E5E5E5",
"i.	c #F8F8F8",
"j.	c #F6F6F6",
"k.	c #F8F6F7",
"l.	c #F5F7F6",
"m.	c #F4F4F2",
"n.	c #D3D4D6",
"o.	c #898586",
"p.	c #8EBBDC",
"q.	c #9DD2F2",
"r.	c #B2DEFB",
"s.	c #BBE5FD",
"t.	c #C1E7FE",
"u.	c #B2E0FA",
"v.	c #A0D5F7",
"w.	c #95C1DE",
"x.	c #898989",
"y.	c #D6D8D7",
"z.	c #F4F4F4",
"A.	c #F3F5F2",
"B.	c #F3F4F8",
"C.	c #F3F3F3",
"D.	c #F5F3F4",
"E.	c #F1F1F1",
"F.	c #D0D4D3",
"G.	c #949496",
"H.	c #91B1C8",
"I.	c #A2CEEB",
"J.	c #A0D3F2",
"K.	c #A6D5F3",
"L.	c #A5D3ED",
"M.	c #93B5CE",
"N.	c #9E9E9E",
"O.	c #D2D3D5",
"P.	c #F4F2F3",
"Q.	c #F5F5F5",
"R.	c #F3F3F1",
"S.	c #F3F4F6",
"T.	c #F4F2F5",
"U.	c #EFF3F2",
"V.	c #F1EFF0",
"W.	c #E7E9E6",
"X.	c #CACACC",
"Y.	c #ADACA8",
"Z.	c #979B9E",
"`.	c #A0A19C",
" +	c #B4B4B2",
".+	c #CECCCD",
"++	c #E5E7E6",
"@+	c #F0F0F0",
"#+	c #F0F2F1",
"$+	c #F2F2F2",
"%+	c #F3F1F2",
"&+	c #F1F2ED",
"*+	c #F1EFF2",
"=+	c #EEEFF1",
"-+	c #F1F1EF",
";+	c #F0EEEF",
">+	c #F0F0F2",
",+	c #EEF0EF",
"'+	c #F1F1F3",
")+	c #EFEFEF",
". . . . . . . . . . . . . . . . . . . . ",
". . . . . . . . . . . . . . . . . . . . ",
"+ . @ # . $ . % . % # @ & % # . . . . . ",
". % . % . . * = - ; > , ' ) . + . . . $ ",
". ! . % % ~ { ] ^ / / ( _ : ~ . . . . . ",
"# % % @ < [ } | 1 2 3 4 5 6 7 8 . . $ . ",
". @ $ 9 0 a b c d e f d g h i j k . . . ",
"% % . l m n o p q r s t u v w x y $ . . ",
"& z $ A B C D E E F G H E E I J K . L $ ",
"M N z O P Q R S E E T E E U V P W L $ X ",
"Y Z X `  ...+.@.#.E E E $.%.&.*.=.X $ -.",
"-.-.;.>.,.'.).!.~.E E E {.].^.,./.-.-.-.",
"(._._.:.<.[.}.|.E E 1.E E }.2.3.4.5.5.5.",
"6.7.8.9.0.a.b.E E c.d.e.E E f.g.h.i.i.i.",
"j.k.l.m.n.o.p.q.r.s.t.u.v.w.x.y.z.j.j.j.",
"A.B.C.D.E.F.G.H.I.J.K.L.M.N.O.P.C.z.C.Q.",
"R.C.S.T.U.V.W.X.Y.Z.`. +.+++@+#+C.z.$+C.",
"@+%+@+#+&+*+=+-+V.;+V.>+,+V.@+'+E.@+$+@+",
"@+@+@+@+@+@+@+@+@+@+@+@+@+@+@+@+@+@+@+@+",
")+)+)+)+)+)+)+)+)+)+)+)+)+)+)+)+)+)+)+)+"};
