/* XPM */
static char * f_min_xpm[] = {
"20 20 210 2",
"  	c None",
". 	c #FFFFFF",
"+ 	c #FEFFFD",
"@ 	c #FFFEFF",
"# 	c #FEFFFF",
"$ 	c #FEFEFE",
"% 	c #FFFFFD",
"& 	c #FDFFFE",
"* 	c #EBECEE",
"= 	c #B8B8B8",
"- 	c #6F6F6F",
"; 	c #252324",
"> 	c #262523",
", 	c #6F6D6E",
"' 	c #B9B9BB",
") 	c #ECEAED",
"! 	c #FDFFFC",
"~ 	c #CECECE",
"{ 	c #5B5A58",
"] 	c #333438",
"^ 	c #4A6475",
"/ 	c #4E7795",
"( 	c #486279",
"_ 	c #2F2F2F",
": 	c #5E5C5D",
"< 	c #CFD0D2",
"[ 	c #3A3A3C",
"} 	c #474747",
"| 	c #5A8CAD",
"1 	c #9BC0D2",
"2 	c #C1D9E3",
"3 	c #C1DDE0",
"4 	c #9FC2D5",
"5 	c #5C8CB2",
"6 	c #48474C",
"7 	c #37383A",
"8 	c #D0CED3",
"9 	c #EEEEF0",
"0 	c #5F5F5F",
"a 	c #403E3F",
"b 	c #3F79A9",
"c 	c #7BB3D6",
"d 	c #A3D4F2",
"e 	c #ACD9F6",
"f 	c #ADDBF5",
"g 	c #7AB2D5",
"h 	c #3D7AA7",
"i 	c #3D3F3E",
"j 	c #5E605F",
"k 	c #ECECEC",
"l 	c #BDBEC0",
"m 	c #262729",
"n 	c #1F568E",
"o 	c #3475AF",
"p 	c #4B94CB",
"q 	c #589DD6",
"r 	c #57A0D3",
"s 	c #589FD3",
"t 	c #599AD0",
"u 	c #4C93C9",
"v 	c #3476B2",
"w 	c #1C578F",
"x 	c #2B2C30",
"y 	c #BFBFBF",
"z 	c #FDFEFF",
"A 	c #80827F",
"B 	c #32465E",
"C 	c #2562A1",
"D 	c #2F74B5",
"E 	c #3A80BC",
"F 	c #4389C4",
"G 	c #4A8FC8",
"H 	c #4990C8",
"I 	c #458BC9",
"J 	c #3A80BE",
"K 	c #3075B6",
"L 	c #24629B",
"M 	c #334664",
"N 	c #7F7F7F",
"O 	c #FDFDFD",
"P 	c #FCFEFD",
"Q 	c #FFFDFC",
"R 	c #3D3D3D",
"S 	c #2E5986",
"T 	c #2E72B1",
"U 	c #3C82BE",
"V 	c #4A93CA",
"W 	c #589ED1",
"X 	c #5EA3DA",
"Y 	c #61A5D6",
"Z 	c #58A1D6",
"` 	c #4F94CB",
" .	c #3E82BF",
"..	c #2F75B1",
"+.	c #3C3C3C",
"@.	c #FCFCFC",
"#.	c #FCFCFA",
"$.	c #FBFCFE",
"%.	c #393836",
"&.	c #2F669E",
"*.	c #448BC1",
"=.	c #539CD1",
"-.	c #2F5A87",
";.	c #599CD1",
">.	c #458BC6",
",.	c #316698",
"'.	c #3A3A3A",
").	c #FBFBFB",
"!.	c #FBFBF9",
"~.	c #838788",
"{.	c #4C7296",
"].	c #5596CE",
"^.	c #6CAFDC",
"/.	c #6FB2DF",
"(.	c #5799D3",
"_.	c #868686",
":.	c #F9FBFA",
"<.	c #F9F9FB",
"[.	c #C4C6C5",
"}.	c #6A6B70",
"|.	c #60A4D3",
"1.	c #82C0E7",
"2.	c #95CBF1",
"3.	c #A1D4F3",
"4.	c #A8D9F9",
"5.	c #ACDBF9",
"6.	c #A4D5F3",
"7.	c #96CFED",
"8.	c #62A6D5",
"9.	c #717173",
"0.	c #C4C4C4",
"a.	c #F9F9F9",
"b.	c #F9F8F6",
"c.	c #FAF9F7",
"d.	c #F8F8F6",
"e.	c #E6E6E6",
"f.	c #838383",
"g.	c #709EC2",
"h.	c #8DC9EE",
"i.	c #A4D5F5",
"j.	c #ABDDF8",
"k.	c #B3E0FD",
"l.	c #B4E3FF",
"m.	c #ADDCF8",
"n.	c #A5D6F4",
"o.	c #94CAF0",
"p.	c #73A3C7",
"q.	c #858489",
"r.	c #E5E5E5",
"s.	c #F8F8F8",
"t.	c #F6F6F6",
"u.	c #F8F6F7",
"v.	c #F5F7F6",
"w.	c #F4F4F2",
"x.	c #D3D4D6",
"y.	c #898586",
"z.	c #8EBBDC",
"A.	c #9DD2F2",
"B.	c #B2DEFB",
"C.	c #BBE5FD",
"D.	c #C1E7FE",
"E.	c #B2E0FA",
"F.	c #A0D5F7",
"G.	c #95C1DE",
"H.	c #898989",
"I.	c #D6D8D7",
"J.	c #F4F4F4",
"K.	c #F3F5F2",
"L.	c #F3F4F8",
"M.	c #F3F3F3",
"N.	c #F5F3F4",
"O.	c #F1F1F1",
"P.	c #D0D4D3",
"Q.	c #949496",
"R.	c #91B1C8",
"S.	c #A2CEEB",
"T.	c #A0D3F2",
"U.	c #A6D5F3",
"V.	c #A5D3ED",
"W.	c #93B5CE",
"X.	c #9E9E9E",
"Y.	c #D2D3D5",
"Z.	c #F4F2F3",
"`.	c #F5F5F5",
" +	c #F3F3F1",
".+	c #F3F4F6",
"++	c #F4F2F5",
"@+	c #EFF3F2",
"#+	c #F1EFF0",
"$+	c #E7E9E6",
"%+	c #CACACC",
"&+	c #ADACA8",
"*+	c #979B9E",
"=+	c #A0A19C",
"-+	c #B4B4B2",
";+	c #CECCCD",
">+	c #E5E7E6",
",+	c #F0F0F0",
"'+	c #F0F2F1",
")+	c #F2F2F2",
"!+	c #F3F1F2",
"~+	c #F1F2ED",
"{+	c #F1EFF2",
"]+	c #EEEFF1",
"^+	c #F1F1EF",
"/+	c #F0EEEF",
"(+	c #F0F0F2",
"_+	c #EEF0EF",
":+	c #F1F1F3",
"<+	c #EFEFEF",
". . . . . . . . . . . . . . . . . . . . ",
". . . . . . . . . . . . . . . . . . . . ",
"+ . @ # . $ . % . % # @ & % # . . . . . ",
". % . % . . * = - ; > , ' ) . + . . . $ ",
". ! . % % ~ { ] ^ / / ( _ : ~ . . . . . ",
"# % % @ < [ } | 1 2 3 4 5 6 7 8 . . $ . ",
". @ $ 9 0 a b c d e f d g h i j k . . . ",
"% % . l m n o p q r s t u v w x y $ . . ",
"& z $ A B C D E F G H I J K L M N . O $ ",
"P Q z R S T U V W X Y Z `  ...S +.O $ @.",
"#.$.@.%.&.*.=.-.-.-.-.-.-.;.>.,.'.@.$ ).",
").).!.~.{.].^.-.-.-.-.-.-./.(.{._.).).).",
":.<.<.[.}.|.1.2.3.4.5.6.7.1.8.9.0.a.a.a.",
"b.c.d.e.f.g.h.i.j.k.l.m.n.o.p.q.r.s.s.s.",
"t.u.v.w.x.y.z.A.B.C.D.E.F.G.H.I.J.t.t.t.",
"K.L.M.N.O.P.Q.R.S.T.U.V.W.X.Y.Z.M.J.M.`.",
" +M..+++@+#+$+%+&+*+=+-+;+>+,+'+M.J.)+M.",
",+!+,+'+~+{+]+^+#+/+#+(+_+#+,+:+O.,+)+,+",
",+,+,+,+,+,+,+,+,+,+,+,+,+,+,+,+,+,+,+,+",
"<+<+<+<+<+<+<+<+<+<+<+<+<+<+<+<+<+<+<+<+"};
