/* XPM */
static char * max_xpm[] = {
"20 20 40 1",
" 	c None",
".	c #F6F8F7",
"+	c #F9F7FC",
"@	c #F9F9FB",
"#	c #FAFAFC",
"$	c #F8F8FA",
"%	c #F6F6F8",
"&	c #F7F7F9",
"*	c #FBFBFD",
"=	c #F5F5F7",
"-	c #353736",
";	c #F4F4F6",
">	c #F6F6F6",
",	c #F8F8F8",
"'	c #F5F5F5",
")	c #F2F2F2",
"!	c #DFDFDF",
"~	c #DEDEDE",
"{	c #E0E0E0",
"]	c #DCDCDC",
"^	c #E1E1E1",
"/	c #DBDBDB",
"(	c #E2E2E2",
"_	c #E3E3E3",
":	c #E8E8E8",
"<	c #EBEBEB",
"[	c #EAEAEA",
"}	c #E9E9E9",
"|	c #E5E5E5",
"1	c #E4E4E4",
"2	c #E7E7E7",
"3	c #E6E6E6",
"4	c #ECECEC",
"5	c #EDEDED",
"6	c #EEEEEE",
"7	c #F3F3F3",
"8	c #EFEFEF",
"9	c #F0F0F0",
"0	c #F1F1F1",
"a	c #F4F4F4",
"....................",
"++++++++++++++++++++",
"@@@@@@@@@@@@@@@@@@@@",
"#######@@##$#@######",
"@@@@@@@@$#%#@&@@@@@@",
"@@@@@@@##@##&*$@@@@@",
"$$$$$$$%$%$$@$@$$$$$",
"&&&&&&&$%#$&$=%&&&&&",
"&&&&&&&%$--;=$$&&&&&",
">>>>>>>>>--,'>)>>>>>",
"!!!!!!!!~--~~{{!!!!!",
"]^~{^!--------~!!!!!",
"^/(]]^--------^!!!!!",
"^_{^({:<:--[}:{^^^^^",
"|^1^(__^|--(_^|_____",
"23[:[::}2--2}}2:::::",
"454:[4[4<67<4[<<<<<<",
"89890809008008)99999",
"7))7)9))0)70a)0)))))",
"''''''''''''''''''''"};
