/* XPM */
static char * wtitle_xpm[] = {
"2 20 16 1",
" 	c #F6F8F7",
".	c #FBF9FE",
"+	c #F9F9FB",
"@	c #F8F8FA",
"#	c #F7F7F9",
"$	c #F7F7F7",
"%	c #F6F6F6",
"&	c #DFDFDF",
"*	c #DFDFE1",
"=	c #E1E1E1",
"-	c #E3E3E3",
";	c #E8E8E8",
">	c #EBEBEB",
",	c #F0F0F0",
"'	c #F2F2F2",
")	c #F5F5F5",
"  ",
"..",
"++",
"++",
"++",
"++",
"@@",
"##",
"$$",
"%%",
"&&",
"**",
"**",
"==",
"--",
";;",
">>",
",,",
"''",
"))"};
