/* XPM */
static char * icob_xpm[] = {
"2 16 22 1",
" 	c None",
".	c #7EA3BD",
"+	c #84A7C0",
"@	c #84A8BF",
"#	c #8AACC3",
"$	c #90B0C6",
"%	c #96B4C9",
"&	c #9CB8CC",
"*	c #9CB9CB",
"=	c #A2BDCE",
"-	c #A8C1D1",
";	c #AEC5D4",
">	c #B4CAD7",
",	c #BACEDA",
"'	c #C0D2DC",
")	c #C0D2DD",
"!	c #C6D7DF",
"~	c #C6D6DF",
"{	c #CCDBE2",
"]	c #D2DFE5",
"^	c #D8E4E9",
"/	c #D8E4E8",
"..",
"+@",
"##",
"$$",
"%%",
"&*",
"==",
"--",
";;",
">>",
",,",
"')",
"!~",
"{{",
"]]",
"^/"};
