/* XPM */
static char * menu_xpm[] = {
"1 16 14 1",
" 	c None",
".	c #B6CBDE",
"+	c #A5BFD8",
"@	c #94B3D2",
"#	c #83A6CC",
"$	c #729AC7",
"%	c #618DC2",
"&	c #5081BC",
"*	c #3F75B7",
"=	c #729AC8",
"-	c #83A7CD",
";	c #A5BFD7",
">	c #B6CCDD",
",	c #C7D8E3",
".",
"+",
"@",
"#",
"$",
"%",
"&",
"*",
"&",
"%",
"=",
"-",
"@",
";",
">",
","};
