/* XPM */
static char * max1_xpm[] = {
"20 20 38 1",
" 	c #606060",
".	c #000000",
"+	c #808080",
"@	c #636363",
"#	c #646464",
"$	c #878787",
"%	c #656565",
"&	c #626262",
"*	c #868686",
"=	c #848484",
"-	c #5D5D5D",
";	c #828282",
">	c #5B5B5B",
",	c #585858",
"'	c #7E7E7E",
")	c #565656",
"!	c #7D7D7D",
"~	c #545454",
"{	c #535353",
"]	c #7B7B7B",
"^	c #515151",
"/	c #797979",
"(	c #4E4E4E",
"_	c #4F4F4F",
":	c #767676",
"<	c #4C4C4C",
"[	c #757575",
"}	c #4A4A4A",
"|	c #737373",
"1	c #474747",
"2	c #444444",
"3	c #454545",
"4	c #575757",
"5	c #494949",
"6	c #5C5C5C",
"7	c #616161",
"8	c #5A5A5A",
"9	c #787878",
"         .+         ",
"@@@@@@#@@.$#@@@@@@#@",
"#%#%##%%#.$%##%###%%",
"&&&&&&&&&.*&&&&&&&&&",
"         .=====     ",
"---------......;----",
">>>>>>>>>>>>>>.+>>>>",
",,,,,,,,,,,,,,.',,,,",
")))))))))))))).!))))",
"~~{~~~~{~~~~{~.]~~~{",
"^^^^^^^^^^^^.^./^^^^",
"(((_(((((((.:..:((((",
"<<<<<<<<<<.[<[[<<<<<",
"}}}}}}}}}.|}}}}}}}}}",
"11111111.&1111111111",
"2222222.,22222222222",
"3333333.433333333333",
"5555555.655555555555",
"<<<<<<<.7<<<<<<<<<<<",
"8888888.988888888888"};
