/* XPM */
static char * close2_xpm[] = {
"18 18 9 1",
" 	c None",
".	c #00E1FF",
"+	c #0096E7",
"@	c #0171AC",
"#	c #000000",
"$	c #FFFFFF",
"%	c #DADADA",
"&	c #015581",
"*	c #A3A3A3",
"..................",
"+++++++++++++++++@",
"@@@@@@@@@@@@@@@++@",
"###############@+@",
"$%%%%%%%%%%%%%#@+@",
"$%%%%%%%%%%%%%#@+@",
"$%%%%%%%%%%%%%#@+@",
"$%%%%%%%%%%%%%#@+@",
"$%%%%%%%%%%%%%#@+@",
"$%%%%%%%%%%%%%#@+@",
"###############@+@",
"...............++@",
"+++++++++++++++++@",
"@@@@@@@@@@@@@@@@@&",
"##################",
"%%%%%%%%%%%%%%%%%*",
"%%%%%%%%%%%%%%%%%*",
"******************"};
