/* XPM */
static char * maximize2_unfocus_xpm[] = {
"18 18 5 1",
" 	c None",
".	c #FFFFFF",
"+	c #DADADA",
"@	c #A3A3A3",
"#	c #000000",
"..................",
"++++++++++++++++++",
"@@@@@@@@@@@@@@@@@@",
"##################",
"++++++++++++++++++",
".++++++++++++++++@",
".++++++++++++++++@",
".++++++++++++++++@",
".++++++++++++++++@",
".++++++++++++++++@",
".++++++++++++++++@",
".++++++++++++++++@",
".++++++++++++++++@",
".++++++++++++++++@",
".++++++++++++++++@",
"++++++++++++++++++",
"++++++++++++++++++",
"@@@@@@@@@@@@@@@@@@"};
