/* XPM */
static char * maximize2_xpm[] = {
"18 18 8 1",
" 	c None",
".	c #00E1FF",
"+	c #0096E7",
"@	c #0171AC",
"#	c #000000",
"$	c #FFFFFF",
"%	c #DADADA",
"&	c #A3A3A3",
"..................",
"++++++++++++++++++",
"@@@@@@@@@@@@@@@@@@",
"##################",
"$%%%%%%%%%%%%%%%%&",
"$%%%%%%%%%%%%%%%%&",
"$%%%%%%%%%%%%%%%%&",
"$%%%%%%%%%%%%%%%%&",
"$%%%%%%%%%%%%%%%%&",
"$%%%%%%%%%%%%%%%%&",
"##################",
"..................",
"++++++++++++++++++",
"@@@@@@@@@@@@@@@@@@",
"##################",
"%%%%%%%%%%%%%%%%%%",
"%%%%%%%%%%%%%%%%%%",
"&&&&&&&&&&&&&&&&&&"};
