/* XPM */
static char * button_close_pressed_xpm[] = {
"22 22 170 2",
"  	c None",
". 	c #5B96EB",
"+ 	c #5792E8",
"@ 	c #5793E8",
"# 	c #5892E8",
"$ 	c #5792E9",
"% 	c #5793E9",
"& 	c #5893E9",
"* 	c #5892E9",
"= 	c #538EE6",
"- 	c #538FE6",
"; 	c #538EE5",
"> 	c #538FE5",
", 	c #548FE6",
"' 	c #548FE5",
") 	c #548EE6",
"! 	c #4F8BE3",
"~ 	c #508BE3",
"{ 	c #508BE2",
"] 	c #4F8BE2",
"^ 	c #508CE3",
"/ 	c #508CE2",
"( 	c #4C87E0",
"_ 	c #4C88E0",
": 	c #4B87E0",
"< 	c #4C88DF",
"[ 	c #4B88E0",
"} 	c #4C87DF",
"| 	c #4884DD",
"1 	c #D1D5D6",
"2 	c #C8CCCD",
"3 	c #989A9A",
"4 	c #989898",
"5 	c #9F9F9F",
"6 	c #9A9B9B",
"7 	c #98999A",
"8 	c #C4C8C8",
"9 	c #D0D4D5",
"0 	c #C0C6C7",
"a 	c #ACB0B1",
"b 	c #868686",
"c 	c #B7B7B7",
"d 	c #C0C0C0",
"e 	c #BFBFBF",
"f 	c #BBBBBB",
"g 	c #8F8F8F",
"h 	c #A2A6A7",
"i 	c #BEC4C5",
"j 	c #C2C8C9",
"k 	c #B9BFBF",
"l 	c #787979",
"m 	c #A3A3A3",
"n 	c #7D7E7E",
"o 	c #707070",
"p 	c #999A9A",
"q 	c #A4A4A4",
"r 	c #7F7F7F",
"s 	c #ACB1B2",
"t 	c #C1C7C8",
"u 	c #C5CACB",
"v 	c #858788",
"w 	c #808080",
"x 	c #8D8E8F",
"y 	c #8C8D8D",
"z 	c #828282",
"A 	c #BEC2C3",
"B 	c #C7CCCD",
"C 	c #C4C9CA",
"D 	c #636464",
"E 	c #6C6C6C",
"F 	c #818283",
"G 	c #747474",
"H 	c #757575",
"I 	c #818282",
"J 	c #6A6A6A",
"K 	c #5D5D5D",
"L 	c #B3B7B8",
"M 	c #C9CECF",
"N 	c #C8CDCE",
"O 	c #BDC2C3",
"P 	c #555555",
"Q 	c #636363",
"R 	c #535353",
"S 	c #565656",
"T 	c #7A7A7A",
"U 	c #797979",
"V 	c #505050",
"W 	c #656565",
"X 	c #9CA0A0",
"Y 	c #C3C8C9",
"Z 	c #CACECF",
"` 	c #CCD0D1",
" .	c #CBCFD0",
"..	c #BBBFC0",
"+.	c #525252",
"@.	c #737374",
"#.	c #575757",
"$.	c #595959",
"%.	c #7E7E7E",
"&.	c #585858",
"*.	c #717272",
"=.	c #646464",
"-.	c #545454",
";.	c #969899",
">.	c #C3C6C7",
",.	c #CED2D3",
"'.	c #CDD1D2",
").	c #C3C7C8",
"!.	c #616161",
"~.	c #848585",
"{.	c #777777",
"].	c #838484",
"^.	c #A0A3A4",
"/.	c #D1D4D4",
"(.	c #C8CBCB",
"_.	c #6A6B6B",
":.	c #898989",
"<.	c #606060",
"[.	c #5E5E5E",
"}.	c #878787",
"|.	c #888888",
"1.	c #5E5F5F",
"2.	c #A9ACAC",
"3.	c #D3D6D6",
"4.	c #CED0D0",
"5.	c #A3A5A5",
"6.	c #585959",
"7.	c #494949",
"8.	c #ABABAB",
"9.	c #A7A8A8",
"0.	c #4A4A4A",
"a.	c #5C5C5C",
"b.	c #B3B6B6",
"c.	c #D6D8D8",
"d.	c #D3D5D5",
"e.	c #C3C5C5",
"f.	c #878888",
"g.	c #626262",
"h.	c #777878",
"i.	c #A1A2A2",
"j.	c #D8DADA",
"k.	c #D0D2D2",
"l.	c #B8BABA",
"m.	c #8F9090",
"n.	c #6B6C6C",
"o.	c #5F5F5F",
"p.	c #686868",
"q.	c #808181",
"r.	c #9B9C9C",
"s.	c #DADCDC",
"t.	c #D9DBDB",
"u.	c #B9BBBB",
"v.	c #A2A3A3",
"w.	c #939494",
"x.	c #8A8B8B",
"y.	c #8D8E8E",
"z.	c #959696",
"A.	c #CFD1D1",
"B.	c #DDDEDE",
"C.	c #DBDCDC",
"D.	c #D4D5D5",
"E.	c #C7C8C8",
"F.	c #B9BABA",
"G.	c #B1B2B2",
"H.	c #E6E5E5",
"I.	c #E5E4E4",
"J.	c #E3E2E2",
"K.	c #DFDEDE",
"L.	c #DCDBDB",
"M.	c #F6F6F6",
". . . . . . . . . . . . . . . . . . . . . . ",
"+ + @ # @ $ $ + + + + @ $ $ % $ @ # + & * + ",
"= - ; > , ' - > ' ' = ' - - , ) > - > ' , > ",
"! ! ~ { ~ ~ ] ! ~ ] ^ / { ] / { ! ~ { / ~ ~ ",
"( _ _ : < ( ( _ < ( : _ [ < _ ( ( _ } < < [ ",
"| | | | | | | | | | | | | | | | | | | | | | ",
"1 1 1 1 1 1 1 2 3 4 5 6 7 8 9 1 1 1 1 1 1 1 ",
"0 0 0 0 0 0 a b c d d e f g h i 0 0 0 0 0 0 ",
"j j j j j k l m 6 n o n p q r s t j j j j j ",
"u u u u u v w x o o o o o y z l A u u u u u ",
"B B B B C D E F G G G H G I J K L C B B B B ",
"B M M N O P Q R S T T U P V W S X Y B M M N ",
"Z ` `  ...+.Q @.#.$.%.&.P *.=.-.;.>.Z ` `  .",
"` ,.,.'.).R !.~.U $.$.#.{.].Q V ^.).` ,.,.'.",
"/./././.(._.K :.<.[.}.K [.|.<.1.2.(././././.",
"3.3.3.3.4.5.6.7.W 8.m 9.W 0.a.].b.4.3.3.3.3.",
"c.c.c.c.d.e.f.!.W W W W W g.h.i.e.d.c.c.c.c.",
"j.j.j.j.j.k.l.m.n.o.o.[.p.q.r.l.k.j.j.j.j.j.",
"s.s.s.s.s.t.4.u.v.w.x.y.z.v.u.A.t.s.s.s.s.s.",
"B.B.B.B.B.B.C.D.E.F.G.G.F.E.D.C.B.B.B.B.B.B.",
"H.H.H.H.H.H.H.I.J.K.L.L.K.J.I.H.H.H.H.H.H.H.",
"M.M.M.M.M.M.M.M.M.M.M.M.M.M.M.M.M.M.M.M.M.M."};
