/* XPM */
static char * button_stick_unfocus_xpm[] = {
"22 22 189 2",
"  	c None",
". 	c #073580",
"+ 	c #073278",
"@ 	c #073279",
"# 	c #063279",
"$ 	c #063072",
"% 	c #063071",
"& 	c #062F72",
"* 	c #062F71",
"= 	c #072F72",
"- 	c #072F71",
"; 	c #062C6B",
"> 	c #052C6B",
", 	c #062C6A",
"' 	c #052C6A",
") 	c #062D6A",
"! 	c #062D6B",
"~ 	c #062964",
"{ 	c #062963",
"] 	c #052964",
"^ 	c #052A63",
"/ 	c #072A64",
"( 	c #0C2D64",
"_ 	c #052963",
": 	c #06275D",
"< 	c #05265D",
"[ 	c #06265D",
"} 	c #5E636C",
"| 	c #8D8D8D",
"1 	c #999999",
"2 	c #909090",
"3 	c #05265C",
"4 	c #06265C",
"5 	c #05275D",
"6 	c #D3D3D3",
"7 	c #052355",
"8 	c #052456",
"9 	c #042355",
"0 	c #7C7D7E",
"a 	c #B7B7B7",
"b 	c #C0C0C0",
"c 	c #BFBFBF",
"d 	c #BBBBBB",
"e 	c #8A8A8A",
"f 	c #052356",
"g 	c #042456",
"h 	c #052455",
"i 	c #C4C4C4",
"j 	c #6B6B6B",
"k 	c #737373",
"l 	c #A3A3A3",
"m 	c #A9A9A9",
"n 	c #ACACAC",
"o 	c #AAAAAA",
"p 	c #A8A8A8",
"q 	c #A4A4A4",
"r 	c #7B7B7B",
"s 	c #535A65",
"t 	c #06224F",
"u 	c #04214F",
"v 	c #04204E",
"w 	c #04214E",
"x 	c #04204F",
"y 	c #C6C6C6",
"z 	c #C5C5C5",
"A 	c #868686",
"B 	c #808080",
"C 	c #8C8C8C",
"D 	c #919191",
"E 	c #8E8E8E",
"F 	c #898989",
"G 	c #828282",
"H 	c #5F5F5F",
"I 	c #10274B",
"J 	c #041E47",
"K 	c #041D47",
"L 	c #C8C8C8",
"M 	c #C3C3C3",
"N 	c #616161",
"O 	c #6C6C6C",
"P 	c #767676",
"Q 	c #7F7F7F",
"R 	c #878787",
"S 	c #292929",
"T 	c #858585",
"U 	c #7D7D7D",
"V 	c #747474",
"W 	c #6A6A6A",
"X 	c #595959",
"Y 	c #626467",
"Z 	c #0B2044",
"` 	c #041B40",
" .	c #031A40",
"..	c #CACACA",
"+.	c #B8B8B8",
"@.	c #545454",
"#.	c #636363",
"$.	c #727272",
"%.	c #282828",
"&.	c #7C7C7C",
"*.	c #707070",
"=.	c #656565",
"-.	c #565656",
";.	c #5B5B5B",
">.	c #061A3B",
",.	c #031739",
"'.	c #031839",
").	c #CCCCCC",
"!.	c #CBCBCB",
"~.	c #B2B2B2",
"{.	c #525252",
"].	c #262626",
"^.	c #272727",
"/.	c #717171",
"(.	c #646464",
"_.	c #535353",
":.	c #061733",
"<.	c #031431",
"[.	c #031531",
"}.	c #CECECE",
"|.	c #CDCDCD",
"1.	c #505050",
"2.	c #242424",
"3.	c #252525",
"4.	c #4F4F4F",
"5.	c #515151",
"6.	c #03122B",
"7.	c #02122B",
"8.	c #D0D0D0",
"9.	c #CFCFCF",
"0.	c #BEBEBE",
"a.	c #5D5D5D",
"b.	c #6D6D6D",
"c.	c #232323",
"d.	c #606060",
"e.	c #464646",
"f.	c #585859",
"g.	c #081528",
"h.	c #010F24",
"i.	c #020E24",
"j.	c #020F23",
"k.	c #C7C7C7",
"l.	c #838383",
"m.	c #676767",
"n.	c #222222",
"o.	c #686868",
"p.	c #3A3A3A",
"q.	c #3E4349",
"r.	c #010C1C",
"s.	c #020C1D",
"t.	c #020C1C",
"u.	c #020B1C",
"v.	c #D5D5D5",
"w.	c #5E5E5E",
"x.	c #3B3B3B",
"y.	c #4C4C4C",
"z.	c #030A17",
"A.	c #020915",
"B.	c #010915",
"C.	c #D7D7D7",
"D.	c #D6D6D6",
"E.	c #949494",
"F.	c #5C5C5C",
"G.	c #393939",
"H.	c #383838",
"I.	c #6E6E6E",
"J.	c #01060F",
"K.	c #01060E",
"L.	c #D9D9D9",
"M.	c #C1C1C1",
"N.	c #929292",
"O.	c #444444",
"P.	c #3C3C3C",
"Q.	c #454545",
"R.	c #626262",
"S.	c #010307",
"T.	c #000307",
"U.	c #000308",
"V.	c #010308",
"W.	c #DBDBDB",
"X.	c #8F8F8F",
"Y.	c #7E7E7E",
"Z.	c #000000",
"`.	c #121212",
" +	c #151515",
".+	c #DDDDDD",
"++	c #E5E5E5",
"@+	c #E4E4E4",
"#+	c #F6F6F6",
". . . . . . . . . . . . . . . . . . . . . . ",
"+ @ # # @ @ # @ @ @ # # @ # @ # # # # @ # + ",
"$ % & & & & * & $ = & * & - & & * & = & & - ",
"; ; > > , > > ' ; ) ' , ; ; > ) ; ! ; , , > ",
"~ { ] ^ ~ ~ ~ ~ ~ / ~ ~ ( ~ ~ ~ ~ ~ ] ] _ { ",
": : : : < < < < [ } | 1 2 3 4 5 < 3 < 3 < < ",
"6 6 6 6 6 7 8 9 0 a b b c d e f g 9 9 7 h 8 ",
"i i i i i 6 j k l m n o m p q r s t u v w x ",
"y y y y y z A B C 2 D D E | F G H I J K J K ",
"L L L L L M N O P Q R S T U V W X Y Z ` `  .",
"..........+.@.#.$.Q %.%.%.&.*.=.-.;.>.,.,.'.",
").).).).!.~.{.#.k ].^.^.].]./.(.@._.:.<.<.[.",
"}.}.}.}.|.+.1.N 2.3.3.3.3.3.2.#.4.5.6.7.7.7.",
"8.8.8.8.9.0.;.a.b.*.c.c.c.*.b.d.e.f.g.h.i.j.",
"6 6 6 6 6 k.l.@.m.W n.n.n.W o.X p.q.r.s.t.u.",
"v.v.v.v.v.9.n w.a.=.=.=.=.=.d.x.y.z.A.B.B.B.",
"C.C.C.C.C.D.k.E.@.1.F.H F.4.G.H.I.J.K.K.J.K.",
"L.L.L.L.L.L.D.M.N.N O.P.p.Q.R.F B S.T.U.T.V.",
"W.W.W.W.W.W.W.C.L n X.Y.Y.X.n L k.Z.Z.Z.`. +",
".+.+.+.+.+.+.+.+W.D.9.L L 9.D.W..+!.!.!.!.!.",
"++++++++++++++++++++++@+@+++++++++++++++++++",
"#+#+#+#+#+#+#+#+#+#+#+#+#+#+#+#+#+#+#+#+#+#+"};
