/* XPM */
static char * button_stuck_unfocus_xpm[] = {
"22 22 180 2",
"  	c None",
". 	c #0949B2",
"+ 	c #0945A8",
"@ 	c #0845A8",
"# 	c #0945A9",
"$ 	c #0845A9",
"% 	c #0844A8",
"& 	c #08419E",
"* 	c #08419F",
"= 	c #083D95",
"- 	c #083D94",
"; 	c #073C94",
"> 	c #073D95",
", 	c #083C94",
"' 	c #073D94",
") 	c #083C95",
"! 	c #07398A",
"~ 	c #07388A",
"{ 	c #07398B",
"] 	c #07388B",
"^ 	c #07357F",
"/ 	c #073580",
"( 	c #063580",
"_ 	c #0F397F",
": 	c #0D387E",
"< 	c #073581",
"[ 	c #073481",
"} 	c #0D387F",
"| 	c #093989",
"1 	c #073786",
"2 	c #D3D3D3",
"3 	c #C6C8CD",
"4 	c #123874",
"5 	c #063077",
"6 	c #063177",
"7 	c #204075",
"8 	c #5F6774",
"9 	c #8E8E8E",
"0 	c #9A9A9A",
"a 	c #919191",
"b 	c #656C77",
"c 	c #123876",
"d 	c #063176",
"e 	c #C4C4C4",
"f 	c #9CA6B7",
"g 	c #13346C",
"h 	c #223E6E",
"i 	c #7B7D80",
"j 	c #B7B7B7",
"k 	c #C0C0C0",
"l 	c #BFBFBF",
"m 	c #BBBBBB",
"n 	c #8C8C8C",
"o 	c #636871",
"p 	c #0D316D",
"q 	c #062D6D",
"r 	c #052C6D",
"s 	c #052D6D",
"t 	c #C6C6C6",
"u 	c #C9C9C9",
"v 	c #727272",
"w 	c #A3A3A3",
"x 	c #8D8D8D",
"y 	c #6D6D6D",
"z 	c #6A6A6A",
"A 	c #A4A4A4",
"B 	c #7D7D7D",
"C 	c #4B586F",
"D 	c #052863",
"E 	c #052963",
"F 	c #C8C8C8",
"G 	c #878787",
"H 	c #808080",
"I 	c #7F7F7F",
"J 	c #707070",
"K 	c #828282",
"L 	c #595E65",
"M 	c #042559",
"N 	c #052459",
"O 	c #042459",
"P 	c #CACACA",
"Q 	c #C7C7C7",
"R 	c #646464",
"S 	c #6C6C6C",
"T 	c #717171",
"U 	c #747474",
"V 	c #333333",
"W 	c #757575",
"X 	c #5B5B5B",
"Y 	c #04204F",
"Z 	c #04214F",
"` 	c #CCCCCC",
" .	c #555555",
"..	c #636363",
"+.	c #787878",
"@.	c #656565",
"#.	c #565656",
"$.	c #031D46",
"%.	c #031D45",
"&.	c #041C45",
"*.	c #031C45",
"=.	c #031C46",
"-.	c #CECECE",
";.	c #BEBEBE",
">.	c #525252",
",.	c #7B7B7B",
"'.	c #545454",
").	c #03183B",
"!.	c #03183C",
"~.	c #03193B",
"{.	c #D0D0D0",
"].	c #C5C5C5",
"^.	c #616161",
"/.	c #797979",
"(.	c #7E7E7E",
"_.	c #777777",
":.	c #6B6B6B",
"<.	c #4F4F4F",
"[.	c #041532",
"}.	c #031432",
"|.	c #021431",
"1.	c #021432",
"2.	c #031531",
"3.	c #5D5D5D",
"4.	c #7A7A7A",
"5.	c #8B8B8B",
"6.	c #888888",
"7.	c #868686",
"8.	c #606060",
"9.	c #525253",
"0.	c #021027",
"a.	c #021028",
"b.	c #D5D5D5",
"c.	c #CFCFCF",
"d.	c #585858",
"e.	c #676767",
"f.	c #A8A8A8",
"g.	c #A5A5A5",
"h.	c #848484",
"i.	c #686868",
"j.	c #5A5A5A",
"k.	c #383E45",
"l.	c #020C1D",
"m.	c #020C1E",
"n.	c #010C1E",
"o.	c #D7D7D7",
"p.	c #D4D4D4",
"q.	c #454545",
"r.	c #11151B",
"s.	c #010814",
"t.	c #D9D9D9",
"u.	c #D1D1D1",
"v.	c #B9B9B9",
"w.	c #909090",
"x.	c #5F5F5F",
"y.	c #5E5E5E",
"z.	c #818181",
"A.	c #0D1015",
"B.	c #00040A",
"C.	c #01040A",
"D.	c #DBDBDB",
"E.	c #DADADA",
"F.	c #BABABA",
"G.	c #A2A2A2",
"H.	c #949494",
"I.	c #8A8A8A",
"J.	c #959595",
"K.	c #9E9E9E",
"L.	c #131518",
"M.	c #04070B",
"N.	c #03050A",
"O.	c #DDDDDD",
"P.	c #B1B1B1",
"Q.	c #CBCBCB",
"R.	c #E5E5E5",
"S.	c #E4E4E4",
"T.	c #E2E2E2",
"U.	c #DEDEDE",
"V.	c #E3E3E3",
"W.	c #F6F6F6",
". . . . . . . . . . . . . . . . . . . . . . ",
"+ @ + @ # @ @ + + + $ % @ $ + + @ + @ @ @ + ",
"& & & & & & & & & & & * & * & & & & & * & * ",
"= - - ; - > > , ' - > - - - ' ; , - ; ) > , ",
"! ! ! ~ { ! { ] { ! { { ! ~ { { ~ ! ! ! ! ! ",
"^ / ( _ : < < [ < / } | 1 < < < < < ( ( / [ ",
"2 2 2 2 3 4 5 6 7 8 9 0 a b c d 6 6 6 5 6 d ",
"e e e e e f g h i j k k l m n o p q r q r s ",
"t t t t t t u v w x y z y n A B C D E D E E ",
"F F F F F F G H I J J J J J I K L M N M M O ",
"P P P P P Q R S T U U V W U W z X Y Y Z Y Y ",
"` ` ` ` ` k  ...v +.V V V +.J @.#.$.%.&.*.=.",
"-.-.-.-.-.;.>...J ,.V V V +.J R '.).!.).~.).",
"{.{.{.{.{.].'.^.S /.(.V ,._.:...<.[.}.|.1.2.",
"2 2 2 2 2 P :.3.4.5.6.G 7.G W 8.9.0.0.0.0.a.",
"b.b.b.b.b.c.A d.e.G f.w g.h.i.j.k.l.m.n.m.n.",
"o.o.o.o.o.p.e 6.^.@.@.@.@.@.8.q.r.s.s.s.s.s.",
"t.t.t.t.t.t.u.v.w.:.x.x.y.i.z.G A.B.B.C.C.C.",
"D.D.D.D.D.D.E.c.F.G.H.I.x J.G.K.x L.M.N.N.N.",
"O.O.O.O.O.O.O.D.p.Q v.P.P.v.Q Q.t.Q.Q.Q.Q.Q.",
"R.R.R.R.R.R.R.R.S.T.U.D.D.U.T.V.R.R.R.R.R.R.",
"W.W.W.W.W.W.W.W.W.W.W.W.W.W.W.W.W.W.W.W.W.W."};
