/* XPM */
static char * close_xpm[] = {
"16 16 5 1",
" 	c #FFFFFF",
".	c #C7C7C7",
"+	c #C8C8C8",
"@	c #C9C9C9",
"#	c #FEFEFE",
"                ",
"                ",
"  .++.+@+++++@  ",
"  +          .  ",
"  + #      # +  ",
"  +  ++  ++  +  ",
"  +  ++++@+ #+  ",
"  +   +.@.   +  ",
"  +   +.++   .  ",
"  +  +++.++  +  ",
"  +  ++  +.  @  ",
"  +    #     +  ",
"  +         #+  ",
"  ++++++.+++++  ",
"                ",
"                "};
