/* XPM */
static char * icon_xpm[] = {
"16 16 4 1",
" 	c #FFFFFF",
".	c #C8C8C8",
"+	c #C7C7C7",
"@	c #FEFEFE",
"                ",
"                ",
"  ..++...+....  ",
"  .        @ .  ",
"  .          .  ",
"  +  @    @  .  ",
"  .       @  .  ",
"  .          .  ",
"  .       @  .  ",
"  .  .....+  .  ",
"  .  .....+  .  ",
"  +          .  ",
"  . @        +  ",
"  .........+..  ",
"                ",
"                "};
