/* XPM */
static char * close_pressed_xpm[] = {
"22 22 13 1",
" 	c #504945",
".	c #534C47",
"+	c #58514B",
"@	c #6A6358",
"#	c #6A6357",
"$	c #CDC5A3",
"%	c #D6CDAA",
"&	c #58514A",
"*	c #E6DDB7",
"=	c #ECE3BC",
"-	c #FBF1C7",
";	c #D7CEAB",
">	c #E6DDB6",
"                      ",
"                      ",
"                      ",
"    .+          @#    ",
"   .$%&        #*=#   ",
"   +%-%+      #*-*@   ",
"    &%-%&    #*-*#    ",
"     +%-%+  #*-*#     ",
"      &%-%&#*-*#      ",
"       +%-;>-*#       ",
"        &;-->#        ",
"        #>--;&        ",
"       #*->;-%+       ",
"      #*-*#&%-%&      ",
"     #*-*#  +%-%+     ",
"    #*-*#    &%-%&    ",
"   @*-*#      +%-%+   ",
"   #=*#        &%$.   ",
"    #@          +.    ",
"                      ",
"                      ",
"                      "};
