/* XPM */
static char * close_xpm[] = {
"22 22 60 1",
" 	c #282828",
".	c #272828",
"+	c #272727",
"@	c #272728",
"#	c #262727",
"$	c #2D2C2A",
"%	c #35342F",
"&	c #4F4B40",
"*	c #4F4A3F",
"=	c #262627",
"-	c #262626",
";	c #2C2C2A",
">	c #BDB08F",
",	c #C6B996",
"'	c #34332F",
")	c #4E4A3F",
"!	c #D6C7A2",
"~	c #DCCDA7",
"{	c #252626",
"]	c #35332F",
"^	c #EBDBB2",
"/	c #34332E",
"(	c #252526",
"_	c #34322E",
":	c #242626",
"<	c #242526",
"[	c #33322E",
"}	c #242525",
"|	c #C6B896",
"1	c #4E493F",
"2	c #4D493F",
"3	c #232525",
"4	c #232425",
"5	c #33322D",
"6	c #C6B997",
"7	c #32312D",
"8	c #4D493E",
"9	c #222424",
"0	c #222324",
"a	c #212324",
"b	c #4C493E",
"c	c #31312C",
"d	c #31302C",
"e	c #212323",
"f	c #202323",
"g	c #4C483D",
"h	c #202223",
"i	c #4C483E",
"j	c #202222",
"k	c #1F2223",
"l	c #1F2222",
"m	c #30302B",
"n	c #BCB08F",
"o	c #272826",
"p	c #1F2122",
"q	c #262826",
"r	c #1E2122",
"s	c #1E2121",
"t	c #1E2021",
"u	c #1D2021",
"           .   . .  . ",
"+@+++++++++++@++++++++",
"++++++++++++++++++####",
"####$%##########&*#=##",
"=-=;>,'=-======)!~){=-",
"{{{],^,/{{{{{{)!^!*{{{",
"({{{_,^,_{:{{)!^!):({{",
"<<<<<[,^,[<<)!^!)<<<}<",
"}}}}}}[|^,[1!^!2}}}}}}",
"33433345,^6!^!24344443",
"444444447,^^!844444444",
"999999998!^^,799999999",
"99990908!^!,^|79090009",
"aaaaaab!^!8c|^|daaaaaa",
"aaeea8!^!8eec|^|ceaeea",
"ffefg!^!gfhhhd|^|dhhff",
"hhh8!^!ihhhhhhd|^|dhhh",
"jklg~!ghllklkklm|nollk",
"llplggppppppppppdqpppp",
"rrppprrprprrrprrrrrrrr",
"rrrrrrrrrrrrrrrrsrsrrr",
"tttssttttutsuuutuutuuu"};
