/* XPM */
static char * close_un_xpm[] = {
"22 22 57 1",
" 	c #282828",
".	c #272828",
"+	c #272727",
"@	c #272728",
"#	c #262727",
"$	c #2B2B29",
"%	c #33312E",
"&	c #49443B",
"*	c #48443B",
"=	c #262627",
"-	c #262626",
";	c #AB9E82",
">	c #B4A588",
",	c #32302D",
"'	c #C2B293",
")	c #C8B897",
"!	c #252626",
"~	c #32312D",
"{	c #B3A588",
"]	c #D5C4A1",
"^	c #31302D",
"/	c #252526",
"(	c #31302C",
"_	c #242626",
":	c #48433B",
"<	c #242526",
"[	c #242525",
"}	c #302F2C",
"|	c #47433A",
"1	c #232525",
"2	c #232425",
"3	c #B4A688",
"4	c #302F2B",
"5	c #222424",
"6	c #2F2E2B",
"7	c #222324",
"8	c #212324",
"9	c #464239",
"0	c #2E2E2B",
"a	c #212323",
"b	c #202323",
"c	c #202223",
"d	c #2E2D2A",
"e	c #2E2E2A",
"f	c #202222",
"g	c #1F2223",
"h	c #1F2222",
"i	c #454239",
"j	c #2D2D2A",
"k	c #AB9D81",
"l	c #262725",
"m	c #1F2122",
"n	c #252625",
"o	c #1E2122",
"p	c #1E2121",
"q	c #1E2021",
"r	c #1D2021",
"           .   . .  . ",
"+@+++++++++++@++++++++",
"++++++++++++++++++####",
"####$%##########&*#=##",
"=-=$;>,=-======*')*!=-",
"!!!~{]{^!!!!!!*']'*!!!",
"/!!!({]{^!_!!:']':_/!!",
"<<<<<({]{(<<:']':<<<[<",
"[[[[[[}{]{}|']'|[[[[[[",
"1121112}{]3']'|2122221",
"2222222243]]'|22222222",
"55555555|']]3655555555",
"5555757|']'3]{65757775",
"8888889']'90{]{6888888",
"88aa89']'9aa0{]{0a8aa8",
"bbab9']'9bcccd{]{dccbb",
"ccc9']'9ccccccd{]{eccc",
"fgh9)'ichhghgghj{klhhg",
"hhmhi9mmmmmmmmmmdnmmmm",
"oommmoomomooomoooooooo",
"oooooooooooooooopopooo",
"qqqppqqqqrqprrrqrrqrrr"};
