/* XPM */
static char * stick_pressed_xpm[] = {
"22 22 4 1",
" 	c #504945",
".	c #D9D0AC",
"+	c #E9E0B9",
"@	c #FBF1C7",
"                      ",
"                      ",
"                      ",
"                      ",
"                      ",
"                      ",
"                      ",
"                      ",
"                      ",
"         .++.         ",
"         +@@+         ",
"         +@@+         ",
"         .++.         ",
"                      ",
"                      ",
"                      ",
"                      ",
"                      ",
"                      ",
"                      ",
"                      ",
"                      "};
