/* XPM */
static char * stick_un_xpm[] = {
"22 22 31 1",
" 	c #282828",
".	c #272828",
"+	c #272727",
"@	c #272728",
"#	c #262727",
"$	c #262627",
"%	c #262626",
"&	c #252626",
"*	c #252526",
"=	c #242626",
"-	c #242526",
";	c #242525",
">	c #232525",
",	c #232425",
"'	c #B6A78A",
")	c #C5B595",
"!	c #D5C4A1",
"~	c #222424",
"{	c #222324",
"]	c #212324",
"^	c #212323",
"/	c #202323",
"(	c #202223",
"_	c #202222",
":	c #1F2223",
"<	c #1F2222",
"[	c #1F2122",
"}	c #1E2122",
"|	c #1E2121",
"1	c #1E2021",
"2	c #1D2021",
"           .   . .  . ",
"+@+++++++++++@++++++++",
"++++++++++++++++++####",
"#################$#$##",
"$%$$$%$$%$$$$$$$%%$&$%",
"&&&&&&&&&&&&&&&&&&&&&&",
"*&&&&&&&&&=&&&&&&&=*&&",
"--------------------;-",
";;;;;;;;;;;;;;;;;;;;;;",
">>,>>>,>,'))',,,>,,,,>",
",,,,,,,,,)!!),,,,,,,,,",
"~~~~~~~~~)!!)~~~~~~~~~",
"~~~~{~{{{'))'~{~{~{{{~",
"]]]]]]]]]]]]]]]]]]]]]]",
"]]^^]^^^^]^^^]^^^^]^^]",
"//^///(^//(((((((/((//",
"((((((((((((((((((((((",
"_:<:::<(<<:<::<:<<<<<:",
"<<[<[[[[[[[[[[[[<[[[[[",
"}}[[[}}[}[}}}[}}}}}}}}",
"}}}}}}}}}}}}}}}}|}|}}}",
"111||111121|2221221222"};
