/* XPM */
static char * max1_xpm[] = {
"20 20 135 2",
"  	c None",
". 	c #768158",
"+ 	c #717C55",
"@ 	c #727C55",
"# 	c #717D55",
"$ 	c #727C54",
"% 	c #717C54",
"& 	c #717D54",
"* 	c #6D7852",
"= 	c #6D7851",
"- 	c #6D7752",
"; 	c #6E7751",
"> 	c #6E7752",
", 	c #6D7751",
"' 	c #6E7851",
") 	c #69734E",
"! 	c #68734E",
"~ 	c #000000",
"{ 	c #646D4B",
"] 	c #646E4B",
"^ 	c #FEFBF9",
"/ 	c #FEF9F5",
"( 	c #FDF6F0",
"_ 	c #FCF4EB",
": 	c #FCF1E7",
"< 	c #FAEFE2",
"[ 	c #FAEDDE",
"} 	c #F9EADA",
"| 	c #F9E8D5",
"1 	c #F8E6D1",
"2 	c #F7E3CC",
"3 	c #F6E1C8",
"4 	c #656E4B",
"5 	c #656E4A",
"6 	c #606947",
"7 	c #606847",
"8 	c #5F6848",
"9 	c #FDF8F5",
"0 	c #FCF7F0",
"a 	c #FCF4EC",
"b 	c #FBF2E7",
"c 	c #FAF0E3",
"d 	c #FAECDE",
"e 	c #F9EBDA",
"f 	c #F7E4CC",
"g 	c #F7E1C8",
"h 	c #F6DEC4",
"i 	c #606948",
"j 	c #5B6444",
"k 	c #5C6444",
"l 	c #FBEFE3",
"m 	c #A77756",
"n 	c #F6DFC3",
"o 	c #F5DDBF",
"p 	c #575F41",
"q 	c #575F40",
"r 	c #FBF1E7",
"s 	c #F9E8D6",
"t 	c #F4D9BA",
"u 	c #576040",
"v 	c #525A3D",
"w 	c #535B3D",
"x 	c #535A3E",
"y 	c #FAEDDF",
"z 	c #F8E5D1",
"A 	c #F6DFC4",
"B 	c #F5DABB",
"C 	c #F4D7B6",
"D 	c #535A3D",
"E 	c #535B3E",
"F 	c #4E563B",
"G 	c #4E553B",
"H 	c #4F553B",
"I 	c #F8E8D6",
"J 	c #F5DCBF",
"K 	c #F3D8B6",
"L 	c #F3D5B1",
"M 	c #4F563B",
"N 	c #4A5037",
"O 	c #495137",
"P 	c #495037",
"Q 	c #F3D5B2",
"R 	c #F2D3AD",
"S 	c #4A5137",
"T 	c #4A5036",
"U 	c #495136",
"V 	c #454C34",
"W 	c #454C33",
"X 	c #FAEBDA",
"Y 	c #F2D1A9",
"Z 	c #464C33",
"` 	c #414730",
" .	c #F4DABA",
"..	c #F2D0A9",
"+.	c #F1CEA5",
"@.	c #484F36",
"#.	c #485036",
"$.	c #494F36",
"%.	c #F8E6D0",
"&.	c #F3D7B6",
"*.	c #F2D3AE",
"=.	c #F1CCA0",
"-.	c #484F35",
";.	c #495035",
">.	c #50573B",
",.	c #50583B",
"'.	c #51583C",
").	c #F7E3CD",
"!.	c #F5DABA",
"~.	c #F3D8B7",
"{.	c #F2D2AE",
"].	c #F1CFA4",
"^.	c #F0CCA0",
"/.	c #F0C99B",
"(.	c #51583B",
"_.	c #585F41",
":.	c #576041",
"<.	c #586041",
"[.	c #F1CEA4",
"}.	c #F0CA9B",
"|.	c #EFC797",
"1.	c #5F6846",
"2.	c #606846",
"3.	c #5F6847",
"4.	c #67714C",
"5.	c #67704D",
"6.	c #66714D",
"7.	c #67704C",
"8.	c #67714D",
"9.	c #6F7852",
"0.	c #6E7952",
"a.	c #6F7953",
"b.	c #6F7952",
"c.	c #6E7953",
"d.	c #6E7852",
". . . . . . . . . . . . . . . . . . . . ",
"+ @ + @ # + + $ @ # + $ + + % % % @ & $ ",
"* = - ; > , - , , ' * - > , = , = = ' ; ",
") ! ! ~ ~ ~ ~ ~ ~ ~ ~ ~ ~ ~ ~ ~ ~ ) ) ) ",
"{ ] { ~ ^ / ( _ : < [ } | 1 2 3 ~ ] 4 5 ",
"6 7 8 ~ 9 0 a b c d e | 1 f g h ~ i i 6 ",
"j k j ~ ( a : l m m m m m m n o ~ k k j ",
"p q q ~ a r < d m s 1 f 3 m o t ~ p u q ",
"v w x ~ r l y } m z 2 3 A m B C ~ D E w ",
"F G H ~ l d e I m 2 3 A J m K L ~ H H M ",
"N O P ~ [ } m m m g A J B m Q R ~ S T U ",
"V W W ~ X | m 2 m m m m m m R Y ~ V Z W ",
"` ` ` ~ s 1 m 3 n m  .C Q R ..+.~ ` ` ` ",
"@.#.$.~ %.f m m m m &.Q *...+.=.~ -.;.-.",
">.,.'.~ ).g A J !.~.Q {...].^./.~ >.(.(.",
"_.:.<.~ 3 h J B &.L R ..[.=.}.|.~ p <.<.",
"7 1.2.~ ~ ~ ~ ~ ~ ~ ~ ~ ~ ~ ~ ~ ~ 7 3.7 ",
"4.4.5.5.5.5.5.6.5.7.5.8.7.6.7.6.5.7.7.7.",
"9.0.0.9.a.0.b.9.b.c.c.9.0.d.0.a.0.c.9.9.",
". . . . . . . . . . . . . . . . . . . . "};
