/* XPM */
static char * stick2a_xpm[] = {
"20 20 144 2",
"  	c None",
". 	c #768158",
"+ 	c #717C55",
"@ 	c #727C55",
"# 	c #717D55",
"$ 	c #727C54",
"% 	c #717C54",
"& 	c #717D54",
"* 	c #6D7852",
"= 	c #6D7851",
"- 	c #6D7752",
"; 	c #6E7751",
"> 	c #6E7752",
", 	c #6D7751",
"' 	c #6E7851",
") 	c #69734E",
"! 	c #68734E",
"~ 	c #000000",
"{ 	c #646D4B",
"] 	c #646E4B",
"^ 	c #722D07",
"/ 	c #74300B",
"( 	c #77330D",
"_ 	c #793611",
": 	c #7B3A14",
"< 	c #7D3D18",
"[ 	c #80411B",
"} 	c #82441F",
"| 	c #844722",
"1 	c #864A25",
"2 	c #894D29",
"3 	c #8B502C",
"4 	c #656E4B",
"5 	c #656E4A",
"6 	c #606947",
"7 	c #606847",
"8 	c #5F6848",
"9 	c #77340E",
"0 	c #7B3A15",
"a 	c #7F401B",
"b 	c #82431E",
"c 	c #854722",
"d 	c #894D28",
"e 	c #8D532F",
"f 	c #606948",
"g 	c #5B6444",
"h 	c #5C6444",
"i 	c #76330E",
"j 	c #844622",
"k 	c #864925",
"l 	c #884D29",
"m 	c #905633",
"n 	c #575F41",
"o 	c #575F40",
"p 	c #793711",
"q 	c #7D3D17",
"r 	c #8D5330",
"s 	c #905733",
"t 	c #925A36",
"u 	c #576040",
"v 	c #525A3D",
"w 	c #535B3D",
"x 	c #535A3E",
"y 	c #7B3915",
"z 	c #80401B",
"A 	c #82431F",
"B 	c #874A25",
"C 	c #884C29",
"D 	c #8F5733",
"E 	c #945C39",
"F 	c #535A3D",
"G 	c #535B3E",
"H 	c #4E563B",
"I 	c #4E553B",
"J 	c #4F553B",
"K 	c #844721",
"L 	c #894C29",
"M 	c #8F5732",
"N 	c #945C3A",
"O 	c #96603D",
"P 	c #4F563B",
"Q 	c #4A5037",
"R 	c #495137",
"S 	c #495037",
"T 	c #854622",
"U 	c #874925",
"V 	c #8E5330",
"W 	c #905732",
"X 	c #925936",
"Y 	c #945D3A",
"Z 	c #97603D",
"` 	c #986340",
" .	c #4A5137",
"..	c #4A5036",
"+.	c #495136",
"@.	c #454C34",
"#.	c #454C33",
"$.	c #8D5430",
"%.	c #925A37",
"&.	c #97603C",
"*.	c #996340",
"=.	c #9B6743",
"-.	c #464C33",
";.	c #414730",
">.	c #894C28",
",.	c #9B6644",
"'.	c #9D6947",
").	c #484F36",
"!.	c #485036",
"~.	c #494F36",
"{.	c #945D39",
"].	c #9A6644",
"^.	c #9E6947",
"/.	c #9F6C4A",
"(.	c #484F35",
"_.	c #495035",
":.	c #50573B",
"<.	c #50583B",
"[.	c #51583C",
"}.	c #986341",
"|.	c #9B6643",
"1.	c #9F6D4B",
"2.	c #A2704E",
"3.	c #51583B",
"4.	c #585F41",
"5.	c #576041",
"6.	c #586041",
"7.	c #8F5633",
"8.	c #9D6A47",
"9.	c #A47351",
"0.	c #5F6846",
"a.	c #606846",
"b.	c #5F6847",
"c.	c #67714C",
"d.	c #67704D",
"e.	c #66714D",
"f.	c #67704C",
"g.	c #67714D",
"h.	c #6F7852",
"i.	c #6E7952",
"j.	c #6F7953",
"k.	c #6F7952",
"l.	c #6E7953",
"m.	c #6E7852",
". . . . . . . . . . . . . . . . . . . . ",
"+ @ + @ # + + $ @ # + $ + + % % % @ & $ ",
"* = - ; > , - , , ' * - > , = , = = ' ; ",
") ! ! ~ ~ ~ ~ ~ ~ ~ ~ ~ ~ ~ ~ ~ ~ ) ) ) ",
"{ ] { ~ ^ / ( _ : < [ } | 1 2 3 ~ ] 4 5 ",
"6 7 8 ~ / 9 _ 0 < a b c 1 d 3 e ~ f f 6 ",
"g h g ~ i _ : < a } j k l 3 e m ~ h h g ",
"n o o ~ p : q a b j k d 3 r s t ~ n u o ",
"v w x ~ y < z A | B C 3 r D t E ~ F G w ",
"H I J ~ < z } K B L 3 r M t N O ~ J J P ",
"Q R S ~ a A T U d 3 V W X Y Z ` ~  ...+.",
"@.#.#.~ b j B l 3 $.m %.Y &.*.=.~ @.-.#.",
";.;.;.~ | 1 >.3 r m t Y &.` ,.'.~ ;.;.;.",
").!.~.~ B d 3 V s X {.O ` ].^./.~ (._.(.",
":.<.[.~ d 3 r M t {.O }.|.'.1.2.~ :.3.3.",
"4.5.6.~ 3 e 7.X {.Z *.|.8./.2.9.~ n 6.6.",
"7 0.a.~ ~ ~ ~ ~ ~ ~ ~ ~ ~ ~ ~ ~ ~ 7 b.7 ",
"c.c.d.d.d.d.d.e.d.f.d.g.f.e.f.e.d.f.f.f.",
"h.i.i.h.j.i.k.h.k.l.l.h.i.m.i.j.i.l.h.h.",
". . . . . . . . . . . . . . . . . . . . "};
