/* XPM */
static char * stick1a_xpm[] = {
"20 20 92 2",
"  	c None",
". 	c #768158",
"+ 	c #717C55",
"@ 	c #727C55",
"# 	c #717D55",
"$ 	c #727C54",
"% 	c #717C54",
"& 	c #717D54",
"* 	c #6D7852",
"= 	c #6D7851",
"- 	c #6D7752",
"; 	c #6E7751",
"> 	c #6E7752",
", 	c #6D7751",
"' 	c #6E7851",
") 	c #69734E",
"! 	c #68734E",
"~ 	c #000000",
"{ 	c #646D4B",
"] 	c #646E4B",
"^ 	c #656E4B",
"/ 	c #656D4B",
"( 	c #656D4A",
"_ 	c #646D4A",
": 	c #646E4A",
"< 	c #656E4A",
"[ 	c #606947",
"} 	c #606847",
"| 	c #5F6848",
"1 	c #606948",
"2 	c #5B6444",
"3 	c #5C6444",
"4 	c #575F41",
"5 	c #575F40",
"6 	c #576041",
"7 	c #585F40",
"8 	c #576040",
"9 	c #525A3D",
"0 	c #535B3D",
"a 	c #535A3E",
"b 	c #535A3D",
"c 	c #535B3E",
"d 	c #525A3E",
"e 	c #525B3D",
"f 	c #4E563B",
"g 	c #4E553B",
"h 	c #4F553B",
"i 	c #4F563B",
"j 	c #4A5037",
"k 	c #495137",
"l 	c #495037",
"m 	c #4A5137",
"n 	c #4A5136",
"o 	c #4A5036",
"p 	c #495136",
"q 	c #454C34",
"r 	c #454C33",
"s 	c #464C33",
"t 	c #454B33",
"u 	c #464C34",
"v 	c #414730",
"w 	c #484F36",
"x 	c #485036",
"y 	c #494F36",
"z 	c #494F35",
"A 	c #495036",
"B 	c #484F35",
"C 	c #495035",
"D 	c #50573B",
"E 	c #50583B",
"F 	c #51583C",
"G 	c #50583C",
"H 	c #50573C",
"I 	c #51573B",
"J 	c #51583B",
"K 	c #585F41",
"L 	c #586041",
"M 	c #586042",
"N 	c #5F6846",
"O 	c #606846",
"P 	c #5F6847",
"Q 	c #67714C",
"R 	c #67704D",
"S 	c #66714D",
"T 	c #67704C",
"U 	c #67714D",
"V 	c #6F7852",
"W 	c #6E7952",
"X 	c #6F7953",
"Y 	c #6F7952",
"Z 	c #6E7953",
"` 	c #6E7852",
". . . . . . . . . . . . . . . . . . . . ",
"+ @ + @ # + + $ @ # + $ + + % % % @ & $ ",
"* = - ; > , - , , ' * - > , = , = = ' ; ",
") ! ! ~ ~ ~ ~ ~ ~ ~ ~ ~ ~ ~ ~ ~ ~ ) ) ) ",
"{ ] { ~ ] ^ / ( ^ _ : / ] ] / { ~ ] ^ < ",
"[ } | ~ 1 1 [ 1 } [ } [ [ [ [ } ~ 1 1 [ ",
"2 3 2 ~ 2 2 3 2 3 3 3 2 2 3 2 2 ~ 3 3 2 ",
"4 5 5 ~ 6 7 7 5 4 5 5 5 4 4 4 6 ~ 4 8 5 ",
"9 0 a ~ b c d e e a a d a e b 0 ~ b c 0 ",
"f g h ~ i f g h h f i h i h f g ~ h h i ",
"j k l ~ m n m l k j l n o j m l ~ m o p ",
"q r r ~ r s q t r q q q s u u r ~ q s r ",
"v v v ~ v v v v v v v v v v v v ~ v v v ",
"w x y ~ z w z x A x x y y y z A ~ B C B ",
"D E F ~ D D D F G D H I G H F E ~ D J J ",
"K 6 L ~ 6 6 6 L L M K 6 L L M L ~ 4 L L ",
"} N O ~ ~ ~ ~ ~ ~ ~ ~ ~ ~ ~ ~ ~ ~ } P } ",
"Q Q R R R R R S R T R U T S T S R T T T ",
"V W W V X W Y V Y Z Z V W ` W X W Z V V ",
". . . . . . . . . . . . . . . . . . . . "};
