/* XPM */
static char * stick2_xpm[] = {
"20 20 147 2",
"  	c None",
". 	c #768158",
"+ 	c #717C55",
"@ 	c #727C55",
"# 	c #717D55",
"$ 	c #727C54",
"% 	c #717C54",
"& 	c #717D54",
"* 	c #6D7852",
"= 	c #6D7851",
"- 	c #6D7752",
"; 	c #6E7751",
"> 	c #6E7752",
", 	c #6D7751",
"' 	c #6E7851",
") 	c #69734E",
"! 	c #68734E",
"~ 	c #000000",
"{ 	c #646D4B",
"] 	c #646E4B",
"^ 	c #EBC393",
"/ 	c #E7C090",
"( 	c #E5BC8E",
"_ 	c #E1B98B",
": 	c #DEB588",
"< 	c #DCB285",
"[ 	c #D8AE82",
"} 	c #D5AB7F",
"| 	c #D3A77D",
"1 	c #CFA47B",
"2 	c #CDA077",
"3 	c #C99D75",
"4 	c #656E4B",
"5 	c #656E4A",
"6 	c #606947",
"7 	c #606847",
"8 	c #5F6848",
"9 	c #E8BF90",
"0 	c #E5BC8D",
"a 	c #E2B98B",
"b 	c #DCB185",
"c 	c #D9AE82",
"d 	c #D5AA80",
"e 	c #D2A77D",
"f 	c #CFA47A",
"g 	c #CDA177",
"h 	c #C69A71",
"i 	c #606948",
"j 	c #5B6444",
"k 	c #5C6444",
"l 	c #E2B98A",
"m 	c #D0A47A",
"n 	c #CCA078",
"o 	c #C99D74",
"p 	c #C3966F",
"q 	c #575F41",
"r 	c #575F40",
"s 	c #E2B88B",
"t 	c #DFB588",
"u 	c #DBB285",
"v 	c #D8AF82",
"w 	c #D2A77C",
"x 	c #CCA077",
"y 	c #C69A72",
"z 	c #C0936C",
"A 	c #576040",
"B 	c #525A3D",
"C 	c #535B3D",
"D 	c #535A3E",
"E 	c #D6AB80",
"F 	c #CCA177",
"G 	c #C69972",
"H 	c #C0926C",
"I 	c #BD8F69",
"J 	c #535A3D",
"K 	c #535B3E",
"L 	c #4E563B",
"M 	c #4E553B",
"N 	c #4F553B",
"O 	c #D6AB7F",
"P 	c #BD8F6A",
"Q 	c #B98C67",
"R 	c #4F563B",
"S 	c #4A5037",
"T 	c #495137",
"U 	c #495037",
"V 	c #D8AF83",
"W 	c #D5AA7F",
"X 	c #D2A87D",
"Y 	c #BF926C",
"Z 	c #BA8C67",
"` 	c #B78864",
" .	c #4A5137",
"..	c #4A5036",
"+.	c #495136",
"@.	c #454C34",
"#.	c #454C33",
"$.	c #D5AB80",
"%.	c #CCA178",
"&.	c #C0936D",
"*.	c #BA8B67",
"=.	c #B38561",
"-.	c #464C33",
";.	c #414730",
">.	c #C2976E",
",.	c #B68964",
"'.	c #B1815F",
").	c #484F36",
"!.	c #485036",
"~.	c #494F36",
"{.	c #B98C66",
"].	c #B48561",
"^.	c #B1815E",
"/.	c #AD7E5C",
"(.	c #484F35",
"_.	c #495035",
":.	c #50573B",
"<.	c #50583B",
"[.	c #51583C",
"}.	c #BC9069",
"|.	c #BA8C66",
"1.	c #B78963",
"2.	c #B0815E",
"3.	c #AA7A59",
"4.	c #51583B",
"5.	c #585F41",
"6.	c #576041",
"7.	c #586041",
"8.	c #C0926D",
"9.	c #B68864",
"0.	c #B0815F",
"a.	c #AA7B59",
"b.	c #A77756",
"c.	c #5F6846",
"d.	c #606846",
"e.	c #5F6847",
"f.	c #67714C",
"g.	c #67704D",
"h.	c #66714D",
"i.	c #67704C",
"j.	c #67714D",
"k.	c #6F7852",
"l.	c #6E7952",
"m.	c #6F7953",
"n.	c #6F7952",
"o.	c #6E7953",
"p.	c #6E7852",
". . . . . . . . . . . . . . . . . . . . ",
"+ @ + @ # + + $ @ # + $ + + % % % @ & $ ",
"* = - ; > , - , , ' * - > , = , = = ' ; ",
") ! ! ~ ~ ~ ~ ~ ~ ~ ~ ~ ~ ~ ~ ~ ~ ) ) ) ",
"{ ] { ~ ^ / ( _ : < [ } | 1 2 3 ~ ] 4 5 ",
"6 7 8 ~ 9 0 a : b c d e f g 3 h ~ i i 6 ",
"j k j ~ 0 l : < c d e m n o h p ~ k k j ",
"q r r ~ s t u v } w f x o y p z ~ q A r ",
"B C D ~ t < [ E e f F o G p H I ~ J K C ",
"L M N ~ < c O e f x o y p H P Q ~ N N R ",
"S T U ~ V W X m F o y p Y P Z ` ~  ...+.",
"@.#.#.~ $.e f %.3 G p &.I *.` =.~ @.-.#.",
";.;.;.~ e m n o y >.H I Z ,.=.'.~ ;.;.;.",
").!.~.~ f n 3 y p z I {.` ].^./.~ (._.(.",
":.<.[.~ %.3 G p &.}.|.1.=.2./.3.~ :.4.4.",
"5.6.7.~ o G p 8.P Q 9.=.0./.a.b.~ q 7.7.",
"7 c.d.~ ~ ~ ~ ~ ~ ~ ~ ~ ~ ~ ~ ~ ~ 7 e.7 ",
"f.f.g.g.g.g.g.h.g.i.g.j.i.h.i.h.g.i.i.i.",
"k.l.l.k.m.l.n.k.n.o.o.k.l.p.l.m.l.o.k.k.",
". . . . . . . . . . . . . . . . . . . . "};
