/* XPM */
static char * iconbarf_xpm[] = {
"119 17 67 1",
" 	c None",
".	c #426485",
"+	c #456483",
"@	c #7194B5",
"#	c #496988",
"$	c #425160",
"%	c #507090",
"&	c #92B7DC",
"*	c #92B8DB",
"=	c #92B8DC",
"-	c #92B7DB",
";	c #567697",
">	c #4B5D6F",
",	c #8BB0D4",
"'	c #8BB0D3",
")	c #8BAFD4",
"!	c #8BAFD3",
"~	c #5D7E9F",
"{	c #84A8CC",
"]	c #84A9CC",
"^	c #84A8CB",
"/	c #84A9CB",
"(	c #6284A5",
"_	c #7DA1C4",
":	c #7DA0C4",
"<	c #7DA1C3",
"[	c #7DA0C3",
"}	c #698BAD",
"|	c #7699BB",
"1	c #7699BC",
"2	c #769ABB",
"3	c #769ABC",
"4	c #6F92B4",
"5	c #6F92B3",
"6	c #6F91B4",
"7	c #6F91B3",
"8	c #7598BA",
"9	c #688AAB",
"0	c #6889AB",
"a	c #688AAC",
"b	c #6889AC",
"c	c #485A6C",
"d	c #7C9FC2",
"e	c #6182A4",
"f	c #6182A3",
"g	c #6183A4",
"h	c #6183A3",
"i	c #455666",
"j	c #81A5C8",
"k	c #5A7B9B",
"l	c #5A7A9B",
"m	c #5A7A9C",
"n	c #5A7B9C",
"o	c #88ADD0",
"p	c #537394",
"q	c #537393",
"r	c #537493",
"s	c #537494",
"t	c #8EB3D7",
"u	c #4C6C8B",
"v	c #4C6C8C",
"w	c #4C6B8B",
"x	c #4C6B8C",
"y	c #435465",
"z	c #95BADF",
"A	c #48729A",
"B	c #3D5A76",
"...................................................................................................................++++",
"@@@@@@@@@@@@@@@@@@@@@@@@@@@@@@@@@@@@@@@@@@@@@@@@@@@@@@@@@@@@@@@@@@@@@@@@@@@@@@@@@@@@@@@@@@@@@@@@@@@@@@@@@@@@@@@@@@@@@@@",
"###+##$$$$$$$$$$$$$$$$$$$$$$$$$$$$$$$$$$$$$$$$$$$$$$$$$$$$$$$$$$$$$$$$$$$$$$$$$$$$$$$$$$$$$$$$$$$$$$$$$$$$$$$$$$$++####",
"%%%%%$$&*&&&&*&&==&&&*&&&&&=-&-==&-&-=&*&=&&&=&*=&=&=&&=&-&&*=&&===&&=&=&===-=&&==&=&=&&&&&-&===&=-=&=&=&=*&&&&&$$%%%%%",
";;;;>,,,,,,',),!)),,,,,),,,,),,,,,,,)',,),',),',,,,,''!,),),,,!',,,,),,,,,,,,''',,),,,,',''',),!),),,),,,',,,,',))>;;;;",
"~~~$${{{]]^{{/{{{/{{{{^]{{{{]{^^]^^{{{{{{{]{{]^^^/{]^]^]{{^{]{{{]]^]^{^{]]{]{{]{]{]^^{{{{{/{{]{{{{]^]{{]]/{{/]]^{{$$~~~",
"((($___:<[__:::__[<__[<:_::_:_[___<<<[:_[<__[_<<<:<:__<[_[<:[_:_<_<:[<_<<_<<___:_<______<__<_:[_[_<_[<[___<_<<_::_:$(((",
"}}}$|1|1111||||111111|1|1111||11|111111112||||11||1||||111|33|1|||11|13|1|1||1||1111||1|11111|11131|1|11|21111||1|1$}}}",
"444$564474676555675557566674476565666775755754465564445557557447776675544665576466664465465555575467675564657476476$444",
"888$909a99aa999aa9999a90a9a99aaa90aaa99a9a9aaba9099aa99099a09a999a9aaa999a9a9a99a9a0a99990a999a9a9a999a999a9a9a9999c888",
"ddd$efeffeffgfhgefffffeeffffefffgfehfegeffhfeheffeefefhffffgheffhghhgfffffffhfefefehehhfhgeheffheffhgfheegeeefffffeiddd",
"jjj$$kkkklmlkkllknkkkkkkkmkklkknlllkkllkkmlkkkklkklmknmkknkkkkklknkknlkkkmmknkkknkkmkkllnkkkmklmlmknknnlknknnknklk$$jjj",
"oooo$pqqrqpqpqqppqrqqrsqpqqqqqqsrqqqqprqqqpqqrqqqqqqpqpqqqqpqqqqqqqqqpqpqqqqqpqrrqqqqrsqqsqqqqqqqsqqpqrqrqqqpqqqqq$oooo",
"tttt$$$uuvuwuuuuuuuuuuxwuwuwuuwwwwwuwwwuuwwwuuuuwwwuuwuuwuuuwuuuwuwwxxxwuuuxwwwwwuwuuwuuwwuwuwwwwuuwuuuxuuwuwwwuyy$tttt",
"zzzzzz$$$$$$$$$$$$$$$$$$$$$$$$$$$$$$$$$$$$$$$$$$$$$$$$$$$$$$$$$$$$$$$$$$$$$$$$$$$$$$$$$$$$$$$$$$$$$$$$$$$$$$$$$$$zzzzzz",
"AAAAAAAAAAAAAAAAAAAAAAAAAAAAAAAAAAAAAAAAAAAAAAAAAAAAAAAAAAAAAAAAAAAAAAAAAAAAAAAAAAAAAAAAAAAAAAAAAAAAAAAAAAAAAAAAAAAAAAA",
"BBBBBBBBBBBBBBBBBBBBBBBBBBBBBBBBBBBBBBBBBBBBBBBBBBBBBBBBBBBBBBBBBBBBBBBBBBBBBBBBBBBBBBBBBBBBBBBBBBBBBBBBBBBBBBBBBBBBBBB"};
