/* XPM */
static char * bullet_hilite_xpm[] = {
"10 10 2 1",
" 	c None",
".	c #23262E",
"          ",
"          ",
"          ",
"          ",
"    ..    ",
"    ..    ",
"          ",
"          ",
"          ",
"          "};
