/* XPM */
static char * close_pressed_xpm[] = {
"22 22 9 1",
" 	c #5A6A50",
".	c #5C6C53",
"+	c #68745F",
"@	c #989B92",
"#	c #808779",
"$	c #7C8475",
"%	c #5B6A51",
"&	c #5B6B51",
"*	c #7C8474",
"                      ",
" .++++++++++++++++++. ",
" +@@@@@@@@@@@@@@@@@@+ ",
" +@@@@@@@@@@@@@@@@@@+ ",
" +@@#$@@@@@@@@@@$#@@+ ",
" +@@$ $@@@@@@@@$%$@@+ ",
" +@@@$ $@@@@@@$&$@@@+ ",
" +@@@@$ $@@@@$%$@@@@+ ",
" +@@@@@$ $@@$&$@@@@@+ ",
" +@@@@@@$ **%$@@@@@@+ ",
" +@@@@@@@*  *@@@@@@@+ ",
" +@@@@@@@*  *@@@@@@@+ ",
" +@@@@@@$%** $@@@@@@+ ",
" +@@@@@$&$@@$ $@@@@@+ ",
" +@@@@$%$@@@@$ $@@@@+ ",
" +@@@$&$@@@@@@$ $@@@+ ",
" +@@$%$@@@@@@@@$ $@@+ ",
" +@@#$@@@@@@@@@@$#@@+ ",
" +@@@@@@@@@@@@@@@@@@+ ",
" +@@@@@@@@@@@@@@@@@@+ ",
" .++++++++++++++++++. ",
"                      "};
