/* XPM */
static char * stick_xpm[] = {
"22 22 5 1",
" 	c #5A6A50",
".	c #606F57",
"+	c #788472",
"@	c #CFD4CD",
"#	c #8C9587",
"                      ",
" .++++++++++++++++++. ",
" +@@@@@@@@@@@@@@@@@@+ ",
" +@@@@@@@@@@@@@@@@@@+ ",
" +@@@@@@@@@@@@@@@@@@+ ",
" +@@@@@@@@@@@@@@@@@@+ ",
" +@@@@@@@@@@@@@@@@@@+ ",
" +@@@@@@@@@@@@@@@@@@+ ",
" +@@@@@@@@@@@@@@@@@@+ ",
" +@@@@@@@#++#@@@@@@@+ ",
" +@@@@@@@+  +@@@@@@@+ ",
" +@@@@@@@+  +@@@@@@@+ ",
" +@@@@@@@#++#@@@@@@@+ ",
" +@@@@@@@@@@@@@@@@@@+ ",
" +@@@@@@@@@@@@@@@@@@+ ",
" +@@@@@@@@@@@@@@@@@@+ ",
" +@@@@@@@@@@@@@@@@@@+ ",
" +@@@@@@@@@@@@@@@@@@+ ",
" +@@@@@@@@@@@@@@@@@@+ ",
" +@@@@@@@@@@@@@@@@@@+ ",
" .++++++++++++++++++. ",
"                      "};
