/* XPM */
static char * min_pressed_xpm[] = {
"22 22 10 1",
" 	c #5A6A50",
".	c #5C6C53",
"+	c #68745F",
"@	c #989B92",
"#	c #8C9186",
"$	c #6F7A67",
"%	c #858B7E",
"&	c #898E82",
"*	c #616F58",
"=	c #7F8778",
"                      ",
" .++++++++++++++++++. ",
" +@@@@@@@@@@@@@@@@@@+ ",
" +@@@@@@@@@@@@@@@@@@+ ",
" +@@@@@@@@@@@@@@@@@@+ ",
" +@@@@@@@@@@@@@@@@@@+ ",
" +@@@@@@@@@@@@@@@@@@+ ",
" +@@@@@@@@@@@@@@@@@@+ ",
" +@@@@@@@@@@@@@@@@@@+ ",
" +@@@@@@@@@@@@@@@@@@+ ",
" +@#$$$$$$$$$$$$$$%@+ ",
" +@&**************=@+ ",
" +@@@@@@@@@@@@@@@@@@+ ",
" +@@@@@@@@@@@@@@@@@@+ ",
" +@@@@@@@@@@@@@@@@@@+ ",
" +@@@@@@@@@@@@@@@@@@+ ",
" +@@@@@@@@@@@@@@@@@@+ ",
" +@@@@@@@@@@@@@@@@@@+ ",
" +@@@@@@@@@@@@@@@@@@+ ",
" +@@@@@@@@@@@@@@@@@@+ ",
" .++++++++++++++++++. ",
"                      "};
