/* XPM */
static char * bar2_xpm[] = {
"20 20 79 1",
" 	c None",
".	c #FFD6B3",
"+	c #F8CDAB",
"@	c #F8CDAA",
"#	c #F7CDAA",
"$	c #F8CEAA",
"%	c #F7CEAB",
"&	c #F7CEAA",
"*	c #F7CDAB",
"=	c #F0C5A1",
"-	c #F0C5A2",
";	c #F0C4A1",
">	c #E8BC98",
",	c #E9BC99",
"'	c #E8BD99",
")	c #E9BD98",
"!	c #E9BD99",
"~	c #E8BC99",
"{	c #E1B490",
"]	c #E1B390",
"^	c #DAAB87",
"/	c #D9AB87",
"(	c #D9AC87",
"_	c #D9AB88",
":	c #DAAC87",
"<	c #DAAB88",
"[	c #D9AC88",
"}	c #D2A37E",
"|	c #D2A27E",
"1	c #D2A27F",
"2	c #D2A37F",
"3	c #CB9A76",
"4	c #CB9A75",
"5	c #CA9A75",
"6	c #CA9A76",
"7	c #CA9B76",
"8	c #C3926D",
"9	c #C3916D",
"0	c #BB8965",
"a	c #BC8965",
"b	c #BC8964",
"c	c #BB8964",
"d	c #B4805C",
"e	c #B4815C",
"f	c #B4805B",
"g	c #B4815B",
"h	c #AC7753",
"i	c #AC7852",
"j	c #AC7853",
"k	c #AD7853",
"l	c #AD7852",
"m	c #A56F4A",
"n	c #A5704A",
"o	c #9E6741",
"p	c #9E6742",
"q	c #9D6741",
"r	c #9D6742",
"s	c #9E6641",
"t	c #9D6641",
"u	c #965E38",
"v	c #965E39",
"w	c #965F38",
"x	c #965F39",
"y	c #8F5630",
"z	c #8E5630",
"A	c #8F5530",
"B	c #8E5530",
"C	c #8E552F",
"D	c #8E562F",
"E	c #8F552F",
"F	c #874D27",
"G	c #915933",
"H	c #915833",
"I	c #915832",
"J	c #915932",
"K	c #9B643F",
"L	c #9B633F",
"M	c #9B633E",
"N	c #9B643E",
"....................",
"+@+#$@#+@%$&$%$*#&#%",
"====-==;-=-;=====-==",
">,')>!,~,,~',>','~~~",
"{]]{{{{{{{{{{{{{]{{{",
"^^/(_/(://__//^<:/[_",
"}}|121}}2}}}1||}}21}",
"33435355365476656345",
"88999988999989988998",
"0abbbca0ba0cccabcacc",
"deffffggedddeddedffd",
"hijhkhlkklkkhkjiklkk",
"mmnmnmnmmmmmnmmmnmmm",
"opooqoroosossqtqsqpo",
"uuvuuvuwvuxxuuvuuvuw",
"yzzzAyzBBBBAzyCCzDAE",
"FFFFFFFFFFFFFFFFFFFF",
"GHHGHHIIHHJIGGIGGHHJ",
"KKLMNNNLMNLNMLMNNNMK",
"mmmmmmmmmmmmmmmmmmmm"};
