/* XPM */
static char * max1_xpm[] = {
"20 20 56 1",
" 	c None",
".	c #9A6866",
"+	c #946360",
"@	c #946260",
"#	c #94625F",
"$	c #94635F",
"%	c #8E5D59",
"&	c #8E5E5A",
"*	c #8E5E59",
"=	c #885853",
"-	c #885753",
";	c #885852",
">	c #82534D",
",	c #82524C",
"'	c #82524D",
")	c #82534C",
"!	c #7C4D46",
"~	c #7C4D47",
"{	c #7C4E46",
"]	c #76483F",
"^	c #764840",
"/	c #000000",
"(	c #764740",
"_	c #704239",
":	c #704339",
"<	c #70423A",
"[	c #70433A",
"}	c #6A3D33",
"|	c #64372D",
"1	c #64382D",
"2	c #64372C",
"3	c #64382C",
"4	c #5E3226",
"5	c #5E3227",
"6	c #5E3327",
"7	c #5E3326",
"8	c #582D20",
"9	c #52271A",
"0	c #522819",
"a	c #522719",
"b	c #52281A",
"c	c #4C2214",
"d	c #4C2213",
"e	c #4C2313",
"f	c #461D0D",
"g	c #461D0C",
"h	c #461C0D",
"i	c #401706",
"j	c #401707",
"k	c #401806",
"l	c #401807",
"m	c #3B1200",
"n	c #441B0A",
"o	c #441B0B",
"p	c #4E2415",
"q	c #4E2416",
"....................",
"++@#@+$$@@++@+#@$+@+",
"%%%%%%%%%%%%%&&*%*&*",
"=-;==;===-;===;=====",
">,'),'>')))>,,''),>)",
"!!!~!~!{~{~!!!!!~!!!",
"]]]^^^^^//////^^^^(]",
"_:<[:_:</[<::/__:<_:",
"}}}}}}}}/}}}}/}}}}}}",
"|1223||2/3221/1||3||",
"455445///4546/547545",
"888888/8//////888888",
"9099a0/ba/babb00009b",
"cdddee////dddddddddd",
"fffgffghgfghfghfffff",
"ijjklkikijjkkjijikji",
"mmmmmmmmmmmmmmmmmmmm",
"nnonoooooonnonoonoon",
"ppqpqpqpqpppppqqqqqp",
"88888888888888888888"};
