/* XPM */
static char * stick2a_xpm[] = {
"20 20 90 1",
" 	c None",
".	c #9A6866",
"+	c #946360",
"@	c #946260",
"#	c #94625F",
"$	c #94635F",
"%	c #8E5D59",
"&	c #8E5E5A",
"*	c #8E5E59",
"=	c #885853",
"-	c #885753",
";	c #885852",
">	c #82534D",
",	c #82524C",
"'	c #82524D",
")	c #82534C",
"!	c #7C4D46",
"~	c #7C4D47",
"{	c #D9AC87",
"]	c #DAAC87",
"^	c #D9AB87",
"/	c #D9AB88",
"(	c #76483F",
"_	c #764840",
":	c #D2A27F",
"<	c #D2A37E",
"[	c #D2A37F",
"}	c #D2A27E",
"|	c #764740",
"1	c #704239",
"2	c #704339",
"3	c #70423A",
"4	c #70433A",
"5	c #CB9A76",
"6	c #CA9A75",
"7	c #CA9A76",
"8	c #CB9A75",
"9	c #CA9B76",
"0	c #6A3D33",
"a	c #C3916D",
"b	c #C3926D",
"c	c #64372D",
"d	c #64382D",
"e	c #64372C",
"f	c #64382C",
"g	c #BB8964",
"h	c #BC8965",
"i	c #BB8965",
"j	c #BC8964",
"k	c #5E3226",
"l	c #5E3227",
"m	c #B4805B",
"n	c #B4815B",
"o	c #B4815C",
"p	c #B4805C",
"q	c #5E3326",
"r	c #582D20",
"s	c #AC7753",
"t	c #AD7852",
"u	c #AD7853",
"v	c #AC7853",
"w	c #52271A",
"x	c #522819",
"y	c #522719",
"z	c #A56F4A",
"A	c #A5704A",
"B	c #52281A",
"C	c #4C2214",
"D	c #4C2213",
"E	c #4C2313",
"F	c #9E6741",
"G	c #9D6742",
"H	c #9E6641",
"I	c #9D6741",
"J	c #9D6641",
"K	c #461D0D",
"L	c #461D0C",
"M	c #965E38",
"N	c #965F38",
"O	c #965E39",
"P	c #965F39",
"Q	c #401706",
"R	c #401707",
"S	c #401806",
"T	c #401807",
"U	c #3B1200",
"V	c #441B0A",
"W	c #441B0B",
"X	c #4E2415",
"Y	c #4E2416",
"....................",
"++@#@+$$@@++@+#@$+@+",
"%%%%%%%%%%%%%&&*%*&*",
"=-;==;===-;===;=====",
">,'),'>')))>,,''),>)",
"!!!~!~{]^^//^^~!~!!!",
"(((__:<<[<<<:}}___|(",
"12342566576897712312",
"00000abbaaaabaa00000",
"cdeefghijhiggghccfcc",
"kllkkmnnopppoppkqlkl",
"rrrrrstuutuusuvrrrrr",
"wxwwyzAzzzzzAzzxxxwB",
"CDDDEFGFFHFHHIJDDDDD",
"KKKLKKMNOMPPMMKKKKKK",
"QRRSTSQSQRRSSRQRQSRQ",
"UUUUUUUUUUUUUUUUUUUU",
"VVWVWWWWWWVVWVWWVWWV",
"XXYXYXYXYXXXXXYYYYYX",
"rrrrrrrrrrrrrrrrrrrr"};
