/* XPM */
static char * stick2_xpm[] = {
"20 20 57 1",
" 	c None",
".	c #9A6866",
"+	c #946360",
"@	c #946260",
"#	c #94625F",
"$	c #94635F",
"%	c #8E5D59",
"&	c #8E5E5A",
"*	c #8E5E59",
"=	c #885853",
"-	c #885753",
";	c #885852",
">	c #82534D",
",	c #82524C",
"'	c #82524D",
")	c #82534C",
"!	c #7C4D46",
"~	c #7C4D47",
"{	c #461D0C",
"]	c #461C0D",
"^	c #461D0D",
"/	c #76483F",
"(	c #764840",
"_	c #4C2313",
":	c #4C2314",
"<	c #4C2214",
"[	c #4C2213",
"}	c #764740",
"|	c #704239",
"1	c #704339",
"2	c #70423A",
"3	c #70433A",
"4	c #522819",
"5	c #52281A",
"6	c #522719",
"7	c #6A3D33",
"8	c #582D20",
"9	c #582D1F",
"0	c #64372D",
"a	c #64382D",
"b	c #64372C",
"c	c #64382C",
"d	c #5E3227",
"e	c #5E3226",
"f	c #5E3327",
"g	c #5E3326",
"h	c #52271A",
"i	c #7C4E46",
"j	c #401706",
"k	c #401707",
"l	c #401806",
"m	c #401807",
"n	c #3B1200",
"o	c #441B0A",
"p	c #441B0B",
"q	c #4E2415",
"r	c #4E2416",
"....................",
"++@#@+$$@@++@+#@$+@+",
"%%%%%%%%%%%%%&&*%*&*",
"=-;==;===-;===;=====",
">,'),'>')))>,,''),>)",
"!!!~!!{]{^{]^{!!~!!!",
"///((__:<[[[[[[(((}/",
"|12314456456554|12|1",
"77777898889888877777",
"0abbcddeeedefgd00c00",
"eddee00bbcbbacaegded",
"88888777777777788888",
"h4hh6|12232111|444h5",
"<[[[_(((//}((}([[[[[",
"^^^{^^!i~i~!!!^^^^^^",
"jkklmljljkkllkjkjlkj",
"nnnnnnnnnnnnnnnnnnnn",
"oopoppppppoopoppoppo",
"qqrqrqrqrqqqqqrrrrrq",
"88888888888888888888"};
