/* XPM */
static char * stick_xpm[] = {
"17 17 97 2",
"  	c None",
". 	c #F5F5F5",
"+ 	c #F3F4F4",
"@ 	c #F4F4F5",
"# 	c #F3F4F5",
"$ 	c #F3F3F5",
"% 	c #F4F3F4",
"& 	c #F4F4F4",
"* 	c #F4F3F5",
"= 	c #F1F3F5",
"- 	c #F2F2F4",
"; 	c #F1F2F4",
"> 	c #F1F2F5",
", 	c #F2F3F5",
"' 	c #F1F3F4",
") 	c #F2F3F4",
"! 	c #F0F0F3",
"~ 	c #F0F1F4",
"{ 	c #EFF1F4",
"] 	c #EFF0F4",
"^ 	c #F0F0F4",
"/ 	c #EFF0F3",
"( 	c #EEEFF3",
"_ 	c #EEEFF4",
": 	c #EEF0F4",
"< 	c #EDEFF3",
"[ 	c #EDEFF4",
"} 	c #EDF0F3",
"| 	c #EBEEF2",
"1 	c #EBEDF3",
"2 	c #ECEEF3",
"3 	c #EBEDF2",
"4 	c #000000",
"5 	c #EBEEF3",
"6 	c #ECEDF3",
"7 	c #E9ECF3",
"8 	c #EAECF2",
"9 	c #E9ECF2",
"0 	c #CBCBCB",
"a 	c #C8C8C8",
"b 	c #ABABAB",
"c 	c #E7EAF2",
"d 	c #E8EAF2",
"e 	c #A0A0A0",
"f 	c #8A8A8A",
"g 	c #B8B8B8",
"h 	c #E7EBF2",
"i 	c #E5E8F2",
"j 	c #E5E9F1",
"k 	c #E6E9F1",
"l 	c #E5E9F2",
"m 	c #9B9B9B",
"n 	c #848484",
"o 	c #B3B3B3",
"p 	c #E6E9F2",
"q 	c #E3E7F1",
"r 	c #E4E7F1",
"s 	c #E4E7F2",
"t 	c #929292",
"u 	c #808080",
"v 	c #A3A3A3",
"w 	c #E3E7F2",
"x 	c #E1E6F1",
"y 	c #E1E5F1",
"z 	c #E2E6F0",
"A 	c #7C7C7C",
"B 	c #B6B6B6",
"C 	c #E2E5F1",
"D 	c #DFE4F1",
"E 	c #DFE4F0",
"F 	c #E0E4F0",
"G 	c #DFE3F1",
"H 	c #DDE2F0",
"I 	c #DEE2EF",
"J 	c #DDE3F0",
"K 	c #DEE2F0",
"L 	c #DDE2EF",
"M 	c #DEE3F0",
"N 	c #DDE3EF",
"O 	c #DBE1EF",
"P 	c #DBE0F0",
"Q 	c #DBE1F0",
"R 	c #DCE0F0",
"S 	c #DBE0EF",
"T 	c #DCE1EF",
"U 	c #D9DFEE",
"V 	c #D9E0EF",
"W 	c #DAE0EF",
"X 	c #D9DFEF",
"Y 	c #DADFEF",
"Z 	c #D7DEEE",
"` 	c #D7DDEE",
" .	c #D7DEEF",
"..	c #D7DDEF",
"+.	c #D8DEEE",
"@.	c #D8DDEF",
"#.	c #D5DCEE",
". . . . . . . . . . . . . . . . . ",
"+ + @ @ # @ @ $ @ + @ @ % @ & @ * ",
"= - ; - - > , ; - ; ' - > ' > ) - ",
"! ~ { ~ { ] { { { { ~ ^ / ~ { { { ",
"( _ : _ < ( [ < ( < [ } ( _ < ( < ",
"| 1 2 1 3 4 4 4 4 4 4 4 2 5 5 6 1 ",
"7 7 7 8 9 4 0 a a a b 4 9 7 9 8 8 ",
"c d d d c 4 e f f f g 4 d c c h c ",
"i j k l k 4 m n n n o 4 p p j l l ",
"q q r s q 4 t u u u v 4 q w q q q ",
"x x y z x 4 A B B B B 4 C x x x y ",
"D E E E F 4 4 4 4 4 4 4 E D G E E ",
"H I J H K H J H J L J H H M J N J ",
"O O P Q P R O O Q S O T O O T P Q ",
"U V W X X U X X X X U X Y X Y X X ",
"Z `  .Z Z Z ..Z ` .. .+. ... .@.Z ",
"#.#.#.#.#.#.#.#.#.#.#.#.#.#.#.#.#."};
