/* XPM */
static char * wtitle_xpm[] = {
"17 17 90 1",
" 	c #F5F5F5",
".	c #F3F4F4",
"+	c #F4F4F5",
"@	c #F3F4F5",
"#	c #F3F3F5",
"$	c #F4F3F4",
"%	c #F4F4F4",
"&	c #F4F3F5",
"*	c #F1F3F5",
"=	c #F2F2F4",
"-	c #F1F2F4",
";	c #F1F2F5",
">	c #F2F3F5",
",	c #F1F3F4",
"'	c #F2F3F4",
")	c #F0F0F3",
"!	c #F0F1F4",
"~	c #EFF1F4",
"{	c #EFF0F4",
"]	c #F0F0F4",
"^	c #EFF0F3",
"/	c #EEEFF3",
"(	c #EEEFF4",
"_	c #EEF0F4",
":	c #EDEFF3",
"<	c #EDEFF4",
"[	c #EDF0F3",
"}	c #EBEEF2",
"|	c #EBEDF3",
"1	c #ECEEF3",
"2	c #EBEDF2",
"3	c #ECEDF3",
"4	c #EBEEF3",
"5	c #E9ECF3",
"6	c #EAECF2",
"7	c #E9ECF2",
"8	c #EAECF3",
"9	c #EAEBF3",
"0	c #E7EAF2",
"a	c #E8EAF2",
"b	c #E7EBF2",
"c	c #E8EBF2",
"d	c #E5E8F2",
"e	c #E5E9F1",
"f	c #E6E9F1",
"g	c #E5E9F2",
"h	c #E5E8F1",
"i	c #E6E8F2",
"j	c #E6E9F2",
"k	c #E3E7F1",
"l	c #E4E7F1",
"m	c #E4E7F2",
"n	c #E3E8F2",
"o	c #E3E8F1",
"p	c #E3E7F2",
"q	c #E1E6F1",
"r	c #E1E5F1",
"s	c #E2E6F0",
"t	c #E2E5F1",
"u	c #E1E6F0",
"v	c #E1E5F0",
"w	c #DFE4F1",
"x	c #DFE4F0",
"y	c #E0E4F0",
"z	c #DFE3F1",
"A	c #DDE2F0",
"B	c #DEE2EF",
"C	c #DDE3F0",
"D	c #DEE2F0",
"E	c #DDE2EF",
"F	c #DEE3F0",
"G	c #DDE3EF",
"H	c #DBE1EF",
"I	c #DBE0F0",
"J	c #DBE1F0",
"K	c #DCE0F0",
"L	c #DBE0EF",
"M	c #DCE1EF",
"N	c #D9DFEE",
"O	c #D9E0EF",
"P	c #DAE0EF",
"Q	c #D9DFEF",
"R	c #DADFEF",
"S	c #D7DEEE",
"T	c #D7DDEE",
"U	c #D7DEEF",
"V	c #D7DDEF",
"W	c #D8DEEE",
"X	c #D8DDEF",
"Y	c #D5DCEE",
"                 ",
"..++@++#+.++$+%+&",
"*=-==;>-=-,=;,;'=",
")!~!~{~~~~!]^!~~~",
"/(_(:/<:/:<[/(:/:",
"}|1|2134}1441443|",
"55567868595775766",
"0aaa0bccb0a0a00b0",
"defgfehheijgjjegg",
"kklmknkkkmkokpkkk",
"qqrsqqqrtruvtqqqr",
"wxxxyxxxxxyxxwzxx",
"ABCADACACECAAFCGC",
"HHIJIKHHJLHMHHMIJ",
"NOPQQNQQQQNQRQRQQ",
"STUSSSVSTVUWUVUXS",
"YYYYYYYYYYYYYYYYY"};
