/* XPM */
static char * focus_stuck_xpm[] = {
"16 16 4 1",
" 	c #FFFEDB",
".	c #FFFFFF",
"+	c #3D2A00",
"@	c #654500",
"                ",
"                ",
"  ............  ",
"  .++++++++++.  ",
"  .+@@@@@@@@@.  ",
"  .+@@@@@@@@@.  ",
"  .+@@@@@@@@@.  ",
"  .+@@@  @@@@.  ",
"  .+@@@  +@@@.  ",
" ..+@@@@++@@@.. ",
" ..+@@@@@@@@@.. ",
" ..+@@@@@@@@@.. ",
" ..+@@@@@@@@@.. ",
" .............. ",
"                ",
"                "};
