/* XPM */
static char * unfocus_max_xpm[] = {
"16 16 3 1",
" 	c #FFFEDB",
".	c #3D2A00",
"+	c #665C46",
"                ",
"                ",
"  ............  ",
"  .+++++++++++  ",
"  .+++      ++  ",
"  .+++      .+  ",
"  .++++.    .+  ",
"  .++++     .+  ",
"  .+++   .  .+  ",
"  .++   .+  .+  ",
"  .+   .+++..+  ",
"  .+  .+++++++  ",
"  .++.++++++++  ",
"  .+++++++++++  ",
"                ",
"                "};
