/* XPM */
static char * icon_xpm[] = {
"22 22 171 2",
"  	c None",
". 	c #FFFFFF",
"+ 	c #FEFEFF",
"@ 	c #FEFEFE",
"# 	c #FCFDFC",
"$ 	c #F7F7F8",
"% 	c #F4F4F4",
"& 	c #F2F2F2",
"* 	c #FDFDFD",
"= 	c #F8F9F9",
"- 	c #F3F3F2",
"; 	c #F3F2F3",
"> 	c #F2F3F3",
", 	c #F2F3F2",
"' 	c #F3F3F3",
") 	c #F3F2F2",
"! 	c #FCFCFC",
"~ 	c #F8F8F8",
"{ 	c #F4F3F3",
"] 	c #F3F3F4",
"^ 	c #F4F4F3",
"/ 	c #FBFAFB",
"( 	c #F9FAFA",
"_ 	c #F4F3F4",
": 	c #F3F4F4",
"< 	c #C2A8C2",
"[ 	c #824182",
"} 	c #711571",
"| 	c #691269",
"1 	c #803D80",
"2 	c #C4AAC4",
"3 	c #FAF9FA",
"4 	c #F6F6F7",
"5 	c #F4F5F5",
"6 	c #F5F4F5",
"7 	c #F5F4F4",
"8 	c #F5F5F5",
"9 	c #E7E1E7",
"0 	c #7E367E",
"a 	c #821782",
"b 	c #922C92",
"c 	c #9B379B",
"d 	c #9C399C",
"e 	c #752E75",
"f 	c #E6E0E6",
"g 	c #F5F5F4",
"h 	c #F4F4F5",
"i 	c #F8F8F9",
"j 	c #F6F6F5",
"k 	c #F5F6F5",
"l 	c #F6F6F6",
"m 	c #E0D8E0",
"n 	c #7E277E",
"o 	c #8B228B",
"p 	c #9E3C9E",
"q 	c #9F3E9F",
"r 	c #993499",
"s 	c #891F89",
"t 	c #7F297F",
"u 	c #E1D9E2",
"v 	c #F6F5F5",
"w 	c #F5F5F6",
"x 	c #F7F6F8",
"y 	c #F7F6F6",
"z 	c #F6F7F7",
"A 	c #772A77",
"B 	c #851A85",
"C 	c #912A91",
"D 	c #8C238C",
"E 	c #8F278F",
"F 	c #902990",
"G 	c #861C86",
"H 	c #732673",
"I 	c #F7F7F7",
"J 	c #F7F6F7",
"K 	c #B997B9",
"L 	c #7D117D",
"M 	c #881E88",
"N 	c #831883",
"O 	c #7E127E",
"P 	c #BB9ABB",
"Q 	c #F7F8F7",
"R 	c #F8F7F8",
"S 	c #F8F7F7",
"T 	c #F7F8F8",
"U 	c #8C438C",
"V 	c #801480",
"W 	c #7C107C",
"X 	c #841984",
"Y 	c #853B85",
"Z 	c #731073",
"` 	c #5A075A",
" .	c #5C075C",
"..	c #610761",
"+.	c #5F075F",
"@.	c #5E075E",
"#.	c #771477",
"$.	c #F9F8F8",
"%.	c #F2F1F3",
"&.	c #F9F9F9",
"*.	c #F9F9FA",
"=.	c #762B76",
"-.	c #480548",
";.	c #490649",
">.	c #4C064C",
",.	c #782E78",
"'.	c #F9FAF9",
").	c #F0F0F2",
"!.	c #FAFAFA",
"~.	c #AE89AE",
"{.	c #510651",
"].	c #520652",
"^.	c #AD89AD",
"/.	c #EFEFF0",
"(.	c #FBFAFA",
"_.	c #FAFBFB",
":.	c #652165",
"<.	c #4B064B",
"[.	c #632063",
"}.	c #FAFBFA",
"|.	c #EEEEEF",
"1.	c #FBFBFC",
"2.	c #FBFCFC",
"3.	c #FBFCFB",
"4.	c #FCFBFB",
"5.	c #E2D8E2",
"6.	c #511051",
"7.	c #510F51",
"8.	c #E0D7E0",
"9.	c #FBFBFB",
"0.	c #ECECEE",
"a.	c #F4F4F6",
"b.	c #E9E2E9",
"c.	c #592459",
"d.	c #E9E3E9",
"e.	c #ECECED",
"f.	c #FCFDFD",
"g.	c #FDFCFD",
"h.	c #B69AB6",
"i.	c #622E62",
"j.	c #470B47",
"k.	c #430943",
"l.	c #632F63",
"m.	c #B598B5",
"n.	c #FDFDFC",
"o.	c #EAEAEB",
"p.	c #EAEAEC",
"q.	c #F1F1F2",
"r.	c #FEFEFD",
"s.	c #FEFDFE",
"t.	c #FDFEFE",
"u.	c #FEFDFD",
"v.	c #FDFEFD",
"w.	c #FDFDFE",
"x.	c #E9E9EB",
"y.	c #E8E9EA",
"z.	c #F1F1F1",
"A.	c #FEFFFE",
"B.	c #FFFEFF",
"C.	c #E8E8EA",
"D.	c #E7E7E9",
"E.	c #E8E7E9",
"F.	c #E7E7EA",
"G.	c #FAFAFB",
"H.	c #E6E6E8",
"I.	c #E6E7E8",
"J.	c #E6E7E9",
"K.	c #E7E6E8",
"L.	c #E7E7E8",
"M.	c #E6E6E9",
"N.	c #ABABB0",
". . . . . . . . . . . . . . . . . . . . . . ",
"+ @ + @ # $ % & & & & & & & & & & & & & & & ",
"* * * = - ; & > & , > ' ) , > ) , ' ' , ; ; ",
"! ! ~ { ] ' ' ' ' ' ' ' ' ' ' ^ ' ] ' ] ' ' ",
"/ ( % _ % % ^ % : < [ } | 1 2 _ % _ % : % % ",
"3 4 5 6 5 7 8 9 0 a b c d b a e f 8 8 g h h ",
"i j k 8 j l m n o p q r b c c s t u v w w w ",
"x l y l z l A B b C D E F F b b G H z 4 y y ",
"w l I z J K L M s N s M M B N s s O P 4 I I ",
"h Q R S T U V O W V a O V X V W L V Y ~ $ $ ",
"' ~ ~ ~ ~ Z `  ... . .+. .` ` @.@. .#.$.= = ",
"%.( &.*.&.=.-.-.-.-.-.;.-.-.>.>.-.-.,.&.'.'.",
").!.!.( !.~.{.-.-.-.-.;.-.-.-.-.-.].^.( !.!.",
"/.&.(._._./ :.-.-.<.-.-.-.-.;.-.<.[.(.!.}.}.",
"|.$.1.2.3.4.5.6.-.-.-.-.-.-.-.-.7.8.9.3.9.9.",
"0.a.! ! ! ! ! b.c.-.-.-.-.-.<.c.d.! ! ! # # ",
"e.0.! f.f.* * g.* h.i.j.k.l.m.# g.n.g.n.f.f.",
"o.p.q.r.s.@ @ t.u.@ u.* v.w.r.u.u.s.r.* v.v.",
"x.y.y.z.* + A.A.@ @ A.@ A.+ @ A.B.@ A.@ @ @ ",
"C.D.E.F.o.] G.@ @ . . . . . . . . . . . . . ",
"H.I.H.J.J.H.H.H.H.H.K.H.K.L.M.H.H.H.H.I.I.I.",
"N.N.N.N.N.N.N.N.N.N.N.N.N.N.N.N.N.N.N.N.N.N."};
