/* XPM */
static char * iconbar_xpm[] = {
"10 19 76 1",
" 	c None",
".	c #6E0065",
"+	c #6E0064",
"@	c #740A6B",
"#	c #730A6B",
"$	c #740A6C",
"%	c #7C1974",
"&	c #7D1A74",
"*	c #7D1975",
"=	c #7C1A74",
"-	c #7D1A75",
";	c #7C1A75",
">	c #85297D",
",	c #85297E",
"'	c #85287D",
")	c #85287E",
"!	c #8E3887",
"~	c #8E3886",
"{	c #8D3886",
"]	c #974790",
"^	c #964790",
"/	c #974890",
"(	c #964890",
"_	c #9F579A",
":	c #9F5799",
"<	c #9F5699",
"[	c #A05799",
"}	c #9F569A",
"|	c #A05699",
"1	c #A866A2",
"2	c #A866A3",
"3	c #A766A3",
"4	c #B175AB",
"5	c #B175AC",
"6	c #B075AC",
"7	c #B176AC",
"8	c #B076AC",
"9	c #BA85B5",
"0	c #B985B5",
"a	c #BA85B6",
"b	c #B984B5",
"c	c #BA84B5",
"d	c #C393BF",
"e	c #C394BE",
"f	c #C294BF",
"g	c #C294BE",
"h	c #CBA3C8",
"i	c #CBA4C8",
"j	c #CAA3C8",
"k	c #CBA3C7",
"l	c #D4B2D1",
"m	c #D3B2D1",
"n	c #D4B3D1",
"o	c #D3B3D1",
"p	c #D3B3D0",
"q	c #DCC2DA",
"r	c #DDC2DA",
"s	c #DDC1DA",
"t	c #DCC1DA",
"u	c #E5D1E3",
"v	c #E5D1E4",
"w	c #E5D2E3",
"x	c #E4D1E3",
"y	c #EEE0ED",
"z	c #EEE1ED",
"A	c #EEE1EC",
"B	c #EDE0ED",
"C	c #EDE1EC",
"D	c #EDE0EC",
"E	c #F6EFF6",
"F	c #F6F0F6",
"G	c #F7F0F6",
"H	c #F6F0F5",
"I	c #F7EFF6",
"J	c #F7F0F5",
"K	c #FFFFFF",
"......+..+",
"@@@##@@#$@",
"%&*=&*%=-;",
">,>''>)',)",
"!!!!~~!{!!",
"]^/]](^]]]",
"_:<:_[}_:|",
"1112321121",
"4555667568",
"90ab099b0c",
"defggfggge",
"hiiijikhik",
"lmnlopplon",
"qqrqstrrrs",
"uvuuvvuwux",
"yzyAzBCDAD",
"EFFGHIFHJH",
"KKKKKKKKKK",
"KKKKKKKKKK"};
