/* XPM */
static char * iconbar_focus_xpm[] = {
"1 22 5 1",
" 	c None",
".	c #FEFEFE",
"+	c #5076A6",
"@	c #D1D1D1",
"#	c #C1C1C1",
".",
"+",
"+",
"+",
"+",
"+",
"+",
"+",
"+",
"+",
"+",
"+",
"+",
"+",
"+",
"+",
"+",
"+",
"+",
"+",
"@",
"#"};
