/* XPM */
static char * max_xpm[] = {
"25 25 89 1",
" 	c None",
".	c #FFFFFF",
"+	c #FEFEFE",
"@	c #FEFFFE",
"#	c #FDFDFE",
"$	c #FEFEFF",
"%	c #FFFEFF",
"&	c #FFFEFE",
"*	c #FEFFFF",
"=	c #C1E4FF",
"-	c #FEFEFD",
";	c #FEFDFD",
">	c #FDFCFD",
",	c #FCFDFD",
"'	c #FCFCFD",
")	c #193C66",
"!	c #FDFDFD",
"~	c #FCFCFC",
"{	c #FCFBFC",
"]	c #FBFCFC",
"^	c #FBFBFB",
"/	c #FAFBFB",
"(	c #FBFAFB",
"_	c #FBFBFA",
":	c #FAFAFA",
"<	c #F9F9F9",
"[	c #F9FAFA",
"}	c #F9F9FA",
"|	c #F8F8F9",
"1	c #F9F9F8",
"2	c #F8F9F9",
"3	c #F9F8F8",
"4	c #F7F8F7",
"5	c #F7F7F8",
"6	c #F8F7F7",
"7	c #F8F8F8",
"8	c #F7F7F7",
"9	c #F6F7F7",
"0	c #5076A6",
"a	c #F7F6F6",
"b	c #F7F6F7",
"c	c #F6F6F6",
"d	c #F6F6F5",
"e	c #F6F5F5",
"f	c #F5F5F5",
"g	c #F5F6F5",
"h	c #F4F5F4",
"i	c #F4F4F4",
"j	c #F5F5F4",
"k	c #F5F4F4",
"l	c #F4F5F5",
"m	c #F5F4F5",
"n	c #F3F4F4",
"o	c #F3F3F3",
"p	c #F3F4F3",
"q	c #F3F3F4",
"r	c #F3F2F2",
"s	c #F2F3F3",
"t	c #F2F2F2",
"u	c #F2F2F3",
"v	c #F3F3F2",
"w	c #F2F1F2",
"x	c #F1F2F1",
"y	c #F1F1F1",
"z	c #F1F0F1",
"A	c #F0F0F0",
"B	c #F0F1F0",
"C	c #F0F0F1",
"D	c #EFEFF0",
"E	c #EFEFEF",
"F	c #F0EFEF",
"G	c #EFF0EF",
"H	c #EFEFEE",
"I	c #EEEFEF",
"J	c #EEEFEE",
"K	c #EFEEEE",
"L	c #EFEEEF",
"M	c #EEEEEE",
"N	c #EDEEEE",
"O	c #EEEDEE",
"P	c #EDEDEE",
"Q	c #EDEDED",
"R	c #EEEDED",
"S	c #EEEEED",
"T	c #EDECEC",
"U	c #ECEDED",
"V	c #EDECED",
"W	c #EDEDEC",
"X	c #ECECEC",
".........................",
".........................",
"+@##++++$%$%+++++@++@&$+*",
"+###================#+-;+",
">,'==))))))))))))))==!~!!",
"~{]=))))))))))))))))=~~^~",
"/^(=))))))))))))))))=^_^/",
":::=))))))))))))))))=::::",
"<<<=))))))))))))))))=<[<}",
"|11=))))))))))))))))=2||3",
"455=))))))))))))))))=5667",
"898=0000000000000000=ab99",
"cdc=0000000000000000=cccc",
"eff=0000000000000000=gfff",
"hij=0000000000000000=jklm",
"non=0000000000000000=poqi",
"rrs=0000000000000000=truv",
"ttt=0000000000000000=wxtt",
"yyy=0000000000000000=yyyy",
"zAB==00000000000000==CAAA",
"DEEE================EFAGG",
"HIJEKEHJLJKEEIHLHKEKKLLHM",
"NNOOPQNROMSNOORPPMMSMSPMO",
"QTQUQUVUQQQQQWQQQQQQTUQQQ",
"XXXXXXXXXXXXXXXXXXXXXXXXX"};
