/* XPM */
static char * pressed_xpm[] = {
"25 25 100 2",
"  	c None",
". 	c #C1E4FF",
"+ 	c #47A8F4",
"@ 	c #46A8F3",
"# 	c #47A7F3",
"$ 	c #46A8F4",
"% 	c #47A7F4",
"& 	c #46A7F4",
"* 	c #47A8F3",
"= 	c #46A7F3",
"- 	c #44A3ED",
"; 	c #45A2EC",
"> 	c #44A3EC",
", 	c #44A2EC",
"' 	c #45A3ED",
") 	c #44A2ED",
"! 	c #45A2ED",
"~ 	c #45A3EC",
"{ 	c #429DE6",
"] 	c #439DE6",
"^ 	c #458AC5",
"/ 	c #429DE5",
"( 	c #429EE6",
"_ 	c #4098DF",
": 	c #4099DF",
"< 	c #49ADFA",
"[ 	c #3E93D9",
"} 	c #3E93D8",
"| 	c #193C66",
"1 	c #3D93D9",
"2 	c #3D93D8",
"3 	c #3C8ED2",
"4 	c #3C8DD2",
"5 	c #3B8ED2",
"6 	c #3C8ED1",
"7 	c #3989CB",
"8 	c #3A89CB",
"9 	c #3784C4",
"0 	c #3884C4",
"a 	c #3783C4",
"b 	c #357FBD",
"c 	c #367FBD",
"d 	c #357EBE",
"e 	c #337AB7",
"f 	c #3379B6",
"g 	c #3379B7",
"h 	c #3479B7",
"i 	c #337AB6",
"j 	c #3174B0",
"k 	c #3075B0",
"l 	c #2E6FA9",
"m 	c #2F6FAA",
"n 	c #2F6FA9",
"o 	c #2E6FAA",
"p 	c #2D6AA2",
"q 	c #2D69A2",
"r 	c #2D6AA3",
"s 	c #2C6AA3",
"t 	c #2B659C",
"u 	c #2A659C",
"v 	c #2A649C",
"w 	c #2A659B",
"x 	c #296095",
"y 	c #286095",
"z 	c #285F95",
"A 	c #275A8E",
"B 	c #265B8F",
"C 	c #265A8E",
"D 	c #265B8E",
"E 	c #245588",
"F 	c #245688",
"G 	c #245587",
"H 	c #235587",
"I 	c #215181",
"J 	c #225081",
"K 	c #225181",
"L 	c #204B7A",
"M 	c #204B7B",
"N 	c #1F4B7A",
"O 	c #1E4673",
"P 	c #1D4674",
"Q 	c #263F63",
"R 	c #253F63",
"S 	c #1E4574",
"T 	c #1B416D",
"U 	c #1C416D",
"V 	c #1B416C",
"W 	c #1C406C",
"X 	c #1C406D",
"Y 	c #1C416C",
"Z 	c #193B66",
"` 	c #1A3C66",
" .	c #1A3B66",
"..	c #1B406D",
"+.	c #1B406C",
"@.	c #1D4673",
"#.	c #1D4574",
"$.	c #1E4674",
"%.	c #1D4573",
"&.	c #1E4573",
". . . . . . . . . . . . . . . . . . . . . . . . . ",
"+ @ # $ % # & # @ @ @ $ * * * # * * @ = @ @ * = + ",
"- ; - > - - - , ' ) , > - ) , ) ! - - > - ~ ) ~ ' ",
"{ { ] ^ . . . . . . . . . . . . . . . . ^ { / { ( ",
"_ : _ . . < < < < < < < < < < < < < < . . _ _ _ _ ",
"[ } } . < < < < < < < < < < < < < < | | . } 1 } 2 ",
"3 3 3 . < < < < < < < < < < < < < | | | . 4 5 6 3 ",
"7 8 7 . < < < < < < < < < < < < | | | | . 7 7 8 7 ",
"9 0 a . < < < < < < < < < < < | | | | | . 9 9 0 a ",
"b c d . < < < < < < < < < < | | | | | | . c c d d ",
"e f g . < < < < < < < < < | | | | | | | . h g g i ",
"j j j . < < < < < < < < | | | | | | | | . j k j j ",
"l m l . < < < < < < < | | | | | | | | | . n o n n ",
"p p q . < < < < < < | | | | | | | | | | . r s r s ",
"t u v . < < < < < | | | | | | | | | | | . v v u w ",
"x x y . < < < < | | | | | | | | | | | | . z x y y ",
"A B C . < < < | | | | | | | | | | | | | . C B C D ",
"E E F . < < | | | | | | | | | | | | | | . G H F G ",
"I J J . < | | | | | | | | | | | | | | | . K J J J ",
"L L M . . | | | | | | | | | | | | | | . . N N N L ",
"O P P Q . . . . . . . . . . . . . . . . R P P O S ",
"T U T T T T T T V W X T V U V T Y X U X V U T V X ",
"Z | Z | | | | | | | ` | Z Z Z Z Z | Z |  . .| Z | ",
"V U V ..X U X U U +.V V ..T T X T U X +.U U U T T ",
"@.#.@.O @.$.O P P @.%.&.#.P O @.$.$.O O P O $.S $."};
