/* XPM */
static char * icon_xpm[] = {
"20 21 9 1",
" 	c #FFFFFF",
".	c #DFD9CD",
"+	c #C0BCAF",
"@	c #555A63",
"#	c #859BC1",
"$	c #7386A7",
"%	c #55688C",
"&	c #52678D",
"*	c #EEEBE3",
"                    ",
"....................",
"....................",
"++++++++++++++++++++",
"@@@@@@@@@@@@@@@@@@@@",
"####################",
"#$$$$$$$$$$$$$$$$$$$",
"#$$$$$$%$$$$$$$$$$$$",
"#$$$$$&*%$$$$$$$$$$$",
"#$$$$%%*%%$$$$$$$$$$",
"#$$$&*%*%*&$$$$$$$$$",
"#$$$$%***%$$$$$$$$$$",
"#$$$$$%*%$$$$$$$$$$$",
"#$$$$$$%$$$$$$$$$$$$",
"#$$$$$$$$$$$$$$$$$$$",
"#$$$$$$$$$$$$$$$$$$$",
"@@@@@@@@@@@@@@@@@@@@",
"                    ",
"....................",
"....................",
"...................."};
