/* XPM */
static char * stuck_xpm[] = {
"21 21 9 1",
" 	c None",
".	c #FFFFFF",
"+	c #DFD9CD",
"@	c #C0BCAF",
"#	c #555A63",
"$	c #859BC1",
"%	c #7386A7",
"&	c #EEEBE3",
"*	c #6A7C9A",
".....................",
"+++++++++++++++++++++",
"+++++++++++++++++++++",
"++++@@@@@@@@@@@@@@@@@",
"++++@################",
"++++@#$$$$$$$$$$$$$$$",
"++++@#$%%%%%%%%%%%%%%",
"++++@#$%%%%%%%%%%%%%%",
"++++@#$%%%%%%#%%%%%%%",
"++++@#$%%%%%#&#%%%%%%",
"++++@#$%%%%#&&&#%%%%%",
"++++@#$%%%#&&#&&#%%%%",
"++++@#$%%%###$###%%%%",
"++++@#$%%%$$$%$$$%%%%",
"++++@#$%%%%%%%%%%%%%%",
"++++@#$**************",
"++++@################",
"++++.................",
"+++++++++++++++++++++",
"+++++++++++++++++++++",
"+++++++++++++++++++++"};
